<svg version="1.1" xmlns="http://www.w3.org/2000/svg" xmlns:xlink="http://www.w3.org/1999/xlink" width="58.06234" height="97.31028" viewBox="0,0,58.06234,97.31028"><defs><radialGradient cx="218.29177" cy="218.93234" r="13.99958" gradientUnits="userSpaceOnUse" id="color-1"><stop offset="0" stop-color="#ff9300"/><stop offset="1" stop-color="#ff9300" stop-opacity="0"/></radialGradient><radialGradient cx="225.94109" cy="229.38643" r="13.99958" gradientUnits="userSpaceOnUse" id="color-2"><stop offset="0" stop-color="#ff9300"/><stop offset="1" stop-color="#ff9300" stop-opacity="0"/></radialGradient><radialGradient cx="217.74259" cy="216.57209" r="10.66685" gradientUnits="userSpaceOnUse" id="color-3"><stop offset="0" stop-color="#ffb82b"/><stop offset="1" stop-color="#ffb82b" stop-opacity="0"/></radialGradient><radialGradient cx="226.40101" cy="230.31848" r="10.66685" gradientUnits="userSpaceOnUse" id="color-4"><stop offset="0" stop-color="#ffb82b"/><stop offset="1" stop-color="#ffb82b" stop-opacity="0"/></radialGradient><radialGradient cx="212.51043" cy="220.80211" r="8.14519" gradientUnits="userSpaceOnUse" id="color-5"><stop offset="0" stop-color="#ff6f00"/><stop offset="1" stop-color="#ff6f00" stop-opacity="0"/></radialGradient><radialGradient cx="225.17451" cy="221.08106" r="6.19257" gradientUnits="userSpaceOnUse" id="color-6"><stop offset="0" stop-color="#ff6f00"/><stop offset="1" stop-color="#ff6f00" stop-opacity="0"/></radialGradient><radialGradient cx="210.69072" cy="208.1938" r="5.02101" gradientUnits="userSpaceOnUse" id="color-7"><stop offset="0" stop-color="#ff6f00"/><stop offset="1" stop-color="#ff6f00" stop-opacity="0"/></radialGradient><radialGradient cx="224.05874" cy="211.82008" r="4.29575" gradientUnits="userSpaceOnUse" id="color-8"><stop offset="0" stop-color="#ff6f00"/><stop offset="1" stop-color="#ff6f00" stop-opacity="0"/></radialGradient><radialGradient cx="216.82539" cy="212.60649" r="15.21957" gradientUnits="userSpaceOnUse" id="color-9"><stop offset="0" stop-color="#ff6f00"/><stop offset="1" stop-color="#ff6f00" stop-opacity="0"/></radialGradient><radialGradient cx="219.43793" cy="217.79794" r="15.21957" gradientUnits="userSpaceOnUse" id="color-10"><stop offset="0" stop-color="#ff6f00"/><stop offset="1" stop-color="#ff6f00" stop-opacity="0"/></radialGradient><radialGradient cx="217.88847" cy="216.53984" r="12.40746" gradientUnits="userSpaceOnUse" id="color-11"><stop offset="0" stop-color="#ff6f00"/><stop offset="1" stop-color="#ff6f00" stop-opacity="0"/></radialGradient><radialGradient cx="218.82573" cy="218.45898" r="8.61381" gradientUnits="userSpaceOnUse" id="color-12"><stop offset="0" stop-color="#ff6f00"/><stop offset="1" stop-color="#ff6f00" stop-opacity="0"/></radialGradient><radialGradient cx="215.04525" cy="217.214" r="8.61381" gradientUnits="userSpaceOnUse" id="color-13"><stop offset="0" stop-color="#ff6f00"/><stop offset="1" stop-color="#ff6f00" stop-opacity="0"/></radialGradient><radialGradient cx="214.27336" cy="219.17307" r="5.48963" gradientUnits="userSpaceOnUse" id="color-14"><stop offset="0" stop-color="#ff6f00"/><stop offset="1" stop-color="#ff6f00" stop-opacity="0"/></radialGradient><radialGradient cx="231.63317" cy="226.08846" r="8.14519" gradientUnits="userSpaceOnUse" id="color-15"><stop offset="0" stop-color="#ff6f00"/><stop offset="1" stop-color="#ff6f00" stop-opacity="0"/></radialGradient><radialGradient cx="218.96909" cy="225.80951" r="6.19257" gradientUnits="userSpaceOnUse" id="color-16"><stop offset="0" stop-color="#ff6f00"/><stop offset="1" stop-color="#ff6f00" stop-opacity="0"/></radialGradient><radialGradient cx="233.45288" cy="238.69676" r="5.02101" gradientUnits="userSpaceOnUse" id="color-17"><stop offset="0" stop-color="#ff6f00"/><stop offset="1" stop-color="#ff6f00" stop-opacity="0"/></radialGradient><radialGradient cx="220.08486" cy="235.07048" r="4.29575" gradientUnits="userSpaceOnUse" id="color-18"><stop offset="0" stop-color="#ff6f00"/><stop offset="1" stop-color="#ff6f00" stop-opacity="0"/></radialGradient><radialGradient cx="227.31821" cy="234.28408" r="15.21957" gradientUnits="userSpaceOnUse" id="color-19"><stop offset="0" stop-color="#ff6f00"/><stop offset="1" stop-color="#ff6f00" stop-opacity="0"/></radialGradient><radialGradient cx="224.70567" cy="229.09263" r="15.21957" gradientUnits="userSpaceOnUse" id="color-20"><stop offset="0" stop-color="#ff6f00"/><stop offset="1" stop-color="#ff6f00" stop-opacity="0"/></radialGradient><radialGradient cx="226.25513" cy="230.35073" r="12.40746" gradientUnits="userSpaceOnUse" id="color-21"><stop offset="0" stop-color="#ff6f00"/><stop offset="1" stop-color="#ff6f00" stop-opacity="0"/></radialGradient><radialGradient cx="225.31787" cy="228.43159" r="8.61381" gradientUnits="userSpaceOnUse" id="color-22"><stop offset="0" stop-color="#ff6f00"/><stop offset="1" stop-color="#ff6f00" stop-opacity="0"/></radialGradient><radialGradient cx="229.09835" cy="229.67657" r="8.61381" gradientUnits="userSpaceOnUse" id="color-23"><stop offset="0" stop-color="#ff6f00"/><stop offset="1" stop-color="#ff6f00" stop-opacity="0"/></radialGradient><radialGradient cx="229.87024" cy="227.7175" r="5.48963" gradientUnits="userSpaceOnUse" id="color-24"><stop offset="0" stop-color="#ff6f00"/><stop offset="1" stop-color="#ff6f00" stop-opacity="0"/></radialGradient><radialGradient cx="226.44302" cy="214.34069" r="5.58787" gradientUnits="userSpaceOnUse" id="color-25"><stop offset="0" stop-color="#f4ff2b"/><stop offset="1" stop-color="#f4ff2b" stop-opacity="0"/></radialGradient><radialGradient cx="225.84285" cy="223.01004" r="4.24831" gradientUnits="userSpaceOnUse" id="color-26"><stop offset="0" stop-color="#f4ff2b"/><stop offset="1" stop-color="#f4ff2b" stop-opacity="0"/></radialGradient><radialGradient cx="235.14193" cy="213.5009" r="3.44458" gradientUnits="userSpaceOnUse" id="color-27"><stop offset="0" stop-color="#f4ff2b"/><stop offset="1" stop-color="#f4ff2b" stop-opacity="0"/></radialGradient><radialGradient cx="232.22517" cy="222.54453" r="2.94703" gradientUnits="userSpaceOnUse" id="color-28"><stop offset="0" stop-color="#f4ff2b"/><stop offset="1" stop-color="#f4ff2b" stop-opacity="0"/></radialGradient><radialGradient cx="231.91989" cy="217.56232" r="10.44113" gradientUnits="userSpaceOnUse" id="color-29"><stop offset="0" stop-color="#f4ff2b"/><stop offset="1" stop-color="#f4ff2b" stop-opacity="0"/></radialGradient><radialGradient cx="228.27796" cy="219.18495" r="10.44113" gradientUnits="userSpaceOnUse" id="color-30"><stop offset="0" stop-color="#f4ff2b"/><stop offset="1" stop-color="#f4ff2b" stop-opacity="0"/></radialGradient><radialGradient cx="229.19014" cy="218.16378" r="8.51193" gradientUnits="userSpaceOnUse" id="color-31"><stop offset="0" stop-color="#f4ff2b"/><stop offset="1" stop-color="#f4ff2b" stop-opacity="0"/></radialGradient><radialGradient cx="227.84473" cy="218.74407" r="5.90936" gradientUnits="userSpaceOnUse" id="color-32"><stop offset="0" stop-color="#f4ff2b"/><stop offset="1" stop-color="#f4ff2b" stop-opacity="0"/></radialGradient><radialGradient cx="228.81999" cy="216.19363" r="5.90936" gradientUnits="userSpaceOnUse" id="color-33"><stop offset="0" stop-color="#f4ff2b"/><stop offset="1" stop-color="#f4ff2b" stop-opacity="0"/></radialGradient><radialGradient cx="227.50241" cy="215.60139" r="3.76607" gradientUnits="userSpaceOnUse" id="color-34"><stop offset="0" stop-color="#f4ff2b"/><stop offset="1" stop-color="#f4ff2b" stop-opacity="0"/></radialGradient><radialGradient cx="216.17785" cy="223.35618" r="5.58787" gradientUnits="userSpaceOnUse" id="color-35"><stop offset="0" stop-color="#f4ff2b"/><stop offset="1" stop-color="#f4ff2b" stop-opacity="0"/></radialGradient><radialGradient cx="215.57768" cy="232.02553" r="4.24831" gradientUnits="userSpaceOnUse" id="color-36"><stop offset="0" stop-color="#f4ff2b"/><stop offset="1" stop-color="#f4ff2b" stop-opacity="0"/></radialGradient><radialGradient cx="224.87676" cy="222.5164" r="3.44458" gradientUnits="userSpaceOnUse" id="color-37"><stop offset="0" stop-color="#f4ff2b"/><stop offset="1" stop-color="#f4ff2b" stop-opacity="0"/></radialGradient><radialGradient cx="221.96" cy="231.56003" r="2.94703" gradientUnits="userSpaceOnUse" id="color-38"><stop offset="0" stop-color="#f4ff2b"/><stop offset="1" stop-color="#f4ff2b" stop-opacity="0"/></radialGradient><radialGradient cx="221.65472" cy="226.57781" r="10.44113" gradientUnits="userSpaceOnUse" id="color-39"><stop offset="0" stop-color="#f4ff2b"/><stop offset="1" stop-color="#f4ff2b" stop-opacity="0"/></radialGradient><radialGradient cx="218.0128" cy="228.20045" r="10.44113" gradientUnits="userSpaceOnUse" id="color-40"><stop offset="0" stop-color="#f4ff2b"/><stop offset="1" stop-color="#f4ff2b" stop-opacity="0"/></radialGradient><radialGradient cx="218.92497" cy="227.17928" r="8.51193" gradientUnits="userSpaceOnUse" id="color-41"><stop offset="0" stop-color="#f4ff2b"/><stop offset="1" stop-color="#f4ff2b" stop-opacity="0"/></radialGradient><radialGradient cx="217.57957" cy="227.75957" r="5.90936" gradientUnits="userSpaceOnUse" id="color-42"><stop offset="0" stop-color="#f4ff2b"/><stop offset="1" stop-color="#f4ff2b" stop-opacity="0"/></radialGradient><radialGradient cx="218.55482" cy="225.20912" r="5.90936" gradientUnits="userSpaceOnUse" id="color-43"><stop offset="0" stop-color="#f4ff2b"/><stop offset="1" stop-color="#f4ff2b" stop-opacity="0"/></radialGradient><radialGradient cx="217.23725" cy="224.61689" r="3.76607" gradientUnits="userSpaceOnUse" id="color-44"><stop offset="0" stop-color="#f4ff2b"/><stop offset="1" stop-color="#f4ff2b" stop-opacity="0"/></radialGradient><radialGradient cx="214.92818" cy="212.73397" r="5.58787" gradientUnits="userSpaceOnUse" id="color-45"><stop offset="0" stop-color="#f4ff2b"/><stop offset="1" stop-color="#f4ff2b" stop-opacity="0"/></radialGradient><radialGradient cx="214.32801" cy="221.40332" r="4.24831" gradientUnits="userSpaceOnUse" id="color-46"><stop offset="0" stop-color="#f4ff2b"/><stop offset="1" stop-color="#f4ff2b" stop-opacity="0"/></radialGradient><radialGradient cx="223.62708" cy="211.89419" r="3.44458" gradientUnits="userSpaceOnUse" id="color-47"><stop offset="0" stop-color="#f4ff2b"/><stop offset="1" stop-color="#f4ff2b" stop-opacity="0"/></radialGradient><radialGradient cx="220.71033" cy="220.93781" r="2.94703" gradientUnits="userSpaceOnUse" id="color-48"><stop offset="0" stop-color="#f4ff2b"/><stop offset="1" stop-color="#f4ff2b" stop-opacity="0"/></radialGradient><radialGradient cx="220.40505" cy="215.9556" r="10.44113" gradientUnits="userSpaceOnUse" id="color-49"><stop offset="0" stop-color="#f4ff2b"/><stop offset="1" stop-color="#f4ff2b" stop-opacity="0"/></radialGradient><radialGradient cx="216.76312" cy="217.57823" r="10.44113" gradientUnits="userSpaceOnUse" id="color-50"><stop offset="0" stop-color="#f4ff2b"/><stop offset="1" stop-color="#f4ff2b" stop-opacity="0"/></radialGradient><radialGradient cx="217.6753" cy="216.55706" r="8.51193" gradientUnits="userSpaceOnUse" id="color-51"><stop offset="0" stop-color="#f4ff2b"/><stop offset="1" stop-color="#f4ff2b" stop-opacity="0"/></radialGradient><radialGradient cx="216.32989" cy="217.13735" r="5.90936" gradientUnits="userSpaceOnUse" id="color-52"><stop offset="0" stop-color="#f4ff2b"/><stop offset="1" stop-color="#f4ff2b" stop-opacity="0"/></radialGradient><radialGradient cx="217.30515" cy="214.5869" r="5.90936" gradientUnits="userSpaceOnUse" id="color-53"><stop offset="0" stop-color="#f4ff2b"/><stop offset="1" stop-color="#f4ff2b" stop-opacity="0"/></radialGradient><radialGradient cx="215.98757" cy="213.99467" r="3.76607" gradientUnits="userSpaceOnUse" id="color-54"><stop offset="0" stop-color="#f4ff2b"/><stop offset="1" stop-color="#f4ff2b" stop-opacity="0"/></radialGradient><radialGradient cx="229.21542" cy="234.1566" r="5.58787" gradientUnits="userSpaceOnUse" id="color-55"><stop offset="0" stop-color="#f4ff2b"/><stop offset="1" stop-color="#f4ff2b" stop-opacity="0"/></radialGradient><radialGradient cx="229.81559" cy="225.48725" r="4.24831" gradientUnits="userSpaceOnUse" id="color-56"><stop offset="0" stop-color="#f4ff2b"/><stop offset="1" stop-color="#f4ff2b" stop-opacity="0"/></radialGradient><radialGradient cx="220.51652" cy="234.99638" r="3.44458" gradientUnits="userSpaceOnUse" id="color-57"><stop offset="0" stop-color="#f4ff2b"/><stop offset="1" stop-color="#f4ff2b" stop-opacity="0"/></radialGradient><radialGradient cx="223.43327" cy="225.95276" r="2.94703" gradientUnits="userSpaceOnUse" id="color-58"><stop offset="0" stop-color="#f4ff2b"/><stop offset="1" stop-color="#f4ff2b" stop-opacity="0"/></radialGradient><radialGradient cx="223.73855" cy="230.93497" r="10.44113" gradientUnits="userSpaceOnUse" id="color-59"><stop offset="0" stop-color="#f4ff2b"/><stop offset="1" stop-color="#f4ff2b" stop-opacity="0"/></radialGradient><radialGradient cx="227.38048" cy="229.31234" r="10.44113" gradientUnits="userSpaceOnUse" id="color-60"><stop offset="0" stop-color="#f4ff2b"/><stop offset="1" stop-color="#f4ff2b" stop-opacity="0"/></radialGradient><radialGradient cx="226.4683" cy="230.33351" r="8.51193" gradientUnits="userSpaceOnUse" id="color-61"><stop offset="0" stop-color="#f4ff2b"/><stop offset="1" stop-color="#f4ff2b" stop-opacity="0"/></radialGradient><radialGradient cx="227.81371" cy="229.75322" r="5.90936" gradientUnits="userSpaceOnUse" id="color-62"><stop offset="0" stop-color="#f4ff2b"/><stop offset="1" stop-color="#f4ff2b" stop-opacity="0"/></radialGradient><radialGradient cx="226.83845" cy="232.30367" r="5.90936" gradientUnits="userSpaceOnUse" id="color-63"><stop offset="0" stop-color="#f4ff2b"/><stop offset="1" stop-color="#f4ff2b" stop-opacity="0"/></radialGradient><radialGradient cx="228.15603" cy="232.8959" r="3.76607" gradientUnits="userSpaceOnUse" id="color-64"><stop offset="0" stop-color="#f4ff2b"/><stop offset="1" stop-color="#f4ff2b" stop-opacity="0"/></radialGradient><radialGradient cx="224.02527" cy="222.40883" r="8.14519" gradientUnits="userSpaceOnUse" id="color-65"><stop offset="0" stop-color="#ff6f00"/><stop offset="1" stop-color="#ff6f00" stop-opacity="0"/></radialGradient><radialGradient cx="236.68935" cy="222.68778" r="6.19257" gradientUnits="userSpaceOnUse" id="color-66"><stop offset="0" stop-color="#ff6f00"/><stop offset="1" stop-color="#ff6f00" stop-opacity="0"/></radialGradient><radialGradient cx="222.20556" cy="209.80053" r="5.02101" gradientUnits="userSpaceOnUse" id="color-67"><stop offset="0" stop-color="#ff6f00"/><stop offset="1" stop-color="#ff6f00" stop-opacity="0"/></radialGradient><radialGradient cx="235.57358" cy="213.42681" r="4.29575" gradientUnits="userSpaceOnUse" id="color-68"><stop offset="0" stop-color="#ff6f00"/><stop offset="1" stop-color="#ff6f00" stop-opacity="0"/></radialGradient><radialGradient cx="228.34023" cy="214.21321" r="15.21957" gradientUnits="userSpaceOnUse" id="color-69"><stop offset="0" stop-color="#ff6f00"/><stop offset="1" stop-color="#ff6f00" stop-opacity="0"/></radialGradient><radialGradient cx="230.95277" cy="219.40466" r="15.21957" gradientUnits="userSpaceOnUse" id="color-70"><stop offset="0" stop-color="#ff6f00"/><stop offset="1" stop-color="#ff6f00" stop-opacity="0"/></radialGradient><radialGradient cx="229.40331" cy="218.14656" r="12.40746" gradientUnits="userSpaceOnUse" id="color-71"><stop offset="0" stop-color="#ff6f00"/><stop offset="1" stop-color="#ff6f00" stop-opacity="0"/></radialGradient><radialGradient cx="230.34057" cy="220.0657" r="8.61381" gradientUnits="userSpaceOnUse" id="color-72"><stop offset="0" stop-color="#ff6f00"/><stop offset="1" stop-color="#ff6f00" stop-opacity="0"/></radialGradient><radialGradient cx="226.56009" cy="218.82072" r="8.61381" gradientUnits="userSpaceOnUse" id="color-73"><stop offset="0" stop-color="#ff6f00"/><stop offset="1" stop-color="#ff6f00" stop-opacity="0"/></radialGradient><radialGradient cx="225.7882" cy="220.7798" r="5.48963" gradientUnits="userSpaceOnUse" id="color-74"><stop offset="0" stop-color="#ff6f00"/><stop offset="1" stop-color="#ff6f00" stop-opacity="0"/></radialGradient><radialGradient cx="213.7601" cy="231.42433" r="8.14519" gradientUnits="userSpaceOnUse" id="color-75"><stop offset="0" stop-color="#ff6f00"/><stop offset="1" stop-color="#ff6f00" stop-opacity="0"/></radialGradient><radialGradient cx="226.42418" cy="231.70327" r="6.19257" gradientUnits="userSpaceOnUse" id="color-76"><stop offset="0" stop-color="#ff6f00"/><stop offset="1" stop-color="#ff6f00" stop-opacity="0"/></radialGradient><radialGradient cx="211.94039" cy="218.81602" r="5.02101" gradientUnits="userSpaceOnUse" id="color-77"><stop offset="0" stop-color="#ff6f00"/><stop offset="1" stop-color="#ff6f00" stop-opacity="0"/></radialGradient><radialGradient cx="225.30841" cy="222.44231" r="4.29575" gradientUnits="userSpaceOnUse" id="color-78"><stop offset="0" stop-color="#ff6f00"/><stop offset="1" stop-color="#ff6f00" stop-opacity="0"/></radialGradient><radialGradient cx="218.07507" cy="223.22871" r="15.21957" gradientUnits="userSpaceOnUse" id="color-79"><stop offset="0" stop-color="#ff6f00"/><stop offset="1" stop-color="#ff6f00" stop-opacity="0"/></radialGradient><radialGradient cx="220.6876" cy="228.42016" r="15.21957" gradientUnits="userSpaceOnUse" id="color-80"><stop offset="0" stop-color="#ff6f00"/><stop offset="1" stop-color="#ff6f00" stop-opacity="0"/></radialGradient><radialGradient cx="219.13814" cy="227.16205" r="12.40746" gradientUnits="userSpaceOnUse" id="color-81"><stop offset="0" stop-color="#ff6f00"/><stop offset="1" stop-color="#ff6f00" stop-opacity="0"/></radialGradient><radialGradient cx="220.0754" cy="229.08119" r="8.61381" gradientUnits="userSpaceOnUse" id="color-82"><stop offset="0" stop-color="#ff6f00"/><stop offset="1" stop-color="#ff6f00" stop-opacity="0"/></radialGradient><radialGradient cx="216.29493" cy="227.83622" r="8.61381" gradientUnits="userSpaceOnUse" id="color-83"><stop offset="0" stop-color="#ff6f00"/><stop offset="1" stop-color="#ff6f00" stop-opacity="0"/></radialGradient><radialGradient cx="215.52303" cy="229.79529" r="5.48963" gradientUnits="userSpaceOnUse" id="color-84"><stop offset="0" stop-color="#ff6f00"/><stop offset="1" stop-color="#ff6f00" stop-opacity="0"/></radialGradient></defs><g transform="translate(-201.60176,-147.00258)"><g data-paper-data="{&quot;isPaintingLayer&quot;:true}" fill-rule="nonzero" stroke-linecap="butt" stroke-linejoin="miter" stroke-miterlimit="10" stroke-dasharray="" stroke-dashoffset="0" style="mix-blend-mode: normal"><path d="M241.50256,157.33335c0,-4.32481 3.50595,-7.83077 7.83077,-7.83077c4.32481,0 7.83077,3.50595 7.83077,7.83077c0,4.32481 -3.50595,7.83077 -7.83077,7.83077c-4.32481,0 -7.83077,-3.50595 -7.83077,-7.83077z" fill="#f9ff00" stroke="#b4b700" stroke-width="5"/><path d="M215.16923,220.33335c0,-4.32481 3.50595,-7.83077 7.83077,-7.83077c4.32481,0 7.83077,3.50595 7.83077,7.83077c0,4.32481 -3.50595,7.83077 -7.83077,7.83077c-4.32481,0 -7.83077,-3.50595 -7.83077,-7.83077z" fill="#f9ff00" stroke="#b4b700" stroke-width="5"/><path d="M222.8359,180.00002c0,-9.47947 7.68463,-17.1641 17.1641,-17.1641c9.47947,0 17.1641,7.68463 17.1641,17.1641c0,9.47947 -7.68463,17.1641 -17.1641,17.1641c-9.47947,0 -17.1641,-7.68463 -17.1641,-17.1641z" fill="#f9ff00" stroke="#b4b700" stroke-width="5"/><path d="M253.07952,174.34296c0,-0.89892 0.72872,-1.62763 1.62763,-1.62763c0.89892,0 1.62763,0.72872 1.62763,1.62763c0,0.89892 -0.72872,1.62763 -1.62763,1.62763c-0.89892,0 -1.62763,-0.72872 -1.62763,-1.62763z" fill="#454600" stroke="#000000" stroke-width="5"/><path d="M253.04866,185.55755c0,-0.89891 0.72872,-1.62763 1.62763,-1.62763c0.89891,0 1.62763,0.72871 1.62763,1.62763c0,0.89891 -0.72872,1.62763 -1.62763,1.62763c-0.89891,0 -1.62763,-0.72872 -1.62763,-1.62763z" fill="#454600" stroke="#000000" stroke-width="5"/><path d="M204.29219,218.93234c0,-7.73176 6.26783,-13.99958 13.99958,-13.99958c7.73176,0 13.99958,6.26783 13.99958,13.99958c0,7.73176 -6.26783,13.99958 -13.99958,13.99958c-7.73176,0 -13.99958,-6.26783 -13.99958,-13.99958z" fill="url(#color-1)" stroke="none" stroke-width="0.5"/><path d="M211.94151,229.38643c0,-7.73176 6.26783,-13.99958 13.99958,-13.99958c7.73176,0 13.99958,6.26783 13.99958,13.99958c0,7.73176 -6.26783,13.99958 -13.99958,13.99958c-7.73176,0 -13.99958,-6.26783 -13.99958,-13.99958z" fill="url(#color-2)" stroke="none" stroke-width="0.5"/><path d="M207.07574,216.57209c0,-5.89114 4.77571,-10.66685 10.66685,-10.66685c5.89114,0 10.66685,4.77571 10.66685,10.66685c0,5.89114 -4.77571,10.66685 -10.66685,10.66685c-5.89114,0 -10.66685,-4.77571 -10.66685,-10.66685z" fill="url(#color-3)" stroke="none" stroke-width="0"/><path d="M237.06786,230.31848c0,5.89114 -4.77571,10.66685 -10.66685,10.66685c-5.89114,0 -10.66685,-4.77571 -10.66685,-10.66685c0,-5.89114 4.77571,-10.66685 10.66685,-10.66685c5.89114,0 10.66685,4.77571 10.66685,10.66685z" data-paper-data="{&quot;index&quot;:null}" fill="url(#color-4)" stroke="none" stroke-width="0"/><g data-paper-data="{&quot;index&quot;:null}" stroke="none" stroke-width="0"><path d="M213.23271,212.6885c-2.69718,1.2307 -4.57172,3.95114 -4.57172,7.1094c0,4.3136 3.49686,7.81045 7.81045,7.81045c0.18252,0 0.36357,-0.00626 0.54297,-0.01858c-1.29007,0.85774 -2.83866,1.35751 -4.50399,1.35751c-4.49846,0 -8.14519,-3.64673 -8.14519,-8.14519c0,-4.49846 3.64672,-8.14519 8.14519,-8.14519c0.2434,0 0.48431,0.01068 0.72228,0.03159z" fill="url(#color-5)"/><path d="M231.36708,221.08106c0,3.42006 -2.77251,6.19257 -6.19257,6.19257c-2.38244,0 -4.45065,-1.3454 -5.48631,-3.31787c0.81821,0.93912 2.02296,1.53263 3.36633,1.53263c2.46491,0 4.46312,-1.99821 4.46312,-4.46312c0,-2.46491 -1.99821,-4.46312 -4.46312,-4.46312c-1.25855,0 -2.39543,0.52093 -3.20679,1.35893c1.07949,-1.81579 3.06103,-3.03261 5.32677,-3.03261c3.42006,0 6.19257,2.77251 6.19257,6.19257z" fill="url(#color-6)"/><path d="M215.71173,208.1938c0,2.77302 -2.24798,5.02101 -5.02101,5.02101c-2.00495,0 -3.73543,-1.17515 -4.54023,-2.87424c0.81825,0.94066 2.02402,1.5353 3.36867,1.5353c2.46491,0 4.46312,-1.99821 4.46312,-4.46312c0,-1.97035 -1.27681,-3.64249 -3.04817,-4.23417c2.66,0.12695 4.77763,2.32378 4.77763,5.01521z" data-paper-data="{&quot;index&quot;:null}" fill="url(#color-7)"/><path d="M227.86749,209.83152c-0.70726,-0.47077 -1.5565,-0.7451 -2.46982,-0.7451c-2.46491,0 -4.46312,1.99821 -4.46312,4.46312c0,0.51022 0.08561,1.00044 0.24326,1.45709c-0.86892,-0.78607 -1.41483,-1.92255 -1.41483,-3.18654c0,-2.37248 1.92327,-4.29575 4.29575,-4.29575c1.65494,0 3.0913,0.93584 3.80876,2.30719z" fill="url(#color-8)"/><path d="M230.90972,206.83627c0.16875,0.41324 0.32085,0.83738 0.45528,1.27187c2.48437,8.03 -2.01126,16.55359 -10.04126,19.03795c-8.03,2.48437 -16.55359,-2.01126 -19.03795,-10.04126c-0.91971,-2.97269 -0.88284,-6.01303 -0.06418,-8.78957c0.07708,0.32703 0.1659,0.65368 0.2667,0.97948c2.38227,7.70001 10.55557,12.01088 18.25557,9.62861c5.63767,-1.74421 9.45855,-6.5928 10.16585,-12.08708z" data-paper-data="{&quot;index&quot;:null}" fill="url(#color-9)"/><path d="M210.05475,229.7809c-6.618,-5.18219 -7.78197,-14.74814 -2.59978,-21.36614c5.18219,-6.618 14.74814,-7.78197 21.36614,-2.59978c2.44997,1.91844 4.15249,4.43765 5.06229,7.18568c-0.24972,-0.22478 -0.50888,-0.44256 -0.77739,-0.65282c-6.34603,-4.96922 -15.51886,-3.8531 -20.48808,2.49294c-3.63829,4.64634 -4.01443,10.80803 -1.46418,15.72572c-0.37419,-0.24338 -0.7409,-0.5052 -1.09899,-0.78559z" data-paper-data="{&quot;index&quot;:null}" fill="url(#color-10)"/><path d="M217.88847,228.9473c-0.10428,0 -0.20826,-0.00129 -0.31192,-0.00384c4.48042,-1.44923 7.7207,-5.6554 7.7207,-10.61837c0,-6.16228 -4.99551,-11.15779 -11.15779,-11.15779c-2.24338,0 -4.33212,0.66207 -6.08151,1.80147c2.2688,-2.94152 5.82837,-4.83639 9.83052,-4.83639c6.85245,0 12.40746,5.55501 12.40746,12.40746c0,6.85245 -5.55501,12.40746 -12.40746,12.40746z" fill="url(#color-11)"/><path d="M227.40738,217.70932c-0.98807,-2.46417 -3.3989,-4.20441 -6.21619,-4.20441c-3.69737,0 -6.69467,2.99731 -6.69467,6.69467c0,3.5227 2.72081,6.40992 6.1756,6.67485c-0.59481,0.1299 -1.2126,0.19835 -1.84638,0.19835c-4.75728,0 -8.61381,-3.85653 -8.61381,-8.61381c0,-4.75728 3.85653,-8.61381 8.61381,-8.61381c4.50471,0 8.20178,3.45791 8.58164,7.86416z" fill="url(#color-12)"/><path d="M217.5635,225.4515c-4.30791,1.31695 -8.85438,-0.90905 -10.50581,-5.01175c1.6653,2.06765 4.47957,3.02705 7.17378,2.20342c3.53583,-1.08093 5.52593,-4.82355 4.44501,-8.35938c-1.02986,-3.3688 -4.47587,-5.33446 -7.85719,-4.5778c0.53085,-0.29812 1.10164,-0.54419 1.70772,-0.72947c4.54944,-1.39079 9.36495,1.16981 10.75574,5.71924c1.39079,4.54944 -1.16981,9.36495 -5.71924,10.75574z" fill="url(#color-13)"/><path d="M217.24781,223.78782c0.0105,-0.15332 0.01583,-0.30807 0.01583,-0.46405c0,-3.69737 -2.99731,-6.69467 -6.69467,-6.69467c-0.41587,0 -0.82288,0.03792 -1.21777,0.11049c0.89707,-1.81102 2.7642,-3.05615 4.92215,-3.05615c3.03184,0 5.48963,2.45779 5.48963,5.48963c0,1.93563 -1.00179,3.63728 -2.51518,4.61475z" fill="url(#color-14)"/></g><g data-paper-data="{&quot;index&quot;:null}" stroke="none" stroke-width="0"><path d="M230.91089,234.20207c2.69718,-1.2307 4.57172,-3.95114 4.57172,-7.1094c0,-4.3136 -3.49686,-7.81045 -7.81045,-7.81045c-0.18252,0 -0.36357,0.00626 -0.54297,0.01858c1.29007,-0.85774 2.83866,-1.35751 4.50399,-1.35751c4.49846,0 8.14519,3.64673 8.14519,8.14519c0,4.49846 -3.64672,8.14519 -8.14519,8.14519c-0.2434,0 -0.48431,-0.01068 -0.72228,-0.03159z" fill="url(#color-15)"/><path d="M212.77652,225.80951c0,-3.42006 2.77251,-6.19257 6.19257,-6.19257c2.38244,0 4.45065,1.3454 5.48631,3.31787c-0.81821,-0.93912 -2.02296,-1.53263 -3.36633,-1.53263c-2.46491,0 -4.46312,1.99821 -4.46312,4.46312c0,2.46491 1.99821,4.46312 4.46312,4.46312c1.25855,0 2.39543,-0.52093 3.20679,-1.35893c-1.07949,1.81579 -3.06103,3.03261 -5.32677,3.03261c-3.42006,0 -6.19257,-2.77251 -6.19257,-6.19257z" fill="url(#color-16)"/><path d="M228.43188,238.69676c0,-2.77302 2.24798,-5.02101 5.02101,-5.02101c2.00495,0 3.73543,1.17515 4.54023,2.87424c-0.81825,-0.94066 -2.02402,-1.5353 -3.36867,-1.5353c-2.46491,0 -4.46312,1.99821 -4.46312,4.46312c0,1.97035 1.27681,3.64249 3.04817,4.23417c-2.66,-0.12695 -4.77763,-2.32378 -4.77763,-5.01521z" data-paper-data="{&quot;index&quot;:null}" fill="url(#color-17)"/><path d="M216.27611,237.05905c0.70726,0.47077 1.5565,0.7451 2.46982,0.7451c2.46491,0 4.46312,-1.99821 4.46312,-4.46312c0,-0.51022 -0.08561,-1.00044 -0.24326,-1.45709c0.86892,0.78607 1.41483,1.92255 1.41483,3.18654c0,2.37248 -1.92327,4.29575 -4.29575,4.29575c-1.65494,0 -3.0913,-0.93584 -3.80876,-2.30719z" fill="url(#color-18)"/><path d="M213.23388,240.0543c-0.16875,-0.41324 -0.32085,-0.83738 -0.45528,-1.27187c-2.48437,-8.03 2.01126,-16.55359 10.04126,-19.03795c8.03,-2.48437 16.55359,2.01126 19.03795,10.04126c0.91971,2.97269 0.88284,6.01303 0.06418,8.78957c-0.07708,-0.32703 -0.1659,-0.65368 -0.2667,-0.97948c-2.38227,-7.70001 -10.55557,-12.01088 -18.25557,-9.62861c-5.63767,1.74421 -9.45855,6.5928 -10.16585,12.08708z" data-paper-data="{&quot;index&quot;:null}" fill="url(#color-19)"/><path d="M234.08885,217.10967c6.618,5.18219 7.78197,14.74814 2.59978,21.36614c-5.18219,6.618 -14.74814,7.78197 -21.36614,2.59978c-2.44997,-1.91844 -4.15249,-4.43765 -5.06229,-7.18568c0.24972,0.22478 0.50888,0.44256 0.77739,0.65282c6.34603,4.96922 15.51886,3.8531 20.48808,-2.49294c3.63829,-4.64634 4.01443,-10.80803 1.46418,-15.72572c0.37419,0.24338 0.7409,0.5052 1.09899,0.78559z" data-paper-data="{&quot;index&quot;:null}" fill="url(#color-20)"/><path d="M226.25513,217.94327c0.10428,0 0.20826,0.00129 0.31192,0.00384c-4.48042,1.44923 -7.7207,5.6554 -7.7207,10.61837c0,6.16228 4.99551,11.15779 11.15779,11.15779c2.24338,0 4.33212,-0.66207 6.08151,-1.80147c-2.2688,2.94152 -5.82837,4.83639 -9.83052,4.83639c-6.85245,0 -12.40746,-5.55501 -12.40746,-12.40746c0,-6.85245 5.55501,-12.40746 12.40746,-12.40746z" fill="url(#color-21)"/><path d="M216.73622,229.18125c0.98807,2.46417 3.3989,4.20441 6.21619,4.20441c3.69737,0 6.69467,-2.99731 6.69467,-6.69467c0,-3.5227 -2.72081,-6.40992 -6.1756,-6.67485c0.59481,-0.1299 1.2126,-0.19835 1.84638,-0.19835c4.75728,0 8.61381,3.85653 8.61381,8.61381c0,4.75728 -3.85653,8.61381 -8.61381,8.61381c-4.50471,0 -8.20178,-3.45791 -8.58164,-7.86416z" fill="url(#color-22)"/><path d="M226.5801,221.43907c4.30791,-1.31695 8.85438,0.90905 10.50581,5.01175c-1.6653,-2.06765 -4.47957,-3.02705 -7.17378,-2.20342c-3.53583,1.08093 -5.52593,4.82355 -4.44501,8.35938c1.02986,3.3688 4.47587,5.33446 7.85719,4.5778c-0.53085,0.29812 -1.10164,0.54419 -1.70772,0.72947c-4.54944,1.39079 -9.36495,-1.16981 -10.75574,-5.71924c-1.39079,-4.54944 1.16981,-9.36495 5.71924,-10.75574z" fill="url(#color-23)"/><path d="M226.89579,223.10275c-0.0105,0.15332 -0.01583,0.30807 -0.01583,0.46405c0,3.69737 2.99731,6.69467 6.69467,6.69467c0.41587,0 0.82288,-0.03792 1.21777,-0.11049c-0.89707,1.81102 -2.7642,3.05615 -4.92215,3.05615c-3.03184,0 -5.48963,-2.45779 -5.48963,-5.48963c0,-1.93563 1.00179,-3.63728 2.51518,-4.61475z" fill="url(#color-24)"/></g><g data-paper-data="{&quot;index&quot;:null}" stroke="none" stroke-width="0"><path d="M232.02469,214.60376c-0.00786,0.1668 -0.02295,0.33154 -0.04497,0.49394c-0.75625,-1.88805 -2.55995,-3.26049 -4.72422,-3.36249c-2.95599,-0.13932 -5.46523,2.14405 -5.60455,5.10003c-0.00589,0.12508 -0.00745,0.24935 -0.0048,0.37268c-0.54612,-0.91175 -0.83858,-1.9891 -0.7848,-3.1303c0.14529,-3.08267 2.76208,-5.46389 5.84475,-5.31861c3.08267,0.14529 5.46389,2.76207 5.31861,5.84474z" fill="url(#color-25)"/><path d="M221.59925,222.81003c0.07695,-1.63262 1.06571,-3.00645 2.45084,-3.65246c-0.66998,0.53037 -1.11561,1.33678 -1.15899,2.25736c-0.07961,1.68913 1.22517,3.12299 2.9143,3.2026c1.68913,0.07961 3.12299,-1.22517 3.2026,-2.9143c0.04065,-0.86245 -0.27961,-1.65836 -0.82767,-2.24142c1.20945,0.79839 1.9793,2.19559 1.90612,3.74824c-0.11046,2.34367 -2.09993,4.15405 -4.44361,4.0436c-2.34368,-0.11046 -4.15405,-2.09993 -4.0436,-4.44361z" fill="url(#color-26)"/><path d="M238.57085,213.82967c-0.17291,1.81872 -1.74673,3.19893 -3.59109,3.112c-1.90028,-0.08956 -3.36815,-1.70265 -3.27859,-3.60293c0.06476,-1.37394 0.92594,-2.52183 2.11628,-3.01847c-0.67104,0.53035 -1.11747,1.33742 -1.1609,2.25887c-0.07961,1.68913 1.22517,3.12299 2.9143,3.2026c1.35023,0.06364 2.53734,-0.75732 3.00001,-1.95208z" data-paper-data="{&quot;index&quot;:null}" fill="url(#color-27)"/><path d="M235.16894,222.68327c-0.05345,1.13409 -0.74115,2.08816 -1.70407,2.53552c0.34545,-0.46946 0.56087,-1.04256 0.59037,-1.66843c0.07961,-1.68913 -1.22517,-3.12299 -2.91431,-3.2026c-0.34964,-0.01648 -0.68834,0.02635 -1.00636,0.11964c0.56674,-0.57005 1.36317,-0.90745 2.22935,-0.86663c1.6258,0.07662 2.88164,1.45671 2.80502,3.0825z" fill="url(#color-28)"/><path d="M234.53289,227.67119c-5.58298,1.44312 -11.27876,-1.9129 -12.72188,-7.49588c-1.44312,-5.58298 1.9129,-11.27876 7.49588,-12.72188c2.06681,-0.53424 4.14907,-0.41078 6.02532,0.2399c-0.22659,0.04226 -0.4533,0.09258 -0.67983,0.15113c-5.35354,1.38382 -8.57165,6.84552 -7.18783,12.19906c1.01318,3.91967 4.21238,6.69462 7.95462,7.35676c-0.28863,0.10229 -0.5842,0.19282 -0.88628,0.27091z" data-paper-data="{&quot;index&quot;:null}" fill="url(#color-29)"/><path d="M219.79557,213.09563c0.17886,-0.24856 0.37013,-0.4914 0.57384,-0.72773c3.76496,-4.36777 10.35783,-4.85644 14.72559,-1.09149c4.36777,3.76496 4.85644,10.35783 1.09149,14.7256c-1.39378,1.61694 -3.17511,2.70227 -5.08765,3.23697c0.1621,-0.16387 0.31971,-0.33443 0.47247,-0.51164c3.61023,-4.18827 3.14164,-10.5102 -1.04663,-14.12043c-3.0665,-2.64328 -7.27679,-3.10005 -10.72911,-1.51126z" data-paper-data="{&quot;index&quot;:null}" fill="url(#color-30)"/><path d="M228.78943,226.66628c-4.6958,-0.22132 -8.32308,-4.20742 -8.10177,-8.90323c0.00337,-0.07146 0.00761,-0.14267 0.01271,-0.21363c0.84841,3.11712 3.62613,5.47344 7.02712,5.63373c4.22284,0.19902 7.80747,-3.06292 8.0065,-7.28576c0.07245,-1.53733 -0.31378,-2.99007 -1.03809,-4.22567c1.94247,1.64975 3.126,4.15023 2.99675,6.89279c-0.22132,4.6958 -4.20742,8.32308 -8.90323,8.10177z" fill="url(#color-31)"/><path d="M228.0813,224.64905c1.72054,-0.59751 2.99094,-2.19339 3.08193,-4.124c0.11942,-2.5337 -1.83775,-4.68448 -4.37146,-4.8039c-2.41401,-0.11377 -4.48041,1.65747 -4.77354,4.01639c-0.06981,-0.4118 -0.09676,-0.83737 -0.07629,-1.27168c0.15365,-3.26003 2.92098,-5.77825 6.18101,-5.62461c3.26003,0.15365 5.77825,2.92098 5.62461,6.18101c-0.14549,3.08695 -2.63451,5.50877 -5.66626,5.62677z" fill="url(#color-32)"/><path d="M223.09372,217.65326c-0.76334,-2.99463 0.90892,-6.0383 3.77372,-7.03748c-1.47069,1.07441 -2.21903,2.97196 -1.74164,4.84482c0.62653,2.45792 3.12698,3.94256 5.58489,3.31603c2.3418,-0.59693 3.80012,-2.8949 3.39081,-5.23646c0.18715,0.37341 0.33734,0.7725 0.44473,1.19382c0.80614,3.16252 -1.1041,6.37976 -4.26662,7.18589c-3.16252,0.80614 -6.37976,-1.1041 -7.18589,-4.26662z" fill="url(#color-33)"/><path d="M224.24399,217.49066c0.10473,0.01214 0.2106,0.0208 0.31749,0.02584c2.5337,0.11942 4.68448,-1.83775 4.8039,-4.37146c0.01343,-0.28498 0.00059,-0.56512 -0.03638,-0.83807c1.21207,0.67323 2.00501,1.99294 1.93532,3.47172c-0.09792,2.07764 -1.86156,3.68252 -3.9392,3.5846c-1.32643,-0.06251 -2.46017,-0.80397 -3.08113,-1.87263z" fill="url(#color-34)"/></g><g data-paper-data="{&quot;index&quot;:null}" stroke="none" stroke-width="0"><path d="M221.75952,223.61925c-0.00786,0.1668 -0.02295,0.33154 -0.04497,0.49394c-0.75625,-1.88805 -2.55995,-3.26049 -4.72422,-3.36249c-2.95599,-0.13932 -5.46523,2.14405 -5.60455,5.10003c-0.00589,0.12508 -0.00745,0.24935 -0.0048,0.37268c-0.54612,-0.91175 -0.83858,-1.9891 -0.7848,-3.1303c0.14529,-3.08267 2.76208,-5.46389 5.84475,-5.31861c3.08267,0.14529 5.46389,2.76207 5.31861,5.84474z" fill="url(#color-35)"/><path d="M211.33408,231.82553c0.07695,-1.63262 1.06571,-3.00645 2.45084,-3.65246c-0.66998,0.53037 -1.11561,1.33678 -1.15899,2.25736c-0.07961,1.68913 1.22517,3.12299 2.9143,3.2026c1.68913,0.07961 3.12299,-1.22517 3.2026,-2.9143c0.04065,-0.86245 -0.27961,-1.65836 -0.82767,-2.24142c1.20945,0.79839 1.9793,2.19559 1.90612,3.74824c-0.11046,2.34367 -2.09993,4.15405 -4.44361,4.0436c-2.34368,-0.11046 -4.15405,-2.09993 -4.0436,-4.44361z" fill="url(#color-36)"/><path d="M228.30568,222.84517c-0.17291,1.81872 -1.74673,3.19893 -3.59109,3.112c-1.90028,-0.08956 -3.36815,-1.70265 -3.27859,-3.60293c0.06476,-1.37394 0.92594,-2.52183 2.11628,-3.01847c-0.67104,0.53035 -1.11747,1.33742 -1.1609,2.25887c-0.07961,1.68913 1.22517,3.12299 2.9143,3.2026c1.35023,0.06364 2.53734,-0.75732 3.00001,-1.95208z" data-paper-data="{&quot;index&quot;:null}" fill="url(#color-37)"/><path d="M224.90377,231.69877c-0.05345,1.13409 -0.74115,2.08816 -1.70407,2.53552c0.34545,-0.46946 0.56087,-1.04256 0.59037,-1.66843c0.07961,-1.68913 -1.22517,-3.12299 -2.91431,-3.2026c-0.34964,-0.01648 -0.68834,0.02635 -1.00636,0.11964c0.56674,-0.57005 1.36317,-0.90745 2.22935,-0.86663c1.6258,0.07662 2.88164,1.45671 2.80502,3.0825z" fill="url(#color-38)"/><path d="M224.26772,236.68669c-5.58298,1.44312 -11.27876,-1.9129 -12.72188,-7.49588c-1.44312,-5.58298 1.9129,-11.27876 7.49588,-12.72188c2.06681,-0.53424 4.14907,-0.41078 6.02532,0.2399c-0.22659,0.04226 -0.4533,0.09258 -0.67983,0.15113c-5.35354,1.38382 -8.57165,6.84552 -7.18783,12.19906c1.01318,3.91967 4.21238,6.69462 7.95462,7.35676c-0.28863,0.10229 -0.5842,0.19282 -0.88628,0.27091z" data-paper-data="{&quot;index&quot;:null}" fill="url(#color-39)"/><path d="M209.53041,222.11112c0.17886,-0.24856 0.37013,-0.4914 0.57384,-0.72773c3.76496,-4.36777 10.35783,-4.85644 14.72559,-1.09149c4.36777,3.76496 4.85644,10.35783 1.09149,14.7256c-1.39378,1.61694 -3.17511,2.70227 -5.08765,3.23697c0.1621,-0.16387 0.31971,-0.33443 0.47247,-0.51164c3.61023,-4.18827 3.14164,-10.5102 -1.04663,-14.12043c-3.0665,-2.64328 -7.27679,-3.10005 -10.72911,-1.51126z" data-paper-data="{&quot;index&quot;:null}" fill="url(#color-40)"/><path d="M218.52426,235.68178c-4.6958,-0.22132 -8.32308,-4.20742 -8.10177,-8.90323c0.00337,-0.07146 0.00761,-0.14267 0.01271,-0.21363c0.84841,3.11712 3.62613,5.47344 7.02712,5.63373c4.22284,0.19902 7.80747,-3.06292 8.0065,-7.28576c0.07245,-1.53733 -0.31378,-2.99007 -1.03809,-4.22567c1.94247,1.64975 3.126,4.15023 2.99675,6.89279c-0.22132,4.6958 -4.20742,8.32308 -8.90323,8.10177z" fill="url(#color-41)"/><path d="M217.81613,233.66455c1.72054,-0.59751 2.99094,-2.19339 3.08193,-4.124c0.11942,-2.5337 -1.83775,-4.68448 -4.37146,-4.8039c-2.41401,-0.11377 -4.48041,1.65747 -4.77354,4.01639c-0.06981,-0.4118 -0.09676,-0.83737 -0.07629,-1.27168c0.15365,-3.26003 2.92098,-5.77825 6.18101,-5.62461c3.26003,0.15365 5.77825,2.92098 5.62461,6.18101c-0.14549,3.08695 -2.63451,5.50877 -5.66626,5.62677z" fill="url(#color-42)"/><path d="M212.82855,226.66876c-0.76334,-2.99463 0.90892,-6.0383 3.77372,-7.03748c-1.47069,1.07441 -2.21903,2.97196 -1.74164,4.84482c0.62653,2.45792 3.12698,3.94256 5.58489,3.31603c2.3418,-0.59693 3.80012,-2.8949 3.39081,-5.23646c0.18715,0.37341 0.33734,0.7725 0.44473,1.19382c0.80614,3.16252 -1.1041,6.37976 -4.26662,7.18589c-3.16252,0.80614 -6.37976,-1.1041 -7.18589,-4.26662z" fill="url(#color-43)"/><path d="M213.97882,226.50616c0.10473,0.01214 0.2106,0.0208 0.31749,0.02584c2.5337,0.11942 4.68448,-1.83775 4.8039,-4.37146c0.01343,-0.28498 0.00059,-0.56512 -0.03638,-0.83807c1.21207,0.67323 2.00501,1.99294 1.93532,3.47172c-0.09792,2.07764 -1.86156,3.68252 -3.9392,3.5846c-1.32643,-0.06251 -2.46017,-0.80397 -3.08113,-1.87263z" fill="url(#color-44)"/></g><g data-paper-data="{&quot;index&quot;:null}" stroke="none" stroke-width="0"><path d="M220.50985,212.99704c-0.00786,0.1668 -0.02295,0.33154 -0.04497,0.49394c-0.75625,-1.88805 -2.55995,-3.26049 -4.72422,-3.36249c-2.95599,-0.13932 -5.46523,2.14405 -5.60455,5.10003c-0.00589,0.12508 -0.00745,0.24935 -0.0048,0.37268c-0.54612,-0.91175 -0.83858,-1.9891 -0.7848,-3.1303c0.14529,-3.08267 2.76208,-5.46389 5.84475,-5.31861c3.08267,0.14529 5.46389,2.76207 5.31861,5.84474z" fill="url(#color-45)"/><path d="M210.0844,221.20331c0.07695,-1.63262 1.06571,-3.00645 2.45084,-3.65246c-0.66998,0.53037 -1.11561,1.33678 -1.15899,2.25736c-0.07961,1.68913 1.22517,3.12299 2.9143,3.2026c1.68913,0.07961 3.12299,-1.22517 3.2026,-2.9143c0.04065,-0.86245 -0.27961,-1.65836 -0.82767,-2.24142c1.20945,0.79839 1.9793,2.19559 1.90612,3.74824c-0.11046,2.34367 -2.09993,4.15405 -4.44361,4.0436c-2.34368,-0.11046 -4.15405,-2.09993 -4.0436,-4.44361z" fill="url(#color-46)"/><path d="M227.05601,212.22295c-0.17291,1.81872 -1.74673,3.19893 -3.59109,3.112c-1.90028,-0.08956 -3.36815,-1.70265 -3.27859,-3.60293c0.06476,-1.37394 0.92594,-2.52183 2.11628,-3.01847c-0.67104,0.53035 -1.11747,1.33742 -1.1609,2.25887c-0.07961,1.68913 1.22517,3.12299 2.9143,3.2026c1.35023,0.06364 2.53734,-0.75732 3.00001,-1.95208z" data-paper-data="{&quot;index&quot;:null}" fill="url(#color-47)"/><path d="M223.6541,221.07655c-0.05345,1.13409 -0.74115,2.08816 -1.70407,2.53552c0.34545,-0.46946 0.56087,-1.04256 0.59037,-1.66843c0.07961,-1.68913 -1.22517,-3.12299 -2.91431,-3.2026c-0.34964,-0.01648 -0.68834,0.02635 -1.00636,0.11964c0.56674,-0.57005 1.36317,-0.90745 2.22935,-0.86663c1.6258,0.07662 2.88164,1.45671 2.80502,3.0825z" fill="url(#color-48)"/><path d="M223.01805,226.06447c-5.58298,1.44312 -11.27876,-1.9129 -12.72188,-7.49588c-1.44312,-5.58298 1.9129,-11.27876 7.49588,-12.72188c2.06681,-0.53424 4.14907,-0.41078 6.02532,0.2399c-0.22659,0.04226 -0.4533,0.09258 -0.67983,0.15113c-5.35354,1.38382 -8.57165,6.84552 -7.18783,12.19906c1.01318,3.91967 4.21238,6.69462 7.95462,7.35676c-0.28863,0.10229 -0.5842,0.19282 -0.88628,0.27091z" data-paper-data="{&quot;index&quot;:null}" fill="url(#color-49)"/><path d="M208.28073,211.4889c0.17886,-0.24856 0.37013,-0.4914 0.57384,-0.72773c3.76496,-4.36777 10.35783,-4.85644 14.72559,-1.09149c4.36777,3.76496 4.85644,10.35783 1.09149,14.7256c-1.39378,1.61694 -3.17511,2.70227 -5.08765,3.23697c0.1621,-0.16387 0.31971,-0.33443 0.47247,-0.51164c3.61023,-4.18827 3.14164,-10.5102 -1.04663,-14.12043c-3.0665,-2.64328 -7.27679,-3.10005 -10.72911,-1.51126z" data-paper-data="{&quot;index&quot;:null}" fill="url(#color-50)"/><path d="M217.27459,225.05956c-4.6958,-0.22132 -8.32308,-4.20742 -8.10177,-8.90323c0.00337,-0.07146 0.00761,-0.14267 0.01271,-0.21363c0.84841,3.11712 3.62613,5.47344 7.02712,5.63373c4.22284,0.19902 7.80747,-3.06292 8.0065,-7.28576c0.07245,-1.53733 -0.31378,-2.99007 -1.03809,-4.22567c1.94247,1.64975 3.126,4.15023 2.99675,6.89279c-0.22132,4.6958 -4.20742,8.32308 -8.90323,8.10177z" fill="url(#color-51)"/><path d="M216.56646,223.04233c1.72054,-0.59751 2.99094,-2.19339 3.08193,-4.124c0.11942,-2.5337 -1.83775,-4.68448 -4.37146,-4.8039c-2.41401,-0.11377 -4.48041,1.65747 -4.77354,4.01639c-0.06981,-0.4118 -0.09676,-0.83737 -0.07629,-1.27168c0.15365,-3.26003 2.92098,-5.77825 6.18101,-5.62461c3.26003,0.15365 5.77825,2.92098 5.62461,6.18101c-0.14549,3.08695 -2.63451,5.50877 -5.66626,5.62677z" fill="url(#color-52)"/><path d="M211.57888,216.04654c-0.76334,-2.99463 0.90892,-6.0383 3.77372,-7.03748c-1.47069,1.07441 -2.21903,2.97196 -1.74164,4.84482c0.62653,2.45792 3.12698,3.94256 5.58489,3.31603c2.3418,-0.59693 3.80012,-2.8949 3.39081,-5.23646c0.18715,0.37341 0.33734,0.7725 0.44473,1.19382c0.80614,3.16252 -1.1041,6.37976 -4.26662,7.18589c-3.16252,0.80614 -6.37976,-1.1041 -7.18589,-4.26662z" fill="url(#color-53)"/><path d="M212.72914,215.88394c0.10473,0.01214 0.2106,0.0208 0.31749,0.02584c2.5337,0.11942 4.68448,-1.83775 4.8039,-4.37146c0.01343,-0.28498 0.00059,-0.56512 -0.03638,-0.83807c1.21207,0.67323 2.00501,1.99294 1.93532,3.47172c-0.09792,2.07764 -1.86156,3.68252 -3.9392,3.5846c-1.32643,-0.06251 -2.46017,-0.80397 -3.08113,-1.87263z" fill="url(#color-54)"/></g><g data-paper-data="{&quot;index&quot;:null}" stroke="none" stroke-width="0"><path d="M223.63375,233.89353c0.00786,-0.1668 0.02295,-0.33154 0.04497,-0.49394c0.75625,1.88805 2.55995,3.26049 4.72422,3.36249c2.95599,0.13932 5.46523,-2.14405 5.60455,-5.10003c0.00589,-0.12508 0.00745,-0.24935 0.0048,-0.37268c0.54612,0.91175 0.83858,1.9891 0.7848,3.1303c-0.14529,3.08267 -2.76208,5.46389 -5.84475,5.31861c-3.08267,-0.14529 -5.46389,-2.76207 -5.31861,-5.84474z" fill="url(#color-55)"/><path d="M234.0592,225.68726c-0.07695,1.63262 -1.06571,3.00645 -2.45084,3.65246c0.66998,-0.53037 1.11561,-1.33678 1.15899,-2.25736c0.07961,-1.68913 -1.22517,-3.12299 -2.9143,-3.2026c-1.68913,-0.07961 -3.12299,1.22517 -3.2026,2.9143c-0.04065,0.86245 0.27961,1.65836 0.82767,2.24142c-1.20945,-0.79839 -1.9793,-2.19559 -1.90612,-3.74824c0.11046,-2.34367 2.09993,-4.15405 4.44361,-4.0436c2.34368,0.11046 4.15405,2.09993 4.0436,4.44361z" fill="url(#color-56)"/><path d="M217.08759,234.66762c0.17291,-1.81872 1.74673,-3.19893 3.59109,-3.112c1.90028,0.08956 3.36815,1.70265 3.27859,3.60293c-0.06476,1.37394 -0.92594,2.52183 -2.11628,3.01847c0.67104,-0.53035 1.11747,-1.33742 1.1609,-2.25887c0.07961,-1.68913 -1.22517,-3.12299 -2.9143,-3.2026c-1.35023,-0.06364 -2.53734,0.75732 -3.00001,1.95208z" data-paper-data="{&quot;index&quot;:null}" fill="url(#color-57)"/><path d="M220.4895,225.81402c0.05345,-1.13409 0.74115,-2.08816 1.70407,-2.53552c-0.34545,0.46946 -0.56087,1.04256 -0.59037,1.66843c-0.07961,1.68913 1.22517,3.12299 2.91431,3.2026c0.34964,0.01648 0.68834,-0.02635 1.00636,-0.11964c-0.56674,0.57005 -1.36317,0.90745 -2.22935,0.86663c-1.6258,-0.07662 -2.88164,-1.45671 -2.80502,-3.0825z" fill="url(#color-58)"/><path d="M221.12555,220.8261c5.58298,-1.44312 11.27876,1.9129 12.72188,7.49588c1.44312,5.58298 -1.9129,11.27876 -7.49588,12.72188c-2.06681,0.53424 -4.14907,0.41078 -6.02532,-0.2399c0.22659,-0.04226 0.4533,-0.09258 0.67983,-0.15113c5.35354,-1.38382 8.57165,-6.84552 7.18783,-12.19906c-1.01318,-3.91967 -4.21238,-6.69462 -7.95462,-7.35676c0.28863,-0.10229 0.5842,-0.19282 0.88628,-0.27091z" data-paper-data="{&quot;index&quot;:null}" fill="url(#color-59)"/><path d="M235.86287,235.40167c-0.17886,0.24856 -0.37013,0.4914 -0.57384,0.72773c-3.76496,4.36777 -10.35783,4.85644 -14.72559,1.09149c-4.36777,-3.76496 -4.85644,-10.35783 -1.09149,-14.7256c1.39378,-1.61694 3.17511,-2.70227 5.08765,-3.23697c-0.1621,0.16387 -0.31971,0.33443 -0.47247,0.51164c-3.61023,4.18827 -3.14164,10.5102 1.04663,14.12043c3.0665,2.64328 7.27679,3.10005 10.72911,1.51126z" data-paper-data="{&quot;index&quot;:null}" fill="url(#color-60)"/><path d="M226.86901,221.83101c4.6958,0.22132 8.32308,4.20742 8.10177,8.90323c-0.00337,0.07146 -0.00761,0.14267 -0.01271,0.21363c-0.84841,-3.11712 -3.62613,-5.47344 -7.02712,-5.63373c-4.22284,-0.19902 -7.80747,3.06292 -8.0065,7.28576c-0.07245,1.53733 0.31378,2.99007 1.03809,4.22567c-1.94247,-1.64975 -3.126,-4.15023 -2.99675,-6.89279c0.22132,-4.6958 4.20742,-8.32308 8.90323,-8.10177z" fill="url(#color-61)"/><path d="M227.57714,223.84824c-1.72054,0.59751 -2.99094,2.19339 -3.08193,4.124c-0.11942,2.5337 1.83775,4.68448 4.37146,4.8039c2.41401,0.11377 4.48041,-1.65747 4.77354,-4.01639c0.06981,0.4118 0.09676,0.83737 0.07629,1.27168c-0.15365,3.26003 -2.92098,5.77825 -6.18101,5.62461c-3.26003,-0.15365 -5.77825,-2.92098 -5.62461,-6.18101c0.14549,-3.08695 2.63451,-5.50877 5.66626,-5.62677z" fill="url(#color-62)"/><path d="M232.56472,230.84403c0.76334,2.99463 -0.90892,6.0383 -3.77372,7.03748c1.47069,-1.07441 2.21903,-2.97196 1.74164,-4.84482c-0.62653,-2.45792 -3.12698,-3.94256 -5.58489,-3.31603c-2.3418,0.59693 -3.80012,2.8949 -3.39081,5.23646c-0.18715,-0.37341 -0.33734,-0.7725 -0.44473,-1.19382c-0.80614,-3.16252 1.1041,-6.37976 4.26662,-7.18589c3.16252,-0.80614 6.37976,1.1041 7.18589,4.26662z" fill="url(#color-63)"/><path d="M231.41446,231.00663c-0.10473,-0.01214 -0.2106,-0.0208 -0.31749,-0.02584c-2.5337,-0.11942 -4.68448,1.83775 -4.8039,4.37146c-0.01343,0.28498 -0.00059,0.56512 0.03638,0.83807c-1.21207,-0.67323 -2.00501,-1.99294 -1.93532,-3.47172c0.09792,-2.07764 1.86156,-3.68252 3.9392,-3.5846c1.32643,0.06251 2.46017,0.80397 3.08113,1.87263z" fill="url(#color-64)"/></g><g data-paper-data="{&quot;index&quot;:null}" stroke="none" stroke-width="0"><path d="M224.74755,214.29523c-2.69718,1.2307 -4.57172,3.95114 -4.57172,7.1094c0,4.3136 3.49686,7.81045 7.81045,7.81045c0.18252,0 0.36357,-0.00626 0.54297,-0.01858c-1.29007,0.85774 -2.83866,1.35751 -4.50399,1.35751c-4.49846,0 -8.14519,-3.64673 -8.14519,-8.14519c0,-4.49846 3.64672,-8.14519 8.14519,-8.14519c0.2434,0 0.48431,0.01068 0.72228,0.03159z" fill="url(#color-65)"/><path d="M242.88192,222.68778c0,3.42006 -2.77251,6.19257 -6.19257,6.19257c-2.38244,0 -4.45065,-1.3454 -5.48631,-3.31787c0.81821,0.93912 2.02296,1.53263 3.36633,1.53263c2.46491,0 4.46312,-1.99821 4.46312,-4.46312c0,-2.46491 -1.99821,-4.46312 -4.46312,-4.46312c-1.25855,0 -2.39543,0.52093 -3.20679,1.35893c1.07949,-1.81579 3.06103,-3.03261 5.32677,-3.03261c3.42006,0 6.19257,2.77251 6.19257,6.19257z" fill="url(#color-66)"/><path d="M227.22657,209.80053c0,2.77302 -2.24798,5.02101 -5.02101,5.02101c-2.00495,0 -3.73543,-1.17515 -4.54023,-2.87424c0.81825,0.94066 2.02402,1.5353 3.36867,1.5353c2.46491,0 4.46312,-1.99821 4.46312,-4.46312c0,-1.97035 -1.27681,-3.64249 -3.04817,-4.23417c2.66,0.12695 4.77763,2.32378 4.77763,5.01521z" data-paper-data="{&quot;index&quot;:null}" fill="url(#color-67)"/><path d="M239.38233,211.43824c-0.70726,-0.47077 -1.5565,-0.7451 -2.46982,-0.7451c-2.46491,0 -4.46312,1.99821 -4.46312,4.46312c0,0.51022 0.08561,1.00044 0.24326,1.45709c-0.86892,-0.78607 -1.41483,-1.92255 -1.41483,-3.18654c0,-2.37248 1.92327,-4.29575 4.29575,-4.29575c1.65494,0 3.0913,0.93584 3.80876,2.30719z" fill="url(#color-68)"/><path d="M242.42456,208.44299c0.16875,0.41324 0.32085,0.83738 0.45528,1.27187c2.48437,8.03 -2.01126,16.55359 -10.04126,19.03795c-8.03,2.48437 -16.55359,-2.01126 -19.03795,-10.04126c-0.91971,-2.97269 -0.88284,-6.01303 -0.06418,-8.78957c0.07708,0.32703 0.1659,0.65368 0.2667,0.97948c2.38227,7.70001 10.55557,12.01088 18.25557,9.62861c5.63767,-1.74421 9.45855,-6.5928 10.16585,-12.08708z" data-paper-data="{&quot;index&quot;:null}" fill="url(#color-69)"/><path d="M221.56959,231.38762c-6.618,-5.18219 -7.78197,-14.74814 -2.59978,-21.36614c5.18219,-6.618 14.74814,-7.78197 21.36614,-2.59978c2.44997,1.91844 4.15249,4.43765 5.06229,7.18568c-0.24972,-0.22478 -0.50888,-0.44256 -0.77739,-0.65282c-6.34603,-4.96922 -15.51886,-3.8531 -20.48808,2.49294c-3.63829,4.64634 -4.01443,10.80803 -1.46418,15.72572c-0.37419,-0.24338 -0.7409,-0.5052 -1.09899,-0.78559z" data-paper-data="{&quot;index&quot;:null}" fill="url(#color-70)"/><path d="M229.40331,230.55402c-0.10428,0 -0.20826,-0.00129 -0.31192,-0.00384c4.48042,-1.44923 7.7207,-5.6554 7.7207,-10.61837c0,-6.16228 -4.99551,-11.15779 -11.15779,-11.15779c-2.24338,0 -4.33212,0.66207 -6.08151,1.80147c2.2688,-2.94152 5.82837,-4.83639 9.83052,-4.83639c6.85245,0 12.40746,5.55501 12.40746,12.40746c0,6.85245 -5.55501,12.40746 -12.40746,12.40746z" fill="url(#color-71)"/><path d="M238.92222,219.31605c-0.98807,-2.46417 -3.3989,-4.20441 -6.21619,-4.20441c-3.69737,0 -6.69467,2.99731 -6.69467,6.69467c0,3.5227 2.72081,6.40992 6.1756,6.67485c-0.59481,0.1299 -1.2126,0.19835 -1.84638,0.19835c-4.75728,0 -8.61381,-3.85653 -8.61381,-8.61381c0,-4.75728 3.85653,-8.61381 8.61381,-8.61381c4.50471,0 8.20178,3.45791 8.58164,7.86416z" fill="url(#color-72)"/><path d="M229.07834,227.05822c-4.30791,1.31695 -8.85438,-0.90905 -10.50581,-5.01175c1.6653,2.06765 4.47957,3.02705 7.17378,2.20342c3.53583,-1.08093 5.52593,-4.82355 4.44501,-8.35938c-1.02986,-3.3688 -4.47587,-5.33446 -7.85719,-4.5778c0.53085,-0.29812 1.10164,-0.54419 1.70772,-0.72947c4.54944,-1.39079 9.36495,1.16981 10.75574,5.71924c1.39079,4.54944 -1.16981,9.36495 -5.71924,10.75574z" fill="url(#color-73)"/><path d="M228.76265,225.39455c0.0105,-0.15332 0.01583,-0.30807 0.01583,-0.46405c0,-3.69737 -2.99731,-6.69467 -6.69467,-6.69467c-0.41587,0 -0.82288,0.03792 -1.21777,0.11049c0.89707,-1.81102 2.7642,-3.05615 4.92215,-3.05615c3.03184,0 5.48963,2.45779 5.48963,5.48963c0,1.93563 -1.00179,3.63728 -2.51518,4.61475z" fill="url(#color-74)"/></g><g data-paper-data="{&quot;index&quot;:null}" stroke="none" stroke-width="0"><path d="M214.48238,223.31072c-2.69718,1.2307 -4.57172,3.95114 -4.57172,7.1094c0,4.3136 3.49686,7.81045 7.81045,7.81045c0.18252,0 0.36357,-0.00626 0.54297,-0.01858c-1.29007,0.85774 -2.83866,1.35751 -4.50399,1.35751c-4.49846,0 -8.14519,-3.64673 -8.14519,-8.14519c0,-4.49846 3.64672,-8.14519 8.14519,-8.14519c0.2434,0 0.48431,0.01068 0.72228,0.03159z" fill="url(#color-75)"/><path d="M232.61676,231.70328c0,3.42006 -2.77251,6.19257 -6.19257,6.19257c-2.38244,0 -4.45065,-1.3454 -5.48631,-3.31787c0.81821,0.93912 2.02296,1.53263 3.36633,1.53263c2.46491,0 4.46312,-1.99821 4.46312,-4.46312c0,-2.46491 -1.99821,-4.46312 -4.46312,-4.46312c-1.25855,0 -2.39543,0.52093 -3.20679,1.35893c1.07949,-1.81579 3.06103,-3.03261 5.32677,-3.03261c3.42006,0 6.19257,2.77251 6.19257,6.19257z" fill="url(#color-76)"/><path d="M216.9614,218.81602c0,2.77302 -2.24798,5.02101 -5.02101,5.02101c-2.00495,0 -3.73543,-1.17515 -4.54023,-2.87424c0.81825,0.94066 2.02402,1.5353 3.36867,1.5353c2.46491,0 4.46312,-1.99821 4.46312,-4.46312c0,-1.97035 -1.27681,-3.64249 -3.04817,-4.23417c2.66,0.12695 4.77763,2.32378 4.77763,5.01521z" data-paper-data="{&quot;index&quot;:null}" fill="url(#color-77)"/><path d="M229.11716,220.45374c-0.70726,-0.47077 -1.5565,-0.7451 -2.46982,-0.7451c-2.46491,0 -4.46312,1.99821 -4.46312,4.46312c0,0.51022 0.08561,1.00044 0.24326,1.45709c-0.86892,-0.78607 -1.41483,-1.92255 -1.41483,-3.18654c0,-2.37248 1.92327,-4.29575 4.29575,-4.29575c1.65494,0 3.0913,0.93584 3.80876,2.30719z" fill="url(#color-78)"/><path d="M232.15939,217.45849c0.16875,0.41324 0.32085,0.83738 0.45528,1.27187c2.48437,8.03 -2.01126,16.55359 -10.04126,19.03795c-8.03,2.48437 -16.55359,-2.01126 -19.03795,-10.04126c-0.91971,-2.97269 -0.88284,-6.01303 -0.06418,-8.78957c0.07708,0.32703 0.1659,0.65368 0.2667,0.97948c2.38227,7.70001 10.55557,12.01088 18.25557,9.62861c5.63767,-1.74421 9.45855,-6.5928 10.16585,-12.08708z" data-paper-data="{&quot;index&quot;:null}" fill="url(#color-79)"/><path d="M211.30442,240.40311c-6.618,-5.18219 -7.78197,-14.74814 -2.59978,-21.36614c5.18219,-6.618 14.74814,-7.78197 21.36614,-2.59978c2.44997,1.91844 4.15249,4.43765 5.06229,7.18568c-0.24972,-0.22478 -0.50888,-0.44256 -0.77739,-0.65282c-6.34603,-4.96922 -15.51886,-3.8531 -20.48808,2.49294c-3.63829,4.64634 -4.01443,10.80803 -1.46418,15.72572c-0.37419,-0.24338 -0.7409,-0.5052 -1.09899,-0.78559z" data-paper-data="{&quot;index&quot;:null}" fill="url(#color-80)"/><path d="M219.13814,239.56952c-0.10428,0 -0.20826,-0.00129 -0.31192,-0.00384c4.48042,-1.44923 7.7207,-5.6554 7.7207,-10.61837c0,-6.16228 -4.99551,-11.15779 -11.15779,-11.15779c-2.24338,0 -4.33212,0.66207 -6.08151,1.80147c2.2688,-2.94152 5.82837,-4.83639 9.83052,-4.83639c6.85245,0 12.40746,5.55501 12.40746,12.40746c0,6.85245 -5.55501,12.40746 -12.40746,12.40746z" fill="url(#color-81)"/><path d="M228.65705,228.33154c-0.98807,-2.46417 -3.3989,-4.20441 -6.21619,-4.20441c-3.69737,0 -6.69467,2.99731 -6.69467,6.69467c0,3.5227 2.72081,6.40992 6.1756,6.67485c-0.59481,0.1299 -1.2126,0.19835 -1.84638,0.19835c-4.75728,0 -8.61381,-3.85653 -8.61381,-8.61381c0,-4.75728 3.85653,-8.61381 8.61381,-8.61381c4.50471,0 8.20178,3.45791 8.58164,7.86416z" fill="url(#color-82)"/><path d="M218.81318,236.07371c-4.30791,1.31695 -8.85438,-0.90905 -10.50581,-5.01175c1.6653,2.06765 4.47957,3.02705 7.17378,2.20342c3.53583,-1.08093 5.52593,-4.82355 4.44501,-8.35938c-1.02986,-3.3688 -4.47587,-5.33446 -7.85719,-4.5778c0.53085,-0.29812 1.10164,-0.54419 1.70772,-0.72947c4.54944,-1.39079 9.36495,1.16981 10.75574,5.71924c1.39079,4.54944 -1.16981,9.36495 -5.71924,10.75574z" fill="url(#color-83)"/><path d="M218.49749,234.41004c0.0105,-0.15332 0.01583,-0.30807 0.01583,-0.46405c0,-3.69737 -2.99731,-6.69467 -6.69467,-6.69467c-0.41587,0 -0.82288,0.03792 -1.21777,0.11049c0.89707,-1.81102 2.7642,-3.05615 4.92215,-3.05615c3.03184,0 5.48963,2.45779 5.48963,5.48963c0,1.93563 -1.00179,3.63728 -2.51518,4.61475z" fill="url(#color-84)"/></g></g></g></svg>