<svg version="1.1" xmlns="http://www.w3.org/2000/svg" xmlns:xlink="http://www.w3.org/1999/xlink" width="133.11443" height="126.8493" viewBox="0,0,133.11443,126.8493"><defs><radialGradient cx="224.17018" cy="166.28342" r="42.55014" gradientUnits="userSpaceOnUse" id="color-1"><stop offset="0" stop-color="#ff9300"/><stop offset="1" stop-color="#ff9300" stop-opacity="0"/></radialGradient><radialGradient cx="247.41943" cy="198.05743" r="42.55014" gradientUnits="userSpaceOnUse" id="color-2"><stop offset="0" stop-color="#ff9300"/><stop offset="1" stop-color="#ff9300" stop-opacity="0"/></radialGradient><radialGradient cx="222.501" cy="159.10971" r="32.42067" gradientUnits="userSpaceOnUse" id="color-3"><stop offset="0" stop-color="#ffb82b"/><stop offset="1" stop-color="#ffb82b" stop-opacity="0"/></radialGradient><radialGradient cx="248.81731" cy="200.89029" r="32.42067" gradientUnits="userSpaceOnUse" id="color-4"><stop offset="0" stop-color="#ffb82b"/><stop offset="1" stop-color="#ffb82b" stop-opacity="0"/></radialGradient><radialGradient cx="206.59844" cy="171.96637" r="24.75637" gradientUnits="userSpaceOnUse" id="color-5"><stop offset="0" stop-color="#ff6f00"/><stop offset="1" stop-color="#ff6f00" stop-opacity="0"/></radialGradient><radialGradient cx="245.08949" cy="172.81419" r="18.82163" gradientUnits="userSpaceOnUse" id="color-6"><stop offset="0" stop-color="#ff6f00"/><stop offset="1" stop-color="#ff6f00" stop-opacity="0"/></radialGradient><radialGradient cx="201.06765" cy="133.64485" r="15.26078" gradientUnits="userSpaceOnUse" id="color-7"><stop offset="0" stop-color="#ff6f00"/><stop offset="1" stop-color="#ff6f00" stop-opacity="0"/></radialGradient><radialGradient cx="241.69823" cy="144.66653" r="13.05645" gradientUnits="userSpaceOnUse" id="color-8"><stop offset="0" stop-color="#ff6f00"/><stop offset="1" stop-color="#ff6f00" stop-opacity="0"/></radialGradient><radialGradient cx="219.71329" cy="147.05672" r="46.25816" gradientUnits="userSpaceOnUse" id="color-9"><stop offset="0" stop-color="#ff6f00"/><stop offset="1" stop-color="#ff6f00" stop-opacity="0"/></radialGradient><radialGradient cx="227.6538" cy="162.83553" r="46.25816" gradientUnits="userSpaceOnUse" id="color-10"><stop offset="0" stop-color="#ff6f00"/><stop offset="1" stop-color="#ff6f00" stop-opacity="0"/></radialGradient><radialGradient cx="222.9444" cy="159.01166" r="37.71108" gradientUnits="userSpaceOnUse" id="color-11"><stop offset="0" stop-color="#ff6f00"/><stop offset="1" stop-color="#ff6f00" stop-opacity="0"/></radialGradient><radialGradient cx="225.79308" cy="164.84467" r="26.18072" gradientUnits="userSpaceOnUse" id="color-12"><stop offset="0" stop-color="#ff6f00"/><stop offset="1" stop-color="#ff6f00" stop-opacity="0"/></radialGradient><radialGradient cx="214.30276" cy="161.06072" r="26.18072" gradientUnits="userSpaceOnUse" id="color-13"><stop offset="0" stop-color="#ff6f00"/><stop offset="1" stop-color="#ff6f00" stop-opacity="0"/></radialGradient><radialGradient cx="211.95667" cy="167.0151" r="16.68512" gradientUnits="userSpaceOnUse" id="color-14"><stop offset="0" stop-color="#ff6f00"/><stop offset="1" stop-color="#ff6f00" stop-opacity="0"/></radialGradient><radialGradient cx="264.71987" cy="188.03363" r="24.75637" gradientUnits="userSpaceOnUse" id="color-15"><stop offset="0" stop-color="#ff6f00"/><stop offset="1" stop-color="#ff6f00" stop-opacity="0"/></radialGradient><radialGradient cx="226.22882" cy="187.18581" r="18.82163" gradientUnits="userSpaceOnUse" id="color-16"><stop offset="0" stop-color="#ff6f00"/><stop offset="1" stop-color="#ff6f00" stop-opacity="0"/></radialGradient><radialGradient cx="270.25066" cy="226.35514" r="15.26078" gradientUnits="userSpaceOnUse" id="color-17"><stop offset="0" stop-color="#ff6f00"/><stop offset="1" stop-color="#ff6f00" stop-opacity="0"/></radialGradient><radialGradient cx="229.62008" cy="215.33346" r="13.05645" gradientUnits="userSpaceOnUse" id="color-18"><stop offset="0" stop-color="#ff6f00"/><stop offset="1" stop-color="#ff6f00" stop-opacity="0"/></radialGradient><radialGradient cx="251.60501" cy="212.94328" r="46.25816" gradientUnits="userSpaceOnUse" id="color-19"><stop offset="0" stop-color="#ff6f00"/><stop offset="1" stop-color="#ff6f00" stop-opacity="0"/></radialGradient><radialGradient cx="243.6645" cy="197.16447" r="46.25816" gradientUnits="userSpaceOnUse" id="color-20"><stop offset="0" stop-color="#ff6f00"/><stop offset="1" stop-color="#ff6f00" stop-opacity="0"/></radialGradient><radialGradient cx="248.3739" cy="200.98834" r="37.71108" gradientUnits="userSpaceOnUse" id="color-21"><stop offset="0" stop-color="#ff6f00"/><stop offset="1" stop-color="#ff6f00" stop-opacity="0"/></radialGradient><radialGradient cx="245.52522" cy="195.15533" r="26.18072" gradientUnits="userSpaceOnUse" id="color-22"><stop offset="0" stop-color="#ff6f00"/><stop offset="1" stop-color="#ff6f00" stop-opacity="0"/></radialGradient><radialGradient cx="257.01555" cy="198.93928" r="26.18072" gradientUnits="userSpaceOnUse" id="color-23"><stop offset="0" stop-color="#ff6f00"/><stop offset="1" stop-color="#ff6f00" stop-opacity="0"/></radialGradient><radialGradient cx="259.36163" cy="192.9849" r="16.68512" gradientUnits="userSpaceOnUse" id="color-24"><stop offset="0" stop-color="#ff6f00"/><stop offset="1" stop-color="#ff6f00" stop-opacity="0"/></radialGradient><radialGradient cx="248.94497" cy="152.32761" r="16.9837" gradientUnits="userSpaceOnUse" id="color-25"><stop offset="0" stop-color="#f4ff2b"/><stop offset="1" stop-color="#f4ff2b" stop-opacity="0"/></radialGradient><radialGradient cx="247.12083" cy="178.67711" r="12.91226" gradientUnits="userSpaceOnUse" id="color-26"><stop offset="0" stop-color="#f4ff2b"/><stop offset="1" stop-color="#f4ff2b" stop-opacity="0"/></radialGradient><radialGradient cx="275.38432" cy="149.77517" r="10.4694" gradientUnits="userSpaceOnUse" id="color-27"><stop offset="0" stop-color="#f4ff2b"/><stop offset="1" stop-color="#f4ff2b" stop-opacity="0"/></radialGradient><radialGradient cx="266.51918" cy="177.26226" r="8.95715" gradientUnits="userSpaceOnUse" id="color-28"><stop offset="0" stop-color="#f4ff2b"/><stop offset="1" stop-color="#f4ff2b" stop-opacity="0"/></radialGradient><radialGradient cx="265.59131" cy="162.11939" r="31.73463" gradientUnits="userSpaceOnUse" id="color-29"><stop offset="0" stop-color="#f4ff2b"/><stop offset="1" stop-color="#f4ff2b" stop-opacity="0"/></radialGradient><radialGradient cx="254.52208" cy="167.0512" r="31.73463" gradientUnits="userSpaceOnUse" id="color-30"><stop offset="0" stop-color="#f4ff2b"/><stop offset="1" stop-color="#f4ff2b" stop-opacity="0"/></radialGradient><radialGradient cx="257.29454" cy="163.94748" r="25.87105" gradientUnits="userSpaceOnUse" id="color-31"><stop offset="0" stop-color="#f4ff2b"/><stop offset="1" stop-color="#f4ff2b" stop-opacity="0"/></radialGradient><radialGradient cx="253.20533" cy="165.71121" r="17.96083" gradientUnits="userSpaceOnUse" id="color-32"><stop offset="0" stop-color="#f4ff2b"/><stop offset="1" stop-color="#f4ff2b" stop-opacity="0"/></radialGradient><radialGradient cx="256.1695" cy="157.95941" r="17.96083" gradientUnits="userSpaceOnUse" id="color-33"><stop offset="0" stop-color="#f4ff2b"/><stop offset="1" stop-color="#f4ff2b" stop-opacity="0"/></radialGradient><radialGradient cx="252.16489" cy="156.15938" r="11.44654" gradientUnits="userSpaceOnUse" id="color-34"><stop offset="0" stop-color="#f4ff2b"/><stop offset="1" stop-color="#f4ff2b" stop-opacity="0"/></radialGradient><radialGradient cx="217.74516" cy="179.72919" r="16.9837" gradientUnits="userSpaceOnUse" id="color-35"><stop offset="0" stop-color="#f4ff2b"/><stop offset="1" stop-color="#f4ff2b" stop-opacity="0"/></radialGradient><radialGradient cx="215.92101" cy="206.07869" r="12.91226" gradientUnits="userSpaceOnUse" id="color-36"><stop offset="0" stop-color="#f4ff2b"/><stop offset="1" stop-color="#f4ff2b" stop-opacity="0"/></radialGradient><radialGradient cx="244.1845" cy="177.17677" r="10.4694" gradientUnits="userSpaceOnUse" id="color-37"><stop offset="0" stop-color="#f4ff2b"/><stop offset="1" stop-color="#f4ff2b" stop-opacity="0"/></radialGradient><radialGradient cx="235.31936" cy="204.66383" r="8.95715" gradientUnits="userSpaceOnUse" id="color-38"><stop offset="0" stop-color="#f4ff2b"/><stop offset="1" stop-color="#f4ff2b" stop-opacity="0"/></radialGradient><radialGradient cx="234.39149" cy="189.52096" r="31.73463" gradientUnits="userSpaceOnUse" id="color-39"><stop offset="0" stop-color="#f4ff2b"/><stop offset="1" stop-color="#f4ff2b" stop-opacity="0"/></radialGradient><radialGradient cx="223.32227" cy="194.45277" r="31.73463" gradientUnits="userSpaceOnUse" id="color-40"><stop offset="0" stop-color="#f4ff2b"/><stop offset="1" stop-color="#f4ff2b" stop-opacity="0"/></radialGradient><radialGradient cx="226.09472" cy="191.34905" r="25.87105" gradientUnits="userSpaceOnUse" id="color-41"><stop offset="0" stop-color="#f4ff2b"/><stop offset="1" stop-color="#f4ff2b" stop-opacity="0"/></radialGradient><radialGradient cx="222.00551" cy="193.11278" r="17.96083" gradientUnits="userSpaceOnUse" id="color-42"><stop offset="0" stop-color="#f4ff2b"/><stop offset="1" stop-color="#f4ff2b" stop-opacity="0"/></radialGradient><radialGradient cx="224.96968" cy="185.36098" r="17.96083" gradientUnits="userSpaceOnUse" id="color-43"><stop offset="0" stop-color="#f4ff2b"/><stop offset="1" stop-color="#f4ff2b" stop-opacity="0"/></radialGradient><radialGradient cx="220.96507" cy="183.56095" r="11.44654" gradientUnits="userSpaceOnUse" id="color-44"><stop offset="0" stop-color="#f4ff2b"/><stop offset="1" stop-color="#f4ff2b" stop-opacity="0"/></radialGradient><radialGradient cx="213.94691" cy="147.44416" r="16.9837" gradientUnits="userSpaceOnUse" id="color-45"><stop offset="0" stop-color="#f4ff2b"/><stop offset="1" stop-color="#f4ff2b" stop-opacity="0"/></radialGradient><radialGradient cx="212.12277" cy="173.79367" r="12.91226" gradientUnits="userSpaceOnUse" id="color-46"><stop offset="0" stop-color="#f4ff2b"/><stop offset="1" stop-color="#f4ff2b" stop-opacity="0"/></radialGradient><radialGradient cx="240.38626" cy="144.89174" r="10.4694" gradientUnits="userSpaceOnUse" id="color-47"><stop offset="0" stop-color="#f4ff2b"/><stop offset="1" stop-color="#f4ff2b" stop-opacity="0"/></radialGradient><radialGradient cx="231.52112" cy="172.37881" r="8.95715" gradientUnits="userSpaceOnUse" id="color-48"><stop offset="0" stop-color="#f4ff2b"/><stop offset="1" stop-color="#f4ff2b" stop-opacity="0"/></radialGradient><radialGradient cx="230.59325" cy="157.23594" r="31.73463" gradientUnits="userSpaceOnUse" id="color-49"><stop offset="0" stop-color="#f4ff2b"/><stop offset="1" stop-color="#f4ff2b" stop-opacity="0"/></radialGradient><radialGradient cx="219.52403" cy="162.16774" r="31.73463" gradientUnits="userSpaceOnUse" id="color-50"><stop offset="0" stop-color="#f4ff2b"/><stop offset="1" stop-color="#f4ff2b" stop-opacity="0"/></radialGradient><radialGradient cx="222.29649" cy="159.06403" r="25.87105" gradientUnits="userSpaceOnUse" id="color-51"><stop offset="0" stop-color="#f4ff2b"/><stop offset="1" stop-color="#f4ff2b" stop-opacity="0"/></radialGradient><radialGradient cx="218.20728" cy="160.82775" r="17.96083" gradientUnits="userSpaceOnUse" id="color-52"><stop offset="0" stop-color="#f4ff2b"/><stop offset="1" stop-color="#f4ff2b" stop-opacity="0"/></radialGradient><radialGradient cx="221.17145" cy="153.07596" r="17.96083" gradientUnits="userSpaceOnUse" id="color-53"><stop offset="0" stop-color="#f4ff2b"/><stop offset="1" stop-color="#f4ff2b" stop-opacity="0"/></radialGradient><radialGradient cx="217.16684" cy="151.27594" r="11.44654" gradientUnits="userSpaceOnUse" id="color-54"><stop offset="0" stop-color="#f4ff2b"/><stop offset="1" stop-color="#f4ff2b" stop-opacity="0"/></radialGradient><radialGradient cx="257.37139" cy="212.55584" r="16.9837" gradientUnits="userSpaceOnUse" id="color-55"><stop offset="0" stop-color="#f4ff2b"/><stop offset="1" stop-color="#f4ff2b" stop-opacity="0"/></radialGradient><radialGradient cx="259.19554" cy="186.20633" r="12.91226" gradientUnits="userSpaceOnUse" id="color-56"><stop offset="0" stop-color="#f4ff2b"/><stop offset="1" stop-color="#f4ff2b" stop-opacity="0"/></radialGradient><radialGradient cx="230.93205" cy="215.10826" r="10.4694" gradientUnits="userSpaceOnUse" id="color-57"><stop offset="0" stop-color="#f4ff2b"/><stop offset="1" stop-color="#f4ff2b" stop-opacity="0"/></radialGradient><radialGradient cx="239.79719" cy="187.62119" r="8.95715" gradientUnits="userSpaceOnUse" id="color-58"><stop offset="0" stop-color="#f4ff2b"/><stop offset="1" stop-color="#f4ff2b" stop-opacity="0"/></radialGradient><radialGradient cx="240.72506" cy="202.76406" r="31.73463" gradientUnits="userSpaceOnUse" id="color-59"><stop offset="0" stop-color="#f4ff2b"/><stop offset="1" stop-color="#f4ff2b" stop-opacity="0"/></radialGradient><radialGradient cx="251.79427" cy="197.83226" r="31.73463" gradientUnits="userSpaceOnUse" id="color-60"><stop offset="0" stop-color="#f4ff2b"/><stop offset="1" stop-color="#f4ff2b" stop-opacity="0"/></radialGradient><radialGradient cx="249.02181" cy="200.93597" r="25.87105" gradientUnits="userSpaceOnUse" id="color-61"><stop offset="0" stop-color="#f4ff2b"/><stop offset="1" stop-color="#f4ff2b" stop-opacity="0"/></radialGradient><radialGradient cx="253.11102" cy="199.17225" r="17.96083" gradientUnits="userSpaceOnUse" id="color-62"><stop offset="0" stop-color="#f4ff2b"/><stop offset="1" stop-color="#f4ff2b" stop-opacity="0"/></radialGradient><radialGradient cx="250.14685" cy="206.92404" r="17.96083" gradientUnits="userSpaceOnUse" id="color-63"><stop offset="0" stop-color="#f4ff2b"/><stop offset="1" stop-color="#f4ff2b" stop-opacity="0"/></radialGradient><radialGradient cx="254.15148" cy="208.72406" r="11.44654" gradientUnits="userSpaceOnUse" id="color-64"><stop offset="0" stop-color="#f4ff2b"/><stop offset="1" stop-color="#f4ff2b" stop-opacity="0"/></radialGradient><radialGradient cx="241.5965" cy="176.84982" r="24.75637" gradientUnits="userSpaceOnUse" id="color-65"><stop offset="0" stop-color="#ff6f00"/><stop offset="1" stop-color="#ff6f00" stop-opacity="0"/></radialGradient><radialGradient cx="280.08754" cy="177.69765" r="18.82163" gradientUnits="userSpaceOnUse" id="color-66"><stop offset="0" stop-color="#ff6f00"/><stop offset="1" stop-color="#ff6f00" stop-opacity="0"/></radialGradient><radialGradient cx="236.0657" cy="138.52831" r="15.26078" gradientUnits="userSpaceOnUse" id="color-67"><stop offset="0" stop-color="#ff6f00"/><stop offset="1" stop-color="#ff6f00" stop-opacity="0"/></radialGradient><radialGradient cx="276.69629" cy="149.54998" r="13.05645" gradientUnits="userSpaceOnUse" id="color-68"><stop offset="0" stop-color="#ff6f00"/><stop offset="1" stop-color="#ff6f00" stop-opacity="0"/></radialGradient><radialGradient cx="254.71134" cy="151.94016" r="46.25816" gradientUnits="userSpaceOnUse" id="color-69"><stop offset="0" stop-color="#ff6f00"/><stop offset="1" stop-color="#ff6f00" stop-opacity="0"/></radialGradient><radialGradient cx="262.65186" cy="167.71897" r="46.25816" gradientUnits="userSpaceOnUse" id="color-70"><stop offset="0" stop-color="#ff6f00"/><stop offset="1" stop-color="#ff6f00" stop-opacity="0"/></radialGradient><radialGradient cx="257.94245" cy="163.89512" r="37.71108" gradientUnits="userSpaceOnUse" id="color-71"><stop offset="0" stop-color="#ff6f00"/><stop offset="1" stop-color="#ff6f00" stop-opacity="0"/></radialGradient><radialGradient cx="260.79113" cy="169.72813" r="26.18072" gradientUnits="userSpaceOnUse" id="color-72"><stop offset="0" stop-color="#ff6f00"/><stop offset="1" stop-color="#ff6f00" stop-opacity="0"/></radialGradient><radialGradient cx="249.30081" cy="165.94417" r="26.18072" gradientUnits="userSpaceOnUse" id="color-73"><stop offset="0" stop-color="#ff6f00"/><stop offset="1" stop-color="#ff6f00" stop-opacity="0"/></radialGradient><radialGradient cx="246.95472" cy="171.89855" r="16.68512" gradientUnits="userSpaceOnUse" id="color-74"><stop offset="0" stop-color="#ff6f00"/><stop offset="1" stop-color="#ff6f00" stop-opacity="0"/></radialGradient><radialGradient cx="210.39668" cy="204.2514" r="24.75637" gradientUnits="userSpaceOnUse" id="color-75"><stop offset="0" stop-color="#ff6f00"/><stop offset="1" stop-color="#ff6f00" stop-opacity="0"/></radialGradient><radialGradient cx="248.88772" cy="205.09922" r="18.82163" gradientUnits="userSpaceOnUse" id="color-76"><stop offset="0" stop-color="#ff6f00"/><stop offset="1" stop-color="#ff6f00" stop-opacity="0"/></radialGradient><radialGradient cx="204.86588" cy="165.92989" r="15.26078" gradientUnits="userSpaceOnUse" id="color-77"><stop offset="0" stop-color="#ff6f00"/><stop offset="1" stop-color="#ff6f00" stop-opacity="0"/></radialGradient><radialGradient cx="245.49647" cy="176.95157" r="13.05645" gradientUnits="userSpaceOnUse" id="color-78"><stop offset="0" stop-color="#ff6f00"/><stop offset="1" stop-color="#ff6f00" stop-opacity="0"/></radialGradient><radialGradient cx="223.51152" cy="179.34174" r="46.25816" gradientUnits="userSpaceOnUse" id="color-79"><stop offset="0" stop-color="#ff6f00"/><stop offset="1" stop-color="#ff6f00" stop-opacity="0"/></radialGradient><radialGradient cx="231.45205" cy="195.12056" r="46.25816" gradientUnits="userSpaceOnUse" id="color-80"><stop offset="0" stop-color="#ff6f00"/><stop offset="1" stop-color="#ff6f00" stop-opacity="0"/></radialGradient><radialGradient cx="226.74264" cy="191.29669" r="37.71108" gradientUnits="userSpaceOnUse" id="color-81"><stop offset="0" stop-color="#ff6f00"/><stop offset="1" stop-color="#ff6f00" stop-opacity="0"/></radialGradient><radialGradient cx="229.59131" cy="197.1297" r="26.18072" gradientUnits="userSpaceOnUse" id="color-82"><stop offset="0" stop-color="#ff6f00"/><stop offset="1" stop-color="#ff6f00" stop-opacity="0"/></radialGradient><radialGradient cx="218.10099" cy="193.34575" r="26.18072" gradientUnits="userSpaceOnUse" id="color-83"><stop offset="0" stop-color="#ff6f00"/><stop offset="1" stop-color="#ff6f00" stop-opacity="0"/></radialGradient><radialGradient cx="215.7549" cy="199.30013" r="16.68512" gradientUnits="userSpaceOnUse" id="color-84"><stop offset="0" stop-color="#ff6f00"/><stop offset="1" stop-color="#ff6f00" stop-opacity="0"/></radialGradient></defs><g transform="translate(-173.44278,-116.57535)"><g data-paper-data="{&quot;isPaintingLayer&quot;:true}" fill-rule="nonzero" stroke="none" stroke-linecap="butt" stroke-linejoin="miter" stroke-miterlimit="10" stroke-dasharray="" stroke-dashoffset="0" style="mix-blend-mode: normal"><path d="M181.62002,166.28342c0,-23.49979 19.05035,-42.55014 42.55014,-42.55014c23.49979,0 42.55014,19.05035 42.55014,42.55014c0,23.49979 -19.05035,42.55014 -42.55014,42.55014c-23.49979,0 -42.55014,-19.05035 -42.55014,-42.55014z" data-paper-data="{&quot;index&quot;:null}" fill="url(#color-1)" stroke-width="0.5"/><path d="M204.86929,198.05743c0,-23.49979 19.05035,-42.55014 42.55014,-42.55014c23.49979,0 42.55014,19.05035 42.55014,42.55014c0,23.49979 -19.05035,42.55014 -42.55014,42.55014c-23.49979,0 -42.55014,-19.05035 -42.55014,-42.55014z" data-paper-data="{&quot;index&quot;:null}" fill="url(#color-2)" stroke-width="0.5"/><path d="M190.08031,159.10971c0,-17.90546 14.51523,-32.42067 32.42067,-32.42067c17.90546,0 32.42067,14.51523 32.42067,32.42067c0,17.90546 -14.51523,32.42067 -32.42067,32.42067c-17.90546,0 -32.42067,-14.51523 -32.42067,-32.42067z" data-paper-data="{&quot;index&quot;:null}" fill="url(#color-3)" stroke-width="0"/><path d="M281.23799,200.89029c0,17.90546 -14.51523,32.42067 -32.42067,32.42067c-17.90546,0 -32.42067,-14.51523 -32.42067,-32.42067c0,-17.90546 14.51523,-32.42067 32.42067,-32.42067c17.90546,0 32.42067,14.51523 32.42067,32.42067z" data-paper-data="{&quot;index&quot;:null}" fill="url(#color-4)" stroke-width="0"/><g data-paper-data="{&quot;index&quot;:null}" stroke-width="0"><path d="M208.79373,147.30598c-8.19776,3.74057 -13.89523,12.00904 -13.89523,21.60822c0,13.11069 10.62829,23.73899 23.73899,23.73899c0.55476,0 1.10504,-0.01903 1.65029,-0.05648c-3.92102,2.60702 -8.6278,4.12601 -13.68936,4.12601c-13.67258,0 -24.75637,-11.08382 -24.75637,-24.75637c0,-13.67257 11.08381,-24.75637 24.75637,-24.75637c0.7398,0 1.47201,0.03245 2.19529,0.09599z" fill="url(#color-5)"/><path d="M263.91112,172.8142c0,10.3949 -8.42673,18.82163 -18.82163,18.82163c-7.24116,0 -13.52725,-4.08919 -16.67502,-10.0843c2.48685,2.85434 6.14856,4.65824 10.23159,4.65824c7.49181,0 13.56514,-6.07333 13.56514,-13.56514c0,-7.49181 -6.07333,-13.56514 -13.56514,-13.56514c-3.82523,0 -7.28066,1.58331 -9.74668,4.13033c3.28101,-5.51889 9.30366,-9.21727 16.19011,-9.21727c10.3949,0 18.82163,8.42673 18.82163,18.82163z" fill="url(#color-6)"/><path d="M216.32842,133.64485c0,8.42829 -6.83249,15.26078 -15.26078,15.26078c-6.09383,0 -11.35342,-3.57174 -13.79953,-8.73592c2.48699,2.85903 6.15178,4.66639 10.23868,4.66639c7.49182,0 13.56514,-6.07333 13.56514,-13.56514c0,-5.98867 -3.88072,-11.07094 -9.26459,-12.86928c8.08476,0.38584 14.52108,7.06288 14.52108,15.24318z" data-paper-data="{&quot;index&quot;:null}" fill="url(#color-7)"/><path d="M253.2745,138.62251c-2.14964,-1.43084 -4.73082,-2.26464 -7.50674,-2.26464c-7.49181,0 -13.56514,6.07333 -13.56514,13.56514c0,1.55076 0.26021,3.04073 0.73937,4.42865c-2.64097,-2.38916 -4.30022,-5.84337 -4.30022,-9.68514c0,-7.21088 5.84557,-13.05645 13.05645,-13.05645c5.03001,0 9.39566,2.84439 11.57628,7.01244z" fill="url(#color-8)"/><path d="M262.521,129.51878c0.5129,1.256 0.9752,2.54511 1.38377,3.86569c7.55095,24.40629 -6.11299,50.31276 -30.51928,57.86371c-24.40629,7.55095 -50.31276,-6.11299 -57.86371,-30.51928c-2.79535,-9.03517 -2.68328,-18.27592 -0.19508,-26.71491c0.23428,0.99396 0.50424,1.98678 0.81061,2.97703c7.24065,23.4033 32.08245,36.50571 55.48575,29.26506c17.13506,-5.30134 28.7482,-20.03807 30.89794,-36.73732z" data-paper-data="{&quot;index&quot;:null}" fill="url(#color-9)"/><path d="M199.13469,199.25638c-20.11467,-15.75067 -23.6524,-44.82528 -7.90174,-64.93996c15.75067,-20.11467 44.82528,-23.6524 64.93996,-7.90174c7.44642,5.83088 12.62101,13.48774 15.38625,21.84007c-0.75901,-0.68319 -1.54667,-1.34512 -2.3628,-1.98418c-19.28805,-15.10338 -47.16781,-11.71105 -62.2712,7.577c-11.05816,14.12203 -12.20142,32.8498 -4.45022,47.79654c-1.1373,-0.73972 -2.25189,-1.5355 -3.34026,-2.38773z" data-paper-data="{&quot;index&quot;:null}" fill="url(#color-10)"/><path d="M222.9444,196.72275c-0.31695,0 -0.63297,-0.00391 -0.94806,-0.01169c13.61773,-4.40476 23.46619,-17.18894 23.46619,-32.27334c0,-18.72954 -15.18329,-33.91285 -33.91285,-33.91285c-6.8185,0 -13.167,2.01228 -18.48404,5.47538c6.89576,-8.94043 17.71469,-14.69967 29.87876,-14.69967c20.82727,0 37.71108,16.88382 37.71108,37.71108c0,20.82727 -16.88382,37.71108 -37.71108,37.71108z" fill="url(#color-11)"/><path d="M251.87603,162.56619c-3.00313,-7.48957 -10.33059,-12.77882 -18.89341,-12.77882c-11.23773,0 -20.34771,9.10998 -20.34771,20.34771c0,10.70684 8.26958,19.48223 18.77004,20.28745c-1.80787,0.39483 -3.68557,0.60287 -5.61186,0.60287c-14.45922,0 -26.18072,-11.7215 -26.18072,-26.18072c0,-14.45922 11.7215,-26.18072 26.18072,-26.18072c13.69155,0 24.92838,10.50992 26.08293,23.90223z" fill="url(#color-12)"/><path d="M221.95669,186.09765c-13.09339,4.00272 -26.91187,-2.76295 -31.93124,-15.23263c5.0615,6.28439 13.61516,9.20038 21.80388,6.69704c10.74676,-3.28536 16.79543,-14.66063 13.51009,-25.40739c-3.13014,-10.23908 -13.6039,-16.21347 -23.88103,-13.91371c1.61345,-0.9061 3.3483,-1.654 5.19043,-2.21713c13.8275,-4.22714 28.4637,3.55549 32.69085,17.38299c4.22714,13.8275 -3.55549,28.4637 -17.38299,32.69085z" fill="url(#color-13)"/><path d="M220.9972,181.04111c0.03191,-0.466 0.04812,-0.93634 0.04812,-1.41044c0,-11.23773 -9.10998,-20.34771 -20.34771,-20.34771c-1.26398,0 -2.50104,0.11525 -3.70126,0.33581c2.72654,-5.50438 8.40148,-9.28881 14.96032,-9.28881c9.21494,0 16.68512,7.47018 16.68512,16.68512c0,5.88314 -3.04483,11.0551 -7.64459,14.02601z" fill="url(#color-14)"/></g><g data-paper-data="{&quot;index&quot;:null}" stroke-width="0"><path d="M262.52456,212.69402c8.19776,-3.74057 13.89523,-12.00904 13.89523,-21.60822c0,-13.11069 -10.62829,-23.73899 -23.73899,-23.73899c-0.55476,0 -1.10504,0.01903 -1.65029,0.05648c3.92102,-2.60702 8.6278,-4.12601 13.68936,-4.12601c13.67258,0 24.75637,11.08382 24.75637,24.75637c0,13.67257 -11.08381,24.75637 -24.75637,24.75637c-0.7398,0 -1.47201,-0.03245 -2.19529,-0.09599z" fill="url(#color-15)"/><path d="M207.40719,187.1858c0,-10.3949 8.42673,-18.82163 18.82163,-18.82163c7.24116,0 13.52725,4.08919 16.67502,10.0843c-2.48685,-2.85434 -6.14856,-4.65824 -10.23159,-4.65824c-7.49181,0 -13.56514,6.07333 -13.56514,13.56514c0,7.49181 6.07333,13.56514 13.56514,13.56514c3.82523,0 7.28066,-1.58331 9.74668,-4.13033c-3.28101,5.51889 -9.30366,9.21727 -16.19011,9.21727c-10.3949,0 -18.82163,-8.42673 -18.82163,-18.82163z" fill="url(#color-16)"/><path d="M254.98988,226.35514c0,-8.42829 6.83249,-15.26078 15.26078,-15.26078c6.09383,0 11.35342,3.57174 13.79953,8.73592c-2.48699,-2.85903 -6.15178,-4.66639 -10.23868,-4.66639c-7.49182,0 -13.56514,6.07333 -13.56514,13.56514c0,5.98867 3.88072,11.07094 9.26459,12.86928c-8.08476,-0.38584 -14.52108,-7.06288 -14.52108,-15.24318z" data-paper-data="{&quot;index&quot;:null}" fill="url(#color-17)"/><path d="M218.0438,221.37749c2.14964,1.43084 4.73082,2.26464 7.50674,2.26464c7.49181,0 13.56514,-6.07333 13.56514,-13.56514c0,-1.55076 -0.26021,-3.04073 -0.73937,-4.42865c2.64097,2.38916 4.30022,5.84337 4.30022,9.68514c0,7.21088 -5.84557,13.05645 -13.05645,13.05645c-5.03001,0 -9.39566,-2.84439 -11.57628,-7.01244z" fill="url(#color-18)"/><path d="M208.7973,230.48122c-0.5129,-1.256 -0.9752,-2.54511 -1.38377,-3.86569c-7.55095,-24.40629 6.11299,-50.31276 30.51928,-57.86371c24.40629,-7.55095 50.31276,6.11299 57.86371,30.51928c2.79535,9.03517 2.68328,18.27592 0.19508,26.71491c-0.23428,-0.99396 -0.50424,-1.98678 -0.81061,-2.97703c-7.24065,-23.4033 -32.08245,-36.50571 -55.48575,-29.26506c-17.13506,5.30134 -28.7482,20.03807 -30.89794,36.73732z" data-paper-data="{&quot;index&quot;:null}" fill="url(#color-19)"/><path d="M272.1836,160.74362c20.11467,15.75067 23.6524,44.82528 7.90174,64.93996c-15.75067,20.11467 -44.82528,23.6524 -64.93996,7.90174c-7.44642,-5.83088 -12.62101,-13.48774 -15.38625,-21.84007c0.75901,0.68319 1.54667,1.34512 2.3628,1.98418c19.28805,15.10338 47.16781,11.71105 62.2712,-7.577c11.05816,-14.12203 12.20142,-32.8498 4.45022,-47.79654c1.1373,0.73972 2.25189,1.5355 3.34026,2.38773z" data-paper-data="{&quot;index&quot;:null}" fill="url(#color-20)"/><path d="M248.3739,163.27725c0.31695,0 0.63297,0.00391 0.94806,0.01169c-13.61773,4.40476 -23.46619,17.18894 -23.46619,32.27334c0,18.72954 15.18329,33.91285 33.91285,33.91285c6.8185,0 13.167,-2.01228 18.48404,-5.47538c-6.89576,8.94043 -17.71469,14.69967 -29.87876,14.69967c-20.82727,0 -37.71108,-16.88382 -37.71108,-37.71108c0,-20.82727 16.88382,-37.71108 37.71108,-37.71108z" fill="url(#color-21)"/><path d="M219.44228,197.43381c3.00313,7.48957 10.33059,12.77882 18.89341,12.77882c11.23773,0 20.34771,-9.10998 20.34771,-20.34771c0,-10.70684 -8.26958,-19.48223 -18.77004,-20.28745c1.80787,-0.39483 3.68557,-0.60287 5.61186,-0.60287c14.45922,0 26.18072,11.7215 26.18072,26.18072c0,14.45922 -11.7215,26.18072 -26.18072,26.18072c-13.69155,0 -24.92838,-10.50992 -26.08293,-23.90223z" fill="url(#color-22)"/><path d="M249.36161,173.90235c13.09339,-4.00272 26.91187,2.76295 31.93124,15.23263c-5.0615,-6.28439 -13.61516,-9.20038 -21.80388,-6.69704c-10.74676,3.28536 -16.79543,14.66063 -13.51009,25.40739c3.13014,10.23908 13.6039,16.21347 23.88103,13.91371c-1.61345,0.9061 -3.3483,1.654 -5.19043,2.21713c-13.8275,4.22714 -28.4637,-3.55549 -32.69085,-17.38299c-4.22714,-13.8275 3.55549,-28.4637 17.38299,-32.69085z" fill="url(#color-23)"/><path d="M250.32111,178.95889c-0.03191,0.466 -0.04812,0.93634 -0.04812,1.41044c0,11.23773 9.10998,20.34771 20.34771,20.34771c1.26398,0 2.50104,-0.11525 3.70126,-0.33581c-2.72654,5.50438 -8.40148,9.28881 -14.96032,9.28881c-9.21494,0 -16.68512,-7.47018 -16.68512,-16.68512c0,-5.88314 3.04483,-11.0551 7.64459,-14.02601z" fill="url(#color-24)"/></g><g data-paper-data="{&quot;index&quot;:null}" stroke-width="0"><path d="M265.90984,153.12718c-0.02389,0.50696 -0.06977,1.00767 -0.13668,1.50128c-2.29855,-5.73851 -7.78067,-9.90989 -14.35874,-10.21992c-8.9844,-0.42344 -16.61094,6.51659 -17.03439,15.50097c-0.0179,0.38016 -0.02264,0.75787 -0.01459,1.13273c-1.65987,-2.77117 -2.54879,-6.04564 -2.38531,-9.51419c0.44158,-9.36944 8.39501,-16.60689 17.76444,-16.1653c9.36944,0.44158 16.60689,8.39499 16.1653,17.76443z" fill="url(#color-25)"/><path d="M234.22287,178.06922c0.23387,-4.96217 3.2391,-9.13778 7.44905,-11.10123c-2.03632,1.61198 -3.39075,4.06299 -3.52262,6.86098c-0.24196,5.13393 3.72377,9.49198 8.85769,9.73394c5.13393,0.24196 9.49198,-3.72377 9.73394,-8.85769c0.12355,-2.62133 -0.84984,-5.04039 -2.5156,-6.81254c3.67598,2.42662 6.01585,6.67324 5.79344,11.39234c-0.33572,7.12333 -6.38251,12.62577 -13.50585,12.29006c-7.12334,-0.33572 -12.62577,-6.38251 -12.29006,-13.50585z" fill="url(#color-26)"/><path d="M285.80615,150.77442c-0.52553,5.52779 -5.30899,9.72277 -10.91472,9.45857c-5.77568,-0.27221 -10.23713,-5.175 -9.96491,-10.95069c0.19682,-4.17594 2.81431,-7.66483 6.43218,-9.1743c-2.03955,1.61194 -3.39642,4.06493 -3.52843,6.86557c-0.24196,5.13393 3.72377,9.49198 8.85769,9.73394c4.10387,0.19342 7.71196,-2.30179 9.11819,-5.93312z" data-paper-data="{&quot;index&quot;:null}" fill="url(#color-27)"/><path d="M275.46642,177.68394c-0.16246,3.44693 -2.25265,6.34672 -5.17932,7.70642c1.04994,-1.42687 1.7047,-3.16874 1.79436,-5.07102c0.24196,-5.13393 -3.72378,-9.49198 -8.85771,-9.73394c-1.06268,-0.05008 -2.09212,0.0801 -3.05871,0.36362c1.72253,-1.7326 4.14319,-2.75809 6.77585,-2.634c4.94143,0.23288 8.75843,4.4275 8.52554,9.36892z" fill="url(#color-28)"/><path d="M273.53324,192.84416c-16.96883,4.38619 -34.28052,-5.81404 -38.66671,-22.78287c-4.38619,-16.96883 5.81404,-34.28052 22.78287,-38.66671c6.28184,-1.62376 12.61064,-1.2485 18.31328,0.72915c-0.68871,0.12844 -1.37776,0.28138 -2.06625,0.45934c-16.27149,4.20596 -26.05255,20.80618 -21.8466,37.07767c3.07945,11.91341 12.80305,20.34754 24.17716,22.36003c-0.87728,0.31091 -1.77559,0.58606 -2.69375,0.82341z" data-paper-data="{&quot;index&quot;:null}" fill="url(#color-29)"/><path d="M228.74082,148.54339c0.54364,-0.75547 1.12495,-1.49356 1.74412,-2.21186c11.44316,-13.27533 31.48144,-14.76061 44.75678,-3.31745c13.27533,11.44316 14.76061,31.48145 3.31745,44.75679c-4.23624,4.91452 -9.65041,8.21322 -15.46333,9.8384c0.49269,-0.49807 0.97173,-1.01645 1.43602,-1.55508c10.9729,-12.72977 9.54866,-31.94457 -3.18111,-42.91746c-9.32029,-8.03395 -22.117,-9.42226 -32.60992,-4.59332z" data-paper-data="{&quot;index&quot;:null}" fill="url(#color-30)"/><path d="M256.07662,189.78985c-14.27236,-0.67267 -25.29707,-12.78799 -24.6244,-27.06034c0.01023,-0.21719 0.02312,-0.43364 0.03862,-0.6493c2.57865,9.47412 11.02122,16.63589 21.35814,17.12309c12.83484,0.60491 23.72991,-9.3094 24.33484,-22.14424c0.22022,-4.67253 -0.95372,-9.08798 -3.15515,-12.84345c5.90391,5.01422 9.50113,12.61415 9.10827,20.94986c-0.67267,14.27236 -12.78799,25.29707 -27.06034,24.6244z" fill="url(#color-31)"/><path d="M253.92433,183.65872c5.2294,-1.81608 9.09063,-6.66655 9.36719,-12.53442c0.36295,-7.7009 -5.58563,-14.23796 -13.28655,-14.6009c-7.3371,-0.3458 -13.6177,5.0377 -14.50865,12.20736c-0.21217,-1.25163 -0.29411,-2.54508 -0.23188,-3.86512c0.467,-9.9085 8.87799,-17.56235 18.7865,-17.09535c9.90849,0.467 17.56235,8.87799 17.09535,18.7865c-0.4422,9.38244 -8.00728,16.74328 -17.22196,17.10194z" fill="url(#color-32)"/><path d="M238.76516,162.3958c-2.32008,-9.10183 2.76256,-18.35273 11.4698,-21.38963c-4.47,3.26554 -6.7445,9.03293 -5.29351,14.7253c1.90427,7.47058 9.50409,11.98296 16.97466,10.0787c7.11765,-1.81431 11.55003,-8.79873 10.30598,-15.91563c0.56883,1.13493 1.02531,2.34792 1.35171,3.62847c2.45016,9.61213 -3.35578,19.39056 -12.96791,21.84071c-9.61213,2.45016 -19.39056,-3.35578 -21.84071,-12.96791z" fill="url(#color-33)"/><path d="M242.26126,161.9016c0.3183,0.03691 0.6401,0.06321 0.96498,0.07853c7.7009,0.36295 14.23796,-5.58563 14.6009,-13.28655c0.04083,-0.86618 0.00181,-1.71763 -0.11059,-2.54722c3.68394,2.0462 6.09401,6.0573 5.88218,10.5519c-0.29762,6.31475 -5.658,11.1926 -11.97274,10.89498c-4.03155,-0.19 -7.47742,-2.44358 -9.36474,-5.69164z" fill="url(#color-34)"/></g><g data-paper-data="{&quot;index&quot;:null}" stroke-width="0"><path d="M234.71002,180.52876c-0.02389,0.50696 -0.06977,1.00767 -0.13668,1.50128c-2.29855,-5.73851 -7.78067,-9.90989 -14.35874,-10.21992c-8.9844,-0.42344 -16.61094,6.51659 -17.03439,15.50097c-0.0179,0.38016 -0.02264,0.75787 -0.01459,1.13273c-1.65987,-2.77117 -2.54879,-6.04564 -2.38531,-9.51419c0.44158,-9.36944 8.39501,-16.60689 17.76444,-16.1653c9.36944,0.44158 16.60689,8.39499 16.1653,17.76443z" fill="url(#color-35)"/><path d="M203.02306,205.47079c0.23387,-4.96217 3.2391,-9.13778 7.44905,-11.10123c-2.03632,1.61198 -3.39075,4.06299 -3.52262,6.86098c-0.24196,5.13393 3.72377,9.49198 8.85769,9.73394c5.13393,0.24196 9.49198,-3.72377 9.73394,-8.85769c0.12355,-2.62133 -0.84984,-5.04039 -2.5156,-6.81254c3.67598,2.42662 6.01585,6.67324 5.79344,11.39234c-0.33572,7.12333 -6.38251,12.62577 -13.50585,12.29006c-7.12334,-0.33572 -12.62577,-6.38251 -12.29006,-13.50585z" fill="url(#color-36)"/><path d="M254.60634,178.17601c-0.52553,5.52779 -5.30899,9.72277 -10.91472,9.45857c-5.77568,-0.27221 -10.23713,-5.175 -9.96491,-10.95069c0.19682,-4.17594 2.81431,-7.66483 6.43218,-9.1743c-2.03955,1.61194 -3.39642,4.06493 -3.52843,6.86557c-0.24196,5.13393 3.72377,9.49198 8.85769,9.73394c4.10387,0.19342 7.71196,-2.30179 9.11819,-5.93312z" data-paper-data="{&quot;index&quot;:null}" fill="url(#color-37)"/><path d="M244.2666,205.08552c-0.16246,3.44693 -2.25265,6.34672 -5.17932,7.70642c1.04994,-1.42687 1.7047,-3.16874 1.79436,-5.07102c0.24196,-5.13393 -3.72378,-9.49198 -8.85771,-9.73394c-1.06268,-0.05008 -2.09212,0.0801 -3.05871,0.36362c1.72253,-1.7326 4.14319,-2.75809 6.77585,-2.634c4.94143,0.23288 8.75843,4.4275 8.52554,9.36892z" fill="url(#color-38)"/><path d="M242.33342,220.24574c-16.96883,4.38619 -34.28052,-5.81404 -38.66671,-22.78287c-4.38619,-16.96883 5.81404,-34.28052 22.78287,-38.66671c6.28184,-1.62376 12.61064,-1.2485 18.31328,0.72915c-0.68871,0.12844 -1.37776,0.28138 -2.06625,0.45934c-16.27149,4.20596 -26.05255,20.80618 -21.8466,37.07767c3.07945,11.91341 12.80305,20.34754 24.17716,22.36003c-0.87728,0.31091 -1.77559,0.58606 -2.69375,0.82341z" data-paper-data="{&quot;index&quot;:null}" fill="url(#color-39)"/><path d="M197.54101,175.94496c0.54364,-0.75547 1.12495,-1.49356 1.74412,-2.21186c11.44316,-13.27533 31.48144,-14.76061 44.75678,-3.31745c13.27533,11.44316 14.76061,31.48145 3.31745,44.75679c-4.23624,4.91452 -9.65041,8.21322 -15.46333,9.8384c0.49269,-0.49807 0.97173,-1.01645 1.43602,-1.55508c10.9729,-12.72977 9.54866,-31.94457 -3.18111,-42.91746c-9.32029,-8.03395 -22.117,-9.42226 -32.60992,-4.59332z" data-paper-data="{&quot;index&quot;:null}" fill="url(#color-40)"/><path d="M224.87681,217.19142c-14.27236,-0.67267 -25.29707,-12.78799 -24.6244,-27.06034c0.01023,-0.21719 0.02312,-0.43364 0.03862,-0.6493c2.57865,9.47412 11.02122,16.63589 21.35814,17.12309c12.83484,0.60491 23.72991,-9.3094 24.33484,-22.14424c0.22022,-4.67253 -0.95372,-9.08798 -3.15515,-12.84345c5.90391,5.01422 9.50113,12.61415 9.10827,20.94986c-0.67267,14.27236 -12.78799,25.29707 -27.06034,24.6244z" fill="url(#color-41)"/><path d="M222.72453,211.0603c5.2294,-1.81608 9.09063,-6.66655 9.36719,-12.53442c0.36295,-7.7009 -5.58563,-14.23796 -13.28655,-14.6009c-7.3371,-0.3458 -13.6177,5.0377 -14.50865,12.20736c-0.21217,-1.25163 -0.29411,-2.54508 -0.23188,-3.86512c0.467,-9.9085 8.87799,-17.56235 18.7865,-17.09535c9.90849,0.467 17.56235,8.87799 17.09535,18.7865c-0.4422,9.38244 -8.00728,16.74328 -17.22196,17.10194z" fill="url(#color-42)"/><path d="M207.56535,189.79738c-2.32008,-9.10183 2.76256,-18.35273 11.4698,-21.38963c-4.47,3.26554 -6.7445,9.03293 -5.29351,14.7253c1.90427,7.47058 9.50409,11.98296 16.97466,10.0787c7.11765,-1.81431 11.55003,-8.79873 10.30598,-15.91563c0.56883,1.13493 1.02531,2.34792 1.35171,3.62847c2.45016,9.61213 -3.35578,19.39056 -12.96791,21.84071c-9.61213,2.45016 -19.39056,-3.35578 -21.84071,-12.96791z" fill="url(#color-43)"/><path d="M211.06145,189.30317c0.3183,0.03691 0.6401,0.06321 0.96498,0.07853c7.7009,0.36295 14.23796,-5.58563 14.6009,-13.28655c0.04083,-0.86618 0.00181,-1.71763 -0.11059,-2.54722c3.68394,2.0462 6.09401,6.0573 5.88218,10.5519c-0.29762,6.31475 -5.658,11.1926 -11.97274,10.89498c-4.03155,-0.19 -7.47742,-2.44358 -9.36474,-5.69164z" fill="url(#color-44)"/></g><g data-paper-data="{&quot;index&quot;:null}" stroke-width="0"><path d="M230.91179,148.24373c-0.02389,0.50696 -0.06977,1.00767 -0.13668,1.50128c-2.29855,-5.73851 -7.78067,-9.90989 -14.35874,-10.21992c-8.9844,-0.42344 -16.61094,6.51659 -17.03439,15.50097c-0.0179,0.38016 -0.02264,0.75787 -0.01459,1.13273c-1.65987,-2.77117 -2.54879,-6.04564 -2.38531,-9.51419c0.44158,-9.36944 8.39501,-16.60689 17.76444,-16.1653c9.36944,0.44158 16.60689,8.39499 16.1653,17.76443z" fill="url(#color-45)"/><path d="M199.22482,173.18577c0.23387,-4.96217 3.2391,-9.13778 7.44905,-11.10123c-2.03632,1.61198 -3.39075,4.06299 -3.52262,6.86098c-0.24196,5.13393 3.72377,9.49198 8.85769,9.73394c5.13393,0.24196 9.49198,-3.72377 9.73394,-8.85769c0.12355,-2.62133 -0.84984,-5.04039 -2.5156,-6.81254c3.67598,2.42662 6.01585,6.67324 5.79344,11.39234c-0.33572,7.12333 -6.38251,12.62577 -13.50585,12.29006c-7.12334,-0.33572 -12.62577,-6.38251 -12.29006,-13.50585z" fill="url(#color-46)"/><path d="M250.8081,145.89098c-0.52553,5.52779 -5.30899,9.72277 -10.91472,9.45857c-5.77568,-0.27221 -10.23713,-5.175 -9.96491,-10.95069c0.19682,-4.17594 2.81431,-7.66483 6.43218,-9.1743c-2.03955,1.61194 -3.39642,4.06493 -3.52843,6.86557c-0.24196,5.13393 3.72377,9.49198 8.85769,9.73394c4.10387,0.19342 7.71196,-2.30179 9.11819,-5.93312z" data-paper-data="{&quot;index&quot;:null}" fill="url(#color-47)"/><path d="M240.46836,172.8005c-0.16246,3.44693 -2.25265,6.34672 -5.17932,7.70642c1.04994,-1.42687 1.7047,-3.16874 1.79436,-5.07102c0.24196,-5.13393 -3.72378,-9.49198 -8.85771,-9.73394c-1.06268,-0.05008 -2.09212,0.0801 -3.05871,0.36362c1.72253,-1.7326 4.14319,-2.75809 6.77585,-2.634c4.94143,0.23288 8.75843,4.4275 8.52554,9.36892z" fill="url(#color-48)"/><path d="M238.53518,187.96072c-16.96883,4.38619 -34.28052,-5.81404 -38.66671,-22.78287c-4.38619,-16.96883 5.81404,-34.28052 22.78287,-38.66671c6.28184,-1.62376 12.61064,-1.2485 18.31328,0.72915c-0.68871,0.12844 -1.37776,0.28138 -2.06625,0.45934c-16.27149,4.20596 -26.05255,20.80618 -21.8466,37.07767c3.07945,11.91341 12.80305,20.34754 24.17716,22.36003c-0.87728,0.31091 -1.77559,0.58606 -2.69375,0.82341z" data-paper-data="{&quot;index&quot;:null}" fill="url(#color-49)"/><path d="M193.74277,143.65993c0.54364,-0.75547 1.12495,-1.49356 1.74412,-2.21186c11.44316,-13.27533 31.48144,-14.76061 44.75678,-3.31745c13.27533,11.44316 14.76061,31.48145 3.31745,44.75679c-4.23624,4.91452 -9.65041,8.21322 -15.46333,9.8384c0.49269,-0.49807 0.97173,-1.01645 1.43602,-1.55508c10.9729,-12.72977 9.54866,-31.94457 -3.18111,-42.91746c-9.32029,-8.03395 -22.117,-9.42226 -32.60992,-4.59332z" data-paper-data="{&quot;index&quot;:null}" fill="url(#color-50)"/><path d="M221.07856,184.9064c-14.27236,-0.67267 -25.29707,-12.78799 -24.6244,-27.06034c0.01023,-0.21719 0.02312,-0.43364 0.03862,-0.6493c2.57865,9.47412 11.02122,16.63589 21.35814,17.12309c12.83484,0.60491 23.72991,-9.3094 24.33484,-22.14424c0.22022,-4.67253 -0.95372,-9.08798 -3.15515,-12.84345c5.90391,5.01422 9.50113,12.61415 9.10827,20.94986c-0.67267,14.27236 -12.78799,25.29707 -27.06034,24.6244z" fill="url(#color-51)"/><path d="M218.92628,178.77527c5.2294,-1.81608 9.09063,-6.66655 9.36719,-12.53442c0.36295,-7.7009 -5.58563,-14.23796 -13.28655,-14.6009c-7.3371,-0.3458 -13.6177,5.0377 -14.50865,12.20736c-0.21217,-1.25163 -0.29411,-2.54508 -0.23188,-3.86512c0.467,-9.9085 8.87799,-17.56235 18.7865,-17.09535c9.90849,0.467 17.56235,8.87799 17.09535,18.7865c-0.4422,9.38244 -8.00728,16.74328 -17.22196,17.10194z" fill="url(#color-52)"/><path d="M203.76711,157.51234c-2.32008,-9.10183 2.76256,-18.35273 11.4698,-21.38963c-4.47,3.26554 -6.7445,9.03293 -5.29351,14.7253c1.90427,7.47058 9.50409,11.98296 16.97466,10.0787c7.11765,-1.81431 11.55003,-8.79873 10.30598,-15.91563c0.56883,1.13493 1.02531,2.34792 1.35171,3.62847c2.45016,9.61213 -3.35578,19.39056 -12.96791,21.84071c-9.61213,2.45016 -19.39056,-3.35578 -21.84071,-12.96791z" fill="url(#color-53)"/><path d="M207.26321,157.01815c0.3183,0.03691 0.6401,0.06321 0.96498,0.07853c7.7009,0.36295 14.23796,-5.58563 14.6009,-13.28655c0.04083,-0.86618 0.00181,-1.71763 -0.11059,-2.54722c3.68394,2.0462 6.09401,6.0573 5.88218,10.5519c-0.29762,6.31475 -5.658,11.1926 -11.97274,10.89498c-4.03155,-0.19 -7.47742,-2.44358 -9.36474,-5.69164z" fill="url(#color-54)"/></g><g data-paper-data="{&quot;index&quot;:null}" stroke-width="0"><path d="M240.40651,211.75627c0.02389,-0.50696 0.06977,-1.00767 0.13668,-1.50128c2.29855,5.73851 7.78067,9.90989 14.35874,10.21992c8.9844,0.42344 16.61094,-6.51659 17.03439,-15.50097c0.0179,-0.38016 0.02264,-0.75787 0.01459,-1.13273c1.65987,2.77117 2.54879,6.04564 2.38531,9.51419c-0.44158,9.36944 -8.39501,16.60689 -17.76444,16.1653c-9.36944,-0.44158 -16.60689,-8.39499 -16.1653,-17.76443z" fill="url(#color-55)"/><path d="M272.09348,186.81423c-0.23387,4.96217 -3.2391,9.13778 -7.44905,11.10123c2.03632,-1.61198 3.39075,-4.06299 3.52262,-6.86098c0.24196,-5.13393 -3.72377,-9.49198 -8.85769,-9.73394c-5.13393,-0.24196 -9.49198,3.72377 -9.73394,8.85769c-0.12355,2.62133 0.84984,5.04039 2.5156,6.81254c-3.67598,-2.42662 -6.01585,-6.67324 -5.79344,-11.39234c0.33572,-7.12333 6.38251,-12.62577 13.50585,-12.29006c7.12334,0.33572 12.62577,6.38251 12.29006,13.50585z" fill="url(#color-56)"/><path d="M220.5102,214.10902c0.52553,-5.52779 5.30899,-9.72277 10.91472,-9.45857c5.77568,0.27221 10.23713,5.175 9.96491,10.95069c-0.19682,4.17594 -2.81431,7.66483 -6.43218,9.1743c2.03955,-1.61194 3.39642,-4.06493 3.52843,-6.86557c0.24196,-5.13393 -3.72377,-9.49198 -8.85769,-9.73394c-4.10387,-0.19342 -7.71196,2.30179 -9.11819,5.93312z" data-paper-data="{&quot;index&quot;:null}" fill="url(#color-57)"/><path d="M230.84995,187.1995c0.16246,-3.44693 2.25265,-6.34672 5.17932,-7.70642c-1.04994,1.42687 -1.7047,3.16874 -1.79436,5.07102c-0.24196,5.13393 3.72378,9.49198 8.85771,9.73394c1.06268,0.05008 2.09212,-0.0801 3.05871,-0.36362c-1.72253,1.7326 -4.14319,2.75809 -6.77585,2.634c-4.94143,-0.23288 -8.75843,-4.4275 -8.52554,-9.36892z" fill="url(#color-58)"/><path d="M232.78313,172.03928c16.96883,-4.38619 34.28052,5.81404 38.66671,22.78287c4.38619,16.96883 -5.81404,34.28052 -22.78287,38.66671c-6.28184,1.62376 -12.61064,1.2485 -18.31328,-0.72915c0.68871,-0.12844 1.37776,-0.28138 2.06625,-0.45934c16.27149,-4.20596 26.05255,-20.80618 21.8466,-37.07767c-3.07945,-11.91341 -12.80305,-20.34754 -24.17716,-22.36003c0.87728,-0.31091 1.77559,-0.58606 2.69375,-0.82341z" data-paper-data="{&quot;index&quot;:null}" fill="url(#color-59)"/><path d="M277.57554,216.34007c-0.54364,0.75547 -1.12495,1.49356 -1.74412,2.21186c-11.44316,13.27533 -31.48144,14.76061 -44.75678,3.31745c-13.27533,-11.44316 -14.76061,-31.48145 -3.31745,-44.75679c4.23624,-4.91452 9.65041,-8.21322 15.46333,-9.8384c-0.49269,0.49807 -0.97173,1.01645 -1.43602,1.55508c-10.9729,12.72977 -9.54866,31.94457 3.18111,42.91746c9.32029,8.03395 22.117,9.42226 32.60992,4.59332z" data-paper-data="{&quot;index&quot;:null}" fill="url(#color-60)"/><path d="M250.23973,175.0936c14.27236,0.67267 25.29707,12.78799 24.6244,27.06034c-0.01023,0.21719 -0.02312,0.43364 -0.03862,0.6493c-2.57865,-9.47412 -11.02122,-16.63589 -21.35814,-17.12309c-12.83484,-0.60491 -23.72991,9.3094 -24.33484,22.14424c-0.22022,4.67253 0.95372,9.08798 3.15515,12.84345c-5.90391,-5.01422 -9.50113,-12.61415 -9.10827,-20.94986c0.67267,-14.27236 12.78799,-25.29707 27.06034,-24.6244z" fill="url(#color-61)"/><path d="M252.39202,181.22473c-5.2294,1.81608 -9.09063,6.66655 -9.36719,12.53442c-0.36295,7.7009 5.58563,14.23796 13.28655,14.6009c7.3371,0.3458 13.6177,-5.0377 14.50865,-12.20736c0.21217,1.25163 0.29411,2.54508 0.23188,3.86512c-0.467,9.9085 -8.87799,17.56235 -18.7865,17.09535c-9.90849,-0.467 -17.56235,-8.87799 -17.09535,-18.7865c0.4422,-9.38244 8.00728,-16.74328 17.22196,-17.10194z" fill="url(#color-62)"/><path d="M267.5512,202.48765c2.32008,9.10183 -2.76256,18.35273 -11.4698,21.38963c4.47,-3.26554 6.7445,-9.03293 5.29351,-14.7253c-1.90427,-7.47058 -9.50409,-11.98296 -16.97466,-10.0787c-7.11765,1.81431 -11.55003,8.79873 -10.30598,15.91563c-0.56883,-1.13493 -1.02531,-2.34792 -1.35171,-3.62847c-2.45016,-9.61213 3.35578,-19.39056 12.96791,-21.84071c9.61213,-2.45016 19.39056,3.35578 21.84071,12.96791z" fill="url(#color-63)"/><path d="M264.0551,202.98185c-0.3183,-0.03691 -0.6401,-0.06321 -0.96498,-0.07853c-7.7009,-0.36295 -14.23796,5.58563 -14.6009,13.28655c-0.04083,0.86618 -0.00181,1.71763 0.11059,2.54722c-3.68394,-2.0462 -6.09401,-6.0573 -5.88218,-10.5519c0.29762,-6.31475 5.658,-11.1926 11.97274,-10.89498c4.03155,0.19 7.47742,2.44358 9.36474,5.69164z" fill="url(#color-64)"/></g><g data-paper-data="{&quot;index&quot;:null}" stroke-width="0"><path d="M243.79179,152.18944c-8.19776,3.74057 -13.89523,12.00904 -13.89523,21.60822c0,13.11069 10.62829,23.73899 23.73899,23.73899c0.55476,0 1.10504,-0.01903 1.65029,-0.05648c-3.92102,2.60702 -8.6278,4.12601 -13.68936,4.12601c-13.67258,0 -24.75637,-11.08382 -24.75637,-24.75637c0,-13.67257 11.08381,-24.75637 24.75637,-24.75637c0.7398,0 1.47201,0.03245 2.19529,0.09599z" fill="url(#color-65)"/><path d="M298.90917,177.69766c0,10.3949 -8.42673,18.82163 -18.82163,18.82163c-7.24116,0 -13.52725,-4.08919 -16.67502,-10.0843c2.48685,2.85434 6.14856,4.65824 10.23159,4.65824c7.49181,0 13.56514,-6.07333 13.56514,-13.56514c0,-7.49181 -6.07333,-13.56514 -13.56514,-13.56514c-3.82523,0 -7.28066,1.58331 -9.74668,4.13033c3.28101,-5.51889 9.30366,-9.21727 16.19011,-9.21727c10.3949,0 18.82163,8.42673 18.82163,18.82163z" fill="url(#color-66)"/><path d="M251.32647,138.52831c0,8.42829 -6.83249,15.26078 -15.26078,15.26078c-6.09383,0 -11.35342,-3.57174 -13.79953,-8.73592c2.48699,2.85903 6.15178,4.66639 10.23868,4.66639c7.49182,0 13.56514,-6.07333 13.56514,-13.56514c0,-5.98867 -3.88072,-11.07094 -9.26459,-12.86928c8.08476,0.38584 14.52108,7.06288 14.52108,15.24318z" data-paper-data="{&quot;index&quot;:null}" fill="url(#color-67)"/><path d="M288.27255,143.50595c-2.14964,-1.43084 -4.73082,-2.26464 -7.50674,-2.26464c-7.49181,0 -13.56514,6.07333 -13.56514,13.56514c0,1.55076 0.26021,3.04073 0.73937,4.42865c-2.64097,-2.38916 -4.30022,-5.84337 -4.30022,-9.68514c0,-7.21088 5.84557,-13.05645 13.05645,-13.05645c5.03001,0 9.39566,2.84439 11.57628,7.01244z" fill="url(#color-68)"/><path d="M297.51906,134.40222c0.5129,1.256 0.9752,2.54511 1.38377,3.86569c7.55095,24.40629 -6.11299,50.31276 -30.51928,57.86371c-24.40629,7.55095 -50.31276,-6.11299 -57.86371,-30.51928c-2.79535,-9.03517 -2.68328,-18.27592 -0.19508,-26.71491c0.23428,0.99396 0.50424,1.98678 0.81061,2.97703c7.24065,23.4033 32.08245,36.50571 55.48575,29.26506c17.13506,-5.30134 28.7482,-20.03807 30.89794,-36.73732z" data-paper-data="{&quot;index&quot;:null}" fill="url(#color-69)"/><path d="M234.13275,204.13982c-20.11467,-15.75067 -23.6524,-44.82528 -7.90174,-64.93996c15.75067,-20.11467 44.82528,-23.6524 64.93996,-7.90174c7.44642,5.83088 12.62101,13.48774 15.38625,21.84007c-0.75901,-0.68319 -1.54667,-1.34512 -2.3628,-1.98418c-19.28805,-15.10338 -47.16781,-11.71105 -62.2712,7.577c-11.05816,14.12203 -12.20142,32.8498 -4.45022,47.79654c-1.1373,-0.73972 -2.25189,-1.5355 -3.34026,-2.38773z" data-paper-data="{&quot;index&quot;:null}" fill="url(#color-70)"/><path d="M257.94245,201.6062c-0.31695,0 -0.63297,-0.00391 -0.94806,-0.01169c13.61773,-4.40476 23.46619,-17.18894 23.46619,-32.27334c0,-18.72954 -15.18329,-33.91285 -33.91285,-33.91285c-6.8185,0 -13.167,2.01228 -18.48404,5.47538c6.89576,-8.94043 17.71469,-14.69967 29.87876,-14.69967c20.82727,0 37.71108,16.88382 37.71108,37.71108c0,20.82727 -16.88382,37.71108 -37.71108,37.71108z" fill="url(#color-71)"/><path d="M286.87408,167.44965c-3.00313,-7.48957 -10.33059,-12.77882 -18.89341,-12.77882c-11.23773,0 -20.34771,9.10998 -20.34771,20.34771c0,10.70684 8.26958,19.48223 18.77004,20.28745c-1.80787,0.39483 -3.68557,0.60287 -5.61186,0.60287c-14.45922,0 -26.18072,-11.7215 -26.18072,-26.18072c0,-14.45922 11.7215,-26.18072 26.18072,-26.18072c13.69155,0 24.92838,10.50992 26.08293,23.90223z" fill="url(#color-72)"/><path d="M256.95474,190.9811c-13.09339,4.00272 -26.91187,-2.76295 -31.93124,-15.23263c5.0615,6.28439 13.61516,9.20038 21.80388,6.69704c10.74676,-3.28536 16.79543,-14.66063 13.51009,-25.40739c-3.13014,-10.23908 -13.6039,-16.21347 -23.88103,-13.91371c1.61345,-0.9061 3.3483,-1.654 5.19043,-2.21713c13.8275,-4.22714 28.4637,3.55549 32.69085,17.38299c4.22714,13.8275 -3.55549,28.4637 -17.38299,32.69085z" fill="url(#color-73)"/><path d="M255.99524,185.92455c0.03191,-0.466 0.04812,-0.93634 0.04812,-1.41044c0,-11.23773 -9.10998,-20.34771 -20.34771,-20.34771c-1.26398,0 -2.50104,0.11525 -3.70126,0.33581c2.72654,-5.50438 8.40148,-9.28881 14.96032,-9.28881c9.21494,0 16.68512,7.47018 16.68512,16.68512c0,5.88314 -3.04483,11.0551 -7.64459,14.02601z" fill="url(#color-74)"/></g><g data-paper-data="{&quot;index&quot;:null}" stroke-width="0"><path d="M212.59197,179.59101c-8.19776,3.74057 -13.89523,12.00904 -13.89523,21.60822c0,13.11069 10.62829,23.73899 23.73899,23.73899c0.55476,0 1.10504,-0.01903 1.65029,-0.05648c-3.92102,2.60702 -8.6278,4.12601 -13.68936,4.12601c-13.67258,0 -24.75637,-11.08382 -24.75637,-24.75637c0,-13.67257 11.08381,-24.75637 24.75637,-24.75637c0.7398,0 1.47201,0.03245 2.19529,0.09599z" fill="url(#color-75)"/><path d="M267.70935,205.09923c0,10.3949 -8.42673,18.82163 -18.82163,18.82163c-7.24116,0 -13.52725,-4.08919 -16.67502,-10.0843c2.48685,2.85434 6.14856,4.65824 10.23159,4.65824c7.49181,0 13.56514,-6.07333 13.56514,-13.56514c0,-7.49181 -6.07333,-13.56514 -13.56514,-13.56514c-3.82523,0 -7.28066,1.58331 -9.74668,4.13033c3.28101,-5.51889 9.30366,-9.21727 16.19011,-9.21727c10.3949,0 18.82163,8.42673 18.82163,18.82163z" fill="url(#color-76)"/><path d="M220.12667,165.92989c0,8.42829 -6.83249,15.26078 -15.26078,15.26078c-6.09383,0 -11.35342,-3.57174 -13.79953,-8.73592c2.48699,2.85903 6.15178,4.66639 10.23868,4.66639c7.49182,0 13.56514,-6.07333 13.56514,-13.56514c0,-5.98867 -3.88072,-11.07094 -9.26459,-12.86928c8.08476,0.38584 14.52108,7.06288 14.52108,15.24318z" data-paper-data="{&quot;index&quot;:null}" fill="url(#color-77)"/><path d="M257.07273,170.90754c-2.14964,-1.43084 -4.73082,-2.26464 -7.50674,-2.26464c-7.49181,0 -13.56514,6.07333 -13.56514,13.56514c0,1.55076 0.26021,3.04073 0.73937,4.42865c-2.64097,-2.38916 -4.30022,-5.84337 -4.30022,-9.68514c0,-7.21088 5.84557,-13.05645 13.05645,-13.05645c5.03001,0 9.39566,2.84439 11.57628,7.01244z" fill="url(#color-78)"/><path d="M266.31924,161.80381c0.5129,1.256 0.9752,2.54511 1.38377,3.86569c7.55095,24.40629 -6.11299,50.31276 -30.51928,57.86371c-24.40629,7.55095 -50.31276,-6.11299 -57.86371,-30.51928c-2.79535,-9.03517 -2.68328,-18.27592 -0.19508,-26.71491c0.23428,0.99396 0.50424,1.98678 0.81061,2.97703c7.24065,23.4033 32.08245,36.50571 55.48575,29.26506c17.13506,-5.30134 28.7482,-20.03807 30.89794,-36.73732z" data-paper-data="{&quot;index&quot;:null}" fill="url(#color-79)"/><path d="M202.93293,231.54141c-20.11467,-15.75067 -23.6524,-44.82528 -7.90174,-64.93996c15.75067,-20.11467 44.82528,-23.6524 64.93996,-7.90174c7.44642,5.83088 12.62101,13.48774 15.38625,21.84007c-0.75901,-0.68319 -1.54667,-1.34512 -2.3628,-1.98418c-19.28805,-15.10338 -47.16781,-11.71105 -62.2712,7.577c-11.05816,14.12203 -12.20142,32.8498 -4.45022,47.79654c-1.1373,-0.73972 -2.25189,-1.5355 -3.34026,-2.38773z" data-paper-data="{&quot;index&quot;:null}" fill="url(#color-80)"/><path d="M226.74264,229.00777c-0.31695,0 -0.63297,-0.00391 -0.94806,-0.01169c13.61773,-4.40476 23.46619,-17.18894 23.46619,-32.27334c0,-18.72954 -15.18329,-33.91285 -33.91285,-33.91285c-6.8185,0 -13.167,2.01228 -18.48404,5.47538c6.89576,-8.94043 17.71469,-14.69967 29.87876,-14.69967c20.82727,0 37.71108,16.88382 37.71108,37.71108c0,20.82727 -16.88382,37.71108 -37.71108,37.71108z" fill="url(#color-81)"/><path d="M255.67427,194.85122c-3.00313,-7.48957 -10.33059,-12.77882 -18.89341,-12.77882c-11.23773,0 -20.34771,9.10998 -20.34771,20.34771c0,10.70684 8.26958,19.48223 18.77004,20.28745c-1.80787,0.39483 -3.68557,0.60287 -5.61186,0.60287c-14.45922,0 -26.18072,-11.7215 -26.18072,-26.18072c0,-14.45922 11.7215,-26.18072 26.18072,-26.18072c13.69155,0 24.92838,10.50992 26.08293,23.90223z" fill="url(#color-82)"/><path d="M225.75494,218.38267c-13.09339,4.00272 -26.91187,-2.76295 -31.93124,-15.23263c5.0615,6.28439 13.61516,9.20038 21.80388,6.69704c10.74676,-3.28536 16.79543,-14.66063 13.51009,-25.40739c-3.13014,-10.23908 -13.6039,-16.21347 -23.88103,-13.91371c1.61345,-0.9061 3.3483,-1.654 5.19043,-2.21713c13.8275,-4.22714 28.4637,3.55549 32.69085,17.38299c4.22714,13.8275 -3.55549,28.4637 -17.38299,32.69085z" fill="url(#color-83)"/><path d="M224.79543,213.32614c0.03191,-0.466 0.04812,-0.93634 0.04812,-1.41044c0,-11.23773 -9.10998,-20.34771 -20.34771,-20.34771c-1.26398,0 -2.50104,0.11525 -3.70126,0.33581c2.72654,-5.50438 8.40148,-9.28881 14.96032,-9.28881c9.21494,0 16.68512,7.47018 16.68512,16.68512c0,5.88314 -3.04483,11.0551 -7.64459,14.02601z" fill="url(#color-84)"/></g></g></g></svg>