<svg version="1.1" xmlns="http://www.w3.org/2000/svg" xmlns:xlink="http://www.w3.org/1999/xlink" width="39.3282" height="60.66154" viewBox="0,0,39.3282,60.66154"><g transform="translate(-220.3359,-150.66925)"><g data-paper-data="{&quot;isPaintingLayer&quot;:true}" fill-rule="nonzero" stroke-width="5" stroke-linecap="butt" stroke-linejoin="miter" stroke-miterlimit="10" stroke-dasharray="" stroke-dashoffset="0" style="mix-blend-mode: normal"><path d="M238.83589,201.00002c0,-4.32481 3.50595,-7.83077 7.83077,-7.83077c4.32481,0 7.83077,3.50595 7.83077,7.83077c0,4.32481 -3.50595,7.83077 -7.83077,7.83077c-4.32481,0 -7.83077,-3.50595 -7.83077,-7.83077z" fill="#f9ff00" stroke="#b4b700"/><path d="M241.50256,161.00002c0,-4.32481 3.50595,-7.83077 7.83077,-7.83077c4.32481,0 7.83077,3.50595 7.83077,7.83077c0,4.32481 -3.50595,7.83077 -7.83077,7.83077c-4.32481,0 -7.83077,-3.50595 -7.83077,-7.83077z" fill="#f9ff00" stroke="#b4b700"/><path d="M222.8359,180.00002c0,-9.47947 7.68463,-17.1641 17.1641,-17.1641c9.47947,0 17.1641,7.68463 17.1641,17.1641c0,9.47947 -7.68463,17.1641 -17.1641,17.1641c-9.47947,0 -17.1641,-7.68463 -17.1641,-17.1641z" fill="#f9ff00" stroke="#b4b700"/><path d="M253.07952,174.34296c0,-0.89892 0.72872,-1.62763 1.62763,-1.62763c0.89892,0 1.62763,0.72872 1.62763,1.62763c0,0.89892 -0.72872,1.62763 -1.62763,1.62763c-0.89892,0 -1.62763,-0.72872 -1.62763,-1.62763z" fill="#454600" stroke="#000000"/><path d="M253.04866,185.55755c0,-0.89891 0.72872,-1.62763 1.62763,-1.62763c0.89891,0 1.62763,0.72871 1.62763,1.62763c0,0.89891 -0.72872,1.62763 -1.62763,1.62763c-0.89891,0 -1.62763,-0.72872 -1.62763,-1.62763z" fill="#454600" stroke="#000000"/></g></g></svg>