<svg version="1.1" xmlns="http://www.w3.org/2000/svg" xmlns:xlink="http://www.w3.org/1999/xlink" width="111.2954" height="106.05721" viewBox="0,0,111.2954,106.05721"><defs><radialGradient cx="253.23513" cy="191.46827" r="35.57567" gradientUnits="userSpaceOnUse" id="color-1"><stop offset="0" stop-color="#ff9300"/><stop offset="1" stop-color="#ff9300" stop-opacity="0"/></radialGradient><radialGradient cx="233.7967" cy="164.9024" r="35.57567" gradientUnits="userSpaceOnUse" id="color-2"><stop offset="0" stop-color="#ff9300"/><stop offset="1" stop-color="#ff9300" stop-opacity="0"/></radialGradient><radialGradient cx="254.63071" cy="197.46612" r="27.10654" gradientUnits="userSpaceOnUse" id="color-3"><stop offset="0" stop-color="#ffb82b"/><stop offset="1" stop-color="#ffb82b" stop-opacity="0"/></radialGradient><radialGradient cx="232.62795" cy="162.53388" r="27.10654" gradientUnits="userSpaceOnUse" id="color-4"><stop offset="0" stop-color="#ffb82b"/><stop offset="1" stop-color="#ffb82b" stop-opacity="0"/></radialGradient><radialGradient cx="267.92665" cy="186.71682" r="20.69851" gradientUnits="userSpaceOnUse" id="color-5"><stop offset="0" stop-color="#ff6f00"/><stop offset="1" stop-color="#ff6f00" stop-opacity="0"/></radialGradient><radialGradient cx="235.74474" cy="186.00797" r="15.73654" gradientUnits="userSpaceOnUse" id="color-6"><stop offset="0" stop-color="#ff6f00"/><stop offset="1" stop-color="#ff6f00" stop-opacity="0"/></radialGradient><radialGradient cx="272.55088" cy="218.75699" r="12.75936" gradientUnits="userSpaceOnUse" id="color-7"><stop offset="0" stop-color="#ff6f00"/><stop offset="1" stop-color="#ff6f00" stop-opacity="0"/></radialGradient><radialGradient cx="238.58013" cy="209.5419" r="10.91634" gradientUnits="userSpaceOnUse" id="color-8"><stop offset="0" stop-color="#ff6f00"/><stop offset="1" stop-color="#ff6f00" stop-opacity="0"/></radialGradient><radialGradient cx="256.96148" cy="207.54349" r="38.6759" gradientUnits="userSpaceOnUse" id="color-9"><stop offset="0" stop-color="#ff6f00"/><stop offset="1" stop-color="#ff6f00" stop-opacity="0"/></radialGradient><radialGradient cx="250.32251" cy="194.35101" r="38.6759" gradientUnits="userSpaceOnUse" id="color-10"><stop offset="0" stop-color="#ff6f00"/><stop offset="1" stop-color="#ff6f00" stop-opacity="0"/></radialGradient><radialGradient cx="254.25999" cy="197.5481" r="31.52979" gradientUnits="userSpaceOnUse" id="color-11"><stop offset="0" stop-color="#ff6f00"/><stop offset="1" stop-color="#ff6f00" stop-opacity="0"/></radialGradient><radialGradient cx="251.87824" cy="192.67119" r="21.88939" gradientUnits="userSpaceOnUse" id="color-12"><stop offset="0" stop-color="#ff6f00"/><stop offset="1" stop-color="#ff6f00" stop-opacity="0"/></radialGradient><radialGradient cx="261.48516" cy="195.83491" r="21.88939" gradientUnits="userSpaceOnUse" id="color-13"><stop offset="0" stop-color="#ff6f00"/><stop offset="1" stop-color="#ff6f00" stop-opacity="0"/></radialGradient><radialGradient cx="263.4467" cy="190.85652" r="13.95023" gradientUnits="userSpaceOnUse" id="color-14"><stop offset="0" stop-color="#ff6f00"/><stop offset="1" stop-color="#ff6f00" stop-opacity="0"/></radialGradient><radialGradient cx="219.33201" cy="173.28318" r="20.69851" gradientUnits="userSpaceOnUse" id="color-15"><stop offset="0" stop-color="#ff6f00"/><stop offset="1" stop-color="#ff6f00" stop-opacity="0"/></radialGradient><radialGradient cx="251.51392" cy="173.99203" r="15.73654" gradientUnits="userSpaceOnUse" id="color-16"><stop offset="0" stop-color="#ff6f00"/><stop offset="1" stop-color="#ff6f00" stop-opacity="0"/></radialGradient><radialGradient cx="214.70778" cy="141.24302" r="12.75936" gradientUnits="userSpaceOnUse" id="color-17"><stop offset="0" stop-color="#ff6f00"/><stop offset="1" stop-color="#ff6f00" stop-opacity="0"/></radialGradient><radialGradient cx="248.67853" cy="150.45811" r="10.91634" gradientUnits="userSpaceOnUse" id="color-18"><stop offset="0" stop-color="#ff6f00"/><stop offset="1" stop-color="#ff6f00" stop-opacity="0"/></radialGradient><radialGradient cx="230.29719" cy="152.45651" r="38.6759" gradientUnits="userSpaceOnUse" id="color-19"><stop offset="0" stop-color="#ff6f00"/><stop offset="1" stop-color="#ff6f00" stop-opacity="0"/></radialGradient><radialGradient cx="236.93616" cy="165.64899" r="38.6759" gradientUnits="userSpaceOnUse" id="color-20"><stop offset="0" stop-color="#ff6f00"/><stop offset="1" stop-color="#ff6f00" stop-opacity="0"/></radialGradient><radialGradient cx="232.99868" cy="162.4519" r="31.52979" gradientUnits="userSpaceOnUse" id="color-21"><stop offset="0" stop-color="#ff6f00"/><stop offset="1" stop-color="#ff6f00" stop-opacity="0"/></radialGradient><radialGradient cx="235.38043" cy="167.32881" r="21.88939" gradientUnits="userSpaceOnUse" id="color-22"><stop offset="0" stop-color="#ff6f00"/><stop offset="1" stop-color="#ff6f00" stop-opacity="0"/></radialGradient><radialGradient cx="225.7735" cy="164.16509" r="21.88939" gradientUnits="userSpaceOnUse" id="color-23"><stop offset="0" stop-color="#ff6f00"/><stop offset="1" stop-color="#ff6f00" stop-opacity="0"/></radialGradient><radialGradient cx="223.81197" cy="169.14348" r="13.95023" gradientUnits="userSpaceOnUse" id="color-24"><stop offset="0" stop-color="#ff6f00"/><stop offset="1" stop-color="#ff6f00" stop-opacity="0"/></radialGradient><radialGradient cx="232.52122" cy="203.13656" r="14.19987" gradientUnits="userSpaceOnUse" id="color-25"><stop offset="0" stop-color="#f4ff2b"/><stop offset="1" stop-color="#f4ff2b" stop-opacity="0"/></radialGradient><radialGradient cx="234.04636" cy="181.10605" r="10.79579" gradientUnits="userSpaceOnUse" id="color-26"><stop offset="0" stop-color="#f4ff2b"/><stop offset="1" stop-color="#f4ff2b" stop-opacity="0"/></radialGradient><radialGradient cx="210.41559" cy="205.27062" r="8.75334" gradientUnits="userSpaceOnUse" id="color-27"><stop offset="0" stop-color="#f4ff2b"/><stop offset="1" stop-color="#f4ff2b" stop-opacity="0"/></radialGradient><radialGradient cx="217.82763" cy="182.28899" r="7.48897" gradientUnits="userSpaceOnUse" id="color-28"><stop offset="0" stop-color="#f4ff2b"/><stop offset="1" stop-color="#f4ff2b" stop-opacity="0"/></radialGradient><radialGradient cx="218.60341" cy="194.94977" r="26.53295" gradientUnits="userSpaceOnUse" id="color-29"><stop offset="0" stop-color="#f4ff2b"/><stop offset="1" stop-color="#f4ff2b" stop-opacity="0"/></radialGradient><radialGradient cx="227.85826" cy="190.82634" r="26.53295" gradientUnits="userSpaceOnUse" id="color-30"><stop offset="0" stop-color="#f4ff2b"/><stop offset="1" stop-color="#f4ff2b" stop-opacity="0"/></radialGradient><radialGradient cx="225.54024" cy="193.42132" r="21.63048" gradientUnits="userSpaceOnUse" id="color-31"><stop offset="0" stop-color="#f4ff2b"/><stop offset="1" stop-color="#f4ff2b" stop-opacity="0"/></radialGradient><radialGradient cx="228.95918" cy="191.94669" r="15.01684" gradientUnits="userSpaceOnUse" id="color-32"><stop offset="0" stop-color="#f4ff2b"/><stop offset="1" stop-color="#f4ff2b" stop-opacity="0"/></radialGradient><radialGradient cx="226.48087" cy="198.42788" r="15.01684" gradientUnits="userSpaceOnUse" id="color-33"><stop offset="0" stop-color="#f4ff2b"/><stop offset="1" stop-color="#f4ff2b" stop-opacity="0"/></radialGradient><radialGradient cx="229.82908" cy="199.93286" r="9.57032" gradientUnits="userSpaceOnUse" id="color-34"><stop offset="0" stop-color="#f4ff2b"/><stop offset="1" stop-color="#f4ff2b" stop-opacity="0"/></radialGradient><radialGradient cx="258.60701" cy="180.22642" r="14.19987" gradientUnits="userSpaceOnUse" id="color-35"><stop offset="0" stop-color="#f4ff2b"/><stop offset="1" stop-color="#f4ff2b" stop-opacity="0"/></radialGradient><radialGradient cx="260.13216" cy="158.19592" r="10.79579" gradientUnits="userSpaceOnUse" id="color-36"><stop offset="0" stop-color="#f4ff2b"/><stop offset="1" stop-color="#f4ff2b" stop-opacity="0"/></radialGradient><radialGradient cx="236.50139" cy="182.36047" r="8.75334" gradientUnits="userSpaceOnUse" id="color-37"><stop offset="0" stop-color="#f4ff2b"/><stop offset="1" stop-color="#f4ff2b" stop-opacity="0"/></radialGradient><radialGradient cx="243.91343" cy="159.37886" r="7.48897" gradientUnits="userSpaceOnUse" id="color-38"><stop offset="0" stop-color="#f4ff2b"/><stop offset="1" stop-color="#f4ff2b" stop-opacity="0"/></radialGradient><radialGradient cx="244.68921" cy="172.03964" r="26.53295" gradientUnits="userSpaceOnUse" id="color-39"><stop offset="0" stop-color="#f4ff2b"/><stop offset="1" stop-color="#f4ff2b" stop-opacity="0"/></radialGradient><radialGradient cx="253.94405" cy="167.91621" r="26.53295" gradientUnits="userSpaceOnUse" id="color-40"><stop offset="0" stop-color="#f4ff2b"/><stop offset="1" stop-color="#f4ff2b" stop-opacity="0"/></radialGradient><radialGradient cx="251.62604" cy="170.51119" r="21.63048" gradientUnits="userSpaceOnUse" id="color-41"><stop offset="0" stop-color="#f4ff2b"/><stop offset="1" stop-color="#f4ff2b" stop-opacity="0"/></radialGradient><radialGradient cx="255.04498" cy="169.03656" r="15.01684" gradientUnits="userSpaceOnUse" id="color-42"><stop offset="0" stop-color="#f4ff2b"/><stop offset="1" stop-color="#f4ff2b" stop-opacity="0"/></radialGradient><radialGradient cx="252.56667" cy="175.51775" r="15.01684" gradientUnits="userSpaceOnUse" id="color-43"><stop offset="0" stop-color="#f4ff2b"/><stop offset="1" stop-color="#f4ff2b" stop-opacity="0"/></radialGradient><radialGradient cx="255.91488" cy="177.02273" r="9.57032" gradientUnits="userSpaceOnUse" id="color-44"><stop offset="0" stop-color="#f4ff2b"/><stop offset="1" stop-color="#f4ff2b" stop-opacity="0"/></radialGradient><radialGradient cx="261.78268" cy="207.21955" r="14.19987" gradientUnits="userSpaceOnUse" id="color-45"><stop offset="0" stop-color="#f4ff2b"/><stop offset="1" stop-color="#f4ff2b" stop-opacity="0"/></radialGradient><radialGradient cx="263.30782" cy="185.18904" r="10.79579" gradientUnits="userSpaceOnUse" id="color-46"><stop offset="0" stop-color="#f4ff2b"/><stop offset="1" stop-color="#f4ff2b" stop-opacity="0"/></radialGradient><radialGradient cx="239.67705" cy="209.3536" r="8.75334" gradientUnits="userSpaceOnUse" id="color-47"><stop offset="0" stop-color="#f4ff2b"/><stop offset="1" stop-color="#f4ff2b" stop-opacity="0"/></radialGradient><radialGradient cx="247.08909" cy="186.37199" r="7.48897" gradientUnits="userSpaceOnUse" id="color-48"><stop offset="0" stop-color="#f4ff2b"/><stop offset="1" stop-color="#f4ff2b" stop-opacity="0"/></radialGradient><radialGradient cx="247.86487" cy="199.03276" r="26.53295" gradientUnits="userSpaceOnUse" id="color-49"><stop offset="0" stop-color="#f4ff2b"/><stop offset="1" stop-color="#f4ff2b" stop-opacity="0"/></radialGradient><radialGradient cx="257.11972" cy="194.90934" r="26.53295" gradientUnits="userSpaceOnUse" id="color-50"><stop offset="0" stop-color="#f4ff2b"/><stop offset="1" stop-color="#f4ff2b" stop-opacity="0"/></radialGradient><radialGradient cx="254.8017" cy="197.50432" r="21.63048" gradientUnits="userSpaceOnUse" id="color-51"><stop offset="0" stop-color="#f4ff2b"/><stop offset="1" stop-color="#f4ff2b" stop-opacity="0"/></radialGradient><radialGradient cx="258.22064" cy="196.02969" r="15.01684" gradientUnits="userSpaceOnUse" id="color-52"><stop offset="0" stop-color="#f4ff2b"/><stop offset="1" stop-color="#f4ff2b" stop-opacity="0"/></radialGradient><radialGradient cx="255.74233" cy="202.51087" r="15.01684" gradientUnits="userSpaceOnUse" id="color-53"><stop offset="0" stop-color="#f4ff2b"/><stop offset="1" stop-color="#f4ff2b" stop-opacity="0"/></radialGradient><radialGradient cx="259.09054" cy="204.01585" r="9.57032" gradientUnits="userSpaceOnUse" id="color-54"><stop offset="0" stop-color="#f4ff2b"/><stop offset="1" stop-color="#f4ff2b" stop-opacity="0"/></radialGradient><radialGradient cx="225.47599" cy="152.78045" r="14.19987" gradientUnits="userSpaceOnUse" id="color-55"><stop offset="0" stop-color="#f4ff2b"/><stop offset="1" stop-color="#f4ff2b" stop-opacity="0"/></radialGradient><radialGradient cx="223.95084" cy="174.81096" r="10.79579" gradientUnits="userSpaceOnUse" id="color-56"><stop offset="0" stop-color="#f4ff2b"/><stop offset="1" stop-color="#f4ff2b" stop-opacity="0"/></radialGradient><radialGradient cx="247.58161" cy="150.6464" r="8.75334" gradientUnits="userSpaceOnUse" id="color-57"><stop offset="0" stop-color="#f4ff2b"/><stop offset="1" stop-color="#f4ff2b" stop-opacity="0"/></radialGradient><radialGradient cx="240.16957" cy="173.62801" r="7.48897" gradientUnits="userSpaceOnUse" id="color-58"><stop offset="0" stop-color="#f4ff2b"/><stop offset="1" stop-color="#f4ff2b" stop-opacity="0"/></radialGradient><radialGradient cx="239.39379" cy="160.96724" r="26.53295" gradientUnits="userSpaceOnUse" id="color-59"><stop offset="0" stop-color="#f4ff2b"/><stop offset="1" stop-color="#f4ff2b" stop-opacity="0"/></radialGradient><radialGradient cx="230.13895" cy="165.09066" r="26.53295" gradientUnits="userSpaceOnUse" id="color-60"><stop offset="0" stop-color="#f4ff2b"/><stop offset="1" stop-color="#f4ff2b" stop-opacity="0"/></radialGradient><radialGradient cx="232.45697" cy="162.49568" r="21.63048" gradientUnits="userSpaceOnUse" id="color-61"><stop offset="0" stop-color="#f4ff2b"/><stop offset="1" stop-color="#f4ff2b" stop-opacity="0"/></radialGradient><radialGradient cx="229.03803" cy="163.97031" r="15.01684" gradientUnits="userSpaceOnUse" id="color-62"><stop offset="0" stop-color="#f4ff2b"/><stop offset="1" stop-color="#f4ff2b" stop-opacity="0"/></radialGradient><radialGradient cx="231.51634" cy="157.48913" r="15.01684" gradientUnits="userSpaceOnUse" id="color-63"><stop offset="0" stop-color="#f4ff2b"/><stop offset="1" stop-color="#f4ff2b" stop-opacity="0"/></radialGradient><radialGradient cx="228.16812" cy="155.98415" r="9.57032" gradientUnits="userSpaceOnUse" id="color-64"><stop offset="0" stop-color="#f4ff2b"/><stop offset="1" stop-color="#f4ff2b" stop-opacity="0"/></radialGradient><radialGradient cx="238.66519" cy="182.63383" r="20.69851" gradientUnits="userSpaceOnUse" id="color-65"><stop offset="0" stop-color="#ff6f00"/><stop offset="1" stop-color="#ff6f00" stop-opacity="0"/></radialGradient><radialGradient cx="206.48328" cy="181.92497" r="15.73654" gradientUnits="userSpaceOnUse" id="color-66"><stop offset="0" stop-color="#ff6f00"/><stop offset="1" stop-color="#ff6f00" stop-opacity="0"/></radialGradient><radialGradient cx="243.28942" cy="214.67399" r="12.75936" gradientUnits="userSpaceOnUse" id="color-67"><stop offset="0" stop-color="#ff6f00"/><stop offset="1" stop-color="#ff6f00" stop-opacity="0"/></radialGradient><radialGradient cx="209.31867" cy="205.4589" r="10.91634" gradientUnits="userSpaceOnUse" id="color-68"><stop offset="0" stop-color="#ff6f00"/><stop offset="1" stop-color="#ff6f00" stop-opacity="0"/></radialGradient><radialGradient cx="227.70002" cy="203.4605" r="38.6759" gradientUnits="userSpaceOnUse" id="color-69"><stop offset="0" stop-color="#ff6f00"/><stop offset="1" stop-color="#ff6f00" stop-opacity="0"/></radialGradient><radialGradient cx="221.06105" cy="190.26802" r="38.6759" gradientUnits="userSpaceOnUse" id="color-70"><stop offset="0" stop-color="#ff6f00"/><stop offset="1" stop-color="#ff6f00" stop-opacity="0"/></radialGradient><radialGradient cx="224.99853" cy="193.4651" r="31.52979" gradientUnits="userSpaceOnUse" id="color-71"><stop offset="0" stop-color="#ff6f00"/><stop offset="1" stop-color="#ff6f00" stop-opacity="0"/></radialGradient><radialGradient cx="222.61678" cy="188.58819" r="21.88939" gradientUnits="userSpaceOnUse" id="color-72"><stop offset="0" stop-color="#ff6f00"/><stop offset="1" stop-color="#ff6f00" stop-opacity="0"/></radialGradient><radialGradient cx="232.2237" cy="191.75191" r="21.88939" gradientUnits="userSpaceOnUse" id="color-73"><stop offset="0" stop-color="#ff6f00"/><stop offset="1" stop-color="#ff6f00" stop-opacity="0"/></radialGradient><radialGradient cx="234.18524" cy="186.77353" r="13.95023" gradientUnits="userSpaceOnUse" id="color-74"><stop offset="0" stop-color="#ff6f00"/><stop offset="1" stop-color="#ff6f00" stop-opacity="0"/></radialGradient><radialGradient cx="264.75099" cy="159.72369" r="20.69851" gradientUnits="userSpaceOnUse" id="color-75"><stop offset="0" stop-color="#ff6f00"/><stop offset="1" stop-color="#ff6f00" stop-opacity="0"/></radialGradient><radialGradient cx="232.56908" cy="159.01484" r="15.73654" gradientUnits="userSpaceOnUse" id="color-76"><stop offset="0" stop-color="#ff6f00"/><stop offset="1" stop-color="#ff6f00" stop-opacity="0"/></radialGradient><radialGradient cx="269.37522" cy="191.76385" r="12.75936" gradientUnits="userSpaceOnUse" id="color-77"><stop offset="0" stop-color="#ff6f00"/><stop offset="1" stop-color="#ff6f00" stop-opacity="0"/></radialGradient><radialGradient cx="235.40447" cy="182.54876" r="10.91634" gradientUnits="userSpaceOnUse" id="color-78"><stop offset="0" stop-color="#ff6f00"/><stop offset="1" stop-color="#ff6f00" stop-opacity="0"/></radialGradient><radialGradient cx="253.78582" cy="180.55036" r="38.6759" gradientUnits="userSpaceOnUse" id="color-79"><stop offset="0" stop-color="#ff6f00"/><stop offset="1" stop-color="#ff6f00" stop-opacity="0"/></radialGradient><radialGradient cx="247.14684" cy="167.35788" r="38.6759" gradientUnits="userSpaceOnUse" id="color-80"><stop offset="0" stop-color="#ff6f00"/><stop offset="1" stop-color="#ff6f00" stop-opacity="0"/></radialGradient><radialGradient cx="251.08432" cy="170.55497" r="31.52979" gradientUnits="userSpaceOnUse" id="color-81"><stop offset="0" stop-color="#ff6f00"/><stop offset="1" stop-color="#ff6f00" stop-opacity="0"/></radialGradient><radialGradient cx="248.70258" cy="165.67806" r="21.88939" gradientUnits="userSpaceOnUse" id="color-82"><stop offset="0" stop-color="#ff6f00"/><stop offset="1" stop-color="#ff6f00" stop-opacity="0"/></radialGradient><radialGradient cx="258.3095" cy="168.84178" r="21.88939" gradientUnits="userSpaceOnUse" id="color-83"><stop offset="0" stop-color="#ff6f00"/><stop offset="1" stop-color="#ff6f00" stop-opacity="0"/></radialGradient><radialGradient cx="260.27104" cy="163.86339" r="13.95023" gradientUnits="userSpaceOnUse" id="color-84"><stop offset="0" stop-color="#ff6f00"/><stop offset="1" stop-color="#ff6f00" stop-opacity="0"/></radialGradient></defs><g transform="translate(-184.3523,-126.9714)"><g data-paper-data="{&quot;isPaintingLayer&quot;:true}" fill-rule="nonzero" stroke="none" stroke-linecap="butt" stroke-linejoin="miter" stroke-miterlimit="10" stroke-dasharray="" stroke-dashoffset="0" style="mix-blend-mode: normal"><path d="M288.81081,191.46827c0,19.6479 -15.92777,35.57567 -35.57567,35.57567c-19.6479,0 -35.57567,-15.92777 -35.57567,-35.57567c0,-19.6479 15.92777,-35.57567 35.57567,-35.57567c19.6479,0 35.57567,15.92777 35.57567,35.57567z" data-paper-data="{&quot;index&quot;:null}" fill="url(#color-1)" stroke-width="0.5"/><path d="M269.37237,164.9024c0,19.6479 -15.92777,35.57567 -35.57567,35.57567c-19.6479,0 -35.57567,-15.92777 -35.57567,-35.57567c0,-19.6479 15.92777,-35.57567 35.57567,-35.57567c19.6479,0 35.57567,15.92777 35.57567,35.57567z" data-paper-data="{&quot;index&quot;:null}" fill="url(#color-2)" stroke-width="0.5"/><path d="M281.73726,197.46612c0,14.97054 -12.13601,27.10654 -27.10654,27.10654c-14.97054,0 -27.10654,-12.13601 -27.10654,-27.10654c0,-14.97054 12.13601,-27.10654 27.10654,-27.10654c14.97054,0 27.10654,12.13601 27.10654,27.10654z" data-paper-data="{&quot;index&quot;:null}" fill="url(#color-3)" stroke-width="0"/><path d="M205.52141,162.53388c0,-14.97054 12.13601,-27.10654 27.10654,-27.10654c14.97054,0 27.10654,12.13601 27.10654,27.10654c0,14.97054 -12.13601,27.10654 -27.10654,27.10654c-14.97054,0 -27.10654,-12.13601 -27.10654,-27.10654z" data-paper-data="{&quot;index&quot;:null}" fill="url(#color-4)" stroke-width="0"/><g data-paper-data="{&quot;index&quot;:null}" stroke-width="0"><path d="M266.09119,207.33508c6.85405,-3.12745 11.61764,-10.04062 11.61764,-18.06638c0,-10.96169 -8.88619,-19.84789 -19.84789,-19.84789c-0.46383,0 -0.92391,0.01591 -1.37979,0.04722c3.27832,-2.1797 7.2136,-3.44971 11.44551,-3.44971c11.43148,0 20.69851,9.26705 20.69851,20.69851c0,11.43147 -9.26704,20.69851 -20.69851,20.69851c-0.61854,0 -1.23073,-0.02713 -1.83546,-0.08026z" fill="url(#color-5)"/><path d="M220.0082,186.00796c0,-8.69105 7.04549,-15.73654 15.73654,-15.73654c6.05425,0 11.30997,3.41892 13.94179,8.43136c-2.07923,-2.38648 -5.14074,-3.8947 -8.55451,-3.8947c-6.26381,0 -11.34165,5.07784 -11.34165,11.34165c0,6.26381 5.07784,11.34165 11.34165,11.34165c3.19823,0 6.08727,-1.32379 8.14908,-3.45332c-2.74321,4.61428 -7.77868,7.70645 -13.53636,7.70645c-8.69105,0 -15.73654,-7.04549 -15.73654,-15.73654z" fill="url(#color-6)"/><path d="M259.79153,218.75699c0,-7.04679 5.71256,-12.75936 12.75936,-12.75936c5.09498,0 9.49246,2.98629 11.53762,7.304c-2.07934,-2.3904 -5.14343,-3.90151 -8.56044,-3.90151c-6.26382,0 -11.34165,5.07784 -11.34165,11.34165c0,5.00706 3.24462,9.25628 7.74601,10.75985c-6.75957,-0.3226 -12.1409,-5.90519 -12.1409,-12.74464z" data-paper-data="{&quot;index&quot;:null}" fill="url(#color-7)"/><path d="M228.90135,214.59523c1.79729,1.19631 3.95538,1.89344 6.2763,1.89344c6.26381,0 11.34165,-5.07784 11.34165,-11.34165c0,-1.29657 -0.21756,-2.54232 -0.61818,-3.70274c2.20808,1.99755 3.59536,4.88557 3.59536,8.09763c0,6.02893 -4.88741,10.91634 -10.91634,10.91634c-4.20553,0 -7.8556,-2.37816 -9.67879,-5.86302z" fill="url(#color-8)"/><path d="M221.17046,222.20675c-0.42883,-1.05013 -0.81535,-2.12794 -1.15695,-3.23206c-6.31326,-20.40581 5.111,-42.0659 25.51681,-48.37916c20.40581,-6.31326 42.0659,5.111 48.37916,25.51681c2.33716,7.5542 2.24346,15.28028 0.1631,22.33602c-0.19588,-0.83104 -0.42159,-1.66112 -0.67774,-2.48906c-6.05382,-19.56722 -26.82376,-30.52199 -46.39098,-24.46817c-14.32642,4.43239 -24.03603,16.75359 -25.8334,30.71564z" data-paper-data="{&quot;index&quot;:null}" fill="url(#color-9)"/><path d="M274.167,163.89997c16.81764,13.16895 19.77549,37.47789 6.60655,54.29553c-13.16895,16.81764 -37.47789,19.77549 -54.29553,6.60655c-6.22586,-4.87513 -10.55228,-11.27694 -12.86426,-18.26022c0.6346,0.57121 1.29315,1.12464 1.97551,1.65895c16.12651,12.62776 39.43645,9.79147 52.06421,-6.33504c9.2456,-11.80726 10.20146,-27.46533 3.72078,-39.96212c0.95088,0.61847 1.88278,1.28381 2.79275,1.99635z" data-paper-data="{&quot;index&quot;:null}" fill="url(#color-10)"/><path d="M254.25999,166.01831c0.265,0 0.52922,0.00327 0.79266,0.00977c-11.38562,3.68277 -19.6198,14.37147 -19.6198,26.98336c0,15.65955 12.69457,28.35413 28.35413,28.35413c5.70087,0 11.00877,-1.68244 15.45429,-4.5779c-5.76546,7.47499 -14.81104,12.29022 -24.98128,12.29022c-17.41343,0 -31.52979,-14.11636 -31.52979,-31.52979c0,-17.41343 14.11636,-31.52979 31.52979,-31.52979z" fill="url(#color-11)"/><path d="M230.07059,194.5762c2.51088,6.26194 8.63728,10.68422 15.79656,10.68422c9.39573,0 17.01248,-7.61675 17.01248,-17.01248c0,-8.95186 -6.9141,-16.28886 -15.69341,-16.9621c1.51154,-0.33011 3.08146,-0.50405 4.69201,-0.50405c12.08918,0 21.88939,9.80021 21.88939,21.88939c0,12.08918 -9.80021,21.88939 -21.88939,21.88939c-11.44734,0 -20.84232,-8.78722 -21.80763,-19.98437z" fill="url(#color-12)"/><path d="M255.0858,174.90183c10.94723,-3.34663 22.5007,2.31007 26.69733,12.73582c-4.23186,-5.2543 -11.38347,-7.69233 -18.22997,-5.59932c-8.98524,2.74685 -14.04246,12.25758 -11.29563,21.24282c2.61707,8.56077 11.37406,13.55589 19.96665,11.63309c-1.34899,0.75758 -2.79947,1.38289 -4.33966,1.85372c-11.56101,3.53426 -23.79816,-2.9727 -27.33243,-14.53371c-3.53426,-11.56101 2.9727,-23.79816 14.53371,-27.33243z" fill="url(#color-13)"/><path d="M255.88802,179.12954c-0.02668,0.38962 -0.04023,0.78286 -0.04023,1.17925c0,9.39573 7.61675,17.01248 17.01248,17.01248c1.0568,0 2.09109,-0.09636 3.09458,-0.28077c-2.27963,4.60215 -7.02438,7.76626 -12.50815,7.76626c-7.7045,0 -13.95023,-6.24573 -13.95023,-13.95023c0,-4.91882 2.54575,-9.24304 6.39155,-11.72698z" fill="url(#color-14)"/></g><g data-paper-data="{&quot;index&quot;:null}" stroke-width="0"><path d="M221.16748,152.66492c-6.85405,3.12745 -11.61764,10.04062 -11.61764,18.06638c0,10.96169 8.88619,19.84789 19.84789,19.84789c0.46383,0 0.92391,-0.01591 1.37979,-0.04722c-3.27832,2.1797 -7.2136,3.44971 -11.44551,3.44971c-11.43148,0 -20.69851,-9.26705 -20.69851,-20.69851c0,-11.43147 9.26704,-20.69851 20.69851,-20.69851c0.61854,0 1.23073,0.02713 1.83546,0.08026z" fill="url(#color-15)"/><path d="M267.25046,173.99204c0,8.69105 -7.04549,15.73654 -15.73654,15.73654c-6.05425,0 -11.30997,-3.41892 -13.94179,-8.43136c2.07923,2.38648 5.14074,3.8947 8.55451,3.8947c6.26381,0 11.34165,-5.07784 11.34165,-11.34165c0,-6.26381 -5.07784,-11.34165 -11.34165,-11.34165c-3.19823,0 -6.08727,1.32379 -8.14908,3.45332c2.74321,-4.61428 7.77868,-7.70645 13.53636,-7.70645c8.69105,0 15.73654,7.04549 15.73654,15.73654z" fill="url(#color-16)"/><path d="M227.46714,141.24302c0,7.04679 -5.71256,12.75936 -12.75936,12.75936c-5.09498,0 -9.49246,-2.98629 -11.53762,-7.304c2.07934,2.3904 5.14343,3.90151 8.56044,3.90151c6.26382,0 11.34165,-5.07784 11.34165,-11.34165c0,-5.00706 -3.24462,-9.25628 -7.74601,-10.75985c6.75957,0.3226 12.1409,5.90519 12.1409,12.74464z" data-paper-data="{&quot;index&quot;:null}" fill="url(#color-17)"/><path d="M258.35732,145.40477c-1.79729,-1.19631 -3.95538,-1.89344 -6.2763,-1.89344c-6.26381,0 -11.34165,5.07784 -11.34165,11.34165c0,1.29657 0.21756,2.54232 0.61818,3.70274c-2.20808,-1.99755 -3.59536,-4.88557 -3.59536,-8.09763c0,-6.02893 4.88741,-10.91634 10.91634,-10.91634c4.20553,0 7.8556,2.37816 9.67879,5.86302z" fill="url(#color-18)"/><path d="M266.08821,137.79325c0.42883,1.05013 0.81535,2.12794 1.15695,3.23206c6.31326,20.40581 -5.111,42.0659 -25.51681,48.37916c-20.40581,6.31326 -42.0659,-5.111 -48.37916,-25.51681c-2.33716,-7.5542 -2.24346,-15.28028 -0.1631,-22.33602c0.19588,0.83104 0.42159,1.66112 0.67774,2.48906c6.05382,19.56722 26.82376,30.52199 46.39098,24.46817c14.32642,-4.43239 24.03603,-16.75359 25.8334,-30.71564z" data-paper-data="{&quot;index&quot;:null}" fill="url(#color-19)"/><path d="M213.09167,196.10003c-16.81764,-13.16895 -19.77549,-37.47789 -6.60655,-54.29553c13.16895,-16.81764 37.47789,-19.77549 54.29553,-6.60655c6.22586,4.87513 10.55228,11.27694 12.86426,18.26022c-0.6346,-0.57121 -1.29315,-1.12464 -1.97551,-1.65895c-16.12651,-12.62776 -39.43645,-9.79147 -52.06421,6.33504c-9.2456,11.80726 -10.20146,27.46533 -3.72078,39.96212c-0.95088,-0.61847 -1.88278,-1.28381 -2.79275,-1.99635z" data-paper-data="{&quot;index&quot;:null}" fill="url(#color-20)"/><path d="M232.99868,193.98169c-0.265,0 -0.52922,-0.00327 -0.79266,-0.00977c11.38562,-3.68277 19.6198,-14.37147 19.6198,-26.98336c0,-15.65955 -12.69457,-28.35413 -28.35413,-28.35413c-5.70087,0 -11.00877,1.68244 -15.45429,4.5779c5.76546,-7.47499 14.81104,-12.29022 24.98128,-12.29022c17.41343,0 31.52979,14.11636 31.52979,31.52979c0,17.41343 -14.11636,31.52979 -31.52979,31.52979z" fill="url(#color-21)"/><path d="M257.18807,165.4238c-2.51088,-6.26194 -8.63728,-10.68422 -15.79656,-10.68422c-9.39573,0 -17.01248,7.61675 -17.01248,17.01248c0,8.95186 6.9141,16.28886 15.69341,16.9621c-1.51154,0.33011 -3.08146,0.50405 -4.69201,0.50405c-12.08918,0 -21.88939,-9.80021 -21.88939,-21.88939c0,-12.08918 9.80021,-21.88939 21.88939,-21.88939c11.44734,0 20.84232,8.78722 21.80763,19.98437z" fill="url(#color-22)"/><path d="M232.17287,185.09817c-10.94723,3.34663 -22.5007,-2.31007 -26.69733,-12.73582c4.23186,5.2543 11.38347,7.69233 18.22997,5.59932c8.98524,-2.74685 14.04246,-12.25758 11.29563,-21.24282c-2.61707,-8.56077 -11.37406,-13.55589 -19.96665,-11.63309c1.34899,-0.75758 2.79947,-1.38289 4.33966,-1.85372c11.56101,-3.53426 23.79816,2.9727 27.33243,14.53371c3.53426,11.56101 -2.9727,23.79816 -14.53371,27.33243z" fill="url(#color-23)"/><path d="M231.37064,180.87046c0.02668,-0.38962 0.04023,-0.78286 0.04023,-1.17925c0,-9.39573 -7.61675,-17.01248 -17.01248,-17.01248c-1.0568,0 -2.09109,0.09636 -3.09458,0.28077c2.27963,-4.60215 7.02438,-7.76626 12.50815,-7.76626c7.7045,0 13.95023,6.24573 13.95023,13.95023c0,4.91882 -2.54575,9.24304 -6.39155,11.72698z" fill="url(#color-24)"/></g><g data-paper-data="{&quot;index&quot;:null}" stroke-width="0"><path d="M218.33709,202.46805c0.01997,-0.42386 0.05833,-0.8425 0.11428,-1.2552c1.92179,4.7979 6.50533,8.28554 12.00517,8.54475c7.51175,0.35403 13.88821,-5.44844 14.24225,-12.96018c0.01497,-0.31785 0.01893,-0.63365 0.0122,-0.94706c1.3878,2.31694 2.13101,5.05469 1.99433,7.9547c-0.3692,7.83368 -7.01897,13.88482 -14.85264,13.51562c-7.83368,-0.3692 -13.88482,-7.01895 -13.51562,-14.85263z" fill="url(#color-25)"/><path d="M244.83019,181.6143c-0.19554,4.14881 -2.70817,7.63999 -6.22806,9.28161c1.70254,-1.34776 2.83497,-3.39702 2.94522,-5.73638c0.2023,-4.29242 -3.1134,-7.93613 -7.40581,-8.13843c-4.29242,-0.2023 -7.93613,3.1134 -8.13843,7.40581c-0.1033,2.19166 0.71054,4.21421 2.10326,5.69588c-3.07344,-2.02887 -5.02978,-5.57942 -4.84383,-9.525c0.28069,-5.95573 5.33634,-10.55626 11.29208,-10.27557c5.95574,0.28069 10.55626,5.33634 10.27557,11.29208z" fill="url(#color-26)"/><path d="M201.70202,204.43516c0.43939,-4.62172 4.43878,-8.12909 9.12567,-7.9082c4.82898,0.22759 8.55914,4.32676 8.33154,9.15574c-0.16456,3.49145 -2.35301,6.40847 -5.37787,7.67052c1.70524,-1.34772 2.83971,-3.39864 2.95008,-5.74022c0.2023,-4.29242 -3.1134,-7.93613 -7.40581,-8.13843c-3.4312,-0.16172 -6.44788,1.9245 -7.62361,4.96061z" data-paper-data="{&quot;index&quot;:null}" fill="url(#color-27)"/><path d="M210.34695,181.93643c0.13583,-2.88194 1.88341,-5.30642 4.33037,-6.44325c-0.87784,1.19299 -1.42528,2.64935 -1.50024,4.23982c-0.2023,4.29242 3.11341,7.93613 7.40583,8.13843c0.88849,0.04187 1.7492,-0.06697 2.55735,-0.30402c-1.44019,1.44861 -3.46407,2.30601 -5.66521,2.20226c-4.13147,-0.19471 -7.32282,-3.70178 -7.1281,-7.83324z" fill="url(#color-28)"/><path d="M211.96326,169.26115c14.18744,-3.66724 28.66154,4.86105 32.32878,19.04849c3.66724,14.18744 -4.86105,28.66154 -19.04849,32.32878c-5.25217,1.35761 -10.54361,1.04386 -15.31152,-0.60963c0.57582,-0.10739 1.15193,-0.23526 1.72757,-0.38405c13.6044,-3.51655 21.78223,-17.3958 18.26568,-31.0002c-2.57469,-9.96066 -10.70448,-17.01234 -20.21424,-18.69496c0.73348,-0.25995 1.48455,-0.49 2.25221,-0.68844z" data-paper-data="{&quot;index&quot;:null}" fill="url(#color-29)"/><path d="M249.41367,206.3005c-0.45453,0.63164 -0.94056,1.24875 -1.45824,1.84931c-9.56749,11.09935 -26.32126,12.34117 -37.42061,2.77368c-11.09935,-9.56749 -12.34117,-26.32127 -2.77368,-37.42062c3.54187,-4.10897 8.06859,-6.86698 12.92871,-8.22577c-0.41193,0.41643 -0.81245,0.84984 -1.20064,1.30018c-9.17431,10.64321 -7.98352,26.70848 2.65969,35.88278c7.79258,6.71709 18.49176,7.87784 27.26477,3.84042z" data-paper-data="{&quot;index&quot;:null}" fill="url(#color-30)"/><path d="M226.55853,171.81482c11.93295,0.56241 21.15058,10.69189 20.58817,22.62483c-0.00855,0.18159 -0.01933,0.36256 -0.03229,0.54287c-2.15598,-7.9212 -9.21471,-13.90907 -17.85729,-14.31641c-10.73106,-0.50576 -19.8403,7.78348 -20.34607,18.51454c-0.18412,3.90665 0.79739,7.59835 2.63798,10.73826c-4.93619,-4.19233 -7.94378,-10.54654 -7.61532,-17.51593c0.56241,-11.93295 10.69189,-21.15058 22.62483,-20.58817z" fill="url(#color-31)"/><path d="M228.35803,176.94099c-4.37224,1.5184 -7.60057,5.57382 -7.8318,10.47988c-0.30346,6.43863 4.67008,11.90419 11.10873,12.20764c6.13446,0.28912 11.3856,-4.21196 12.13051,-10.20643c0.17739,1.04647 0.2459,2.12791 0.19387,3.23158c-0.39045,8.28438 -7.42278,14.68367 -15.70717,14.29322c-8.28437,-0.39045 -14.68367,-7.42278 -14.29322,-15.70717c0.36972,-7.84455 6.69479,-13.99886 14.39908,-14.29873z" fill="url(#color-32)"/><path d="M241.03244,194.71866c1.93979,7.60993 -2.30974,15.3445 -9.58976,17.88362c3.73731,-2.73028 5.639,-7.55233 4.42584,-12.31165c-1.59214,-6.24606 -7.94626,-10.01881 -14.19231,-8.42668c-5.95098,1.51692 -9.65684,7.35651 -8.61671,13.30687c-0.47559,-0.9489 -0.85725,-1.96307 -1.13015,-3.03372c-2.04855,-8.03659 2.80573,-16.21222 10.84232,-18.26076c8.03659,-2.04855 16.21222,2.80573 18.26076,10.84232z" fill="url(#color-33)"/><path d="M238.10939,195.13186c-0.26613,-0.03086 -0.53518,-0.05285 -0.80681,-0.06566c-6.43863,-0.30346 -11.90419,4.67008 -12.20764,11.10873c-0.03414,0.7242 -0.00151,1.43609 0.09246,2.1297c-3.0801,-1.7108 -5.09513,-5.06444 -4.91802,-8.82232c0.24884,-5.27969 4.73059,-9.358 10.01027,-9.10916c3.37073,0.15886 6.25178,2.04305 7.82975,4.75871z" fill="url(#color-34)"/></g><g data-paper-data="{&quot;index&quot;:null}" stroke-width="0"><path d="M244.42289,179.55791c0.01997,-0.42386 0.05833,-0.8425 0.11428,-1.2552c1.92179,4.7979 6.50533,8.28554 12.00517,8.54475c7.51175,0.35403 13.88821,-5.44844 14.24225,-12.96018c0.01497,-0.31785 0.01893,-0.63365 0.0122,-0.94706c1.3878,2.31694 2.13101,5.05469 1.99433,7.9547c-0.3692,7.83368 -7.01897,13.88482 -14.85264,13.51562c-7.83368,-0.3692 -13.88482,-7.01895 -13.51562,-14.85263z" fill="url(#color-35)"/><path d="M270.91598,158.70417c-0.19554,4.14881 -2.70817,7.63999 -6.22806,9.28161c1.70254,-1.34776 2.83497,-3.39702 2.94522,-5.73638c0.2023,-4.29242 -3.1134,-7.93613 -7.40581,-8.13843c-4.29242,-0.2023 -7.93613,3.1134 -8.13843,7.40581c-0.1033,2.19166 0.71054,4.21421 2.10326,5.69588c-3.07344,-2.02887 -5.02978,-5.57942 -4.84383,-9.525c0.28069,-5.95573 5.33634,-10.55626 11.29208,-10.27557c5.95574,0.28069 10.55626,5.33634 10.27557,11.29208z" fill="url(#color-36)"/><path d="M227.78781,181.52502c0.43939,-4.62172 4.43878,-8.12909 9.12567,-7.9082c4.82898,0.22759 8.55914,4.32676 8.33154,9.15574c-0.16456,3.49145 -2.35301,6.40847 -5.37787,7.67052c1.70524,-1.34772 2.83971,-3.39864 2.95008,-5.74022c0.2023,-4.29242 -3.1134,-7.93613 -7.40581,-8.13843c-3.4312,-0.16172 -6.44788,1.9245 -7.62361,4.96061z" data-paper-data="{&quot;index&quot;:null}" fill="url(#color-37)"/><path d="M236.43275,159.02629c0.13583,-2.88194 1.88341,-5.30642 4.33037,-6.44325c-0.87784,1.19299 -1.42528,2.64935 -1.50024,4.23982c-0.2023,4.29242 3.11341,7.93613 7.40583,8.13843c0.88849,0.04187 1.7492,-0.06697 2.55735,-0.30402c-1.44019,1.44861 -3.46407,2.30601 -5.66521,2.20226c-4.13147,-0.19471 -7.32282,-3.70178 -7.1281,-7.83324z" fill="url(#color-38)"/><path d="M238.04906,146.35101c14.18744,-3.66724 28.66154,4.86105 32.32878,19.04849c3.66724,14.18744 -4.86105,28.66154 -19.04849,32.32878c-5.25217,1.35761 -10.54361,1.04386 -15.31152,-0.60963c0.57582,-0.10739 1.15193,-0.23526 1.72757,-0.38405c13.6044,-3.51655 21.78223,-17.3958 18.26568,-31.0002c-2.57469,-9.96066 -10.70448,-17.01234 -20.21424,-18.69496c0.73348,-0.25995 1.48455,-0.49 2.25221,-0.68844z" data-paper-data="{&quot;index&quot;:null}" fill="url(#color-39)"/><path d="M275.49946,183.39037c-0.45453,0.63164 -0.94056,1.24875 -1.45824,1.84931c-9.56749,11.09935 -26.32126,12.34117 -37.42061,2.77368c-11.09935,-9.56749 -12.34117,-26.32127 -2.77368,-37.42062c3.54187,-4.10897 8.06859,-6.86698 12.92871,-8.22577c-0.41193,0.41643 -0.81245,0.84984 -1.20064,1.30018c-9.17431,10.64321 -7.98352,26.70848 2.65969,35.88278c7.79258,6.71709 18.49176,7.87784 27.26477,3.84042z" data-paper-data="{&quot;index&quot;:null}" fill="url(#color-40)"/><path d="M252.64432,148.90469c11.93295,0.56241 21.15058,10.69189 20.58817,22.62483c-0.00855,0.18159 -0.01933,0.36256 -0.03229,0.54287c-2.15598,-7.9212 -9.21471,-13.90907 -17.85729,-14.31641c-10.73106,-0.50576 -19.8403,7.78348 -20.34607,18.51454c-0.18412,3.90665 0.79739,7.59835 2.63798,10.73826c-4.93619,-4.19233 -7.94378,-10.54654 -7.61532,-17.51593c0.56241,-11.93295 10.69189,-21.15058 22.62483,-20.58817z" fill="url(#color-41)"/><path d="M254.44382,154.03085c-4.37224,1.5184 -7.60057,5.57382 -7.8318,10.47988c-0.30346,6.43863 4.67008,11.90419 11.10873,12.20764c6.13446,0.28912 11.3856,-4.21196 12.13051,-10.20643c0.17739,1.04647 0.2459,2.12791 0.19387,3.23158c-0.39045,8.28438 -7.42278,14.68367 -15.70717,14.29322c-8.28437,-0.39045 -14.68367,-7.42278 -14.29322,-15.70717c0.36972,-7.84455 6.69479,-13.99886 14.39908,-14.29873z" fill="url(#color-42)"/><path d="M267.11823,171.80853c1.93979,7.60993 -2.30974,15.3445 -9.58976,17.88362c3.73731,-2.73028 5.639,-7.55233 4.42584,-12.31165c-1.59214,-6.24606 -7.94626,-10.01881 -14.19231,-8.42668c-5.95098,1.51692 -9.65684,7.35651 -8.61671,13.30687c-0.47559,-0.9489 -0.85725,-1.96307 -1.13015,-3.03372c-2.04855,-8.03659 2.80573,-16.21222 10.84232,-18.26076c8.03659,-2.04855 16.21222,2.80573 18.26076,10.84232z" fill="url(#color-43)"/><path d="M264.19518,172.22173c-0.26613,-0.03086 -0.53518,-0.05285 -0.80681,-0.06566c-6.43863,-0.30346 -11.90419,4.67008 -12.20764,11.10873c-0.03414,0.7242 -0.00151,1.43609 0.09246,2.1297c-3.0801,-1.7108 -5.09513,-5.06444 -4.91802,-8.82232c0.24884,-5.27969 4.73059,-9.358 10.01027,-9.10916c3.37073,0.15886 6.25178,2.04305 7.82975,4.75871z" fill="url(#color-44)"/></g><g data-paper-data="{&quot;index&quot;:null}" stroke-width="0"><path d="M247.59855,206.55104c0.01997,-0.42386 0.05833,-0.8425 0.11428,-1.2552c1.92179,4.7979 6.50533,8.28554 12.00517,8.54475c7.51175,0.35403 13.88821,-5.44844 14.24225,-12.96018c0.01497,-0.31785 0.01893,-0.63365 0.0122,-0.94706c1.3878,2.31694 2.13101,5.05469 1.99433,7.9547c-0.3692,7.83368 -7.01897,13.88482 -14.85264,13.51562c-7.83368,-0.3692 -13.88482,-7.01895 -13.51562,-14.85263z" fill="url(#color-45)"/><path d="M274.09165,185.6973c-0.19554,4.14881 -2.70817,7.63999 -6.22806,9.28161c1.70254,-1.34776 2.83497,-3.39702 2.94522,-5.73638c0.2023,-4.29242 -3.1134,-7.93613 -7.40581,-8.13843c-4.29242,-0.2023 -7.93613,3.1134 -8.13843,7.40581c-0.1033,2.19166 0.71054,4.21421 2.10326,5.69588c-3.07344,-2.02887 -5.02978,-5.57942 -4.84383,-9.525c0.28069,-5.95573 5.33634,-10.55626 11.29208,-10.27557c5.95574,0.28069 10.55626,5.33634 10.27557,11.29208z" fill="url(#color-46)"/><path d="M230.96348,208.51815c0.43939,-4.62172 4.43878,-8.12909 9.12567,-7.9082c4.82898,0.22759 8.55914,4.32676 8.33154,9.15574c-0.16456,3.49145 -2.35301,6.40847 -5.37787,7.67052c1.70524,-1.34772 2.83971,-3.39864 2.95008,-5.74022c0.2023,-4.29242 -3.1134,-7.93613 -7.40581,-8.13843c-3.4312,-0.16172 -6.44788,1.9245 -7.62361,4.96061z" data-paper-data="{&quot;index&quot;:null}" fill="url(#color-47)"/><path d="M239.60841,186.01942c0.13583,-2.88194 1.88341,-5.30642 4.33037,-6.44325c-0.87784,1.19299 -1.42528,2.64935 -1.50024,4.23982c-0.2023,4.29242 3.11341,7.93613 7.40583,8.13843c0.88849,0.04187 1.7492,-0.06697 2.55735,-0.30402c-1.44019,1.44861 -3.46407,2.30601 -5.66521,2.20226c-4.13147,-0.19471 -7.32282,-3.70178 -7.1281,-7.83324z" fill="url(#color-48)"/><path d="M241.22472,173.34414c14.18744,-3.66724 28.66154,4.86105 32.32878,19.04849c3.66724,14.18744 -4.86105,28.66154 -19.04849,32.32878c-5.25217,1.35761 -10.54361,1.04386 -15.31152,-0.60963c0.57582,-0.10739 1.15193,-0.23526 1.72757,-0.38405c13.6044,-3.51655 21.78223,-17.3958 18.26568,-31.0002c-2.57469,-9.96066 -10.70448,-17.01234 -20.21424,-18.69496c0.73348,-0.25995 1.48455,-0.49 2.25221,-0.68844z" data-paper-data="{&quot;index&quot;:null}" fill="url(#color-49)"/><path d="M278.67512,210.3835c-0.45453,0.63164 -0.94056,1.24875 -1.45824,1.84931c-9.56749,11.09935 -26.32126,12.34117 -37.42061,2.77368c-11.09935,-9.56749 -12.34117,-26.32127 -2.77368,-37.42062c3.54187,-4.10897 8.06859,-6.86698 12.92871,-8.22577c-0.41193,0.41643 -0.81245,0.84984 -1.20064,1.30018c-9.17431,10.64321 -7.98352,26.70848 2.65969,35.88278c7.79258,6.71709 18.49176,7.87784 27.26477,3.84042z" data-paper-data="{&quot;index&quot;:null}" fill="url(#color-50)"/><path d="M255.81999,175.89782c11.93295,0.56241 21.15058,10.69189 20.58817,22.62483c-0.00855,0.18159 -0.01933,0.36256 -0.03229,0.54287c-2.15598,-7.9212 -9.21471,-13.90907 -17.85729,-14.31641c-10.73106,-0.50576 -19.8403,7.78348 -20.34607,18.51454c-0.18412,3.90665 0.79739,7.59835 2.63798,10.73826c-4.93619,-4.19233 -7.94378,-10.54654 -7.61532,-17.51593c0.56241,-11.93295 10.69189,-21.15058 22.62483,-20.58817z" fill="url(#color-51)"/><path d="M257.61949,181.02398c-4.37224,1.5184 -7.60057,5.57382 -7.8318,10.47988c-0.30346,6.43863 4.67008,11.90419 11.10873,12.20764c6.13446,0.28912 11.3856,-4.21196 12.13051,-10.20643c0.17739,1.04647 0.2459,2.12791 0.19387,3.23158c-0.39045,8.28438 -7.42278,14.68367 -15.70717,14.29322c-8.28437,-0.39045 -14.68367,-7.42278 -14.29322,-15.70717c0.36972,-7.84455 6.69479,-13.99886 14.39908,-14.29873z" fill="url(#color-52)"/><path d="M270.29389,198.80167c1.93979,7.60993 -2.30974,15.3445 -9.58976,17.88362c3.73731,-2.73028 5.639,-7.55233 4.42584,-12.31165c-1.59214,-6.24606 -7.94626,-10.01881 -14.19231,-8.42668c-5.95098,1.51692 -9.65684,7.35651 -8.61671,13.30687c-0.47559,-0.9489 -0.85725,-1.96307 -1.13015,-3.03372c-2.04855,-8.03659 2.80573,-16.21222 10.84232,-18.26076c8.03659,-2.04855 16.21222,2.80573 18.26076,10.84232z" fill="url(#color-53)"/><path d="M267.37084,199.21485c-0.26613,-0.03086 -0.53518,-0.05285 -0.80681,-0.06566c-6.43863,-0.30346 -11.90419,4.67008 -12.20764,11.10873c-0.03414,0.7242 -0.00151,1.43609 0.09246,2.1297c-3.0801,-1.7108 -5.09513,-5.06444 -4.91802,-8.82232c0.24884,-5.27969 4.73059,-9.358 10.01027,-9.10916c3.37073,0.15886 6.25178,2.04305 7.82975,4.75871z" fill="url(#color-54)"/></g><g data-paper-data="{&quot;index&quot;:null}" stroke-width="0"><path d="M239.66012,153.44896c-0.01997,0.42386 -0.05833,0.8425 -0.11428,1.2552c-1.92179,-4.7979 -6.50533,-8.28554 -12.00517,-8.54475c-7.51175,-0.35403 -13.88821,5.44844 -14.24225,12.96018c-0.01497,0.31785 -0.01893,0.63365 -0.0122,0.94706c-1.3878,-2.31694 -2.13101,-5.05469 -1.99433,-7.9547c0.3692,-7.83368 7.01897,-13.88482 14.85264,-13.51562c7.83368,0.3692 13.88482,7.01895 13.51562,14.85263z" fill="url(#color-55)"/><path d="M213.16702,174.3027c0.19554,-4.14881 2.70817,-7.63999 6.22806,-9.28161c-1.70254,1.34776 -2.83497,3.39702 -2.94522,5.73638c-0.2023,4.29242 3.1134,7.93613 7.40581,8.13843c4.29242,0.2023 7.93613,-3.1134 8.13843,-7.40581c0.1033,-2.19166 -0.71054,-4.21421 -2.10326,-5.69588c3.07344,2.02887 5.02978,5.57942 4.84383,9.525c-0.28069,5.95573 -5.33634,10.55626 -11.29208,10.27557c-5.95574,-0.28069 -10.55626,-5.33634 -10.27557,-11.29208z" fill="url(#color-56)"/><path d="M256.29519,151.48185c-0.43939,4.62172 -4.43878,8.12909 -9.12567,7.9082c-4.82898,-0.22759 -8.55914,-4.32676 -8.33154,-9.15574c0.16456,-3.49145 2.35301,-6.40847 5.37787,-7.67052c-1.70524,1.34772 -2.83971,3.39864 -2.95008,5.74022c-0.2023,4.29242 3.1134,7.93613 7.40581,8.13843c3.4312,0.16172 6.44788,-1.9245 7.62361,-4.96061z" data-paper-data="{&quot;index&quot;:null}" fill="url(#color-57)"/><path d="M247.65025,173.98058c-0.13583,2.88194 -1.88341,5.30642 -4.33037,6.44325c0.87784,-1.19299 1.42528,-2.64935 1.50024,-4.23982c0.2023,-4.29242 -3.11341,-7.93613 -7.40583,-8.13843c-0.88849,-0.04187 -1.7492,0.06697 -2.55735,0.30402c1.44019,-1.44861 3.46407,-2.30601 5.66521,-2.20226c4.13147,0.19471 7.32282,3.70178 7.1281,7.83324z" fill="url(#color-58)"/><path d="M246.03394,186.65586c-14.18744,3.66724 -28.66154,-4.86105 -32.32878,-19.04849c-3.66724,-14.18744 4.86105,-28.66154 19.04849,-32.32878c5.25217,-1.35761 10.54361,-1.04386 15.31152,0.60963c-0.57582,0.10739 -1.15193,0.23526 -1.72757,0.38405c-13.6044,3.51655 -21.78223,17.3958 -18.26568,31.0002c2.57469,9.96066 10.70448,17.01234 20.21424,18.69496c-0.73348,0.25995 -1.48455,0.49 -2.25221,0.68844z" data-paper-data="{&quot;index&quot;:null}" fill="url(#color-59)"/><path d="M208.58354,149.6165c0.45453,-0.63164 0.94056,-1.24875 1.45824,-1.84931c9.56749,-11.09935 26.32126,-12.34117 37.42061,-2.77368c11.09935,9.56749 12.34117,26.32127 2.77368,37.42062c-3.54187,4.10897 -8.06859,6.86698 -12.92871,8.22577c0.41193,-0.41643 0.81245,-0.84984 1.20064,-1.30018c9.17431,-10.64321 7.98352,-26.70848 -2.65969,-35.88278c-7.79258,-6.71709 -18.49176,-7.87784 -27.26477,-3.84042z" data-paper-data="{&quot;index&quot;:null}" fill="url(#color-60)"/><path d="M231.43868,184.10218c-11.93295,-0.56241 -21.15058,-10.69189 -20.58817,-22.62483c0.00855,-0.18159 0.01933,-0.36256 0.03229,-0.54287c2.15598,7.9212 9.21471,13.90907 17.85729,14.31641c10.73106,0.50576 19.8403,-7.78348 20.34607,-18.51454c0.18412,-3.90665 -0.79739,-7.59835 -2.63798,-10.73826c4.93619,4.19233 7.94378,10.54654 7.61532,17.51593c-0.56241,11.93295 -10.69189,21.15058 -22.62483,20.58817z" fill="url(#color-61)"/><path d="M229.63918,178.97602c4.37224,-1.5184 7.60057,-5.57382 7.8318,-10.47988c0.30346,-6.43863 -4.67008,-11.90419 -11.10873,-12.20764c-6.13446,-0.28912 -11.3856,4.21196 -12.13051,10.20643c-0.17739,-1.04647 -0.2459,-2.12791 -0.19387,-3.23158c0.39045,-8.28438 7.42278,-14.68367 15.70717,-14.29322c8.28437,0.39045 14.68367,7.42278 14.29322,15.70717c-0.36972,7.84455 -6.69479,13.99886 -14.39908,14.29873z" fill="url(#color-62)"/><path d="M216.96477,161.19834c-1.93979,-7.60993 2.30974,-15.3445 9.58976,-17.88362c-3.73731,2.73028 -5.639,7.55233 -4.42584,12.31165c1.59214,6.24606 7.94626,10.01881 14.19231,8.42668c5.95098,-1.51692 9.65684,-7.35651 8.61671,-13.30687c0.47559,0.9489 0.85725,1.96307 1.13015,3.03372c2.04855,8.03659 -2.80573,16.21222 -10.84232,18.26076c-8.03659,2.04855 -16.21222,-2.80573 -18.26076,-10.84232z" fill="url(#color-63)"/><path d="M219.88782,160.78515c0.26613,0.03086 0.53518,0.05285 0.80681,0.06566c6.43863,0.30346 11.90419,-4.67008 12.20764,-11.10873c0.03414,-0.7242 0.00151,-1.43609 -0.09246,-2.1297c3.0801,1.7108 5.09513,5.06444 4.91802,8.82232c-0.24884,5.27969 -4.73059,9.358 -10.01027,9.10916c-3.37073,-0.15886 -6.25178,-2.04305 -7.82975,-4.75871z" fill="url(#color-64)"/></g><g data-paper-data="{&quot;index&quot;:null}" stroke-width="0"><path d="M236.82973,203.25208c6.85405,-3.12745 11.61764,-10.04062 11.61764,-18.06638c0,-10.96169 -8.88619,-19.84789 -19.84789,-19.84789c-0.46383,0 -0.92391,0.01591 -1.37979,0.04722c3.27832,-2.1797 7.2136,-3.44971 11.44551,-3.44971c11.43148,0 20.69851,9.26705 20.69851,20.69851c0,11.43147 -9.26704,20.69851 -20.69851,20.69851c-0.61854,0 -1.23073,-0.02713 -1.83546,-0.08026z" fill="url(#color-65)"/><path d="M190.74674,181.92496c0,-8.69105 7.04549,-15.73654 15.73654,-15.73654c6.05425,0 11.30997,3.41892 13.94179,8.43136c-2.07923,-2.38648 -5.14074,-3.8947 -8.55451,-3.8947c-6.26381,0 -11.34165,5.07784 -11.34165,11.34165c0,6.26381 5.07784,11.34165 11.34165,11.34165c3.19823,0 6.08727,-1.32379 8.14908,-3.45332c-2.74321,4.61428 -7.77868,7.70645 -13.53636,7.70645c-8.69105,0 -15.73654,-7.04549 -15.73654,-15.73654z" fill="url(#color-66)"/><path d="M230.53007,214.67399c0,-7.04679 5.71256,-12.75936 12.75936,-12.75936c5.09498,0 9.49246,2.98629 11.53762,7.304c-2.07934,-2.3904 -5.14343,-3.90151 -8.56044,-3.90151c-6.26382,0 -11.34165,5.07784 -11.34165,11.34165c0,5.00706 3.24462,9.25628 7.74601,10.75985c-6.75957,-0.3226 -12.1409,-5.90519 -12.1409,-12.74464z" data-paper-data="{&quot;index&quot;:null}" fill="url(#color-67)"/><path d="M199.63989,210.51224c1.79729,1.19631 3.95538,1.89344 6.2763,1.89344c6.26381,0 11.34165,-5.07784 11.34165,-11.34165c0,-1.29657 -0.21756,-2.54232 -0.61818,-3.70274c2.20808,1.99755 3.59536,4.88557 3.59536,8.09763c0,6.02893 -4.88741,10.91634 -10.91634,10.91634c-4.20553,0 -7.8556,-2.37816 -9.67879,-5.86302z" fill="url(#color-68)"/><path d="M191.909,218.12376c-0.42883,-1.05013 -0.81535,-2.12794 -1.15695,-3.23206c-6.31326,-20.40581 5.111,-42.0659 25.51681,-48.37916c20.40581,-6.31326 42.0659,5.111 48.37916,25.51681c2.33716,7.5542 2.24346,15.28028 0.1631,22.33602c-0.19588,-0.83104 -0.42159,-1.66112 -0.67774,-2.48906c-6.05382,-19.56722 -26.82376,-30.52199 -46.39098,-24.46817c-14.32642,4.43239 -24.03603,16.75359 -25.8334,30.71564z" data-paper-data="{&quot;index&quot;:null}" fill="url(#color-69)"/><path d="M244.90554,159.81698c16.81764,13.16895 19.77549,37.47789 6.60655,54.29553c-13.16895,16.81764 -37.47789,19.77549 -54.29553,6.60655c-6.22586,-4.87513 -10.55228,-11.27694 -12.86426,-18.26022c0.6346,0.57121 1.29315,1.12464 1.97551,1.65895c16.12651,12.62776 39.43645,9.79147 52.06421,-6.33504c9.2456,-11.80726 10.20146,-27.46533 3.72078,-39.96212c0.95088,0.61847 1.88278,1.28381 2.79275,1.99635z" data-paper-data="{&quot;index&quot;:null}" fill="url(#color-70)"/><path d="M224.99853,161.93531c0.265,0 0.52922,0.00327 0.79266,0.00977c-11.38562,3.68277 -19.6198,14.37147 -19.6198,26.98336c0,15.65955 12.69457,28.35413 28.35413,28.35413c5.70087,0 11.00877,-1.68244 15.45429,-4.5779c-5.76546,7.47499 -14.81104,12.29022 -24.98128,12.29022c-17.41343,0 -31.52979,-14.11636 -31.52979,-31.52979c0,-17.41343 14.11636,-31.52979 31.52979,-31.52979z" fill="url(#color-71)"/><path d="M200.80914,190.4932c2.51088,6.26194 8.63728,10.68422 15.79656,10.68422c9.39573,0 17.01248,-7.61675 17.01248,-17.01248c0,-8.95186 -6.9141,-16.28886 -15.69341,-16.9621c1.51154,-0.33011 3.08146,-0.50405 4.69201,-0.50405c12.08918,0 21.88939,9.80021 21.88939,21.88939c0,12.08918 -9.80021,21.88939 -21.88939,21.88939c-11.44734,0 -20.84232,-8.78722 -21.80763,-19.98437z" fill="url(#color-72)"/><path d="M225.82434,170.81883c10.94723,-3.34663 22.5007,2.31007 26.69733,12.73582c-4.23186,-5.2543 -11.38347,-7.69233 -18.22997,-5.59932c-8.98524,2.74685 -14.04246,12.25758 -11.29563,21.24282c2.61707,8.56077 11.37406,13.55589 19.96665,11.63309c-1.34899,0.75758 -2.79947,1.38289 -4.33966,1.85372c-11.56101,3.53426 -23.79816,-2.9727 -27.33243,-14.53371c-3.53426,-11.56101 2.9727,-23.79816 14.53371,-27.33243z" fill="url(#color-73)"/><path d="M226.62657,175.04655c-0.02668,0.38962 -0.04023,0.78286 -0.04023,1.17925c0,9.39573 7.61675,17.01248 17.01248,17.01248c1.0568,0 2.09109,-0.09636 3.09458,-0.28077c-2.27963,4.60215 -7.02438,7.76626 -12.50815,7.76626c-7.7045,0 -13.95023,-6.24573 -13.95023,-13.95023c0,-4.91882 2.54575,-9.24304 6.39155,-11.72698z" fill="url(#color-74)"/></g><g data-paper-data="{&quot;index&quot;:null}" stroke-width="0"><path d="M262.91553,180.34195c6.85405,-3.12745 11.61764,-10.04062 11.61764,-18.06638c0,-10.96169 -8.88619,-19.84789 -19.84789,-19.84789c-0.46383,0 -0.92391,0.01591 -1.37979,0.04722c3.27832,-2.1797 7.2136,-3.44971 11.44551,-3.44971c11.43148,0 20.69851,9.26705 20.69851,20.69851c0,11.43147 -9.26704,20.69851 -20.69851,20.69851c-0.61854,0 -1.23073,-0.02713 -1.83546,-0.08026z" fill="url(#color-75)"/><path d="M216.83254,159.01483c0,-8.69105 7.04549,-15.73654 15.73654,-15.73654c6.05425,0 11.30997,3.41892 13.94179,8.43136c-2.07923,-2.38648 -5.14074,-3.8947 -8.55451,-3.8947c-6.26381,0 -11.34165,5.07784 -11.34165,11.34165c0,6.26381 5.07784,11.34165 11.34165,11.34165c3.19823,0 6.08727,-1.32379 8.14908,-3.45332c-2.74321,4.61428 -7.77868,7.70645 -13.53636,7.70645c-8.69105,0 -15.73654,-7.04549 -15.73654,-15.73654z" fill="url(#color-76)"/><path d="M256.61586,191.76385c0,-7.04679 5.71256,-12.75936 12.75936,-12.75936c5.09498,0 9.49246,2.98629 11.53762,7.304c-2.07934,-2.3904 -5.14343,-3.90151 -8.56044,-3.90151c-6.26382,0 -11.34165,5.07784 -11.34165,11.34165c0,5.00706 3.24462,9.25628 7.74601,10.75985c-6.75957,-0.3226 -12.1409,-5.90519 -12.1409,-12.74464z" data-paper-data="{&quot;index&quot;:null}" fill="url(#color-77)"/><path d="M225.72569,187.6021c1.79729,1.19631 3.95538,1.89344 6.2763,1.89344c6.26381,0 11.34165,-5.07784 11.34165,-11.34165c0,-1.29657 -0.21756,-2.54232 -0.61818,-3.70274c2.20808,1.99755 3.59536,4.88557 3.59536,8.09763c0,6.02893 -4.88741,10.91634 -10.91634,10.91634c-4.20553,0 -7.8556,-2.37816 -9.67879,-5.86302z" fill="url(#color-78)"/><path d="M217.9948,195.21362c-0.42883,-1.05013 -0.81535,-2.12794 -1.15695,-3.23206c-6.31326,-20.40581 5.111,-42.0659 25.51681,-48.37916c20.40581,-6.31326 42.0659,5.111 48.37916,25.51681c2.33716,7.5542 2.24346,15.28028 0.1631,22.33602c-0.19588,-0.83104 -0.42159,-1.66112 -0.67774,-2.48906c-6.05382,-19.56722 -26.82376,-30.52199 -46.39098,-24.46817c-14.32642,4.43239 -24.03603,16.75359 -25.8334,30.71564z" data-paper-data="{&quot;index&quot;:null}" fill="url(#color-79)"/><path d="M270.99134,136.90684c16.81764,13.16895 19.77549,37.47789 6.60655,54.29553c-13.16895,16.81764 -37.47789,19.77549 -54.29553,6.60655c-6.22586,-4.87513 -10.55228,-11.27694 -12.86426,-18.26022c0.6346,0.57121 1.29315,1.12464 1.97551,1.65895c16.12651,12.62776 39.43645,9.79147 52.06421,-6.33504c9.2456,-11.80726 10.20146,-27.46533 3.72078,-39.96212c0.95088,0.61847 1.88278,1.28381 2.79275,1.99635z" data-paper-data="{&quot;index&quot;:null}" fill="url(#color-80)"/><path d="M251.08432,139.02518c0.265,0 0.52922,0.00327 0.79266,0.00977c-11.38562,3.68277 -19.6198,14.37147 -19.6198,26.98336c0,15.65955 12.69457,28.35413 28.35413,28.35413c5.70087,0 11.00877,-1.68244 15.45429,-4.5779c-5.76546,7.47499 -14.81104,12.29022 -24.98128,12.29022c-17.41343,0 -31.52979,-14.11636 -31.52979,-31.52979c0,-17.41343 14.11636,-31.52979 31.52979,-31.52979z" fill="url(#color-81)"/><path d="M226.89493,167.58307c2.51088,6.26194 8.63728,10.68422 15.79656,10.68422c9.39573,0 17.01248,-7.61675 17.01248,-17.01248c0,-8.95186 -6.9141,-16.28886 -15.69341,-16.9621c1.51154,-0.33011 3.08146,-0.50405 4.69201,-0.50405c12.08918,0 21.88939,9.80021 21.88939,21.88939c0,12.08918 -9.80021,21.88939 -21.88939,21.88939c-11.44734,0 -20.84232,-8.78722 -21.80763,-19.98437z" fill="url(#color-82)"/><path d="M251.91013,147.9087c10.94723,-3.34663 22.5007,2.31007 26.69733,12.73582c-4.23186,-5.2543 -11.38347,-7.69233 -18.22997,-5.59932c-8.98524,2.74685 -14.04246,12.25758 -11.29563,21.24282c2.61707,8.56077 11.37406,13.55589 19.96665,11.63309c-1.34899,0.75758 -2.79947,1.38289 -4.33966,1.85372c-11.56101,3.53426 -23.79816,-2.9727 -27.33243,-14.53371c-3.53426,-11.56101 2.9727,-23.79816 14.53371,-27.33243z" fill="url(#color-83)"/><path d="M252.71236,152.13641c-0.02668,0.38962 -0.04023,0.78286 -0.04023,1.17925c0,9.39573 7.61675,17.01248 17.01248,17.01248c1.0568,0 2.09109,-0.09636 3.09458,-0.28077c-2.27963,4.60215 -7.02438,7.76626 -12.50815,7.76626c-7.7045,0 -13.95023,-6.24573 -13.95023,-13.95023c0,-4.91882 2.54575,-9.24304 6.39155,-11.72698z" fill="url(#color-84)"/></g></g></g></svg>