<svg version="1.1" xmlns="http://www.w3.org/2000/svg" xmlns:xlink="http://www.w3.org/1999/xlink" width="41.06341" height="39.13074" viewBox="0,0,41.06341,39.13074"><defs><radialGradient cx="235.11678" cy="175.76868" r="13.12595" gradientUnits="userSpaceOnUse" id="color-1"><stop offset="0" stop-color="#ff9300"/><stop offset="1" stop-color="#ff9300" stop-opacity="0"/></radialGradient><radialGradient cx="242.28876" cy="185.57039" r="13.12595" gradientUnits="userSpaceOnUse" id="color-2"><stop offset="0" stop-color="#ff9300"/><stop offset="1" stop-color="#ff9300" stop-opacity="0"/></radialGradient><radialGradient cx="234.60187" cy="173.55572" r="10.0012" gradientUnits="userSpaceOnUse" id="color-3"><stop offset="0" stop-color="#ffb82b"/><stop offset="1" stop-color="#ffb82b" stop-opacity="0"/></radialGradient><radialGradient cx="242.71998" cy="186.44428" r="10.0012" gradientUnits="userSpaceOnUse" id="color-4"><stop offset="0" stop-color="#ffb82b"/><stop offset="1" stop-color="#ffb82b" stop-opacity="0"/></radialGradient><radialGradient cx="229.69622" cy="177.52177" r="7.6369" gradientUnits="userSpaceOnUse" id="color-5"><stop offset="0" stop-color="#ff6f00"/><stop offset="1" stop-color="#ff6f00" stop-opacity="0"/></radialGradient><radialGradient cx="241.57001" cy="177.78331" r="5.80613" gradientUnits="userSpaceOnUse" id="color-6"><stop offset="0" stop-color="#ff6f00"/><stop offset="1" stop-color="#ff6f00" stop-opacity="0"/></radialGradient><radialGradient cx="227.99007" cy="165.70027" r="4.70768" gradientUnits="userSpaceOnUse" id="color-7"><stop offset="0" stop-color="#ff6f00"/><stop offset="1" stop-color="#ff6f00" stop-opacity="0"/></radialGradient><radialGradient cx="240.52387" cy="169.10026" r="4.02768" gradientUnits="userSpaceOnUse" id="color-8"><stop offset="0" stop-color="#ff6f00"/><stop offset="1" stop-color="#ff6f00" stop-opacity="0"/></radialGradient><radialGradient cx="233.74191" cy="169.83759" r="14.26981" gradientUnits="userSpaceOnUse" id="color-9"><stop offset="0" stop-color="#ff6f00"/><stop offset="1" stop-color="#ff6f00" stop-opacity="0"/></radialGradient><radialGradient cx="236.19142" cy="174.70507" r="14.26981" gradientUnits="userSpaceOnUse" id="color-10"><stop offset="0" stop-color="#ff6f00"/><stop offset="1" stop-color="#ff6f00" stop-opacity="0"/></radialGradient><radialGradient cx="234.73865" cy="173.52548" r="11.63319" gradientUnits="userSpaceOnUse" id="color-11"><stop offset="0" stop-color="#ff6f00"/><stop offset="1" stop-color="#ff6f00" stop-opacity="0"/></radialGradient><radialGradient cx="235.61742" cy="175.32486" r="8.07628" gradientUnits="userSpaceOnUse" id="color-12"><stop offset="0" stop-color="#ff6f00"/><stop offset="1" stop-color="#ff6f00" stop-opacity="0"/></radialGradient><radialGradient cx="232.07286" cy="174.15758" r="8.07628" gradientUnits="userSpaceOnUse" id="color-13"><stop offset="0" stop-color="#ff6f00"/><stop offset="1" stop-color="#ff6f00" stop-opacity="0"/></radialGradient><radialGradient cx="231.34913" cy="175.99439" r="5.14706" gradientUnits="userSpaceOnUse" id="color-14"><stop offset="0" stop-color="#ff6f00"/><stop offset="1" stop-color="#ff6f00" stop-opacity="0"/></radialGradient><radialGradient cx="247.62563" cy="182.47823" r="7.6369" gradientUnits="userSpaceOnUse" id="color-15"><stop offset="0" stop-color="#ff6f00"/><stop offset="1" stop-color="#ff6f00" stop-opacity="0"/></radialGradient><radialGradient cx="235.75184" cy="182.21669" r="5.80613" gradientUnits="userSpaceOnUse" id="color-16"><stop offset="0" stop-color="#ff6f00"/><stop offset="1" stop-color="#ff6f00" stop-opacity="0"/></radialGradient><radialGradient cx="249.33179" cy="194.29973" r="4.70768" gradientUnits="userSpaceOnUse" id="color-17"><stop offset="0" stop-color="#ff6f00"/><stop offset="1" stop-color="#ff6f00" stop-opacity="0"/></radialGradient><radialGradient cx="236.79798" cy="190.89974" r="4.02768" gradientUnits="userSpaceOnUse" id="color-18"><stop offset="0" stop-color="#ff6f00"/><stop offset="1" stop-color="#ff6f00" stop-opacity="0"/></radialGradient><radialGradient cx="243.57993" cy="190.16241" r="14.26981" gradientUnits="userSpaceOnUse" id="color-19"><stop offset="0" stop-color="#ff6f00"/><stop offset="1" stop-color="#ff6f00" stop-opacity="0"/></radialGradient><radialGradient cx="241.13043" cy="185.29493" r="14.26981" gradientUnits="userSpaceOnUse" id="color-20"><stop offset="0" stop-color="#ff6f00"/><stop offset="1" stop-color="#ff6f00" stop-opacity="0"/></radialGradient><radialGradient cx="242.5832" cy="186.47452" r="11.63319" gradientUnits="userSpaceOnUse" id="color-21"><stop offset="0" stop-color="#ff6f00"/><stop offset="1" stop-color="#ff6f00" stop-opacity="0"/></radialGradient><radialGradient cx="241.70443" cy="184.67514" r="8.07628" gradientUnits="userSpaceOnUse" id="color-22"><stop offset="0" stop-color="#ff6f00"/><stop offset="1" stop-color="#ff6f00" stop-opacity="0"/></radialGradient><radialGradient cx="245.24899" cy="185.84242" r="8.07628" gradientUnits="userSpaceOnUse" id="color-23"><stop offset="0" stop-color="#ff6f00"/><stop offset="1" stop-color="#ff6f00" stop-opacity="0"/></radialGradient><radialGradient cx="245.97271" cy="184.00561" r="5.14706" gradientUnits="userSpaceOnUse" id="color-24"><stop offset="0" stop-color="#ff6f00"/><stop offset="1" stop-color="#ff6f00" stop-opacity="0"/></radialGradient><radialGradient cx="242.75936" cy="171.46356" r="5.23917" gradientUnits="userSpaceOnUse" id="color-25"><stop offset="0" stop-color="#f4ff2b"/><stop offset="1" stop-color="#f4ff2b" stop-opacity="0"/></radialGradient><radialGradient cx="242.19664" cy="179.59191" r="3.9832" gradientUnits="userSpaceOnUse" id="color-26"><stop offset="0" stop-color="#f4ff2b"/><stop offset="1" stop-color="#f4ff2b" stop-opacity="0"/></radialGradient><radialGradient cx="250.91542" cy="170.67619" r="3.22962" gradientUnits="userSpaceOnUse" id="color-27"><stop offset="0" stop-color="#f4ff2b"/><stop offset="1" stop-color="#f4ff2b" stop-opacity="0"/></radialGradient><radialGradient cx="248.18069" cy="179.15546" r="2.76312" gradientUnits="userSpaceOnUse" id="color-28"><stop offset="0" stop-color="#f4ff2b"/><stop offset="1" stop-color="#f4ff2b" stop-opacity="0"/></radialGradient><radialGradient cx="247.89446" cy="174.48415" r="9.78956" gradientUnits="userSpaceOnUse" id="color-29"><stop offset="0" stop-color="#f4ff2b"/><stop offset="1" stop-color="#f4ff2b" stop-opacity="0"/></radialGradient><radialGradient cx="244.4798" cy="176.00553" r="9.78956" gradientUnits="userSpaceOnUse" id="color-30"><stop offset="0" stop-color="#f4ff2b"/><stop offset="1" stop-color="#f4ff2b" stop-opacity="0"/></radialGradient><radialGradient cx="245.33505" cy="175.04809" r="7.98075" gradientUnits="userSpaceOnUse" id="color-31"><stop offset="0" stop-color="#f4ff2b"/><stop offset="1" stop-color="#f4ff2b" stop-opacity="0"/></radialGradient><radialGradient cx="244.07361" cy="175.59217" r="5.5406" gradientUnits="userSpaceOnUse" id="color-32"><stop offset="0" stop-color="#f4ff2b"/><stop offset="1" stop-color="#f4ff2b" stop-opacity="0"/></radialGradient><radialGradient cx="244.988" cy="173.20087" r="5.5406" gradientUnits="userSpaceOnUse" id="color-33"><stop offset="0" stop-color="#f4ff2b"/><stop offset="1" stop-color="#f4ff2b" stop-opacity="0"/></radialGradient><radialGradient cx="243.75264" cy="172.6456" r="3.53105" gradientUnits="userSpaceOnUse" id="color-34"><stop offset="0" stop-color="#f4ff2b"/><stop offset="1" stop-color="#f4ff2b" stop-opacity="0"/></radialGradient><radialGradient cx="233.13478" cy="179.91646" r="5.23917" gradientUnits="userSpaceOnUse" id="color-35"><stop offset="0" stop-color="#f4ff2b"/><stop offset="1" stop-color="#f4ff2b" stop-opacity="0"/></radialGradient><radialGradient cx="232.57206" cy="188.04481" r="3.9832" gradientUnits="userSpaceOnUse" id="color-36"><stop offset="0" stop-color="#f4ff2b"/><stop offset="1" stop-color="#f4ff2b" stop-opacity="0"/></radialGradient><radialGradient cx="241.29084" cy="179.12908" r="3.22962" gradientUnits="userSpaceOnUse" id="color-37"><stop offset="0" stop-color="#f4ff2b"/><stop offset="1" stop-color="#f4ff2b" stop-opacity="0"/></radialGradient><radialGradient cx="238.5561" cy="187.60835" r="2.76312" gradientUnits="userSpaceOnUse" id="color-38"><stop offset="0" stop-color="#f4ff2b"/><stop offset="1" stop-color="#f4ff2b" stop-opacity="0"/></radialGradient><radialGradient cx="238.26987" cy="182.93705" r="9.78956" gradientUnits="userSpaceOnUse" id="color-39"><stop offset="0" stop-color="#f4ff2b"/><stop offset="1" stop-color="#f4ff2b" stop-opacity="0"/></radialGradient><radialGradient cx="234.85522" cy="184.45842" r="9.78956" gradientUnits="userSpaceOnUse" id="color-40"><stop offset="0" stop-color="#f4ff2b"/><stop offset="1" stop-color="#f4ff2b" stop-opacity="0"/></radialGradient><radialGradient cx="235.71047" cy="183.50098" r="7.98075" gradientUnits="userSpaceOnUse" id="color-41"><stop offset="0" stop-color="#f4ff2b"/><stop offset="1" stop-color="#f4ff2b" stop-opacity="0"/></radialGradient><radialGradient cx="234.44902" cy="184.04506" r="5.5406" gradientUnits="userSpaceOnUse" id="color-42"><stop offset="0" stop-color="#f4ff2b"/><stop offset="1" stop-color="#f4ff2b" stop-opacity="0"/></radialGradient><radialGradient cx="235.36342" cy="181.65377" r="5.5406" gradientUnits="userSpaceOnUse" id="color-43"><stop offset="0" stop-color="#f4ff2b"/><stop offset="1" stop-color="#f4ff2b" stop-opacity="0"/></radialGradient><radialGradient cx="234.12807" cy="181.09849" r="3.53105" gradientUnits="userSpaceOnUse" id="color-44"><stop offset="0" stop-color="#f4ff2b"/><stop offset="1" stop-color="#f4ff2b" stop-opacity="0"/></radialGradient><radialGradient cx="231.96309" cy="169.95711" r="5.23917" gradientUnits="userSpaceOnUse" id="color-45"><stop offset="0" stop-color="#f4ff2b"/><stop offset="1" stop-color="#f4ff2b" stop-opacity="0"/></radialGradient><radialGradient cx="231.40038" cy="178.08546" r="3.9832" gradientUnits="userSpaceOnUse" id="color-46"><stop offset="0" stop-color="#f4ff2b"/><stop offset="1" stop-color="#f4ff2b" stop-opacity="0"/></radialGradient><radialGradient cx="240.11916" cy="169.16974" r="3.22962" gradientUnits="userSpaceOnUse" id="color-47"><stop offset="0" stop-color="#f4ff2b"/><stop offset="1" stop-color="#f4ff2b" stop-opacity="0"/></radialGradient><radialGradient cx="237.38442" cy="177.649" r="2.76312" gradientUnits="userSpaceOnUse" id="color-48"><stop offset="0" stop-color="#f4ff2b"/><stop offset="1" stop-color="#f4ff2b" stop-opacity="0"/></radialGradient><radialGradient cx="237.09819" cy="172.9777" r="9.78956" gradientUnits="userSpaceOnUse" id="color-49"><stop offset="0" stop-color="#f4ff2b"/><stop offset="1" stop-color="#f4ff2b" stop-opacity="0"/></radialGradient><radialGradient cx="233.68353" cy="174.49907" r="9.78956" gradientUnits="userSpaceOnUse" id="color-50"><stop offset="0" stop-color="#f4ff2b"/><stop offset="1" stop-color="#f4ff2b" stop-opacity="0"/></radialGradient><radialGradient cx="234.53878" cy="173.54163" r="7.98075" gradientUnits="userSpaceOnUse" id="color-51"><stop offset="0" stop-color="#f4ff2b"/><stop offset="1" stop-color="#f4ff2b" stop-opacity="0"/></radialGradient><radialGradient cx="233.27734" cy="174.08571" r="5.5406" gradientUnits="userSpaceOnUse" id="color-52"><stop offset="0" stop-color="#f4ff2b"/><stop offset="1" stop-color="#f4ff2b" stop-opacity="0"/></radialGradient><radialGradient cx="234.19173" cy="171.69442" r="5.5406" gradientUnits="userSpaceOnUse" id="color-53"><stop offset="0" stop-color="#f4ff2b"/><stop offset="1" stop-color="#f4ff2b" stop-opacity="0"/></radialGradient><radialGradient cx="232.95638" cy="171.13914" r="3.53105" gradientUnits="userSpaceOnUse" id="color-54"><stop offset="0" stop-color="#f4ff2b"/><stop offset="1" stop-color="#f4ff2b" stop-opacity="0"/></radialGradient><radialGradient cx="245.35876" cy="190.04289" r="5.23917" gradientUnits="userSpaceOnUse" id="color-55"><stop offset="0" stop-color="#f4ff2b"/><stop offset="1" stop-color="#f4ff2b" stop-opacity="0"/></radialGradient><radialGradient cx="245.92148" cy="181.91454" r="3.9832" gradientUnits="userSpaceOnUse" id="color-56"><stop offset="0" stop-color="#f4ff2b"/><stop offset="1" stop-color="#f4ff2b" stop-opacity="0"/></radialGradient><radialGradient cx="237.2027" cy="190.83026" r="3.22962" gradientUnits="userSpaceOnUse" id="color-57"><stop offset="0" stop-color="#f4ff2b"/><stop offset="1" stop-color="#f4ff2b" stop-opacity="0"/></radialGradient><radialGradient cx="239.93743" cy="182.351" r="2.76312" gradientUnits="userSpaceOnUse" id="color-58"><stop offset="0" stop-color="#f4ff2b"/><stop offset="1" stop-color="#f4ff2b" stop-opacity="0"/></radialGradient><radialGradient cx="240.22366" cy="187.0223" r="9.78956" gradientUnits="userSpaceOnUse" id="color-59"><stop offset="0" stop-color="#f4ff2b"/><stop offset="1" stop-color="#f4ff2b" stop-opacity="0"/></radialGradient><radialGradient cx="243.63832" cy="185.50093" r="9.78956" gradientUnits="userSpaceOnUse" id="color-60"><stop offset="0" stop-color="#f4ff2b"/><stop offset="1" stop-color="#f4ff2b" stop-opacity="0"/></radialGradient><radialGradient cx="242.78307" cy="186.45837" r="7.98075" gradientUnits="userSpaceOnUse" id="color-61"><stop offset="0" stop-color="#f4ff2b"/><stop offset="1" stop-color="#f4ff2b" stop-opacity="0"/></radialGradient><radialGradient cx="244.04452" cy="185.91429" r="5.5406" gradientUnits="userSpaceOnUse" id="color-62"><stop offset="0" stop-color="#f4ff2b"/><stop offset="1" stop-color="#f4ff2b" stop-opacity="0"/></radialGradient><radialGradient cx="243.13012" cy="188.30558" r="5.5406" gradientUnits="userSpaceOnUse" id="color-63"><stop offset="0" stop-color="#f4ff2b"/><stop offset="1" stop-color="#f4ff2b" stop-opacity="0"/></radialGradient><radialGradient cx="244.36547" cy="188.86086" r="3.53105" gradientUnits="userSpaceOnUse" id="color-64"><stop offset="0" stop-color="#f4ff2b"/><stop offset="1" stop-color="#f4ff2b" stop-opacity="0"/></radialGradient><radialGradient cx="240.49249" cy="179.02823" r="7.6369" gradientUnits="userSpaceOnUse" id="color-65"><stop offset="0" stop-color="#ff6f00"/><stop offset="1" stop-color="#ff6f00" stop-opacity="0"/></radialGradient><radialGradient cx="252.36628" cy="179.28976" r="5.80613" gradientUnits="userSpaceOnUse" id="color-66"><stop offset="0" stop-color="#ff6f00"/><stop offset="1" stop-color="#ff6f00" stop-opacity="0"/></radialGradient><radialGradient cx="238.78634" cy="167.20673" r="4.70768" gradientUnits="userSpaceOnUse" id="color-67"><stop offset="0" stop-color="#ff6f00"/><stop offset="1" stop-color="#ff6f00" stop-opacity="0"/></radialGradient><radialGradient cx="251.32014" cy="170.60672" r="4.02768" gradientUnits="userSpaceOnUse" id="color-68"><stop offset="0" stop-color="#ff6f00"/><stop offset="1" stop-color="#ff6f00" stop-opacity="0"/></radialGradient><radialGradient cx="244.53819" cy="171.34404" r="14.26981" gradientUnits="userSpaceOnUse" id="color-69"><stop offset="0" stop-color="#ff6f00"/><stop offset="1" stop-color="#ff6f00" stop-opacity="0"/></radialGradient><radialGradient cx="246.98769" cy="176.21153" r="14.26981" gradientUnits="userSpaceOnUse" id="color-70"><stop offset="0" stop-color="#ff6f00"/><stop offset="1" stop-color="#ff6f00" stop-opacity="0"/></radialGradient><radialGradient cx="245.53492" cy="175.03193" r="11.63319" gradientUnits="userSpaceOnUse" id="color-71"><stop offset="0" stop-color="#ff6f00"/><stop offset="1" stop-color="#ff6f00" stop-opacity="0"/></radialGradient><radialGradient cx="246.41369" cy="176.83131" r="8.07628" gradientUnits="userSpaceOnUse" id="color-72"><stop offset="0" stop-color="#ff6f00"/><stop offset="1" stop-color="#ff6f00" stop-opacity="0"/></radialGradient><radialGradient cx="242.86913" cy="175.66403" r="8.07628" gradientUnits="userSpaceOnUse" id="color-73"><stop offset="0" stop-color="#ff6f00"/><stop offset="1" stop-color="#ff6f00" stop-opacity="0"/></radialGradient><radialGradient cx="242.1454" cy="177.50085" r="5.14706" gradientUnits="userSpaceOnUse" id="color-74"><stop offset="0" stop-color="#ff6f00"/><stop offset="1" stop-color="#ff6f00" stop-opacity="0"/></radialGradient><radialGradient cx="230.86791" cy="187.48112" r="7.6369" gradientUnits="userSpaceOnUse" id="color-75"><stop offset="0" stop-color="#ff6f00"/><stop offset="1" stop-color="#ff6f00" stop-opacity="0"/></radialGradient><radialGradient cx="242.7417" cy="187.74266" r="5.80613" gradientUnits="userSpaceOnUse" id="color-76"><stop offset="0" stop-color="#ff6f00"/><stop offset="1" stop-color="#ff6f00" stop-opacity="0"/></radialGradient><radialGradient cx="229.16176" cy="175.65963" r="4.70768" gradientUnits="userSpaceOnUse" id="color-77"><stop offset="0" stop-color="#ff6f00"/><stop offset="1" stop-color="#ff6f00" stop-opacity="0"/></radialGradient><radialGradient cx="241.69556" cy="179.05961" r="4.02768" gradientUnits="userSpaceOnUse" id="color-78"><stop offset="0" stop-color="#ff6f00"/><stop offset="1" stop-color="#ff6f00" stop-opacity="0"/></radialGradient><radialGradient cx="234.9136" cy="179.79694" r="14.26981" gradientUnits="userSpaceOnUse" id="color-79"><stop offset="0" stop-color="#ff6f00"/><stop offset="1" stop-color="#ff6f00" stop-opacity="0"/></radialGradient><radialGradient cx="237.36311" cy="184.66442" r="14.26981" gradientUnits="userSpaceOnUse" id="color-80"><stop offset="0" stop-color="#ff6f00"/><stop offset="1" stop-color="#ff6f00" stop-opacity="0"/></radialGradient><radialGradient cx="235.91034" cy="183.48482" r="11.63319" gradientUnits="userSpaceOnUse" id="color-81"><stop offset="0" stop-color="#ff6f00"/><stop offset="1" stop-color="#ff6f00" stop-opacity="0"/></radialGradient><radialGradient cx="236.78911" cy="185.2842" r="8.07628" gradientUnits="userSpaceOnUse" id="color-82"><stop offset="0" stop-color="#ff6f00"/><stop offset="1" stop-color="#ff6f00" stop-opacity="0"/></radialGradient><radialGradient cx="233.24455" cy="184.11692" r="8.07628" gradientUnits="userSpaceOnUse" id="color-83"><stop offset="0" stop-color="#ff6f00"/><stop offset="1" stop-color="#ff6f00" stop-opacity="0"/></radialGradient><radialGradient cx="232.52082" cy="185.95374" r="5.14706" gradientUnits="userSpaceOnUse" id="color-84"><stop offset="0" stop-color="#ff6f00"/><stop offset="1" stop-color="#ff6f00" stop-opacity="0"/></radialGradient></defs><g transform="translate(-219.4683,-160.43463)"><g data-paper-data="{&quot;isPaintingLayer&quot;:true}" fill-rule="nonzero" stroke="none" stroke-linecap="butt" stroke-linejoin="miter" stroke-miterlimit="10" stroke-dasharray="" stroke-dashoffset="0" style="mix-blend-mode: normal"><path d="M221.99083,175.76868c0,-7.24926 5.87669,-13.12595 13.12595,-13.12595c7.24926,0 13.12595,5.87669 13.12595,13.12595c0,7.24926 -5.87669,13.12595 -13.12595,13.12595c-7.24926,0 -13.12595,-5.87669 -13.12595,-13.12595z" data-paper-data="{&quot;index&quot;:null}" fill="url(#color-1)" stroke-width="0.5"/><path d="M229.16281,185.57039c0,-7.24926 5.87669,-13.12595 13.12595,-13.12595c7.24926,0 13.12595,5.87669 13.12595,13.12595c0,7.24926 -5.87669,13.12595 -13.12595,13.12595c-7.24926,0 -13.12595,-5.87669 -13.12595,-13.12595z" data-paper-data="{&quot;index&quot;:null}" fill="url(#color-2)" stroke-width="0.5"/><path d="M224.60068,173.55572c0,-5.52351 4.47769,-10.0012 10.0012,-10.0012c5.52351,0 10.0012,4.47769 10.0012,10.0012c0,5.52351 -4.47769,10.0012 -10.0012,10.0012c-5.52351,0 -10.0012,-4.47769 -10.0012,-10.0012z" data-paper-data="{&quot;index&quot;:null}" fill="url(#color-3)" stroke-width="0"/><path d="M252.72118,186.44428c0,5.52351 -4.47769,10.0012 -10.0012,10.0012c-5.52351,0 -10.0012,-4.47769 -10.0012,-10.0012c0,-5.52351 4.47769,-10.0012 10.0012,-10.0012c5.52351,0 10.0012,4.47769 10.0012,10.0012z" data-paper-data="{&quot;index&quot;:null}" fill="url(#color-4)" stroke-width="0"/><g data-paper-data="{&quot;index&quot;:null}" stroke-width="0"><path d="M230.37343,169.91449c-2.52886,1.1539 -4.28643,3.70457 -4.28643,6.66575c0,4.04441 3.27864,7.32305 7.32305,7.32305c0.17113,0 0.34089,-0.00587 0.50908,-0.01742c-1.20956,0.80422 -2.66152,1.2728 -4.22292,1.2728c-4.21774,0 -7.6369,-3.41916 -7.6369,-7.6369c0,-4.21774 3.41915,-7.6369 7.6369,-7.6369c0.22821,0 0.45409,0.01001 0.67721,0.02961z" fill="url(#color-5)"/><path d="M247.37615,177.78331c0,3.20664 -2.59949,5.80613 -5.80613,5.80613c-2.23377,0 -4.17292,-1.26144 -5.14395,-3.11082c0.76715,0.88051 1.89672,1.43698 3.15626,1.43698c2.31109,0 4.1846,-1.87351 4.1846,-4.1846c0,-2.31109 -1.87351,-4.1846 -4.1846,-4.1846c-1.18001,0 -2.24595,0.48842 -3.00668,1.27413c1.01213,-1.70248 2.87001,-2.84336 4.99436,-2.84336c3.20664,0 5.80613,2.59949 5.80613,5.80613z" fill="url(#color-6)"/><path d="M232.69774,165.70027c0,2.59998 -2.1077,4.70768 -4.70768,4.70768c-1.87984,0 -3.50232,-1.10182 -4.2569,-2.69488c0.76719,0.88196 1.89771,1.4395 3.15845,1.4395c2.31109,0 4.1846,-1.87351 4.1846,-4.1846c0,-1.84739 -1.19713,-3.41518 -2.85796,-3.96994c2.494,0.11903 4.47949,2.17877 4.47949,4.70224z" data-paper-data="{&quot;index&quot;:null}" fill="url(#color-7)"/><path d="M244.09494,167.23579c-0.66313,-0.44139 -1.45937,-0.6986 -2.3157,-0.6986c-2.31109,0 -4.1846,1.87351 -4.1846,4.1846c0,0.47838 0.08027,0.93801 0.22808,1.36616c-0.81469,-0.73702 -1.32654,-1.80258 -1.32654,-2.98769c0,-2.22442 1.80326,-4.02768 4.02768,-4.02768c1.55166,0 2.89839,0.87744 3.57107,2.16321z" fill="url(#color-8)"/><path d="M246.94732,164.42745c0.15822,0.38745 0.30083,0.78512 0.42687,1.1925c2.32933,7.5289 -1.88575,15.52058 -9.41465,17.84991c-7.5289,2.32933 -15.52058,-1.88575 -17.84991,-9.41465c-0.86232,-2.78719 -0.82774,-5.63779 -0.06018,-8.24107c0.07227,0.30662 0.15555,0.61288 0.25006,0.91836c2.23361,7.2195 9.89686,11.26136 17.11635,9.02774c5.28586,-1.63536 8.8683,-6.18139 9.53146,-11.3328z" data-paper-data="{&quot;index&quot;:null}" fill="url(#color-9)"/><path d="M227.39379,185.94024c-6.20502,-4.8588 -7.29634,-13.8278 -2.43755,-20.03281c4.8588,-6.20502 13.8278,-7.29634 20.03281,-2.43755c2.29709,1.79872 3.89336,4.16072 4.74638,6.73727c-0.23414,-0.21075 -0.47712,-0.41494 -0.72888,-0.61208c-5.95001,-4.65912 -14.55042,-3.61265 -19.20954,2.33737c-3.41125,4.35639 -3.76392,10.13357 -1.37281,14.74438c-0.35084,-0.22819 -0.69467,-0.47367 -1.03041,-0.73657z" data-paper-data="{&quot;index&quot;:null}" fill="url(#color-10)"/><path d="M234.73865,185.15867c-0.09777,0 -0.19526,-0.00121 -0.29246,-0.0036c4.20082,-1.35879 7.2389,-5.30248 7.2389,-9.95575c0,-5.77773 -4.68378,-10.4615 -10.4615,-10.4615c-2.10339,0 -4.06178,0.62075 -5.70199,1.68906c2.12722,-2.75796 5.46466,-4.53458 9.21706,-4.53458c6.42483,0 11.63319,5.20835 11.63319,11.63319c0,6.42483 -5.20835,11.63319 -11.63319,11.63319z" fill="url(#color-11)"/><path d="M243.66354,174.62199c-0.92641,-2.3104 -3.1868,-3.94204 -5.82828,-3.94204c-3.46663,0 -6.2769,2.81027 -6.2769,6.2769c0,3.30287 2.55101,6.00992 5.79022,6.25831c-0.55769,0.1218 -1.13693,0.18597 -1.73115,0.18597c-4.46041,0 -8.07628,-3.61587 -8.07628,-8.07628c0,-4.46041 3.61587,-8.07628 8.07628,-8.07628c4.2236,0 7.68996,3.24212 8.04611,7.37341z" fill="url(#color-12)"/><path d="M234.43397,181.88102c-4.03908,1.23477 -8.30183,-0.85232 -9.85021,-4.69899c1.56138,1.93862 4.20003,2.83815 6.7261,2.06592c3.31519,-1.01347 5.18109,-4.52254 4.16762,-7.83772c-0.96559,-3.15857 -4.19656,-5.00156 -7.36687,-4.29213c0.49772,-0.27951 1.03289,-0.51023 1.60115,-0.68395c4.26554,-1.30399 8.78054,1.09681 10.08454,5.36234c1.30399,4.26554 -1.09681,8.78054 -5.36234,10.08454z" fill="url(#color-13)"/><path d="M234.13798,180.32116c0.00984,-0.14375 0.01484,-0.28884 0.01484,-0.4351c0,-3.46663 -2.81027,-6.2769 -6.2769,-6.2769c-0.38992,0 -0.77153,0.03555 -1.14177,0.10359c0.84109,-1.698 2.59171,-2.86543 4.61499,-2.86543c2.84264,0 5.14706,2.30442 5.14706,5.14706c0,1.81484 -0.93927,3.4103 -2.35822,4.32677z" fill="url(#color-14)"/></g><g data-paper-data="{&quot;index&quot;:null}" stroke-width="0"><path d="M246.94842,190.08551c2.52886,-1.1539 4.28643,-3.70457 4.28643,-6.66575c0,-4.04441 -3.27864,-7.32305 -7.32305,-7.32305c-0.17113,0 -0.34089,0.00587 -0.50908,0.01742c1.20956,-0.80422 2.66152,-1.2728 4.22292,-1.2728c4.21774,0 7.6369,3.41916 7.6369,7.6369c0,4.21774 -3.41915,7.6369 -7.6369,7.6369c-0.22821,0 -0.45409,-0.01001 -0.67721,-0.02961z" fill="url(#color-15)"/><path d="M229.9457,182.21669c0,-3.20664 2.59949,-5.80613 5.80613,-5.80613c2.23377,0 4.17292,1.26144 5.14395,3.11082c-0.76715,-0.88051 -1.89672,-1.43698 -3.15626,-1.43698c-2.31109,0 -4.1846,1.87351 -4.1846,4.1846c0,2.31109 1.87351,4.1846 4.1846,4.1846c1.18001,0 2.24595,-0.48842 3.00668,-1.27413c-1.01213,1.70248 -2.87001,2.84336 -4.99436,2.84336c-3.20664,0 -5.80613,-2.59949 -5.80613,-5.80613z" fill="url(#color-16)"/><path d="M244.62411,194.29973c0,-2.59998 2.1077,-4.70768 4.70768,-4.70768c1.87984,0 3.50232,1.10182 4.2569,2.69488c-0.76719,-0.88196 -1.89771,-1.4395 -3.15845,-1.4395c-2.31109,0 -4.1846,1.87351 -4.1846,4.1846c0,1.84739 1.19713,3.41518 2.85796,3.96994c-2.494,-0.11903 -4.47949,-2.17877 -4.47949,-4.70224z" data-paper-data="{&quot;index&quot;:null}" fill="url(#color-17)"/><path d="M233.22691,192.76421c0.66313,0.44139 1.45937,0.6986 2.3157,0.6986c2.31109,0 4.1846,-1.87351 4.1846,-4.1846c0,-0.47838 -0.08027,-0.93801 -0.22808,-1.36616c0.81469,0.73702 1.32654,1.80258 1.32654,2.98769c0,2.22442 -1.80326,4.02768 -4.02768,4.02768c-1.55166,0 -2.89839,-0.87744 -3.57107,-2.16321z" fill="url(#color-18)"/><path d="M230.37453,195.57255c-0.15822,-0.38745 -0.30083,-0.78512 -0.42687,-1.1925c-2.32933,-7.5289 1.88575,-15.52058 9.41465,-17.84991c7.5289,-2.32933 15.52058,1.88575 17.84991,9.41465c0.86232,2.78719 0.82774,5.63779 0.06018,8.24107c-0.07227,-0.30662 -0.15555,-0.61288 -0.25006,-0.91836c-2.23361,-7.2195 -9.89686,-11.26136 -17.11635,-9.02774c-5.28586,1.63536 -8.8683,6.18139 -9.53146,11.3328z" data-paper-data="{&quot;index&quot;:null}" fill="url(#color-19)"/><path d="M249.92806,174.05976c6.20502,4.8588 7.29634,13.8278 2.43755,20.03281c-4.8588,6.20502 -13.8278,7.29634 -20.03281,2.43755c-2.29709,-1.79872 -3.89336,-4.16072 -4.74638,-6.73727c0.23414,0.21075 0.47712,0.41494 0.72888,0.61208c5.95001,4.65912 14.55042,3.61265 19.20954,-2.33737c3.41125,-4.35639 3.76392,-10.13357 1.37281,-14.74438c0.35084,0.22819 0.69467,0.47367 1.03041,0.73657z" data-paper-data="{&quot;index&quot;:null}" fill="url(#color-20)"/><path d="M242.5832,174.84133c0.09777,0 0.19526,0.00121 0.29246,0.0036c-4.20082,1.35879 -7.2389,5.30248 -7.2389,9.95575c0,5.77773 4.68378,10.4615 10.4615,10.4615c2.10339,0 4.06178,-0.62075 5.70199,-1.68906c-2.12722,2.75796 -5.46466,4.53458 -9.21706,4.53458c-6.42483,0 -11.63319,-5.20835 -11.63319,-11.63319c0,-6.42483 5.20835,-11.63319 11.63319,-11.63319z" fill="url(#color-21)"/><path d="M233.65831,185.37801c0.92641,2.3104 3.1868,3.94204 5.82828,3.94204c3.46663,0 6.2769,-2.81027 6.2769,-6.2769c0,-3.30287 -2.55101,-6.00992 -5.79022,-6.25831c0.55769,-0.1218 1.13693,-0.18597 1.73115,-0.18597c4.46041,0 8.07628,3.61587 8.07628,8.07628c0,4.46041 -3.61587,8.07628 -8.07628,8.07628c-4.2236,0 -7.68996,-3.24212 -8.04611,-7.37341z" fill="url(#color-22)"/><path d="M242.88789,178.11898c4.03908,-1.23477 8.30183,0.85232 9.85021,4.69899c-1.56138,-1.93862 -4.20003,-2.83815 -6.7261,-2.06592c-3.31519,1.01347 -5.18109,4.52254 -4.16762,7.83772c0.96559,3.15857 4.19656,5.00156 7.36687,4.29213c-0.49772,0.27951 -1.03289,0.51023 -1.60115,0.68395c-4.26554,1.30399 -8.78054,-1.09681 -10.08454,-5.36234c-1.30399,-4.26554 1.09681,-8.78054 5.36234,-10.08454z" fill="url(#color-23)"/><path d="M243.18388,179.67884c-0.00984,0.14375 -0.01484,0.28884 -0.01484,0.4351c0,3.46663 2.81027,6.2769 6.2769,6.2769c0.38992,0 0.77153,-0.03555 1.14177,-0.10359c-0.84109,1.698 -2.59171,2.86543 -4.61499,2.86543c-2.84264,0 -5.14706,-2.30442 -5.14706,-5.14706c0,-1.81484 0.93927,-3.4103 2.35822,-4.32677z" fill="url(#color-24)"/></g><g data-paper-data="{&quot;index&quot;:null}" stroke-width="0"><path d="M247.99272,171.71022c-0.00737,0.15639 -0.02152,0.31085 -0.04217,0.46312c-0.70906,-1.77023 -2.4002,-3.05702 -4.42941,-3.15266c-2.77153,-0.13062 -5.12418,2.01025 -5.2548,4.78177c-0.00552,0.11728 -0.00698,0.23379 -0.0045,0.34943c-0.51204,-0.85485 -0.78626,-1.86497 -0.73582,-2.93496c0.13622,-2.8903 2.58971,-5.12293 5.48001,-4.98671c2.8903,0.13622 5.12293,2.5897 4.98671,5.48z" fill="url(#color-25)"/><path d="M238.21786,179.40439c0.07215,-1.53074 0.99921,-2.81884 2.2979,-3.42453c-0.62816,0.49727 -1.04598,1.25336 -1.08667,2.11649c-0.07464,1.58373 1.14872,2.9281 2.73244,3.00274c1.58373,0.07464 2.9281,-1.14872 3.00274,-2.73244c0.03811,-0.80863 -0.26216,-1.55487 -0.77602,-2.10155c1.13397,0.74857 1.85578,2.05858 1.78717,3.51433c-0.10357,2.19742 -1.96889,3.89482 -4.16631,3.79126c-2.19742,-0.10357 -3.89482,-1.96889 -3.79126,-4.16631z" fill="url(#color-26)"/><path d="M254.13037,170.98444c-0.16212,1.70522 -1.63773,2.9993 -3.367,2.9178c-1.78169,-0.08397 -3.15797,-1.5964 -3.074,-3.37809c0.06071,-1.2882 0.86816,-2.36446 1.98421,-2.83011c-0.62917,0.49725 -1.04773,1.25395 -1.08846,2.11791c-0.07464,1.58373 1.14872,2.9281 2.73244,3.00274c1.26597,0.05967 2.379,-0.71006 2.8128,-1.83026z" data-paper-data="{&quot;index&quot;:null}" fill="url(#color-27)"/><path d="M250.94075,179.28554c-0.05011,1.06331 -0.6949,1.95785 -1.59772,2.37729c0.32389,-0.44016 0.52587,-0.9775 0.55353,-1.56432c0.07464,-1.58373 -1.14872,-2.9281 -2.73244,-3.00274c-0.32782,-0.01545 -0.64538,0.02471 -0.94356,0.11217c0.53137,-0.53448 1.2781,-0.85082 2.09023,-0.81254c1.52434,0.07184 2.70182,1.3658 2.62998,2.89014z" fill="url(#color-28)"/><path d="M250.3444,183.96219c-5.23458,1.35306 -10.57492,-1.79353 -11.92799,-7.02811c-1.35306,-5.23458 1.79353,-10.57492 7.02811,-11.92799c1.93784,-0.5009 3.89015,-0.38514 5.64932,0.22492c-0.21245,0.03962 -0.42501,0.0868 -0.6374,0.1417c-5.01946,1.29746 -8.03675,6.41833 -6.73928,11.43779c0.94995,3.67507 3.94951,6.27685 7.45822,6.89767c-0.27062,0.09591 -0.54774,0.18079 -0.83098,0.25401z" data-paper-data="{&quot;index&quot;:null}" fill="url(#color-29)"/><path d="M236.52675,170.2962c0.1677,-0.23305 0.34703,-0.46073 0.53803,-0.68232c3.53001,-4.0952 9.71146,-4.55338 13.80666,-1.02337c4.0952,3.53001 4.55338,9.71146 1.02337,13.80667c-1.30681,1.51604 -2.97698,2.53363 -4.77016,3.03497c0.15198,-0.15365 0.29976,-0.31356 0.44299,-0.47971c3.38494,-3.9269 2.94559,-9.85433 -0.98131,-13.23927c-2.87514,-2.47833 -6.82269,-2.9066 -10.05958,-1.41696z" data-paper-data="{&quot;index&quot;:null}" fill="url(#color-30)"/><path d="M244.95935,183.01999c-4.40277,-0.2075 -7.80369,-3.94486 -7.59619,-8.34763c0.00316,-0.067 0.00713,-0.13377 0.01192,-0.2003c0.79547,2.9226 3.39985,5.13188 6.58861,5.28216c3.95932,0.1866 7.32025,-2.87178 7.50686,-6.8311c0.06793,-1.44139 -0.2942,-2.80348 -0.9733,-3.96198c1.82125,1.5468 2.93093,3.89124 2.80974,6.46266c-0.2075,4.40277 -3.94486,7.80369 -8.34763,7.59619z" fill="url(#color-31)"/><path d="M244.29541,181.12865c1.61318,-0.56023 2.8043,-2.05651 2.88961,-3.86664c0.11196,-2.37559 -1.72307,-4.39215 -4.09866,-4.50412c-2.26336,-0.10668 -4.20081,1.55404 -4.47566,3.76575c-0.06545,-0.3861 -0.09073,-0.78511 -0.07153,-1.19232c0.14406,-3.05659 2.7387,-5.41767 5.79529,-5.27361c3.05659,0.14406 5.41767,2.7387 5.27361,5.79529c-0.13641,2.89432 -2.4701,5.165 -5.31267,5.27564z" fill="url(#color-32)"/><path d="M239.61907,174.56942c-0.7157,-2.80775 0.8522,-5.66149 3.53823,-6.59831c-1.37891,1.00736 -2.08056,2.7865 -1.63296,4.54249c0.58744,2.30454 2.93184,3.69653 5.23638,3.1091c2.19566,-0.55968 3.56298,-2.71425 3.17921,-4.90969c0.17547,0.35011 0.31629,0.72429 0.41698,1.11932c0.75583,2.96517 -1.0352,5.98164 -4.00037,6.73747c-2.96517,0.75583 -5.98164,-1.0352 -6.73747,-4.00037z" fill="url(#color-33)"/><path d="M240.69756,174.41697c0.09819,0.01139 0.19746,0.0195 0.29768,0.02422c2.37559,0.11196 4.39215,-1.72307 4.50412,-4.09866c0.01259,-0.2672 0.00056,-0.52986 -0.03412,-0.78577c1.13643,0.63121 1.87989,1.86857 1.81454,3.25507c-0.09181,1.94799 -1.74539,3.45272 -3.69337,3.36091c-1.24366,-0.05861 -2.30665,-0.7538 -2.88885,-1.75577z" fill="url(#color-34)"/></g><g data-paper-data="{&quot;index&quot;:null}" stroke-width="0"><path d="M238.36814,180.16311c-0.00737,0.15639 -0.02152,0.31085 -0.04217,0.46312c-0.70906,-1.77023 -2.4002,-3.05702 -4.42941,-3.15266c-2.77153,-0.13062 -5.12418,2.01025 -5.2548,4.78177c-0.00552,0.11728 -0.00698,0.23379 -0.0045,0.34943c-0.51204,-0.85485 -0.78626,-1.86497 -0.73582,-2.93496c0.13622,-2.8903 2.58971,-5.12293 5.48001,-4.98671c2.8903,0.13622 5.12293,2.5897 4.98671,5.48z" fill="url(#color-35)"/><path d="M228.59328,187.85728c0.07215,-1.53074 0.99921,-2.81884 2.2979,-3.42453c-0.62816,0.49727 -1.04598,1.25336 -1.08667,2.11649c-0.07464,1.58373 1.14872,2.9281 2.73244,3.00274c1.58373,0.07464 2.9281,-1.14872 3.00274,-2.73244c0.03811,-0.80863 -0.26216,-1.55487 -0.77602,-2.10155c1.13397,0.74857 1.85578,2.05858 1.78717,3.51433c-0.10357,2.19742 -1.96889,3.89482 -4.16631,3.79126c-2.19742,-0.10357 -3.89482,-1.96889 -3.79126,-4.16631z" fill="url(#color-36)"/><path d="M244.50579,179.43733c-0.16212,1.70522 -1.63773,2.9993 -3.367,2.9178c-1.78169,-0.08397 -3.15797,-1.5964 -3.074,-3.37809c0.06071,-1.2882 0.86816,-2.36446 1.98421,-2.83011c-0.62917,0.49725 -1.04773,1.25395 -1.08846,2.11791c-0.07464,1.58373 1.14872,2.9281 2.73244,3.00274c1.26597,0.05967 2.379,-0.71006 2.8128,-1.83026z" data-paper-data="{&quot;index&quot;:null}" fill="url(#color-37)"/><path d="M241.31617,187.73843c-0.05011,1.06331 -0.6949,1.95785 -1.59772,2.37729c0.32389,-0.44016 0.52587,-0.9775 0.55353,-1.56432c0.07464,-1.58373 -1.14872,-2.9281 -2.73244,-3.00274c-0.32782,-0.01545 -0.64538,0.02471 -0.94356,0.11217c0.53137,-0.53448 1.2781,-0.85082 2.09023,-0.81254c1.52434,0.07184 2.70182,1.3658 2.62998,2.89014z" fill="url(#color-38)"/><path d="M240.71981,192.41509c-5.23458,1.35306 -10.57492,-1.79353 -11.92799,-7.02811c-1.35306,-5.23458 1.79353,-10.57492 7.02811,-11.92799c1.93784,-0.5009 3.89015,-0.38514 5.64932,0.22492c-0.21245,0.03962 -0.42501,0.0868 -0.6374,0.1417c-5.01946,1.29746 -8.03675,6.41833 -6.73928,11.43779c0.94995,3.67507 3.94951,6.27685 7.45822,6.89767c-0.27062,0.09591 -0.54774,0.18079 -0.83098,0.25401z" data-paper-data="{&quot;index&quot;:null}" fill="url(#color-39)"/><path d="M226.90216,178.74909c0.1677,-0.23305 0.34703,-0.46073 0.53803,-0.68232c3.53001,-4.0952 9.71146,-4.55338 13.80666,-1.02337c4.0952,3.53001 4.55338,9.71146 1.02337,13.80667c-1.30681,1.51604 -2.97698,2.53363 -4.77016,3.03497c0.15198,-0.15365 0.29976,-0.31356 0.44299,-0.47971c3.38494,-3.9269 2.94559,-9.85433 -0.98131,-13.23927c-2.87514,-2.47833 -6.82269,-2.9066 -10.05958,-1.41696z" data-paper-data="{&quot;index&quot;:null}" fill="url(#color-40)"/><path d="M235.33477,191.47289c-4.40277,-0.2075 -7.80369,-3.94486 -7.59619,-8.34763c0.00316,-0.067 0.00713,-0.13377 0.01192,-0.2003c0.79547,2.9226 3.39985,5.13188 6.58861,5.28216c3.95932,0.1866 7.32025,-2.87178 7.50686,-6.8311c0.06793,-1.44139 -0.2942,-2.80348 -0.9733,-3.96198c1.82125,1.5468 2.93093,3.89124 2.80974,6.46266c-0.2075,4.40277 -3.94486,7.80369 -8.34763,7.59619z" fill="url(#color-41)"/><path d="M234.67082,189.58154c1.61318,-0.56023 2.8043,-2.05651 2.88961,-3.86664c0.11196,-2.37559 -1.72307,-4.39215 -4.09866,-4.50412c-2.26336,-0.10668 -4.20081,1.55404 -4.47566,3.76575c-0.06545,-0.3861 -0.09073,-0.78511 -0.07153,-1.19232c0.14406,-3.05659 2.7387,-5.41767 5.79529,-5.27361c3.05659,0.14406 5.41767,2.7387 5.27361,5.79529c-0.13641,2.89432 -2.4701,5.165 -5.31267,5.27564z" fill="url(#color-42)"/><path d="M229.99449,183.02231c-0.7157,-2.80775 0.8522,-5.66149 3.53823,-6.59831c-1.37891,1.00736 -2.08056,2.7865 -1.63296,4.54249c0.58744,2.30454 2.93184,3.69653 5.23638,3.1091c2.19566,-0.55968 3.56298,-2.71425 3.17921,-4.90969c0.17547,0.35011 0.31629,0.72429 0.41698,1.11932c0.75583,2.96517 -1.0352,5.98164 -4.00037,6.73747c-2.96517,0.75583 -5.98164,-1.0352 -6.73747,-4.00037z" fill="url(#color-43)"/><path d="M231.07298,182.86986c0.09819,0.01139 0.19746,0.0195 0.29768,0.02422c2.37559,0.11196 4.39215,-1.72307 4.50412,-4.09866c0.01259,-0.2672 0.00056,-0.52986 -0.03412,-0.78577c1.13643,0.63121 1.87989,1.86857 1.81454,3.25507c-0.09181,1.94799 -1.74539,3.45272 -3.69337,3.36091c-1.24366,-0.05861 -2.30665,-0.7538 -2.88885,-1.75577z" fill="url(#color-44)"/></g><g data-paper-data="{&quot;index&quot;:null}" stroke-width="0"><path d="M237.19645,170.20376c-0.00737,0.15639 -0.02152,0.31085 -0.04217,0.46312c-0.70906,-1.77023 -2.4002,-3.05702 -4.42941,-3.15266c-2.77153,-0.13062 -5.12418,2.01025 -5.2548,4.78177c-0.00552,0.11728 -0.00698,0.23379 -0.0045,0.34943c-0.51204,-0.85485 -0.78626,-1.86497 -0.73582,-2.93496c0.13622,-2.8903 2.58971,-5.12293 5.48001,-4.98671c2.8903,0.13622 5.12293,2.5897 4.98671,5.48z" fill="url(#color-45)"/><path d="M227.42159,177.89793c0.07215,-1.53074 0.99921,-2.81884 2.2979,-3.42453c-0.62816,0.49727 -1.04598,1.25336 -1.08667,2.11649c-0.07464,1.58373 1.14872,2.9281 2.73244,3.00274c1.58373,0.07464 2.9281,-1.14872 3.00274,-2.73244c0.03811,-0.80863 -0.26216,-1.55487 -0.77602,-2.10155c1.13397,0.74857 1.85578,2.05858 1.78717,3.51433c-0.10357,2.19742 -1.96889,3.89482 -4.16631,3.79126c-2.19742,-0.10357 -3.89482,-1.96889 -3.79126,-4.16631z" fill="url(#color-46)"/><path d="M243.33411,169.47798c-0.16212,1.70522 -1.63773,2.9993 -3.367,2.9178c-1.78169,-0.08397 -3.15797,-1.5964 -3.074,-3.37809c0.06071,-1.2882 0.86816,-2.36446 1.98421,-2.83011c-0.62917,0.49725 -1.04773,1.25395 -1.08846,2.11791c-0.07464,1.58373 1.14872,2.9281 2.73244,3.00274c1.26597,0.05967 2.379,-0.71006 2.8128,-1.83026z" data-paper-data="{&quot;index&quot;:null}" fill="url(#color-47)"/><path d="M240.14448,177.77908c-0.05011,1.06331 -0.6949,1.95785 -1.59772,2.37729c0.32389,-0.44016 0.52587,-0.9775 0.55353,-1.56432c0.07464,-1.58373 -1.14872,-2.9281 -2.73244,-3.00274c-0.32782,-0.01545 -0.64538,0.02471 -0.94356,0.11217c0.53137,-0.53448 1.2781,-0.85082 2.09023,-0.81254c1.52434,0.07184 2.70182,1.3658 2.62998,2.89014z" fill="url(#color-48)"/><path d="M239.54813,182.45574c-5.23458,1.35306 -10.57492,-1.79353 -11.92799,-7.02811c-1.35306,-5.23458 1.79353,-10.57492 7.02811,-11.92799c1.93784,-0.5009 3.89015,-0.38514 5.64932,0.22492c-0.21245,0.03962 -0.42501,0.0868 -0.6374,0.1417c-5.01946,1.29746 -8.03675,6.41833 -6.73928,11.43779c0.94995,3.67507 3.94951,6.27685 7.45822,6.89767c-0.27062,0.09591 -0.54774,0.18079 -0.83098,0.25401z" data-paper-data="{&quot;index&quot;:null}" fill="url(#color-49)"/><path d="M225.73048,168.78974c0.1677,-0.23305 0.34703,-0.46073 0.53803,-0.68232c3.53001,-4.0952 9.71146,-4.55338 13.80666,-1.02337c4.0952,3.53001 4.55338,9.71146 1.02337,13.80667c-1.30681,1.51604 -2.97698,2.53363 -4.77016,3.03497c0.15198,-0.15365 0.29976,-0.31356 0.44299,-0.47971c3.38494,-3.9269 2.94559,-9.85433 -0.98131,-13.23927c-2.87514,-2.47833 -6.82269,-2.9066 -10.05958,-1.41696z" data-paper-data="{&quot;index&quot;:null}" fill="url(#color-50)"/><path d="M234.16308,181.51353c-4.40277,-0.2075 -7.80369,-3.94486 -7.59619,-8.34763c0.00316,-0.067 0.00713,-0.13377 0.01192,-0.2003c0.79547,2.9226 3.39985,5.13188 6.58861,5.28216c3.95932,0.1866 7.32025,-2.87178 7.50686,-6.8311c0.06793,-1.44139 -0.2942,-2.80348 -0.9733,-3.96198c1.82125,1.5468 2.93093,3.89124 2.80974,6.46266c-0.2075,4.40277 -3.94486,7.80369 -8.34763,7.59619z" fill="url(#color-51)"/><path d="M233.49914,179.6222c1.61318,-0.56023 2.8043,-2.05651 2.88961,-3.86664c0.11196,-2.37559 -1.72307,-4.39215 -4.09866,-4.50412c-2.26336,-0.10668 -4.20081,1.55404 -4.47566,3.76575c-0.06545,-0.3861 -0.09073,-0.78511 -0.07153,-1.19232c0.14406,-3.05659 2.7387,-5.41767 5.79529,-5.27361c3.05659,0.14406 5.41767,2.7387 5.27361,5.79529c-0.13641,2.89432 -2.4701,5.165 -5.31267,5.27564z" fill="url(#color-52)"/><path d="M228.8228,173.06296c-0.7157,-2.80775 0.8522,-5.66149 3.53823,-6.59831c-1.37891,1.00736 -2.08056,2.7865 -1.63296,4.54249c0.58744,2.30454 2.93184,3.69653 5.23638,3.1091c2.19566,-0.55968 3.56298,-2.71425 3.17921,-4.90969c0.17547,0.35011 0.31629,0.72429 0.41698,1.11932c0.75583,2.96517 -1.0352,5.98164 -4.00037,6.73747c-2.96517,0.75583 -5.98164,-1.0352 -6.73747,-4.00037z" fill="url(#color-53)"/><path d="M229.90129,172.91051c0.09819,0.01139 0.19746,0.0195 0.29768,0.02422c2.37559,0.11196 4.39215,-1.72307 4.50412,-4.09866c0.01259,-0.2672 0.00056,-0.52986 -0.03412,-0.78577c1.13643,0.63121 1.87989,1.86857 1.81454,3.25507c-0.09181,1.94799 -1.74539,3.45272 -3.69337,3.36091c-1.24366,-0.05861 -2.30665,-0.7538 -2.88885,-1.75577z" fill="url(#color-54)"/></g><g data-paper-data="{&quot;index&quot;:null}" stroke-width="0"><path d="M240.1254,189.79624c0.00737,-0.15639 0.02152,-0.31085 0.04217,-0.46312c0.70906,1.77023 2.4002,3.05702 4.42941,3.15266c2.77153,0.13062 5.12418,-2.01025 5.2548,-4.78177c0.00552,-0.11728 0.00698,-0.23379 0.0045,-0.34943c0.51204,0.85485 0.78626,1.86497 0.73582,2.93496c-0.13622,2.8903 -2.58971,5.12293 -5.48001,4.98671c-2.8903,-0.13622 -5.12293,-2.5897 -4.98671,-5.48z" fill="url(#color-55)"/><path d="M249.90026,182.10207c-0.07215,1.53074 -0.99921,2.81884 -2.2979,3.42453c0.62816,-0.49727 1.04598,-1.25336 1.08667,-2.11649c0.07464,-1.58373 -1.14872,-2.9281 -2.73244,-3.00274c-1.58373,-0.07464 -2.9281,1.14872 -3.00274,2.73244c-0.03811,0.80863 0.26216,1.55487 0.77602,2.10155c-1.13397,-0.74857 -1.85578,-2.05858 -1.78717,-3.51433c0.10357,-2.19742 1.96889,-3.89482 4.16631,-3.79126c2.19742,0.10357 3.89482,1.96889 3.79126,4.16631z" fill="url(#color-56)"/><path d="M233.98775,190.52202c0.16212,-1.70522 1.63773,-2.9993 3.367,-2.9178c1.78169,0.08397 3.15797,1.5964 3.074,3.37809c-0.06071,1.2882 -0.86816,2.36446 -1.98421,2.83011c0.62917,-0.49725 1.04773,-1.25395 1.08846,-2.11791c0.07464,-1.58373 -1.14872,-2.9281 -2.73244,-3.00274c-1.26597,-0.05967 -2.379,0.71006 -2.8128,1.83026z" data-paper-data="{&quot;index&quot;:null}" fill="url(#color-57)"/><path d="M237.17737,182.22092c0.05011,-1.06331 0.6949,-1.95785 1.59772,-2.37729c-0.32389,0.44016 -0.52587,0.9775 -0.55353,1.56432c-0.07464,1.58373 1.14872,2.9281 2.73244,3.00274c0.32782,0.01545 0.64538,-0.02471 0.94356,-0.11217c-0.53137,0.53448 -1.2781,0.85082 -2.09023,0.81254c-1.52434,-0.07184 -2.70182,-1.3658 -2.62998,-2.89014z" fill="url(#color-58)"/><path d="M237.77373,177.54426c5.23458,-1.35306 10.57492,1.79353 11.92799,7.02811c1.35306,5.23458 -1.79353,10.57492 -7.02811,11.92799c-1.93784,0.5009 -3.89015,0.38514 -5.64932,-0.22492c0.21245,-0.03962 0.42501,-0.0868 0.6374,-0.1417c5.01946,-1.29746 8.03675,-6.41833 6.73928,-11.43779c-0.94995,-3.67507 -3.94951,-6.27685 -7.45822,-6.89767c0.27062,-0.09591 0.54774,-0.18079 0.83098,-0.25401z" data-paper-data="{&quot;index&quot;:null}" fill="url(#color-59)"/><path d="M251.59138,191.21026c-0.1677,0.23305 -0.34703,0.46073 -0.53803,0.68232c-3.53001,4.0952 -9.71146,4.55338 -13.80666,1.02337c-4.0952,-3.53001 -4.55338,-9.71146 -1.02337,-13.80667c1.30681,-1.51604 2.97698,-2.53363 4.77016,-3.03497c-0.15198,0.15365 -0.29976,0.31356 -0.44299,0.47971c-3.38494,3.9269 -2.94559,9.85433 0.98131,13.23927c2.87514,2.47833 6.82269,2.9066 10.05958,1.41696z" data-paper-data="{&quot;index&quot;:null}" fill="url(#color-60)"/><path d="M243.15877,178.48647c4.40277,0.2075 7.80369,3.94486 7.59619,8.34763c-0.00316,0.067 -0.00713,0.13377 -0.01192,0.2003c-0.79547,-2.9226 -3.39985,-5.13188 -6.58861,-5.28216c-3.95932,-0.1866 -7.32025,2.87178 -7.50686,6.8311c-0.06793,1.44139 0.2942,2.80348 0.9733,3.96198c-1.82125,-1.5468 -2.93093,-3.89124 -2.80974,-6.46266c0.2075,-4.40277 3.94486,-7.80369 8.34763,-7.59619z" fill="url(#color-61)"/><path d="M243.82272,180.3778c-1.61318,0.56023 -2.8043,2.05651 -2.88961,3.86664c-0.11196,2.37559 1.72307,4.39215 4.09866,4.50412c2.26336,0.10668 4.20081,-1.55404 4.47566,-3.76575c0.06545,0.3861 0.09073,0.78511 0.07153,1.19232c-0.14406,3.05659 -2.7387,5.41767 -5.79529,5.27361c-3.05659,-0.14406 -5.41767,-2.7387 -5.27361,-5.79529c0.13641,-2.89432 2.4701,-5.165 5.31267,-5.27564z" fill="url(#color-62)"/><path d="M248.49905,186.93703c0.7157,2.80775 -0.8522,5.66149 -3.53823,6.59831c1.37891,-1.00736 2.08056,-2.7865 1.63296,-4.54249c-0.58744,-2.30454 -2.93184,-3.69653 -5.23638,-3.1091c-2.19566,0.55968 -3.56298,2.71425 -3.17921,4.90969c-0.17547,-0.35011 -0.31629,-0.72429 -0.41698,-1.11932c-0.75583,-2.96517 1.0352,-5.98164 4.00037,-6.73747c2.96517,-0.75583 5.98164,1.0352 6.73747,4.00037z" fill="url(#color-63)"/><path d="M247.42057,187.08949c-0.09819,-0.01139 -0.19746,-0.0195 -0.29768,-0.02422c-2.37559,-0.11196 -4.39215,1.72307 -4.50412,4.09866c-0.01259,0.2672 -0.00056,0.52986 0.03412,0.78577c-1.13643,-0.63121 -1.87989,-1.86857 -1.81454,-3.25507c0.09181,-1.94799 1.74539,-3.45272 3.69337,-3.36091c1.24366,0.05861 2.30665,0.7538 2.88885,1.75577z" fill="url(#color-64)"/></g><g data-paper-data="{&quot;index&quot;:null}" stroke-width="0"><path d="M241.1697,171.42094c-2.52886,1.1539 -4.28643,3.70457 -4.28643,6.66575c0,4.04441 3.27864,7.32305 7.32305,7.32305c0.17113,0 0.34089,-0.00587 0.50908,-0.01742c-1.20956,0.80422 -2.66152,1.2728 -4.22292,1.2728c-4.21774,0 -7.6369,-3.41916 -7.6369,-7.6369c0,-4.21774 3.41915,-7.6369 7.6369,-7.6369c0.22821,0 0.45409,0.01001 0.67721,0.02961z" fill="url(#color-65)"/><path d="M258.17242,179.28977c0,3.20664 -2.59949,5.80613 -5.80613,5.80613c-2.23377,0 -4.17292,-1.26144 -5.14395,-3.11082c0.76715,0.88051 1.89672,1.43698 3.15626,1.43698c2.31109,0 4.1846,-1.87351 4.1846,-4.1846c0,-2.31109 -1.87351,-4.1846 -4.1846,-4.1846c-1.18001,0 -2.24595,0.48842 -3.00668,1.27413c1.01213,-1.70248 2.87001,-2.84336 4.99436,-2.84336c3.20664,0 5.80613,2.59949 5.80613,5.80613z" fill="url(#color-66)"/><path d="M243.49401,167.20673c0,2.59998 -2.1077,4.70768 -4.70768,4.70768c-1.87984,0 -3.50232,-1.10182 -4.2569,-2.69488c0.76719,0.88196 1.89771,1.4395 3.15845,1.4395c2.31109,0 4.1846,-1.87351 4.1846,-4.1846c0,-1.84739 -1.19713,-3.41518 -2.85796,-3.96994c2.494,0.11903 4.47949,2.17877 4.47949,4.70224z" data-paper-data="{&quot;index&quot;:null}" fill="url(#color-67)"/><path d="M254.89121,168.74224c-0.66313,-0.44139 -1.45937,-0.6986 -2.3157,-0.6986c-2.31109,0 -4.1846,1.87351 -4.1846,4.1846c0,0.47838 0.08027,0.93801 0.22808,1.36616c-0.81469,-0.73702 -1.32654,-1.80258 -1.32654,-2.98769c0,-2.22442 1.80326,-4.02768 4.02768,-4.02768c1.55166,0 2.89839,0.87744 3.57107,2.16321z" fill="url(#color-68)"/><path d="M257.74359,165.93391c0.15822,0.38745 0.30083,0.78512 0.42687,1.1925c2.32933,7.5289 -1.88575,15.52058 -9.41465,17.84991c-7.5289,2.32933 -15.52058,-1.88575 -17.84991,-9.41465c-0.86232,-2.78719 -0.82774,-5.63779 -0.06018,-8.24107c0.07227,0.30662 0.15555,0.61288 0.25006,0.91836c2.23361,7.2195 9.89686,11.26136 17.11635,9.02774c5.28586,-1.63536 8.8683,-6.18139 9.53146,-11.3328z" data-paper-data="{&quot;index&quot;:null}" fill="url(#color-69)"/><path d="M238.19006,187.4467c-6.20502,-4.8588 -7.29634,-13.8278 -2.43755,-20.03281c4.8588,-6.20502 13.8278,-7.29634 20.03281,-2.43755c2.29709,1.79872 3.89336,4.16072 4.74638,6.73727c-0.23414,-0.21075 -0.47712,-0.41494 -0.72888,-0.61208c-5.95001,-4.65912 -14.55042,-3.61265 -19.20954,2.33737c-3.41125,4.35639 -3.76392,10.13357 -1.37281,14.74438c-0.35084,-0.22819 -0.69467,-0.47367 -1.03041,-0.73657z" data-paper-data="{&quot;index&quot;:null}" fill="url(#color-70)"/><path d="M245.53492,186.66512c-0.09777,0 -0.19526,-0.00121 -0.29246,-0.0036c4.20082,-1.35879 7.2389,-5.30248 7.2389,-9.95575c0,-5.77773 -4.68378,-10.4615 -10.4615,-10.4615c-2.10339,0 -4.06178,0.62075 -5.70199,1.68906c2.12722,-2.75796 5.46466,-4.53458 9.21706,-4.53458c6.42483,0 11.63319,5.20835 11.63319,11.63319c0,6.42483 -5.20835,11.63319 -11.63319,11.63319z" fill="url(#color-71)"/><path d="M254.45981,176.12844c-0.92641,-2.3104 -3.1868,-3.94204 -5.82828,-3.94204c-3.46663,0 -6.2769,2.81027 -6.2769,6.2769c0,3.30287 2.55101,6.00992 5.79022,6.25831c-0.55769,0.1218 -1.13693,0.18597 -1.73115,0.18597c-4.46041,0 -8.07628,-3.61587 -8.07628,-8.07628c0,-4.46041 3.61587,-8.07628 8.07628,-8.07628c4.2236,0 7.68996,3.24212 8.04611,7.37341z" fill="url(#color-72)"/><path d="M245.23023,183.38747c-4.03908,1.23477 -8.30183,-0.85232 -9.85021,-4.69899c1.56138,1.93862 4.20003,2.83815 6.7261,2.06592c3.31519,-1.01347 5.18109,-4.52254 4.16762,-7.83772c-0.96559,-3.15857 -4.19656,-5.00156 -7.36687,-4.29213c0.49772,-0.27951 1.03289,-0.51023 1.60115,-0.68395c4.26554,-1.30399 8.78054,1.09681 10.08454,5.36234c1.30399,4.26554 -1.09681,8.78054 -5.36234,10.08454z" fill="url(#color-73)"/><path d="M244.93425,181.82762c0.00984,-0.14375 0.01484,-0.28884 0.01484,-0.4351c0,-3.46663 -2.81027,-6.2769 -6.2769,-6.2769c-0.38992,0 -0.77153,0.03555 -1.14177,0.10359c0.84109,-1.698 2.59171,-2.86543 4.61499,-2.86543c2.84264,0 5.14706,2.30442 5.14706,5.14706c0,1.81484 -0.93927,3.4103 -2.35822,4.32677z" fill="url(#color-74)"/></g><g data-paper-data="{&quot;index&quot;:null}" stroke-width="0"><path d="M231.54512,179.87383c-2.52886,1.1539 -4.28643,3.70457 -4.28643,6.66575c0,4.04441 3.27864,7.32305 7.32305,7.32305c0.17113,0 0.34089,-0.00587 0.50908,-0.01742c-1.20956,0.80422 -2.66152,1.2728 -4.22292,1.2728c-4.21774,0 -7.6369,-3.41916 -7.6369,-7.6369c0,-4.21774 3.41915,-7.6369 7.6369,-7.6369c0.22821,0 0.45409,0.01001 0.67721,0.02961z" fill="url(#color-75)"/><path d="M248.54784,187.74266c0,3.20664 -2.59949,5.80613 -5.80613,5.80613c-2.23377,0 -4.17292,-1.26144 -5.14395,-3.11082c0.76715,0.88051 1.89672,1.43698 3.15626,1.43698c2.31109,0 4.1846,-1.87351 4.1846,-4.1846c0,-2.31109 -1.87351,-4.1846 -4.1846,-4.1846c-1.18001,0 -2.24595,0.48842 -3.00668,1.27413c1.01213,-1.70248 2.87001,-2.84336 4.99436,-2.84336c3.20664,0 5.80613,2.59949 5.80613,5.80613z" fill="url(#color-76)"/><path d="M233.86943,175.65963c0,2.59998 -2.1077,4.70768 -4.70768,4.70768c-1.87984,0 -3.50232,-1.10182 -4.2569,-2.69488c0.76719,0.88196 1.89771,1.4395 3.15845,1.4395c2.31109,0 4.1846,-1.87351 4.1846,-4.1846c0,-1.84739 -1.19713,-3.41518 -2.85796,-3.96994c2.494,0.11903 4.47949,2.17877 4.47949,4.70224z" data-paper-data="{&quot;index&quot;:null}" fill="url(#color-77)"/><path d="M245.26663,177.19513c-0.66313,-0.44139 -1.45937,-0.6986 -2.3157,-0.6986c-2.31109,0 -4.1846,1.87351 -4.1846,4.1846c0,0.47838 0.08027,0.93801 0.22808,1.36616c-0.81469,-0.73702 -1.32654,-1.80258 -1.32654,-2.98769c0,-2.22442 1.80326,-4.02768 4.02768,-4.02768c1.55166,0 2.89839,0.87744 3.57107,2.16321z" fill="url(#color-78)"/><path d="M248.11901,174.3868c0.15822,0.38745 0.30083,0.78512 0.42687,1.1925c2.32933,7.5289 -1.88575,15.52058 -9.41465,17.84991c-7.5289,2.32933 -15.52058,-1.88575 -17.84991,-9.41465c-0.86232,-2.78719 -0.82774,-5.63779 -0.06018,-8.24107c0.07227,0.30662 0.15555,0.61288 0.25006,0.91836c2.23361,7.2195 9.89686,11.26136 17.11635,9.02774c5.28586,-1.63536 8.8683,-6.18139 9.53146,-11.3328z" data-paper-data="{&quot;index&quot;:null}" fill="url(#color-79)"/><path d="M228.56548,195.8996c-6.20502,-4.8588 -7.29634,-13.8278 -2.43755,-20.03281c4.8588,-6.20502 13.8278,-7.29634 20.03281,-2.43755c2.29709,1.79872 3.89336,4.16072 4.74638,6.73727c-0.23414,-0.21075 -0.47712,-0.41494 -0.72888,-0.61208c-5.95001,-4.65912 -14.55042,-3.61265 -19.20954,2.33737c-3.41125,4.35639 -3.76392,10.13357 -1.37281,14.74438c-0.35084,-0.22819 -0.69467,-0.47367 -1.03041,-0.73657z" data-paper-data="{&quot;index&quot;:null}" fill="url(#color-80)"/><path d="M235.91034,195.11802c-0.09777,0 -0.19526,-0.00121 -0.29246,-0.0036c4.20082,-1.35879 7.2389,-5.30248 7.2389,-9.95575c0,-5.77773 -4.68378,-10.4615 -10.4615,-10.4615c-2.10339,0 -4.06178,0.62075 -5.70199,1.68906c2.12722,-2.75796 5.46466,-4.53458 9.21706,-4.53458c6.42483,0 11.63319,5.20835 11.63319,11.63319c0,6.42483 -5.20835,11.63319 -11.63319,11.63319z" fill="url(#color-81)"/><path d="M244.83523,184.58133c-0.92641,-2.3104 -3.1868,-3.94204 -5.82828,-3.94204c-3.46663,0 -6.2769,2.81027 -6.2769,6.2769c0,3.30287 2.55101,6.00992 5.79022,6.25831c-0.55769,0.1218 -1.13693,0.18597 -1.73115,0.18597c-4.46041,0 -8.07628,-3.61587 -8.07628,-8.07628c0,-4.46041 3.61587,-8.07628 8.07628,-8.07628c4.2236,0 7.68996,3.24212 8.04611,7.37341z" fill="url(#color-82)"/><path d="M235.60565,191.84037c-4.03908,1.23477 -8.30183,-0.85232 -9.85021,-4.69899c1.56138,1.93862 4.20003,2.83815 6.7261,2.06592c3.31519,-1.01347 5.18109,-4.52254 4.16762,-7.83772c-0.96559,-3.15857 -4.19656,-5.00156 -7.36687,-4.29213c0.49772,-0.27951 1.03289,-0.51023 1.60115,-0.68395c4.26554,-1.30399 8.78054,1.09681 10.08454,5.36234c1.30399,4.26554 -1.09681,8.78054 -5.36234,10.08454z" fill="url(#color-83)"/><path d="M235.30966,190.28051c0.00984,-0.14375 0.01484,-0.28884 0.01484,-0.4351c0,-3.46663 -2.81027,-6.2769 -6.2769,-6.2769c-0.38992,0 -0.77153,0.03555 -1.14177,0.10359c0.84109,-1.698 2.59171,-2.86543 4.61499,-2.86543c2.84264,0 5.14706,2.30442 5.14706,5.14706c0,1.81484 -0.93927,3.4103 -2.35822,4.32677z" fill="url(#color-84)"/></g></g></g></svg>