<svg version="1.1" xmlns="http://www.w3.org/2000/svg" xmlns:xlink="http://www.w3.org/1999/xlink" width="98.12981" height="93.51126" viewBox="0,0,98.12981,93.51126"><defs><radialGradient cx="226.07301" cy="172.24814" r="31.36728" gradientUnits="userSpaceOnUse" id="color-1"><stop offset="0" stop-color="#ff9300"/><stop offset="1" stop-color="#ff9300" stop-opacity="0"/></radialGradient><radialGradient cx="243.21199" cy="195.67142" r="31.36728" gradientUnits="userSpaceOnUse" id="color-2"><stop offset="0" stop-color="#ff9300"/><stop offset="1" stop-color="#ff9300" stop-opacity="0"/></radialGradient><radialGradient cx="224.84252" cy="166.9598" r="23.9" gradientUnits="userSpaceOnUse" id="color-3"><stop offset="0" stop-color="#ffb82b"/><stop offset="1" stop-color="#ffb82b" stop-opacity="0"/></radialGradient><radialGradient cx="244.24248" cy="197.75976" r="23.9" gradientUnits="userSpaceOnUse" id="color-4"><stop offset="0" stop-color="#ffb82b"/><stop offset="1" stop-color="#ffb82b" stop-opacity="0"/></radialGradient><radialGradient cx="213.11941" cy="176.43752" r="18.25" gradientUnits="userSpaceOnUse" id="color-5"><stop offset="0" stop-color="#ff6f00"/><stop offset="1" stop-color="#ff6f00" stop-opacity="0"/></radialGradient><radialGradient cx="241.49439" cy="177.06252" r="13.875" gradientUnits="userSpaceOnUse" id="color-6"><stop offset="0" stop-color="#ff6f00"/><stop offset="1" stop-color="#ff6f00" stop-opacity="0"/></radialGradient><radialGradient cx="209.0422" cy="148.18751" r="11.25" gradientUnits="userSpaceOnUse" id="color-7"><stop offset="0" stop-color="#ff6f00"/><stop offset="1" stop-color="#ff6f00" stop-opacity="0"/></radialGradient><radialGradient cx="238.99441" cy="156.31251" r="9.625" gradientUnits="userSpaceOnUse" id="color-8"><stop offset="0" stop-color="#ff6f00"/><stop offset="1" stop-color="#ff6f00" stop-opacity="0"/></radialGradient><radialGradient cx="222.78747" cy="158.07452" r="34.10077" gradientUnits="userSpaceOnUse" id="color-9"><stop offset="0" stop-color="#ff6f00"/><stop offset="1" stop-color="#ff6f00" stop-opacity="0"/></radialGradient><radialGradient cx="228.64109" cy="169.70641" r="34.10077" gradientUnits="userSpaceOnUse" id="color-10"><stop offset="0" stop-color="#ff6f00"/><stop offset="1" stop-color="#ff6f00" stop-opacity="0"/></radialGradient><radialGradient cx="225.16939" cy="166.88752" r="27.8" gradientUnits="userSpaceOnUse" id="color-11"><stop offset="0" stop-color="#ff6f00"/><stop offset="1" stop-color="#ff6f00" stop-opacity="0"/></radialGradient><radialGradient cx="227.26939" cy="171.18752" r="19.3" gradientUnits="userSpaceOnUse" id="color-12"><stop offset="0" stop-color="#ff6f00"/><stop offset="1" stop-color="#ff6f00" stop-opacity="0"/></radialGradient><radialGradient cx="218.79891" cy="168.39805" r="19.3" gradientUnits="userSpaceOnUse" id="color-13"><stop offset="0" stop-color="#ff6f00"/><stop offset="1" stop-color="#ff6f00" stop-opacity="0"/></radialGradient><radialGradient cx="217.06941" cy="172.78752" r="12.3" gradientUnits="userSpaceOnUse" id="color-14"><stop offset="0" stop-color="#ff6f00"/><stop offset="1" stop-color="#ff6f00" stop-opacity="0"/></radialGradient><radialGradient cx="255.96559" cy="188.28204" r="18.25" gradientUnits="userSpaceOnUse" id="color-15"><stop offset="0" stop-color="#ff6f00"/><stop offset="1" stop-color="#ff6f00" stop-opacity="0"/></radialGradient><radialGradient cx="227.59061" cy="187.65704" r="13.875" gradientUnits="userSpaceOnUse" id="color-16"><stop offset="0" stop-color="#ff6f00"/><stop offset="1" stop-color="#ff6f00" stop-opacity="0"/></radialGradient><radialGradient cx="260.0428" cy="216.53204" r="11.25" gradientUnits="userSpaceOnUse" id="color-17"><stop offset="0" stop-color="#ff6f00"/><stop offset="1" stop-color="#ff6f00" stop-opacity="0"/></radialGradient><radialGradient cx="230.09059" cy="208.40704" r="9.625" gradientUnits="userSpaceOnUse" id="color-18"><stop offset="0" stop-color="#ff6f00"/><stop offset="1" stop-color="#ff6f00" stop-opacity="0"/></radialGradient><radialGradient cx="246.29753" cy="206.64504" r="34.10077" gradientUnits="userSpaceOnUse" id="color-19"><stop offset="0" stop-color="#ff6f00"/><stop offset="1" stop-color="#ff6f00" stop-opacity="0"/></radialGradient><radialGradient cx="240.44391" cy="195.01315" r="34.10077" gradientUnits="userSpaceOnUse" id="color-20"><stop offset="0" stop-color="#ff6f00"/><stop offset="1" stop-color="#ff6f00" stop-opacity="0"/></radialGradient><radialGradient cx="243.91561" cy="197.83204" r="27.8" gradientUnits="userSpaceOnUse" id="color-21"><stop offset="0" stop-color="#ff6f00"/><stop offset="1" stop-color="#ff6f00" stop-opacity="0"/></radialGradient><radialGradient cx="241.81561" cy="193.53204" r="19.3" gradientUnits="userSpaceOnUse" id="color-22"><stop offset="0" stop-color="#ff6f00"/><stop offset="1" stop-color="#ff6f00" stop-opacity="0"/></radialGradient><radialGradient cx="250.28609" cy="196.32151" r="19.3" gradientUnits="userSpaceOnUse" id="color-23"><stop offset="0" stop-color="#ff6f00"/><stop offset="1" stop-color="#ff6f00" stop-opacity="0"/></radialGradient><radialGradient cx="252.01559" cy="191.93204" r="12.3" gradientUnits="userSpaceOnUse" id="color-24"><stop offset="0" stop-color="#ff6f00"/><stop offset="1" stop-color="#ff6f00" stop-opacity="0"/></radialGradient><radialGradient cx="244.33659" cy="161.96014" r="12.52011" gradientUnits="userSpaceOnUse" id="color-25"><stop offset="0" stop-color="#f4ff2b"/><stop offset="1" stop-color="#f4ff2b" stop-opacity="0"/></radialGradient><radialGradient cx="242.99186" cy="181.38457" r="9.51871" gradientUnits="userSpaceOnUse" id="color-26"><stop offset="0" stop-color="#f4ff2b"/><stop offset="1" stop-color="#f4ff2b" stop-opacity="0"/></radialGradient><radialGradient cx="263.82725" cy="160.07853" r="7.71787" gradientUnits="userSpaceOnUse" id="color-27"><stop offset="0" stop-color="#f4ff2b"/><stop offset="1" stop-color="#f4ff2b" stop-opacity="0"/></radialGradient><radialGradient cx="257.29201" cy="180.34156" r="6.60307" gradientUnits="userSpaceOnUse" id="color-28"><stop offset="0" stop-color="#f4ff2b"/><stop offset="1" stop-color="#f4ff2b" stop-opacity="0"/></radialGradient><radialGradient cx="256.608" cy="169.17848" r="23.39426" gradientUnits="userSpaceOnUse" id="color-29"><stop offset="0" stop-color="#f4ff2b"/><stop offset="1" stop-color="#f4ff2b" stop-opacity="0"/></radialGradient><radialGradient cx="248.44795" cy="172.81413" r="23.39426" gradientUnits="userSpaceOnUse" id="color-30"><stop offset="0" stop-color="#f4ff2b"/><stop offset="1" stop-color="#f4ff2b" stop-opacity="0"/></radialGradient><radialGradient cx="250.49176" cy="170.52612" r="19.07172" gradientUnits="userSpaceOnUse" id="color-31"><stop offset="0" stop-color="#f4ff2b"/><stop offset="1" stop-color="#f4ff2b" stop-opacity="0"/></radialGradient><radialGradient cx="247.47726" cy="171.82631" r="13.24044" gradientUnits="userSpaceOnUse" id="color-32"><stop offset="0" stop-color="#f4ff2b"/><stop offset="1" stop-color="#f4ff2b" stop-opacity="0"/></radialGradient><radialGradient cx="249.6624" cy="166.11181" r="13.24044" gradientUnits="userSpaceOnUse" id="color-33"><stop offset="0" stop-color="#f4ff2b"/><stop offset="1" stop-color="#f4ff2b" stop-opacity="0"/></radialGradient><radialGradient cx="246.71026" cy="164.78486" r="8.43821" gradientUnits="userSpaceOnUse" id="color-34"><stop offset="0" stop-color="#f4ff2b"/><stop offset="1" stop-color="#f4ff2b" stop-opacity="0"/></radialGradient><radialGradient cx="221.33659" cy="182.16014" r="12.52011" gradientUnits="userSpaceOnUse" id="color-35"><stop offset="0" stop-color="#f4ff2b"/><stop offset="1" stop-color="#f4ff2b" stop-opacity="0"/></radialGradient><radialGradient cx="219.99186" cy="201.58457" r="9.51871" gradientUnits="userSpaceOnUse" id="color-36"><stop offset="0" stop-color="#f4ff2b"/><stop offset="1" stop-color="#f4ff2b" stop-opacity="0"/></radialGradient><radialGradient cx="240.82725" cy="180.27854" r="7.71787" gradientUnits="userSpaceOnUse" id="color-37"><stop offset="0" stop-color="#f4ff2b"/><stop offset="1" stop-color="#f4ff2b" stop-opacity="0"/></radialGradient><radialGradient cx="234.29201" cy="200.54156" r="6.60307" gradientUnits="userSpaceOnUse" id="color-38"><stop offset="0" stop-color="#f4ff2b"/><stop offset="1" stop-color="#f4ff2b" stop-opacity="0"/></radialGradient><radialGradient cx="233.608" cy="189.37848" r="23.39426" gradientUnits="userSpaceOnUse" id="color-39"><stop offset="0" stop-color="#f4ff2b"/><stop offset="1" stop-color="#f4ff2b" stop-opacity="0"/></radialGradient><radialGradient cx="225.44795" cy="193.01413" r="23.39426" gradientUnits="userSpaceOnUse" id="color-40"><stop offset="0" stop-color="#f4ff2b"/><stop offset="1" stop-color="#f4ff2b" stop-opacity="0"/></radialGradient><radialGradient cx="227.49176" cy="190.72612" r="19.07172" gradientUnits="userSpaceOnUse" id="color-41"><stop offset="0" stop-color="#f4ff2b"/><stop offset="1" stop-color="#f4ff2b" stop-opacity="0"/></radialGradient><radialGradient cx="224.47726" cy="192.02631" r="13.24044" gradientUnits="userSpaceOnUse" id="color-42"><stop offset="0" stop-color="#f4ff2b"/><stop offset="1" stop-color="#f4ff2b" stop-opacity="0"/></radialGradient><radialGradient cx="226.6624" cy="186.31181" r="13.24044" gradientUnits="userSpaceOnUse" id="color-43"><stop offset="0" stop-color="#f4ff2b"/><stop offset="1" stop-color="#f4ff2b" stop-opacity="0"/></radialGradient><radialGradient cx="223.71026" cy="184.98486" r="8.43821" gradientUnits="userSpaceOnUse" id="color-44"><stop offset="0" stop-color="#f4ff2b"/><stop offset="1" stop-color="#f4ff2b" stop-opacity="0"/></radialGradient><radialGradient cx="218.53659" cy="158.36014" r="12.52011" gradientUnits="userSpaceOnUse" id="color-45"><stop offset="0" stop-color="#f4ff2b"/><stop offset="1" stop-color="#f4ff2b" stop-opacity="0"/></radialGradient><radialGradient cx="217.19186" cy="177.78457" r="9.51871" gradientUnits="userSpaceOnUse" id="color-46"><stop offset="0" stop-color="#f4ff2b"/><stop offset="1" stop-color="#f4ff2b" stop-opacity="0"/></radialGradient><radialGradient cx="238.02725" cy="156.47854" r="7.71787" gradientUnits="userSpaceOnUse" id="color-47"><stop offset="0" stop-color="#f4ff2b"/><stop offset="1" stop-color="#f4ff2b" stop-opacity="0"/></radialGradient><radialGradient cx="231.49201" cy="176.74156" r="6.60307" gradientUnits="userSpaceOnUse" id="color-48"><stop offset="0" stop-color="#f4ff2b"/><stop offset="1" stop-color="#f4ff2b" stop-opacity="0"/></radialGradient><radialGradient cx="230.808" cy="165.57848" r="23.39426" gradientUnits="userSpaceOnUse" id="color-49"><stop offset="0" stop-color="#f4ff2b"/><stop offset="1" stop-color="#f4ff2b" stop-opacity="0"/></radialGradient><radialGradient cx="222.64795" cy="169.21413" r="23.39426" gradientUnits="userSpaceOnUse" id="color-50"><stop offset="0" stop-color="#f4ff2b"/><stop offset="1" stop-color="#f4ff2b" stop-opacity="0"/></radialGradient><radialGradient cx="224.69176" cy="166.92612" r="19.07172" gradientUnits="userSpaceOnUse" id="color-51"><stop offset="0" stop-color="#f4ff2b"/><stop offset="1" stop-color="#f4ff2b" stop-opacity="0"/></radialGradient><radialGradient cx="221.67726" cy="168.22631" r="13.24044" gradientUnits="userSpaceOnUse" id="color-52"><stop offset="0" stop-color="#f4ff2b"/><stop offset="1" stop-color="#f4ff2b" stop-opacity="0"/></radialGradient><radialGradient cx="223.8624" cy="162.51181" r="13.24044" gradientUnits="userSpaceOnUse" id="color-53"><stop offset="0" stop-color="#f4ff2b"/><stop offset="1" stop-color="#f4ff2b" stop-opacity="0"/></radialGradient><radialGradient cx="220.91026" cy="161.18486" r="8.43821" gradientUnits="userSpaceOnUse" id="color-54"><stop offset="0" stop-color="#f4ff2b"/><stop offset="1" stop-color="#f4ff2b" stop-opacity="0"/></radialGradient><radialGradient cx="250.54841" cy="206.35942" r="12.52011" gradientUnits="userSpaceOnUse" id="color-55"><stop offset="0" stop-color="#f4ff2b"/><stop offset="1" stop-color="#f4ff2b" stop-opacity="0"/></radialGradient><radialGradient cx="251.89314" cy="186.93499" r="9.51871" gradientUnits="userSpaceOnUse" id="color-56"><stop offset="0" stop-color="#f4ff2b"/><stop offset="1" stop-color="#f4ff2b" stop-opacity="0"/></radialGradient><radialGradient cx="231.05775" cy="208.24102" r="7.71787" gradientUnits="userSpaceOnUse" id="color-57"><stop offset="0" stop-color="#f4ff2b"/><stop offset="1" stop-color="#f4ff2b" stop-opacity="0"/></radialGradient><radialGradient cx="237.59299" cy="187.978" r="6.60307" gradientUnits="userSpaceOnUse" id="color-58"><stop offset="0" stop-color="#f4ff2b"/><stop offset="1" stop-color="#f4ff2b" stop-opacity="0"/></radialGradient><radialGradient cx="238.277" cy="199.14108" r="23.39426" gradientUnits="userSpaceOnUse" id="color-59"><stop offset="0" stop-color="#f4ff2b"/><stop offset="1" stop-color="#f4ff2b" stop-opacity="0"/></radialGradient><radialGradient cx="246.43705" cy="195.50543" r="23.39426" gradientUnits="userSpaceOnUse" id="color-60"><stop offset="0" stop-color="#f4ff2b"/><stop offset="1" stop-color="#f4ff2b" stop-opacity="0"/></radialGradient><radialGradient cx="244.39324" cy="197.79344" r="19.07172" gradientUnits="userSpaceOnUse" id="color-61"><stop offset="0" stop-color="#f4ff2b"/><stop offset="1" stop-color="#f4ff2b" stop-opacity="0"/></radialGradient><radialGradient cx="247.40774" cy="196.49325" r="13.24044" gradientUnits="userSpaceOnUse" id="color-62"><stop offset="0" stop-color="#f4ff2b"/><stop offset="1" stop-color="#f4ff2b" stop-opacity="0"/></radialGradient><radialGradient cx="245.2226" cy="202.20775" r="13.24044" gradientUnits="userSpaceOnUse" id="color-63"><stop offset="0" stop-color="#f4ff2b"/><stop offset="1" stop-color="#f4ff2b" stop-opacity="0"/></radialGradient><radialGradient cx="248.17474" cy="203.5347" r="8.43821" gradientUnits="userSpaceOnUse" id="color-64"><stop offset="0" stop-color="#f4ff2b"/><stop offset="1" stop-color="#f4ff2b" stop-opacity="0"/></radialGradient><radialGradient cx="238.91941" cy="180.03752" r="18.25" gradientUnits="userSpaceOnUse" id="color-65"><stop offset="0" stop-color="#ff6f00"/><stop offset="1" stop-color="#ff6f00" stop-opacity="0"/></radialGradient><radialGradient cx="267.29439" cy="180.66252" r="13.875" gradientUnits="userSpaceOnUse" id="color-66"><stop offset="0" stop-color="#ff6f00"/><stop offset="1" stop-color="#ff6f00" stop-opacity="0"/></radialGradient><radialGradient cx="234.8422" cy="151.78752" r="11.25" gradientUnits="userSpaceOnUse" id="color-67"><stop offset="0" stop-color="#ff6f00"/><stop offset="1" stop-color="#ff6f00" stop-opacity="0"/></radialGradient><radialGradient cx="264.79441" cy="159.91252" r="9.625" gradientUnits="userSpaceOnUse" id="color-68"><stop offset="0" stop-color="#ff6f00"/><stop offset="1" stop-color="#ff6f00" stop-opacity="0"/></radialGradient><radialGradient cx="248.58747" cy="161.67452" r="34.10077" gradientUnits="userSpaceOnUse" id="color-69"><stop offset="0" stop-color="#ff6f00"/><stop offset="1" stop-color="#ff6f00" stop-opacity="0"/></radialGradient><radialGradient cx="254.44109" cy="173.30641" r="34.10077" gradientUnits="userSpaceOnUse" id="color-70"><stop offset="0" stop-color="#ff6f00"/><stop offset="1" stop-color="#ff6f00" stop-opacity="0"/></radialGradient><radialGradient cx="250.96939" cy="170.48752" r="27.8" gradientUnits="userSpaceOnUse" id="color-71"><stop offset="0" stop-color="#ff6f00"/><stop offset="1" stop-color="#ff6f00" stop-opacity="0"/></radialGradient><radialGradient cx="253.06939" cy="174.78752" r="19.3" gradientUnits="userSpaceOnUse" id="color-72"><stop offset="0" stop-color="#ff6f00"/><stop offset="1" stop-color="#ff6f00" stop-opacity="0"/></radialGradient><radialGradient cx="244.59891" cy="171.99805" r="19.3" gradientUnits="userSpaceOnUse" id="color-73"><stop offset="0" stop-color="#ff6f00"/><stop offset="1" stop-color="#ff6f00" stop-opacity="0"/></radialGradient><radialGradient cx="242.86941" cy="176.38752" r="12.3" gradientUnits="userSpaceOnUse" id="color-74"><stop offset="0" stop-color="#ff6f00"/><stop offset="1" stop-color="#ff6f00" stop-opacity="0"/></radialGradient><radialGradient cx="215.91941" cy="200.23752" r="18.25" gradientUnits="userSpaceOnUse" id="color-75"><stop offset="0" stop-color="#ff6f00"/><stop offset="1" stop-color="#ff6f00" stop-opacity="0"/></radialGradient><radialGradient cx="244.29439" cy="200.86252" r="13.875" gradientUnits="userSpaceOnUse" id="color-76"><stop offset="0" stop-color="#ff6f00"/><stop offset="1" stop-color="#ff6f00" stop-opacity="0"/></radialGradient><radialGradient cx="211.8422" cy="171.98752" r="11.25" gradientUnits="userSpaceOnUse" id="color-77"><stop offset="0" stop-color="#ff6f00"/><stop offset="1" stop-color="#ff6f00" stop-opacity="0"/></radialGradient><radialGradient cx="241.79441" cy="180.11252" r="9.625" gradientUnits="userSpaceOnUse" id="color-78"><stop offset="0" stop-color="#ff6f00"/><stop offset="1" stop-color="#ff6f00" stop-opacity="0"/></radialGradient><radialGradient cx="225.58747" cy="181.87452" r="34.10077" gradientUnits="userSpaceOnUse" id="color-79"><stop offset="0" stop-color="#ff6f00"/><stop offset="1" stop-color="#ff6f00" stop-opacity="0"/></radialGradient><radialGradient cx="231.44109" cy="193.50641" r="34.10077" gradientUnits="userSpaceOnUse" id="color-80"><stop offset="0" stop-color="#ff6f00"/><stop offset="1" stop-color="#ff6f00" stop-opacity="0"/></radialGradient><radialGradient cx="227.96939" cy="190.68752" r="27.8" gradientUnits="userSpaceOnUse" id="color-81"><stop offset="0" stop-color="#ff6f00"/><stop offset="1" stop-color="#ff6f00" stop-opacity="0"/></radialGradient><radialGradient cx="230.06939" cy="194.98752" r="19.3" gradientUnits="userSpaceOnUse" id="color-82"><stop offset="0" stop-color="#ff6f00"/><stop offset="1" stop-color="#ff6f00" stop-opacity="0"/></radialGradient><radialGradient cx="221.59891" cy="192.19805" r="19.3" gradientUnits="userSpaceOnUse" id="color-83"><stop offset="0" stop-color="#ff6f00"/><stop offset="1" stop-color="#ff6f00" stop-opacity="0"/></radialGradient><radialGradient cx="219.86941" cy="196.58752" r="12.3" gradientUnits="userSpaceOnUse" id="color-84"><stop offset="0" stop-color="#ff6f00"/><stop offset="1" stop-color="#ff6f00" stop-opacity="0"/></radialGradient></defs><g transform="translate(-188.6776,-135.60415)"><g data-paper-data="{&quot;isPaintingLayer&quot;:true}" fill-rule="nonzero" stroke="none" stroke-linecap="butt" stroke-linejoin="miter" stroke-miterlimit="10" stroke-dasharray="" stroke-dashoffset="0" style="mix-blend-mode: normal"><g><path d="M194.70573,172.24814c0,-17.32367 14.04361,-31.36728 31.36728,-31.36728c17.32367,0 31.36728,14.04361 31.36728,31.36728c0,17.32367 -14.04361,31.36728 -31.36728,31.36728c-17.32367,0 -31.36728,-14.04361 -31.36728,-31.36728z" fill="url(#color-1)" stroke-width="0.5"/><path d="M211.84471,195.67142c0,-17.32367 14.04361,-31.36728 31.36728,-31.36728c17.32367,0 31.36728,14.04361 31.36728,31.36728c0,17.32367 -14.04361,31.36728 -31.36728,31.36728c-17.32367,0 -31.36728,-14.04361 -31.36728,-31.36728z" fill="url(#color-2)" stroke-width="0.5"/><path d="M200.94252,166.9598c0,-13.19961 10.70039,-23.9 23.9,-23.9c13.19961,0 23.9,10.70039 23.9,23.9c0,13.19961 -10.70039,23.9 -23.9,23.9c-13.19961,0 -23.9,-10.70039 -23.9,-23.9z" fill="url(#color-3)" stroke-width="0"/><path d="M268.14248,197.75976c0,13.19961 -10.70039,23.9 -23.9,23.9c-13.19961,0 -23.9,-10.70039 -23.9,-23.9c0,-13.19961 10.70039,-23.9 23.9,-23.9c13.19961,0 23.9,10.70039 23.9,23.9z" data-paper-data="{&quot;index&quot;:null}" fill="url(#color-4)" stroke-width="0"/><g data-paper-data="{&quot;index&quot;:null}" stroke-width="0"><path d="M214.73775,158.25828c-6.04326,2.75749 -10.24334,8.85287 -10.24334,15.92923c0,9.66499 7.83501,17.5 17.5,17.5c0.40896,0 0.81462,-0.01403 1.21657,-0.04163c-2.89051,1.92185 -6.36027,3.04163 -10.09157,3.04163c-10.0792,0 -18.25,-8.17081 -18.25,-18.25c0,-10.07919 8.1708,-18.25 18.25,-18.25c0.54537,0 1.08514,0.02392 1.61834,0.07077z" fill="url(#color-5)"/><path d="M255.36939,177.06253c0,7.66295 -6.21205,13.875 -13.875,13.875c-5.33807,0 -9.97207,-3.01448 -12.29256,-7.43398c1.83327,2.10417 4.53262,3.43398 7.54256,3.43398c5.52284,0 10,-4.47716 10,-10c0,-5.52284 -4.47716,-10 -10,-10c-2.8199,0 -5.36718,1.16719 -7.18509,3.04481c2.4187,-4.06844 6.85851,-6.79482 11.93509,-6.79482c7.66295,0 13.875,6.21205 13.875,13.875z" fill="url(#color-6)"/><path d="M220.2922,148.18751c0,6.2132 -5.0368,11.25 -11.25,11.25c-4.49227,0 -8.36956,-2.63303 -10.17279,-6.43998c1.83337,2.10763 4.53499,3.43998 7.54779,3.43998c5.52285,0 10,-4.47716 10,-10c0,-4.41475 -2.8608,-8.16132 -6.8297,-9.48702c5.95995,0.28444 10.7047,5.20664 10.7047,11.23702z" data-paper-data="{&quot;index&quot;:null}" fill="url(#color-7)"/><path d="M247.52825,151.85696c-1.58468,-1.05479 -3.48748,-1.66946 -5.53385,-1.66946c-5.52284,0 -10,4.47716 -10,10c0,1.14319 0.19182,2.24158 0.54505,3.26473c-1.94688,-1.76125 -3.17005,-4.30764 -3.17005,-7.13973c0,-5.31574 4.30926,-9.625 9.625,-9.625c3.70804,0 6.92633,2.09684 8.53385,5.16946z" fill="url(#color-8)"/><path d="M254.34462,145.14584c0.3781,0.92591 0.7189,1.87622 1.02009,2.84973c5.56644,17.99192 -4.5064,37.08975 -22.49832,42.65619c-17.99192,5.56644 -37.08975,-4.5064 -42.65619,-22.49832c-2.06069,-6.66058 -1.97807,-13.47271 -0.14381,-19.6938c0.17271,0.73273 0.37172,1.46462 0.59757,2.19462c5.33769,17.25253 23.65067,26.91142 40.9032,21.57373c12.63169,-3.90806 21.19271,-14.77174 22.77746,-27.08216z" data-paper-data="{&quot;index&quot;:null}" fill="url(#color-9)"/><path d="M207.61726,196.55527c-14.82821,-11.61114 -17.43617,-33.04448 -5.82503,-47.87269c11.61114,-14.82821 33.04448,-17.43617 47.87269,-5.82503c5.48938,4.29843 9.30401,9.94294 11.34249,16.10014c-0.55953,-0.50364 -1.14018,-0.9916 -1.74182,-1.46271c-14.21884,-11.13397 -34.77135,-8.6332 -45.90532,5.58564c-8.1519,10.41053 -8.99469,24.21634 -3.28063,35.23484c-0.8384,-0.54531 -1.66006,-1.13194 -2.46238,-1.76019z" data-paper-data="{&quot;index&quot;:null}" fill="url(#color-10)"/><path d="M225.16939,194.68752c-0.23365,0 -0.46662,-0.00288 -0.69889,-0.00861c10.03877,-3.24712 17.29889,-12.67141 17.29889,-23.79139c0,-13.80712 -11.19288,-25 -25,-25c-5.02649,0 -9.7065,1.48342 -13.62614,4.03636c5.08344,-6.59074 13.05898,-10.83636 22.02614,-10.83636c15.35352,0 27.8,12.44648 27.8,27.8c0,15.35352 -12.44648,27.8 -27.8,27.8z" fill="url(#color-11)"/><path d="M246.49732,169.50786c-2.21386,-5.52119 -7.61554,-9.42034 -13.92792,-9.42034c-8.28427,0 -15,6.71573 -15,15c0,7.89291 6.0962,14.36198 13.83697,14.95558c-1.33273,0.29106 -2.71694,0.44442 -4.13697,0.44442c-10.6591,0 -19.3,-8.6409 -19.3,-19.3c0,-10.6591 8.6409,-19.3 19.3,-19.3c10.09319,0 18.3768,7.74774 19.22792,17.62034z" fill="url(#color-12)"/><path d="M224.44127,186.85487c-9.65224,2.95074 -19.839,-2.0368 -23.53919,-11.22925c3.73126,4.63275 10.03687,6.78237 16.07347,4.93695c7.92234,-2.42191 12.38132,-10.80758 9.95942,-18.72992c-2.30749,-7.54808 -10.02858,-11.95231 -17.60471,-10.25696c1.18941,-0.66796 2.46831,-1.2193 3.8263,-1.63444c10.19341,-3.11618 20.98298,2.62105 24.09916,12.81446c3.11618,10.19341 -2.62105,20.98298 -12.81446,24.09916z" fill="url(#color-13)"/><path d="M223.73394,183.12727c0.02352,-0.34353 0.03547,-0.69025 0.03547,-1.03975c0,-8.28427 -6.71573,-15 -15,-15c-0.93179,0 -1.84373,0.08496 -2.72851,0.24756c2.00996,-4.05774 6.19344,-6.84756 11.02851,-6.84756c6.7931,0 12.3,5.5069 12.3,12.3c0,4.33695 -2.2446,8.14964 -5.63547,10.33975z" fill="url(#color-14)"/></g><g data-paper-data="{&quot;index&quot;:null}" stroke-width="0"><path d="M254.34725,206.46128c6.04326,-2.75749 10.24334,-8.85287 10.24334,-15.92923c0,-9.66499 -7.83501,-17.5 -17.5,-17.5c-0.40896,0 -0.81462,0.01403 -1.21657,0.04163c2.89051,-1.92185 6.36027,-3.04163 10.09157,-3.04163c10.0792,0 18.25,8.17081 18.25,18.25c0,10.07919 -8.1708,18.25 -18.25,18.25c-0.54537,0 -1.08514,-0.02392 -1.61834,-0.07077z" fill="url(#color-15)"/><path d="M213.71561,187.65703c0,-7.66295 6.21205,-13.875 13.875,-13.875c5.33807,0 9.97207,3.01448 12.29256,7.43398c-1.83327,-2.10417 -4.53262,-3.43398 -7.54256,-3.43398c-5.52284,0 -10,4.47716 -10,10c0,5.52284 4.47716,10 10,10c2.8199,0 5.36718,-1.16719 7.18509,-3.04481c-2.4187,4.06844 -6.85851,6.79482 -11.93509,6.79482c-7.66295,0 -13.875,-6.21205 -13.875,-13.875z" fill="url(#color-16)"/><path d="M248.7928,216.53204c0,-6.2132 5.0368,-11.25 11.25,-11.25c4.49227,0 8.36956,2.63303 10.17279,6.43998c-1.83337,-2.10763 -4.53499,-3.43998 -7.54779,-3.43998c-5.52285,0 -10,4.47716 -10,10c0,4.41475 2.8608,8.16132 6.8297,9.48702c-5.95995,-0.28444 -10.7047,-5.20664 -10.7047,-11.23702z" data-paper-data="{&quot;index&quot;:null}" fill="url(#color-17)"/><path d="M221.55675,212.8626c1.58468,1.05479 3.48748,1.66946 5.53385,1.66946c5.52284,0 10,-4.47716 10,-10c0,-1.14319 -0.19182,-2.24158 -0.54505,-3.26473c1.94688,1.76125 3.17005,4.30764 3.17005,7.13973c0,5.31574 -4.30926,9.625 -9.625,9.625c-3.70804,0 -6.92633,-2.09684 -8.53385,-5.16946z" fill="url(#color-18)"/><path d="M214.74038,219.57372c-0.3781,-0.92591 -0.7189,-1.87622 -1.02009,-2.84973c-5.56644,-17.99192 4.5064,-37.08975 22.49832,-42.65619c17.99192,-5.56644 37.08975,4.5064 42.65619,22.49832c2.06069,6.66058 1.97807,13.47271 0.14381,19.6938c-0.17271,-0.73273 -0.37172,-1.46462 -0.59757,-2.19462c-5.33769,-17.25253 -23.65067,-26.91142 -40.9032,-21.57373c-12.63169,3.90806 -21.19271,14.77174 -22.77746,27.08216z" data-paper-data="{&quot;index&quot;:null}" fill="url(#color-19)"/><path d="M261.46774,168.16429c14.82821,11.61114 17.43617,33.04448 5.82503,47.87269c-11.61114,14.82821 -33.04448,17.43617 -47.87269,5.82503c-5.48938,-4.29843 -9.30401,-9.94294 -11.34249,-16.10014c0.55953,0.50364 1.14018,0.9916 1.74182,1.46271c14.21884,11.13397 34.77135,8.6332 45.90532,-5.58564c8.1519,-10.41053 8.99469,-24.21634 3.28063,-35.23484c0.8384,0.54531 1.66006,1.13194 2.46238,1.76019z" data-paper-data="{&quot;index&quot;:null}" fill="url(#color-20)"/><path d="M243.91561,170.03204c0.23365,0 0.46662,0.00288 0.69889,0.00861c-10.03877,3.24712 -17.29889,12.67141 -17.29889,23.79139c0,13.80712 11.19288,25 25,25c5.02649,0 9.7065,-1.48342 13.62614,-4.03636c-5.08344,6.59074 -13.05898,10.83636 -22.02614,10.83636c-15.35352,0 -27.8,-12.44648 -27.8,-27.8c0,-15.35352 12.44648,-27.8 27.8,-27.8z" fill="url(#color-21)"/><path d="M222.58768,195.2117c2.21386,5.52119 7.61554,9.42034 13.92792,9.42034c8.28427,0 15,-6.71573 15,-15c0,-7.89291 -6.0962,-14.36198 -13.83697,-14.95558c1.33273,-0.29106 2.71694,-0.44442 4.13697,-0.44442c10.6591,0 19.3,8.6409 19.3,19.3c0,10.6591 -8.6409,19.3 -19.3,19.3c-10.09319,0 -18.3768,-7.74774 -19.22792,-17.62034z" fill="url(#color-22)"/><path d="M244.64373,177.86469c9.65224,-2.95074 19.839,2.0368 23.53919,11.22925c-3.73126,-4.63275 -10.03687,-6.78237 -16.07347,-4.93695c-7.92234,2.42191 -12.38132,10.80758 -9.95942,18.72992c2.30749,7.54808 10.02858,11.95231 17.60471,10.25696c-1.18941,0.66796 -2.46831,1.2193 -3.8263,1.63444c-10.19341,3.11618 -20.98298,-2.62105 -24.09916,-12.81446c-3.11618,-10.19341 2.62105,-20.98298 12.81446,-24.09916z" fill="url(#color-23)"/><path d="M245.35106,181.59229c-0.02352,0.34353 -0.03547,0.69025 -0.03547,1.03975c0,8.28427 6.71573,15 15,15c0.93179,0 1.84373,-0.08496 2.72851,-0.24756c-2.00996,4.05774 -6.19344,6.84756 -11.02851,6.84756c-6.7931,0 -12.3,-5.5069 -12.3,-12.3c0,-4.33695 2.2446,-8.14964 5.63547,-10.33975z" fill="url(#color-24)"/></g><g data-paper-data="{&quot;index&quot;:null}" stroke-width="0"><path d="M256.84282,162.54957c-0.01761,0.37372 -0.05143,0.74284 -0.10076,1.10672c-1.69445,-4.23034 -5.73579,-7.30541 -10.58503,-7.53396c-6.62315,-0.31215 -12.24532,4.80392 -12.55748,11.42707c-0.0132,0.28025 -0.01669,0.55869 -0.01076,0.83503c-1.22363,-2.04286 -1.87892,-4.45675 -1.75841,-7.01371c0.32553,-6.907 6.18867,-12.24233 13.09566,-11.9168c6.907,0.32553 12.24233,6.18865 11.9168,13.09565z" fill="url(#color-25)"/><path d="M233.4837,180.93644c0.17241,-3.65803 2.38781,-6.73622 5.49132,-8.18365c-1.50114,1.18833 -2.49961,2.99517 -2.59682,5.0578c-0.17837,3.78465 2.7451,6.99733 6.52975,7.1757c3.78465,0.17837 6.99733,-2.7451 7.1757,-6.52975c0.09108,-1.9324 -0.62649,-3.71569 -1.85446,-5.02209c2.70987,1.78887 4.43479,4.91941 4.27083,8.39825c-0.24749,5.2512 -4.70508,9.30752 -9.95629,9.06003c-5.25121,-0.24749 -9.30752,-4.70508 -9.06003,-9.95629z" fill="url(#color-26)"/><path d="M271.51006,160.81516c-0.38741,4.075 -3.9137,7.16747 -8.04616,6.97271c-4.25774,-0.20067 -7.54664,-3.81493 -7.34597,-8.07267c0.14509,-3.07843 2.07466,-5.65039 4.7417,-6.76314c-1.50352,1.18829 -2.50379,2.9966 -2.6011,5.06119c-0.17837,3.78465 2.7451,6.99733 6.52975,7.1757c3.02531,0.14259 5.68513,-1.69684 6.72178,-4.3738z" data-paper-data="{&quot;index&quot;:null}" fill="url(#color-27)"/><path d="M263.88777,180.65242c-0.11976,2.54102 -1.66061,4.6787 -3.81811,5.68105c0.774,-1.05187 1.25668,-2.33595 1.32277,-3.73827c0.17837,-3.78465 -2.74511,-6.99733 -6.52976,-7.1757c-0.78339,-0.03692 -1.54228,0.05905 -2.25483,0.26806c1.26982,-1.27725 3.05429,-2.03322 4.99505,-1.94175c3.64274,0.17168 6.45657,3.26388 6.28489,6.90661z" fill="url(#color-28)"/><path d="M262.46266,191.82829c-12.50915,3.23343 -25.27105,-4.28602 -28.50448,-16.79517c-3.23343,-12.50915 4.28602,-25.27105 16.79517,-28.50448c4.63087,-1.19701 9.29636,-0.92038 13.50026,0.53751c-0.5077,0.09469 -1.01566,0.20743 -1.52321,0.33862c-11.99508,3.10056 -19.20552,15.33798 -16.10496,27.33306c2.27012,8.78237 9.4382,14.99988 17.82301,16.48346c-0.64671,0.2292 -1.30894,0.43204 -1.98579,0.607z" data-paper-data="{&quot;index&quot;:null}" fill="url(#color-29)"/><path d="M229.44242,159.17047c0.40076,-0.55692 0.8293,-1.10103 1.28574,-1.63055c8.43571,-9.78636 23.20761,-10.88128 32.99397,-2.44557c9.78636,8.43571 10.88128,23.20762 2.44557,32.99398c-3.12289,3.6229 -7.11412,6.05466 -11.39932,7.25271c0.3632,-0.36717 0.71634,-0.74931 1.05861,-1.14638c8.08904,-9.38418 7.03912,-23.54902 -2.34506,-31.63806c-6.87076,-5.9225 -16.30429,-6.94594 -24.03951,-3.38612z" data-paper-data="{&quot;index&quot;:null}" fill="url(#color-30)"/><path d="M249.59393,189.5767c-10.52135,-0.49588 -18.64859,-9.4271 -18.15271,-19.94845c0.00754,-0.16011 0.01704,-0.31967 0.02847,-0.47865c1.90094,6.98417 8.12466,12.26371 15.74488,12.62286c9.46164,0.44593 17.49331,-6.86274 17.93925,-16.32438c0.16234,-3.44452 -0.70306,-6.69951 -2.32592,-9.46799c4.35227,3.6964 7.00408,9.29895 6.71447,15.4439c-0.49588,10.52135 -9.4271,18.64859 -19.94845,18.15271z" fill="url(#color-31)"/><path d="M248.0073,185.05693c3.85503,-1.33878 6.70147,-4.91447 6.90534,-9.24017c0.26756,-5.67698 -4.11764,-10.49599 -9.79463,-10.76355c-5.40879,-0.25492 -10.03875,3.71371 -10.69554,8.99907c-0.15641,-0.92268 -0.21681,-1.87619 -0.17094,-2.8493c0.34426,-7.30439 6.54471,-12.94668 13.8491,-12.60242c7.30438,0.34426 12.94668,6.54471 12.60242,13.8491c-0.32598,6.91659 -5.90284,12.34288 -12.69575,12.60727z" fill="url(#color-32)"/><path d="M236.8322,169.38225c-1.71032,-6.70972 2.03651,-13.52934 8.45535,-15.76809c-3.29521,2.4073 -4.97194,6.65893 -3.90229,10.85525c1.4038,5.50719 7.00626,8.83364 12.51344,7.42985c5.24701,-1.33748 8.51449,-6.48628 7.5974,-11.73275c0.41933,0.83665 0.75584,1.73085 0.99646,2.67485c1.80622,7.08591 -2.47383,14.29441 -9.55974,16.10062c-7.08591,1.80622 -14.29441,-2.47383 -16.10062,-9.55974z" fill="url(#color-33)"/><path d="M239.40947,169.01793c0.23465,0.02721 0.47187,0.0466 0.71137,0.05789c5.67698,0.26756 10.49599,-4.11764 10.76355,-9.79463c0.0301,-0.63853 0.00133,-1.26621 -0.08152,-1.87777c2.71574,1.50842 4.49241,4.46535 4.33625,7.77869c-0.2194,4.65513 -4.17099,8.251 -8.82611,8.0316c-2.97199,-0.14007 -5.51223,-1.80137 -6.90354,-4.19578z" fill="url(#color-34)"/></g><g data-paper-data="{&quot;index&quot;:null}" stroke-width="0"><path d="M233.84282,182.74957c-0.01761,0.37372 -0.05143,0.74284 -0.10076,1.10672c-1.69445,-4.23034 -5.73579,-7.30541 -10.58503,-7.53396c-6.62315,-0.31215 -12.24532,4.80392 -12.55748,11.42707c-0.0132,0.28025 -0.01669,0.55869 -0.01076,0.83503c-1.22363,-2.04286 -1.87892,-4.45675 -1.75841,-7.01371c0.32553,-6.907 6.18867,-12.24233 13.09566,-11.9168c6.907,0.32553 12.24233,6.18865 11.9168,13.09565z" fill="url(#color-35)"/><path d="M210.4837,201.13644c0.17241,-3.65803 2.38781,-6.73622 5.49132,-8.18365c-1.50114,1.18833 -2.49961,2.99517 -2.59682,5.0578c-0.17837,3.78465 2.7451,6.99733 6.52975,7.1757c3.78465,0.17837 6.99733,-2.7451 7.1757,-6.52975c0.09108,-1.9324 -0.62649,-3.71569 -1.85446,-5.02209c2.70987,1.78887 4.43479,4.91941 4.27083,8.39825c-0.24749,5.2512 -4.70508,9.30752 -9.95629,9.06003c-5.25121,-0.24749 -9.30752,-4.70508 -9.06003,-9.95629z" fill="url(#color-36)"/><path d="M248.51006,181.01516c-0.38741,4.075 -3.9137,7.16747 -8.04616,6.97271c-4.25774,-0.20067 -7.54664,-3.81493 -7.34597,-8.07267c0.14509,-3.07843 2.07466,-5.65039 4.7417,-6.76314c-1.50352,1.18829 -2.50379,2.9966 -2.6011,5.06119c-0.17837,3.78465 2.7451,6.99733 6.52975,7.1757c3.02531,0.14259 5.68513,-1.69684 6.72178,-4.3738z" data-paper-data="{&quot;index&quot;:null}" fill="url(#color-37)"/><path d="M240.88777,200.85242c-0.11976,2.54102 -1.66061,4.6787 -3.81811,5.68105c0.774,-1.05187 1.25668,-2.33595 1.32277,-3.73827c0.17837,-3.78465 -2.74511,-6.99733 -6.52976,-7.1757c-0.78339,-0.03692 -1.54228,0.05905 -2.25483,0.26806c1.26982,-1.27725 3.05429,-2.03322 4.99505,-1.94175c3.64274,0.17168 6.45657,3.26388 6.28489,6.90661z" fill="url(#color-38)"/><path d="M239.46266,212.02829c-12.50915,3.23343 -25.27105,-4.28602 -28.50448,-16.79517c-3.23343,-12.50915 4.28602,-25.27105 16.79517,-28.50448c4.63087,-1.19701 9.29636,-0.92038 13.50026,0.53751c-0.5077,0.09469 -1.01566,0.20743 -1.52321,0.33862c-11.99508,3.10056 -19.20552,15.33798 -16.10496,27.33306c2.27012,8.78237 9.4382,14.99988 17.82301,16.48346c-0.64671,0.2292 -1.30894,0.43204 -1.98579,0.607z" data-paper-data="{&quot;index&quot;:null}" fill="url(#color-39)"/><path d="M206.44242,179.37047c0.40076,-0.55692 0.8293,-1.10103 1.28574,-1.63055c8.43571,-9.78636 23.20761,-10.88128 32.99397,-2.44557c9.78636,8.43571 10.88128,23.20762 2.44557,32.99398c-3.12289,3.6229 -7.11412,6.05466 -11.39932,7.25271c0.3632,-0.36717 0.71634,-0.74931 1.05861,-1.14638c8.08904,-9.38418 7.03912,-23.54902 -2.34506,-31.63806c-6.87076,-5.9225 -16.30429,-6.94594 -24.03951,-3.38612z" data-paper-data="{&quot;index&quot;:null}" fill="url(#color-40)"/><path d="M226.59393,209.7767c-10.52135,-0.49588 -18.64859,-9.4271 -18.15271,-19.94845c0.00754,-0.16011 0.01704,-0.31967 0.02847,-0.47865c1.90094,6.98417 8.12466,12.26371 15.74488,12.62286c9.46164,0.44593 17.49331,-6.86274 17.93925,-16.32438c0.16234,-3.44452 -0.70306,-6.69951 -2.32592,-9.46799c4.35227,3.6964 7.00408,9.29895 6.71447,15.4439c-0.49588,10.52135 -9.4271,18.64859 -19.94845,18.15271z" fill="url(#color-41)"/><path d="M225.0073,205.25693c3.85503,-1.33878 6.70147,-4.91447 6.90534,-9.24017c0.26756,-5.67698 -4.11764,-10.49599 -9.79463,-10.76355c-5.40879,-0.25492 -10.03875,3.71371 -10.69554,8.99907c-0.15641,-0.92268 -0.21681,-1.87619 -0.17094,-2.8493c0.34426,-7.30439 6.54471,-12.94668 13.8491,-12.60242c7.30438,0.34426 12.94668,6.54471 12.60242,13.8491c-0.32598,6.91659 -5.90284,12.34288 -12.69575,12.60727z" fill="url(#color-42)"/><path d="M213.8322,189.58225c-1.71032,-6.70972 2.03651,-13.52934 8.45535,-15.76809c-3.29521,2.4073 -4.97194,6.65893 -3.90229,10.85525c1.4038,5.50719 7.00626,8.83364 12.51344,7.42985c5.24701,-1.33748 8.51449,-6.48628 7.5974,-11.73275c0.41933,0.83665 0.75584,1.73085 0.99646,2.67485c1.80622,7.08591 -2.47383,14.29441 -9.55974,16.10062c-7.08591,1.80622 -14.29441,-2.47383 -16.10062,-9.55974z" fill="url(#color-43)"/><path d="M216.40947,189.21793c0.23465,0.02721 0.47187,0.0466 0.71137,0.05789c5.67698,0.26756 10.49599,-4.11764 10.76355,-9.79463c0.0301,-0.63853 0.00133,-1.26621 -0.08152,-1.87777c2.71574,1.50842 4.49241,4.46535 4.33625,7.77869c-0.2194,4.65513 -4.17099,8.251 -8.82611,8.0316c-2.97199,-0.14007 -5.51223,-1.80137 -6.90354,-4.19578z" fill="url(#color-44)"/></g><g data-paper-data="{&quot;index&quot;:null}" stroke-width="0"><path d="M231.04282,158.94957c-0.01761,0.37372 -0.05143,0.74284 -0.10076,1.10672c-1.69445,-4.23034 -5.73579,-7.30541 -10.58503,-7.53396c-6.62315,-0.31215 -12.24532,4.80392 -12.55748,11.42707c-0.0132,0.28025 -0.01669,0.55869 -0.01076,0.83503c-1.22363,-2.04286 -1.87892,-4.45675 -1.75841,-7.01371c0.32553,-6.907 6.18867,-12.24233 13.09566,-11.9168c6.907,0.32553 12.24233,6.18865 11.9168,13.09565z" fill="url(#color-45)"/><path d="M207.6837,177.33644c0.17241,-3.65803 2.38781,-6.73622 5.49132,-8.18365c-1.50114,1.18833 -2.49961,2.99517 -2.59682,5.0578c-0.17837,3.78465 2.7451,6.99733 6.52975,7.1757c3.78465,0.17837 6.99733,-2.7451 7.1757,-6.52975c0.09108,-1.9324 -0.62649,-3.71569 -1.85446,-5.02209c2.70987,1.78887 4.43479,4.91941 4.27083,8.39825c-0.24749,5.2512 -4.70508,9.30752 -9.95629,9.06003c-5.25121,-0.24749 -9.30752,-4.70508 -9.06003,-9.95629z" fill="url(#color-46)"/><path d="M245.71006,157.21516c-0.38741,4.075 -3.9137,7.16747 -8.04616,6.97271c-4.25774,-0.20067 -7.54664,-3.81493 -7.34597,-8.07267c0.14509,-3.07843 2.07466,-5.65039 4.7417,-6.76314c-1.50352,1.18829 -2.50379,2.9966 -2.6011,5.06119c-0.17837,3.78465 2.7451,6.99733 6.52975,7.1757c3.02531,0.14259 5.68513,-1.69684 6.72178,-4.3738z" data-paper-data="{&quot;index&quot;:null}" fill="url(#color-47)"/><path d="M238.08777,177.05242c-0.11976,2.54102 -1.66061,4.6787 -3.81811,5.68105c0.774,-1.05187 1.25668,-2.33595 1.32277,-3.73827c0.17837,-3.78465 -2.74511,-6.99733 -6.52976,-7.1757c-0.78339,-0.03692 -1.54228,0.05905 -2.25483,0.26806c1.26982,-1.27725 3.05429,-2.03322 4.99505,-1.94175c3.64274,0.17168 6.45657,3.26388 6.28489,6.90661z" fill="url(#color-48)"/><path d="M236.66266,188.22829c-12.50915,3.23343 -25.27105,-4.28602 -28.50448,-16.79517c-3.23343,-12.50915 4.28602,-25.27105 16.79517,-28.50448c4.63087,-1.19701 9.29636,-0.92038 13.50026,0.53751c-0.5077,0.09469 -1.01566,0.20743 -1.52321,0.33862c-11.99508,3.10056 -19.20552,15.33798 -16.10496,27.33306c2.27012,8.78237 9.4382,14.99988 17.82301,16.48346c-0.64671,0.2292 -1.30894,0.43204 -1.98579,0.607z" data-paper-data="{&quot;index&quot;:null}" fill="url(#color-49)"/><path d="M203.64242,155.57047c0.40076,-0.55692 0.8293,-1.10103 1.28574,-1.63055c8.43571,-9.78636 23.20761,-10.88128 32.99397,-2.44557c9.78636,8.43571 10.88128,23.20762 2.44557,32.99398c-3.12289,3.6229 -7.11412,6.05466 -11.39932,7.25271c0.3632,-0.36717 0.71634,-0.74931 1.05861,-1.14638c8.08904,-9.38418 7.03912,-23.54902 -2.34506,-31.63806c-6.87076,-5.9225 -16.30429,-6.94594 -24.03951,-3.38612z" data-paper-data="{&quot;index&quot;:null}" fill="url(#color-50)"/><path d="M223.79393,185.9767c-10.52135,-0.49588 -18.64859,-9.4271 -18.15271,-19.94845c0.00754,-0.16011 0.01704,-0.31967 0.02847,-0.47865c1.90094,6.98417 8.12466,12.26371 15.74488,12.62286c9.46164,0.44593 17.49331,-6.86274 17.93925,-16.32438c0.16234,-3.44452 -0.70306,-6.69951 -2.32592,-9.46799c4.35227,3.6964 7.00408,9.29895 6.71447,15.4439c-0.49588,10.52135 -9.4271,18.64859 -19.94845,18.15271z" fill="url(#color-51)"/><path d="M222.2073,181.45693c3.85503,-1.33878 6.70147,-4.91447 6.90534,-9.24017c0.26756,-5.67698 -4.11764,-10.49599 -9.79463,-10.76355c-5.40879,-0.25492 -10.03875,3.71371 -10.69554,8.99907c-0.15641,-0.92268 -0.21681,-1.87619 -0.17094,-2.8493c0.34426,-7.30439 6.54471,-12.94668 13.8491,-12.60242c7.30438,0.34426 12.94668,6.54471 12.60242,13.8491c-0.32598,6.91659 -5.90284,12.34288 -12.69575,12.60727z" fill="url(#color-52)"/><path d="M211.0322,165.78224c-1.71032,-6.70972 2.03651,-13.52934 8.45535,-15.76809c-3.29521,2.4073 -4.97194,6.65893 -3.90229,10.85525c1.4038,5.50719 7.00626,8.83364 12.51344,7.42985c5.24701,-1.33748 8.51449,-6.48628 7.5974,-11.73275c0.41933,0.83665 0.75584,1.73085 0.99646,2.67485c1.80622,7.08591 -2.47383,14.29441 -9.55974,16.10062c-7.08591,1.80622 -14.29441,-2.47383 -16.10062,-9.55974z" fill="url(#color-53)"/><path d="M213.60947,165.41793c0.23465,0.02721 0.47187,0.0466 0.71137,0.05789c5.67698,0.26756 10.49599,-4.11764 10.76355,-9.79463c0.0301,-0.63853 0.00133,-1.26621 -0.08152,-1.87777c2.71574,1.50842 4.49241,4.46535 4.33625,7.77869c-0.2194,4.65513 -4.17099,8.251 -8.82611,8.0316c-2.97199,-0.14007 -5.51223,-1.80137 -6.90354,-4.19578z" fill="url(#color-54)"/></g><g data-paper-data="{&quot;index&quot;:null}" stroke-width="0"><path d="M238.04218,205.76999c0.01761,-0.37372 0.05143,-0.74284 0.10076,-1.10672c1.69445,4.23034 5.73579,7.30541 10.58503,7.53396c6.62315,0.31215 12.24532,-4.80392 12.55748,-11.42707c0.0132,-0.28025 0.01669,-0.55869 0.01076,-0.83503c1.22363,2.04286 1.87892,4.45675 1.75841,7.01371c-0.32553,6.907 -6.18867,12.24233 -13.09566,11.9168c-6.907,-0.32553 -12.24233,-6.18865 -11.9168,-13.09565z" fill="url(#color-55)"/><path d="M261.4013,187.38312c-0.17241,3.65803 -2.38781,6.73622 -5.49132,8.18365c1.50114,-1.18833 2.49961,-2.99517 2.59682,-5.0578c0.17837,-3.78465 -2.7451,-6.99733 -6.52975,-7.1757c-3.78465,-0.17837 -6.99733,2.7451 -7.1757,6.52975c-0.09108,1.9324 0.62649,3.71569 1.85446,5.02209c-2.70987,-1.78887 -4.43479,-4.91941 -4.27083,-8.39825c0.24749,-5.2512 4.70508,-9.30752 9.95629,-9.06003c5.25121,0.24749 9.30752,4.70508 9.06003,9.95629z" fill="url(#color-56)"/><path d="M223.37494,207.5044c0.38741,-4.075 3.9137,-7.16747 8.04616,-6.97271c4.25774,0.20067 7.54664,3.81493 7.34597,8.07267c-0.14509,3.07843 -2.07466,5.65039 -4.7417,6.76314c1.50352,-1.18829 2.50379,-2.9966 2.6011,-5.06119c0.17837,-3.78465 -2.7451,-6.99733 -6.52975,-7.1757c-3.02531,-0.14259 -5.68513,1.69684 -6.72178,4.3738z" data-paper-data="{&quot;index&quot;:null}" fill="url(#color-57)"/><path d="M230.99723,187.66714c0.11976,-2.54102 1.66061,-4.6787 3.81811,-5.68105c-0.774,1.05187 -1.25668,2.33595 -1.32277,3.73827c-0.17837,3.78465 2.74511,6.99733 6.52976,7.1757c0.78339,0.03692 1.54228,-0.05905 2.25483,-0.26806c-1.26982,1.27725 -3.05429,2.03322 -4.99505,1.94175c-3.64274,-0.17168 -6.45657,-3.26388 -6.28489,-6.90661z" fill="url(#color-58)"/><path d="M232.42234,176.49127c12.50915,-3.23343 25.27105,4.28602 28.50448,16.79517c3.23343,12.50915 -4.28602,25.27105 -16.79517,28.50448c-4.63087,1.19701 -9.29636,0.92038 -13.50026,-0.53751c0.5077,-0.09469 1.01566,-0.20743 1.52321,-0.33862c11.99508,-3.10056 19.20552,-15.33798 16.10496,-27.33306c-2.27012,-8.78237 -9.4382,-14.99988 -17.82301,-16.48346c0.64671,-0.2292 1.30894,-0.43204 1.98579,-0.607z" data-paper-data="{&quot;index&quot;:null}" fill="url(#color-59)"/><path d="M265.44258,209.14909c-0.40076,0.55692 -0.8293,1.10103 -1.28574,1.63055c-8.43571,9.78636 -23.20761,10.88128 -32.99397,2.44557c-9.78636,-8.43571 -10.88128,-23.20762 -2.44557,-32.99398c3.12289,-3.6229 7.11412,-6.05466 11.39932,-7.25271c-0.3632,0.36717 -0.71634,0.74931 -1.05861,1.14638c-8.08904,9.38418 -7.03912,23.54902 2.34506,31.63806c6.87076,5.9225 16.30429,6.94594 24.03951,3.38612z" data-paper-data="{&quot;index&quot;:null}" fill="url(#color-60)"/><path d="M245.29107,178.74286c10.52135,0.49588 18.64859,9.4271 18.15271,19.94845c-0.00754,0.16011 -0.01704,0.31967 -0.02847,0.47865c-1.90094,-6.98417 -8.12466,-12.26371 -15.74488,-12.62286c-9.46164,-0.44593 -17.49331,6.86274 -17.93925,16.32438c-0.16234,3.44452 0.70306,6.69951 2.32592,9.46799c-4.35227,-3.6964 -7.00408,-9.29895 -6.71447,-15.4439c0.49588,-10.52135 9.4271,-18.64859 19.94845,-18.15271z" fill="url(#color-61)"/><path d="M246.8777,183.26263c-3.85503,1.33878 -6.70147,4.91447 -6.90534,9.24017c-0.26756,5.67698 4.11764,10.49599 9.79463,10.76355c5.40879,0.25492 10.03875,-3.71371 10.69554,-8.99907c0.15641,0.92268 0.21681,1.87619 0.17094,2.8493c-0.34426,7.30439 -6.54471,12.94668 -13.8491,12.60242c-7.30438,-0.34426 -12.94668,-6.54471 -12.60242,-13.8491c0.32598,-6.91659 5.90284,-12.34288 12.69575,-12.60727z" fill="url(#color-62)"/><path d="M258.0528,198.93731c1.71032,6.70972 -2.03651,13.52934 -8.45535,15.76809c3.29521,-2.4073 4.97194,-6.65893 3.90229,-10.85525c-1.4038,-5.50719 -7.00626,-8.83364 -12.51344,-7.42985c-5.24701,1.33748 -8.51449,6.48628 -7.5974,11.73275c-0.41933,-0.83665 -0.75584,-1.73085 -0.99646,-2.67485c-1.80622,-7.08591 2.47383,-14.29441 9.55974,-16.10062c7.08591,-1.80622 14.29441,2.47383 16.10062,9.55974z" fill="url(#color-63)"/><path d="M255.47553,199.30163c-0.23465,-0.02721 -0.47187,-0.0466 -0.71137,-0.05789c-5.67698,-0.26756 -10.49599,4.11764 -10.76355,9.79463c-0.0301,0.63853 -0.00133,1.26621 0.08152,1.87777c-2.71574,-1.50842 -4.49241,-4.46535 -4.33625,-7.77869c0.2194,-4.65513 4.17099,-8.251 8.82611,-8.0316c2.97199,0.14007 5.51223,1.80137 6.90354,4.19578z" fill="url(#color-64)"/></g><g data-paper-data="{&quot;index&quot;:null}" stroke-width="0"><path d="M240.53775,161.85828c-6.04326,2.75749 -10.24334,8.85287 -10.24334,15.92923c0,9.66499 7.83501,17.5 17.5,17.5c0.40896,0 0.81462,-0.01403 1.21657,-0.04163c-2.89051,1.92185 -6.36027,3.04163 -10.09157,3.04163c-10.0792,0 -18.25,-8.17081 -18.25,-18.25c0,-10.07919 8.1708,-18.25 18.25,-18.25c0.54537,0 1.08514,0.02392 1.61834,0.07077z" fill="url(#color-65)"/><path d="M281.16939,180.66253c0,7.66295 -6.21205,13.875 -13.875,13.875c-5.33807,0 -9.97207,-3.01448 -12.29256,-7.43398c1.83327,2.10417 4.53262,3.43398 7.54256,3.43398c5.52284,0 10,-4.47716 10,-10c0,-5.52284 -4.47716,-10 -10,-10c-2.8199,0 -5.36718,1.16719 -7.18509,3.04481c2.4187,-4.06844 6.85851,-6.79482 11.93509,-6.79482c7.66295,0 13.875,6.21205 13.875,13.875z" fill="url(#color-66)"/><path d="M246.0922,151.78752c0,6.2132 -5.0368,11.25 -11.25,11.25c-4.49227,0 -8.36956,-2.63303 -10.17279,-6.43998c1.83337,2.10763 4.53499,3.43998 7.54779,3.43998c5.52285,0 10,-4.47716 10,-10c0,-4.41475 -2.8608,-8.16132 -6.8297,-9.48702c5.95995,0.28444 10.7047,5.20664 10.7047,11.23702z" data-paper-data="{&quot;index&quot;:null}" fill="url(#color-67)"/><path d="M273.32825,155.45696c-1.58468,-1.05479 -3.48748,-1.66946 -5.53385,-1.66946c-5.52284,0 -10,4.47716 -10,10c0,1.14319 0.19182,2.24158 0.54505,3.26473c-1.94688,-1.76125 -3.17005,-4.30764 -3.17005,-7.13973c0,-5.31574 4.30926,-9.625 9.625,-9.625c3.70804,0 6.92633,2.09684 8.53385,5.16946z" fill="url(#color-68)"/><path d="M280.14462,148.74584c0.3781,0.92591 0.7189,1.87622 1.02009,2.84973c5.56644,17.99192 -4.5064,37.08975 -22.49832,42.65619c-17.99192,5.56644 -37.08975,-4.5064 -42.65619,-22.49832c-2.06069,-6.66058 -1.97807,-13.47271 -0.14381,-19.6938c0.17271,0.73273 0.37172,1.46462 0.59757,2.19462c5.33769,17.25253 23.65067,26.91142 40.9032,21.57373c12.63169,-3.90806 21.19271,-14.77174 22.77746,-27.08216z" data-paper-data="{&quot;index&quot;:null}" fill="url(#color-69)"/><path d="M233.41726,200.15527c-14.82821,-11.61114 -17.43617,-33.04448 -5.82503,-47.87269c11.61114,-14.82821 33.04448,-17.43617 47.87269,-5.82503c5.48938,4.29843 9.30401,9.94294 11.34249,16.10014c-0.55953,-0.50364 -1.14018,-0.9916 -1.74182,-1.46271c-14.21884,-11.13397 -34.77135,-8.6332 -45.90532,5.58564c-8.1519,10.41053 -8.99469,24.21634 -3.28063,35.23484c-0.8384,-0.54531 -1.66006,-1.13194 -2.46238,-1.76019z" data-paper-data="{&quot;index&quot;:null}" fill="url(#color-70)"/><path d="M250.96939,198.28752c-0.23365,0 -0.46662,-0.00288 -0.69889,-0.00861c10.03877,-3.24712 17.29889,-12.67141 17.29889,-23.79139c0,-13.80712 -11.19288,-25 -25,-25c-5.02649,0 -9.7065,1.48342 -13.62614,4.03636c5.08344,-6.59074 13.05898,-10.83636 22.02614,-10.83636c15.35352,0 27.8,12.44648 27.8,27.8c0,15.35352 -12.44648,27.8 -27.8,27.8z" fill="url(#color-71)"/><path d="M272.29732,173.10786c-2.21386,-5.52119 -7.61554,-9.42034 -13.92792,-9.42034c-8.28427,0 -15,6.71573 -15,15c0,7.89291 6.0962,14.36198 13.83697,14.95558c-1.33273,0.29106 -2.71694,0.44442 -4.13697,0.44442c-10.6591,0 -19.3,-8.6409 -19.3,-19.3c0,-10.6591 8.6409,-19.3 19.3,-19.3c10.09319,0 18.3768,7.74774 19.22792,17.62034z" fill="url(#color-72)"/><path d="M250.24127,190.45487c-9.65224,2.95074 -19.839,-2.0368 -23.53919,-11.22925c3.73126,4.63275 10.03687,6.78237 16.07347,4.93695c7.92234,-2.42191 12.38132,-10.80758 9.95942,-18.72992c-2.30749,-7.54808 -10.02858,-11.95231 -17.60471,-10.25696c1.18941,-0.66796 2.46831,-1.2193 3.8263,-1.63444c10.19341,-3.11618 20.98298,2.62105 24.09916,12.81446c3.11618,10.19341 -2.62105,20.98298 -12.81446,24.09916z" fill="url(#color-73)"/><path d="M249.53394,186.72727c0.02352,-0.34353 0.03547,-0.69025 0.03547,-1.03975c0,-8.28427 -6.71573,-15 -15,-15c-0.93179,0 -1.84373,0.08496 -2.72851,0.24756c2.00996,-4.05774 6.19344,-6.84756 11.02851,-6.84756c6.7931,0 12.3,5.5069 12.3,12.3c0,4.33695 -2.2446,8.14964 -5.63547,10.33975z" fill="url(#color-74)"/></g><g data-paper-data="{&quot;index&quot;:null}" stroke-width="0"><path d="M217.53775,182.05828c-6.04326,2.75749 -10.24334,8.85287 -10.24334,15.92923c0,9.66499 7.83501,17.5 17.5,17.5c0.40896,0 0.81462,-0.01403 1.21657,-0.04163c-2.89051,1.92185 -6.36027,3.04163 -10.09157,3.04163c-10.0792,0 -18.25,-8.17081 -18.25,-18.25c0,-10.07919 8.1708,-18.25 18.25,-18.25c0.54537,0 1.08514,0.02392 1.61834,0.07077z" fill="url(#color-75)"/><path d="M258.16939,200.86253c0,7.66295 -6.21205,13.875 -13.875,13.875c-5.33807,0 -9.97207,-3.01448 -12.29256,-7.43398c1.83327,2.10417 4.53262,3.43398 7.54256,3.43398c5.52284,0 10,-4.47716 10,-10c0,-5.52284 -4.47716,-10 -10,-10c-2.8199,0 -5.36718,1.16719 -7.18509,3.04481c2.4187,-4.06844 6.85851,-6.79482 11.93509,-6.79482c7.66295,0 13.875,6.21205 13.875,13.875z" fill="url(#color-76)"/><path d="M223.0922,171.98752c0,6.2132 -5.0368,11.25 -11.25,11.25c-4.49227,0 -8.36956,-2.63303 -10.17279,-6.43998c1.83337,2.10763 4.53499,3.43998 7.54779,3.43998c5.52285,0 10,-4.47716 10,-10c0,-4.41475 -2.8608,-8.16132 -6.8297,-9.48702c5.95995,0.28444 10.7047,5.20664 10.7047,11.23702z" data-paper-data="{&quot;index&quot;:null}" fill="url(#color-77)"/><path d="M250.32825,175.65696c-1.58468,-1.05479 -3.48748,-1.66946 -5.53385,-1.66946c-5.52284,0 -10,4.47716 -10,10c0,1.14319 0.19182,2.24158 0.54505,3.26473c-1.94688,-1.76125 -3.17005,-4.30764 -3.17005,-7.13973c0,-5.31574 4.30926,-9.625 9.625,-9.625c3.70804,0 6.92633,2.09684 8.53385,5.16946z" fill="url(#color-78)"/><path d="M257.14462,168.94584c0.3781,0.92591 0.7189,1.87622 1.02009,2.84973c5.56644,17.99192 -4.5064,37.08975 -22.49832,42.65619c-17.99192,5.56644 -37.08975,-4.5064 -42.65619,-22.49832c-2.06069,-6.66058 -1.97807,-13.47271 -0.14381,-19.6938c0.17271,0.73273 0.37172,1.46462 0.59757,2.19462c5.33769,17.25253 23.65067,26.91142 40.9032,21.57373c12.63169,-3.90806 21.19271,-14.77174 22.77746,-27.08216z" data-paper-data="{&quot;index&quot;:null}" fill="url(#color-79)"/><path d="M210.41726,220.35527c-14.82821,-11.61114 -17.43617,-33.04448 -5.82503,-47.87269c11.61114,-14.82821 33.04448,-17.43617 47.87269,-5.82503c5.48938,4.29843 9.30401,9.94294 11.34249,16.10014c-0.55953,-0.50364 -1.14018,-0.9916 -1.74182,-1.46271c-14.21884,-11.13397 -34.77135,-8.6332 -45.90532,5.58564c-8.1519,10.41053 -8.99469,24.21634 -3.28063,35.23484c-0.8384,-0.54531 -1.66006,-1.13194 -2.46238,-1.76019z" data-paper-data="{&quot;index&quot;:null}" fill="url(#color-80)"/><path d="M227.96939,218.48752c-0.23365,0 -0.46662,-0.00288 -0.69889,-0.00861c10.03877,-3.24712 17.29889,-12.67141 17.29889,-23.79139c0,-13.80712 -11.19288,-25 -25,-25c-5.02649,0 -9.7065,1.48342 -13.62614,4.03636c5.08344,-6.59074 13.05898,-10.83636 22.02614,-10.83636c15.35352,0 27.8,12.44648 27.8,27.8c0,15.35352 -12.44648,27.8 -27.8,27.8z" fill="url(#color-81)"/><path d="M249.29732,193.30786c-2.21386,-5.52119 -7.61554,-9.42034 -13.92792,-9.42034c-8.28427,0 -15,6.71573 -15,15c0,7.89291 6.0962,14.36198 13.83697,14.95558c-1.33273,0.29106 -2.71694,0.44442 -4.13697,0.44442c-10.6591,0 -19.3,-8.6409 -19.3,-19.3c0,-10.6591 8.6409,-19.3 19.3,-19.3c10.09319,0 18.3768,7.74774 19.22792,17.62034z" fill="url(#color-82)"/><path d="M227.24127,210.65487c-9.65224,2.95074 -19.839,-2.0368 -23.53919,-11.22925c3.73126,4.63275 10.03687,6.78237 16.07347,4.93695c7.92234,-2.42191 12.38132,-10.80758 9.95942,-18.72992c-2.30749,-7.54808 -10.02858,-11.95231 -17.60471,-10.25696c1.18941,-0.66796 2.46831,-1.2193 3.8263,-1.63444c10.19341,-3.11618 20.98298,2.62105 24.09916,12.81446c3.11618,10.19341 -2.62105,20.98298 -12.81446,24.09916z" fill="url(#color-83)"/><path d="M226.53394,206.92727c0.02352,-0.34353 0.03547,-0.69025 0.03547,-1.03975c0,-8.28427 -6.71573,-15 -15,-15c-0.93179,0 -1.84373,0.08496 -2.72851,0.24756c2.00996,-4.05774 6.19344,-6.84756 11.02851,-6.84756c6.7931,0 12.3,5.5069 12.3,12.3c0,4.33695 -2.2446,8.14964 -5.63547,10.33975z" fill="url(#color-84)"/></g></g></g></g></svg>