<svg version="1.1" xmlns="http://www.w3.org/2000/svg" xmlns:xlink="http://www.w3.org/1999/xlink" width="39.3282" height="39.3282" viewBox="0,0,39.3282,39.3282"><g transform="translate(-220.33591,-160.33592)"><g data-paper-data="{&quot;isPaintingLayer&quot;:true}" fill-rule="nonzero" stroke-width="5" stroke-linecap="butt" stroke-linejoin="miter" stroke-miterlimit="10" stroke-dasharray="" stroke-dashoffset="0" style="mix-blend-mode: normal"><path d="M222.83591,180.00002c0,-9.47947 7.68463,-17.1641 17.1641,-17.1641c9.47947,0 17.1641,7.68463 17.1641,17.1641c0,9.47947 -7.68463,17.1641 -17.1641,17.1641c-9.47947,0 -17.1641,-7.68463 -17.1641,-17.1641z" fill="#a600ff" stroke="#7000ac"/><path d="M253.07953,174.34296c0,-0.89892 0.72872,-1.62763 1.62763,-1.62763c0.89892,0 1.62763,0.72872 1.62763,1.62763c0,0.89892 -0.72872,1.62763 -1.62763,1.62763c-0.89892,0 -1.62763,-0.72872 -1.62763,-1.62763z" fill="#454600" stroke="#000000"/><path d="M253.04867,185.55755c0,-0.89891 0.72872,-1.62763 1.62763,-1.62763c0.89891,0 1.62763,0.72871 1.62763,1.62763c0,0.89891 -0.72872,1.62763 -1.62763,1.62763c-0.89891,0 -1.62763,-0.72872 -1.62763,-1.62763z" fill="#454600" stroke="#000000"/></g></g></svg>