<svg version="1.1" xmlns="http://www.w3.org/2000/svg" xmlns:xlink="http://www.w3.org/1999/xlink" width="164.59737" height="156.85047" viewBox="0,0,164.59737,156.85047"><defs><radialGradient cx="259.57374" cy="196.96069" r="52.61369" gradientUnits="userSpaceOnUse" id="color-1"><stop offset="0" stop-color="#ff9300"/><stop offset="1" stop-color="#ff9300" stop-opacity="0"/></radialGradient><radialGradient cx="230.8258" cy="157.6718" r="52.61369" gradientUnits="userSpaceOnUse" id="color-2"><stop offset="0" stop-color="#ff9300"/><stop offset="1" stop-color="#ff9300" stop-opacity="0"/></radialGradient><radialGradient cx="261.6377" cy="205.83106" r="40.08849" gradientUnits="userSpaceOnUse" id="color-3"><stop offset="0" stop-color="#ffb82b"/><stop offset="1" stop-color="#ffb82b" stop-opacity="0"/></radialGradient><radialGradient cx="229.09731" cy="154.16894" r="40.08849" gradientUnits="userSpaceOnUse" id="color-4"><stop offset="0" stop-color="#ffb82b"/><stop offset="1" stop-color="#ffb82b" stop-opacity="0"/></radialGradient><radialGradient cx="281.30138" cy="189.93367" r="30.61151" gradientUnits="userSpaceOnUse" id="color-5"><stop offset="0" stop-color="#ff6f00"/><stop offset="1" stop-color="#ff6f00" stop-opacity="0"/></radialGradient><radialGradient cx="233.7068" cy="188.88533" r="23.27314" gradientUnits="userSpaceOnUse" id="color-6"><stop offset="0" stop-color="#ff6f00"/><stop offset="1" stop-color="#ff6f00" stop-opacity="0"/></radialGradient><radialGradient cx="288.14026" cy="237.31862" r="18.87011" gradientUnits="userSpaceOnUse" id="color-7"><stop offset="0" stop-color="#ff6f00"/><stop offset="1" stop-color="#ff6f00" stop-opacity="0"/></radialGradient><radialGradient cx="237.90013" cy="223.6902" r="16.14444" gradientUnits="userSpaceOnUse" id="color-8"><stop offset="0" stop-color="#ff6f00"/><stop offset="1" stop-color="#ff6f00" stop-opacity="0"/></radialGradient><radialGradient cx="265.08473" cy="220.73471" r="57.19869" gradientUnits="userSpaceOnUse" id="color-9"><stop offset="0" stop-color="#ff6f00"/><stop offset="1" stop-color="#ff6f00" stop-opacity="0"/></radialGradient><radialGradient cx="255.26621" cy="201.22404" r="57.19869" gradientUnits="userSpaceOnUse" id="color-10"><stop offset="0" stop-color="#ff6f00"/><stop offset="1" stop-color="#ff6f00" stop-opacity="0"/></radialGradient><radialGradient cx="261.08943" cy="205.9523" r="46.63014" gradientUnits="userSpaceOnUse" id="color-11"><stop offset="0" stop-color="#ff6f00"/><stop offset="1" stop-color="#ff6f00" stop-opacity="0"/></radialGradient><radialGradient cx="257.56701" cy="198.73972" r="32.37273" gradientUnits="userSpaceOnUse" id="color-12"><stop offset="0" stop-color="#ff6f00"/><stop offset="1" stop-color="#ff6f00" stop-opacity="0"/></radialGradient><radialGradient cx="271.77491" cy="203.41862" r="32.37273" gradientUnits="userSpaceOnUse" id="color-13"><stop offset="0" stop-color="#ff6f00"/><stop offset="1" stop-color="#ff6f00" stop-opacity="0"/></radialGradient><radialGradient cx="274.67587" cy="196.05596" r="20.63132" gradientUnits="userSpaceOnUse" id="color-14"><stop offset="0" stop-color="#ff6f00"/><stop offset="1" stop-color="#ff6f00" stop-opacity="0"/></radialGradient><radialGradient cx="209.43363" cy="170.06633" r="30.61151" gradientUnits="userSpaceOnUse" id="color-15"><stop offset="0" stop-color="#ff6f00"/><stop offset="1" stop-color="#ff6f00" stop-opacity="0"/></radialGradient><radialGradient cx="257.02821" cy="171.11467" r="23.27314" gradientUnits="userSpaceOnUse" id="color-16"><stop offset="0" stop-color="#ff6f00"/><stop offset="1" stop-color="#ff6f00" stop-opacity="0"/></radialGradient><radialGradient cx="202.59475" cy="122.68139" r="18.87011" gradientUnits="userSpaceOnUse" id="color-17"><stop offset="0" stop-color="#ff6f00"/><stop offset="1" stop-color="#ff6f00" stop-opacity="0"/></radialGradient><radialGradient cx="252.83488" cy="136.30981" r="16.14444" gradientUnits="userSpaceOnUse" id="color-18"><stop offset="0" stop-color="#ff6f00"/><stop offset="1" stop-color="#ff6f00" stop-opacity="0"/></radialGradient><radialGradient cx="225.65029" cy="139.26529" r="57.19869" gradientUnits="userSpaceOnUse" id="color-19"><stop offset="0" stop-color="#ff6f00"/><stop offset="1" stop-color="#ff6f00" stop-opacity="0"/></radialGradient><radialGradient cx="235.46881" cy="158.77596" r="57.19869" gradientUnits="userSpaceOnUse" id="color-20"><stop offset="0" stop-color="#ff6f00"/><stop offset="1" stop-color="#ff6f00" stop-opacity="0"/></radialGradient><radialGradient cx="229.64559" cy="154.0477" r="46.63014" gradientUnits="userSpaceOnUse" id="color-21"><stop offset="0" stop-color="#ff6f00"/><stop offset="1" stop-color="#ff6f00" stop-opacity="0"/></radialGradient><radialGradient cx="233.16801" cy="161.26028" r="32.37273" gradientUnits="userSpaceOnUse" id="color-22"><stop offset="0" stop-color="#ff6f00"/><stop offset="1" stop-color="#ff6f00" stop-opacity="0"/></radialGradient><radialGradient cx="218.9601" cy="156.58138" r="32.37273" gradientUnits="userSpaceOnUse" id="color-23"><stop offset="0" stop-color="#ff6f00"/><stop offset="1" stop-color="#ff6f00" stop-opacity="0"/></radialGradient><radialGradient cx="216.05915" cy="163.94404" r="20.63132" gradientUnits="userSpaceOnUse" id="color-24"><stop offset="0" stop-color="#ff6f00"/><stop offset="1" stop-color="#ff6f00" stop-opacity="0"/></radialGradient><radialGradient cx="228.93946" cy="214.2172" r="21.00052" gradientUnits="userSpaceOnUse" id="color-25"><stop offset="0" stop-color="#f4ff2b"/><stop offset="1" stop-color="#f4ff2b" stop-opacity="0"/></radialGradient><radialGradient cx="231.19502" cy="181.63577" r="15.96614" gradientUnits="userSpaceOnUse" id="color-26"><stop offset="0" stop-color="#f4ff2b"/><stop offset="1" stop-color="#f4ff2b" stop-opacity="0"/></radialGradient><radialGradient cx="196.24693" cy="217.37331" r="12.94552" gradientUnits="userSpaceOnUse" id="color-27"><stop offset="0" stop-color="#f4ff2b"/><stop offset="1" stop-color="#f4ff2b" stop-opacity="0"/></radialGradient><radialGradient cx="207.20876" cy="183.38524" r="11.07561" gradientUnits="userSpaceOnUse" id="color-28"><stop offset="0" stop-color="#f4ff2b"/><stop offset="1" stop-color="#f4ff2b" stop-opacity="0"/></radialGradient><radialGradient cx="208.35609" cy="202.10956" r="39.2402" gradientUnits="userSpaceOnUse" id="color-29"><stop offset="0" stop-color="#f4ff2b"/><stop offset="1" stop-color="#f4ff2b" stop-opacity="0"/></radialGradient><radialGradient cx="222.0433" cy="196.01132" r="39.2402" gradientUnits="userSpaceOnUse" id="color-30"><stop offset="0" stop-color="#f4ff2b"/><stop offset="1" stop-color="#f4ff2b" stop-opacity="0"/></radialGradient><radialGradient cx="218.61513" cy="199.84911" r="31.98982" gradientUnits="userSpaceOnUse" id="color-31"><stop offset="0" stop-color="#f4ff2b"/><stop offset="1" stop-color="#f4ff2b" stop-opacity="0"/></radialGradient><radialGradient cx="223.67148" cy="197.66824" r="22.20875" gradientUnits="userSpaceOnUse" id="color-32"><stop offset="0" stop-color="#f4ff2b"/><stop offset="1" stop-color="#f4ff2b" stop-opacity="0"/></radialGradient><radialGradient cx="220.00625" cy="207.25342" r="22.20875" gradientUnits="userSpaceOnUse" id="color-33"><stop offset="0" stop-color="#f4ff2b"/><stop offset="1" stop-color="#f4ff2b" stop-opacity="0"/></radialGradient><radialGradient cx="224.95799" cy="209.47917" r="14.15376" gradientUnits="userSpaceOnUse" id="color-34"><stop offset="0" stop-color="#f4ff2b"/><stop offset="1" stop-color="#f4ff2b" stop-opacity="0"/></radialGradient><radialGradient cx="267.51834" cy="180.33486" r="21.00052" gradientUnits="userSpaceOnUse" id="color-35"><stop offset="0" stop-color="#f4ff2b"/><stop offset="1" stop-color="#f4ff2b" stop-opacity="0"/></radialGradient><radialGradient cx="269.77392" cy="147.75343" r="15.96614" gradientUnits="userSpaceOnUse" id="color-36"><stop offset="0" stop-color="#f4ff2b"/><stop offset="1" stop-color="#f4ff2b" stop-opacity="0"/></radialGradient><radialGradient cx="234.82583" cy="183.49095" r="12.94552" gradientUnits="userSpaceOnUse" id="color-37"><stop offset="0" stop-color="#f4ff2b"/><stop offset="1" stop-color="#f4ff2b" stop-opacity="0"/></radialGradient><radialGradient cx="245.78766" cy="149.50292" r="11.07561" gradientUnits="userSpaceOnUse" id="color-38"><stop offset="0" stop-color="#f4ff2b"/><stop offset="1" stop-color="#f4ff2b" stop-opacity="0"/></radialGradient><radialGradient cx="246.93498" cy="168.22723" r="39.2402" gradientUnits="userSpaceOnUse" id="color-39"><stop offset="0" stop-color="#f4ff2b"/><stop offset="1" stop-color="#f4ff2b" stop-opacity="0"/></radialGradient><radialGradient cx="260.62219" cy="162.129" r="39.2402" gradientUnits="userSpaceOnUse" id="color-40"><stop offset="0" stop-color="#f4ff2b"/><stop offset="1" stop-color="#f4ff2b" stop-opacity="0"/></radialGradient><radialGradient cx="257.19403" cy="165.96678" r="31.98982" gradientUnits="userSpaceOnUse" id="color-41"><stop offset="0" stop-color="#f4ff2b"/><stop offset="1" stop-color="#f4ff2b" stop-opacity="0"/></radialGradient><radialGradient cx="262.25038" cy="163.78591" r="22.20875" gradientUnits="userSpaceOnUse" id="color-42"><stop offset="0" stop-color="#f4ff2b"/><stop offset="1" stop-color="#f4ff2b" stop-opacity="0"/></radialGradient><radialGradient cx="258.58515" cy="173.37109" r="22.20875" gradientUnits="userSpaceOnUse" id="color-43"><stop offset="0" stop-color="#f4ff2b"/><stop offset="1" stop-color="#f4ff2b" stop-opacity="0"/></radialGradient><radialGradient cx="263.53689" cy="175.59685" r="14.15376" gradientUnits="userSpaceOnUse" id="color-44"><stop offset="0" stop-color="#f4ff2b"/><stop offset="1" stop-color="#f4ff2b" stop-opacity="0"/></radialGradient><radialGradient cx="272.21492" cy="220.25563" r="21.00052" gradientUnits="userSpaceOnUse" id="color-45"><stop offset="0" stop-color="#f4ff2b"/><stop offset="1" stop-color="#f4ff2b" stop-opacity="0"/></radialGradient><radialGradient cx="274.47049" cy="187.67419" r="15.96614" gradientUnits="userSpaceOnUse" id="color-46"><stop offset="0" stop-color="#f4ff2b"/><stop offset="1" stop-color="#f4ff2b" stop-opacity="0"/></radialGradient><radialGradient cx="239.52239" cy="223.41173" r="12.94552" gradientUnits="userSpaceOnUse" id="color-47"><stop offset="0" stop-color="#f4ff2b"/><stop offset="1" stop-color="#f4ff2b" stop-opacity="0"/></radialGradient><radialGradient cx="250.48423" cy="189.42368" r="11.07561" gradientUnits="userSpaceOnUse" id="color-48"><stop offset="0" stop-color="#f4ff2b"/><stop offset="1" stop-color="#f4ff2b" stop-opacity="0"/></radialGradient><radialGradient cx="251.63155" cy="208.148" r="39.2402" gradientUnits="userSpaceOnUse" id="color-49"><stop offset="0" stop-color="#f4ff2b"/><stop offset="1" stop-color="#f4ff2b" stop-opacity="0"/></radialGradient><radialGradient cx="265.31875" cy="202.04977" r="39.2402" gradientUnits="userSpaceOnUse" id="color-50"><stop offset="0" stop-color="#f4ff2b"/><stop offset="1" stop-color="#f4ff2b" stop-opacity="0"/></radialGradient><radialGradient cx="261.89058" cy="205.88754" r="31.98982" gradientUnits="userSpaceOnUse" id="color-51"><stop offset="0" stop-color="#f4ff2b"/><stop offset="1" stop-color="#f4ff2b" stop-opacity="0"/></radialGradient><radialGradient cx="266.94693" cy="203.70668" r="22.20875" gradientUnits="userSpaceOnUse" id="color-52"><stop offset="0" stop-color="#f4ff2b"/><stop offset="1" stop-color="#f4ff2b" stop-opacity="0"/></radialGradient><radialGradient cx="263.2817" cy="213.29185" r="22.20875" gradientUnits="userSpaceOnUse" id="color-53"><stop offset="0" stop-color="#f4ff2b"/><stop offset="1" stop-color="#f4ff2b" stop-opacity="0"/></radialGradient><radialGradient cx="268.23344" cy="215.5176" r="14.15376" gradientUnits="userSpaceOnUse" id="color-54"><stop offset="0" stop-color="#f4ff2b"/><stop offset="1" stop-color="#f4ff2b" stop-opacity="0"/></radialGradient><radialGradient cx="218.5201" cy="139.74437" r="21.00052" gradientUnits="userSpaceOnUse" id="color-55"><stop offset="0" stop-color="#f4ff2b"/><stop offset="1" stop-color="#f4ff2b" stop-opacity="0"/></radialGradient><radialGradient cx="216.26452" cy="172.32581" r="15.96614" gradientUnits="userSpaceOnUse" id="color-56"><stop offset="0" stop-color="#f4ff2b"/><stop offset="1" stop-color="#f4ff2b" stop-opacity="0"/></radialGradient><radialGradient cx="251.21262" cy="136.58827" r="12.94552" gradientUnits="userSpaceOnUse" id="color-57"><stop offset="0" stop-color="#f4ff2b"/><stop offset="1" stop-color="#f4ff2b" stop-opacity="0"/></radialGradient><radialGradient cx="240.25078" cy="170.57632" r="11.07561" gradientUnits="userSpaceOnUse" id="color-58"><stop offset="0" stop-color="#f4ff2b"/><stop offset="1" stop-color="#f4ff2b" stop-opacity="0"/></radialGradient><radialGradient cx="239.10346" cy="151.852" r="39.2402" gradientUnits="userSpaceOnUse" id="color-59"><stop offset="0" stop-color="#f4ff2b"/><stop offset="1" stop-color="#f4ff2b" stop-opacity="0"/></radialGradient><radialGradient cx="225.41627" cy="157.95023" r="39.2402" gradientUnits="userSpaceOnUse" id="color-60"><stop offset="0" stop-color="#f4ff2b"/><stop offset="1" stop-color="#f4ff2b" stop-opacity="0"/></radialGradient><radialGradient cx="228.84444" cy="154.11246" r="31.98982" gradientUnits="userSpaceOnUse" id="color-61"><stop offset="0" stop-color="#f4ff2b"/><stop offset="1" stop-color="#f4ff2b" stop-opacity="0"/></radialGradient><radialGradient cx="223.78809" cy="156.29332" r="22.20875" gradientUnits="userSpaceOnUse" id="color-62"><stop offset="0" stop-color="#f4ff2b"/><stop offset="1" stop-color="#f4ff2b" stop-opacity="0"/></radialGradient><radialGradient cx="227.45332" cy="146.70815" r="22.20875" gradientUnits="userSpaceOnUse" id="color-63"><stop offset="0" stop-color="#f4ff2b"/><stop offset="1" stop-color="#f4ff2b" stop-opacity="0"/></radialGradient><radialGradient cx="222.50155" cy="144.4824" r="14.15376" gradientUnits="userSpaceOnUse" id="color-64"><stop offset="0" stop-color="#f4ff2b"/><stop offset="1" stop-color="#f4ff2b" stop-opacity="0"/></radialGradient><radialGradient cx="238.02592" cy="183.89523" r="30.61151" gradientUnits="userSpaceOnUse" id="color-65"><stop offset="0" stop-color="#ff6f00"/><stop offset="1" stop-color="#ff6f00" stop-opacity="0"/></radialGradient><radialGradient cx="190.43135" cy="182.84688" r="23.27314" gradientUnits="userSpaceOnUse" id="color-66"><stop offset="0" stop-color="#ff6f00"/><stop offset="1" stop-color="#ff6f00" stop-opacity="0"/></radialGradient><radialGradient cx="244.86481" cy="231.28017" r="18.87011" gradientUnits="userSpaceOnUse" id="color-67"><stop offset="0" stop-color="#ff6f00"/><stop offset="1" stop-color="#ff6f00" stop-opacity="0"/></radialGradient><radialGradient cx="194.62466" cy="217.65176" r="16.14444" gradientUnits="userSpaceOnUse" id="color-68"><stop offset="0" stop-color="#ff6f00"/><stop offset="1" stop-color="#ff6f00" stop-opacity="0"/></radialGradient><radialGradient cx="221.80928" cy="214.69628" r="57.19869" gradientUnits="userSpaceOnUse" id="color-69"><stop offset="0" stop-color="#ff6f00"/><stop offset="1" stop-color="#ff6f00" stop-opacity="0"/></radialGradient><radialGradient cx="211.99075" cy="195.18562" r="57.19869" gradientUnits="userSpaceOnUse" id="color-70"><stop offset="0" stop-color="#ff6f00"/><stop offset="1" stop-color="#ff6f00" stop-opacity="0"/></radialGradient><radialGradient cx="217.81398" cy="199.91385" r="46.63014" gradientUnits="userSpaceOnUse" id="color-71"><stop offset="0" stop-color="#ff6f00"/><stop offset="1" stop-color="#ff6f00" stop-opacity="0"/></radialGradient><radialGradient cx="214.29156" cy="192.70127" r="32.37273" gradientUnits="userSpaceOnUse" id="color-72"><stop offset="0" stop-color="#ff6f00"/><stop offset="1" stop-color="#ff6f00" stop-opacity="0"/></radialGradient><radialGradient cx="228.49946" cy="197.38018" r="32.37273" gradientUnits="userSpaceOnUse" id="color-73"><stop offset="0" stop-color="#ff6f00"/><stop offset="1" stop-color="#ff6f00" stop-opacity="0"/></radialGradient><radialGradient cx="231.40042" cy="190.01753" r="20.63132" gradientUnits="userSpaceOnUse" id="color-74"><stop offset="0" stop-color="#ff6f00"/><stop offset="1" stop-color="#ff6f00" stop-opacity="0"/></radialGradient><radialGradient cx="276.60481" cy="150.01289" r="30.61151" gradientUnits="userSpaceOnUse" id="color-75"><stop offset="0" stop-color="#ff6f00"/><stop offset="1" stop-color="#ff6f00" stop-opacity="0"/></radialGradient><radialGradient cx="229.01025" cy="148.96456" r="23.27314" gradientUnits="userSpaceOnUse" id="color-76"><stop offset="0" stop-color="#ff6f00"/><stop offset="1" stop-color="#ff6f00" stop-opacity="0"/></radialGradient><radialGradient cx="283.44371" cy="197.39784" r="18.87011" gradientUnits="userSpaceOnUse" id="color-77"><stop offset="0" stop-color="#ff6f00"/><stop offset="1" stop-color="#ff6f00" stop-opacity="0"/></radialGradient><radialGradient cx="233.20356" cy="183.76942" r="16.14444" gradientUnits="userSpaceOnUse" id="color-78"><stop offset="0" stop-color="#ff6f00"/><stop offset="1" stop-color="#ff6f00" stop-opacity="0"/></radialGradient><radialGradient cx="260.38818" cy="180.81395" r="57.19869" gradientUnits="userSpaceOnUse" id="color-79"><stop offset="0" stop-color="#ff6f00"/><stop offset="1" stop-color="#ff6f00" stop-opacity="0"/></radialGradient><radialGradient cx="250.56963" cy="161.30327" r="57.19869" gradientUnits="userSpaceOnUse" id="color-80"><stop offset="0" stop-color="#ff6f00"/><stop offset="1" stop-color="#ff6f00" stop-opacity="0"/></radialGradient><radialGradient cx="256.39287" cy="166.03153" r="46.63014" gradientUnits="userSpaceOnUse" id="color-81"><stop offset="0" stop-color="#ff6f00"/><stop offset="1" stop-color="#ff6f00" stop-opacity="0"/></radialGradient><radialGradient cx="252.87046" cy="158.81895" r="32.37273" gradientUnits="userSpaceOnUse" id="color-82"><stop offset="0" stop-color="#ff6f00"/><stop offset="1" stop-color="#ff6f00" stop-opacity="0"/></radialGradient><radialGradient cx="267.07836" cy="163.49784" r="32.37273" gradientUnits="userSpaceOnUse" id="color-83"><stop offset="0" stop-color="#ff6f00"/><stop offset="1" stop-color="#ff6f00" stop-opacity="0"/></radialGradient><radialGradient cx="269.97932" cy="156.13519" r="20.63132" gradientUnits="userSpaceOnUse" id="color-84"><stop offset="0" stop-color="#ff6f00"/><stop offset="1" stop-color="#ff6f00" stop-opacity="0"/></radialGradient></defs><g transform="translate(-157.70131,-101.57476)"><g data-paper-data="{&quot;isPaintingLayer&quot;:true}" fill-rule="nonzero" stroke="none" stroke-linecap="butt" stroke-linejoin="miter" stroke-miterlimit="10" stroke-dasharray="" stroke-dashoffset="0" style="mix-blend-mode: normal"><path d="M312.18745,196.96069c0,29.05773 -23.55595,52.61369 -52.61369,52.61369c-29.05773,0 -52.61369,-23.55595 -52.61369,-52.61369c0,-29.05773 23.55595,-52.61369 52.61369,-52.61369c29.05773,0 52.61369,23.55595 52.61369,52.61369z" data-paper-data="{&quot;index&quot;:null}" fill="url(#color-1)" stroke-width="0.5"/><path d="M283.43949,157.6718c0,29.05773 -23.55595,52.61369 -52.61369,52.61369c-29.05773,0 -52.61369,-23.55595 -52.61369,-52.61369c0,-29.05773 23.55595,-52.61369 52.61369,-52.61369c29.05773,0 52.61369,23.55595 52.61369,52.61369z" data-paper-data="{&quot;index&quot;:null}" fill="url(#color-2)" stroke-width="0.5"/><path d="M301.72622,205.83106c0,22.14029 -17.94823,40.08849 -40.08849,40.08849c-22.14029,0 -40.08849,-17.94823 -40.08849,-40.08849c0,-22.14029 17.94823,-40.08849 40.08849,-40.08849c22.14029,0 40.08849,17.94823 40.08849,40.08849z" data-paper-data="{&quot;index&quot;:null}" fill="url(#color-3)" stroke-width="0"/><path d="M189.0088,154.16894c0,-22.14029 17.94823,-40.08849 40.08849,-40.08849c22.14029,0 40.08849,17.94823 40.08849,40.08849c0,22.14029 -17.94823,40.08849 -40.08849,40.08849c-22.14029,0 -40.08849,-17.94823 -40.08849,-40.08849z" data-paper-data="{&quot;index&quot;:null}" fill="url(#color-4)" stroke-width="0"/><g data-paper-data="{&quot;index&quot;:null}" stroke-width="0"><path d="M278.58688,220.42649c10.13661,-4.62525 17.1816,-14.8493 17.1816,-26.71879c0,-16.2115 -13.14199,-29.35351 -29.35351,-29.35351c-0.68597,0 -1.36639,0.02353 -2.0406,0.06984c4.84838,-3.22361 10.66836,-5.10185 16.92703,-5.10185c16.90629,0 30.61151,13.70526 30.61151,30.61151c0,16.90627 -13.70525,30.61151 -30.61151,30.61151c-0.91477,0 -1.82016,-0.04012 -2.7145,-0.11869z" fill="url(#color-5)"/><path d="M210.43366,188.88532c0,-12.8534 10.41974,-23.27314 23.27314,-23.27314c8.95377,0 16.72658,5.05633 20.61883,12.46934c-3.07502,-3.52942 -7.60276,-5.75996 -12.65147,-5.75996c-9.2637,0 -16.77344,7.50974 -16.77344,16.77344c0,9.2637 7.50974,16.77344 16.77344,16.77344c4.72994,0 9.00261,-1.95778 12.05187,-5.1072c-4.057,6.82416 -11.50407,11.39725 -20.01924,11.39725c-12.8534,0 -23.27314,-10.41974 -23.27314,-23.27314z" fill="url(#color-6)"/><path d="M269.27016,237.31862c0,-10.42167 8.44844,-18.87011 18.87011,-18.87011c7.53508,0 14.03862,4.41649 17.06326,10.80206c-3.07519,-3.53522 -7.60674,-5.77004 -12.66023,-5.77004c-9.26371,0 -16.77344,7.50974 -16.77344,16.77344c0,7.40505 4.79855,13.68933 11.45576,15.913c-9.99689,-0.4771 -17.95547,-8.73332 -17.95547,-18.84835z" data-paper-data="{&quot;index&quot;:null}" fill="url(#color-7)"/><path d="M223.58595,231.16369c2.65805,1.76925 5.84971,2.80025 9.28216,2.80025c9.2637,0 16.77344,-7.50974 16.77344,-16.77344c0,-1.91753 -0.32175,-3.75989 -0.91424,-5.47607c3.26559,2.95422 5.31727,7.22539 5.31727,11.97578c0,8.91633 -7.22811,16.14444 -16.14444,16.14444c-6.21966,0 -11.61783,-3.51712 -14.31419,-8.67095z" fill="url(#color-8)"/><path d="M212.15256,242.42055c-0.63421,-1.55306 -1.20584,-3.14705 -1.71105,-4.77997c-9.33683,-30.17863 7.55878,-62.21225 37.7374,-71.54907c30.17863,-9.33683 62.21225,7.55878 71.54907,37.7374c3.45648,11.17208 3.3179,22.59836 0.24122,33.03326c-0.28969,-1.22904 -0.6235,-2.45667 -1.00233,-3.68113c-8.95314,-28.93842 -39.67028,-45.13969 -68.6087,-36.18655c-21.18768,6.55516 -35.54745,24.77728 -38.20562,45.42608z" data-paper-data="{&quot;index&quot;:null}" fill="url(#color-9)"/><path d="M290.53038,156.18929c24.872,19.47587 29.24644,55.42692 9.77058,80.29893c-19.47587,24.872 -55.42692,29.24644 -80.29893,9.77058c-9.20758,-7.20994 -15.60601,-16.67773 -19.02526,-27.00547c0.93852,0.84477 1.91247,1.66325 2.92163,2.45346c23.84987,18.67549 58.32348,14.48083 76.99898,-9.36904c13.67353,-17.46204 15.08718,-40.61912 5.50274,-59.10091c1.40628,0.91467 2.78449,1.89866 4.13027,2.95245z" data-paper-data="{&quot;index&quot;:null}" fill="url(#color-10)"/><path d="M261.08943,159.32215c0.39191,0 0.78267,0.00483 1.17229,0.01445c-16.83846,5.44653 -29.01619,21.2543 -29.01619,39.90632c0,23.15927 18.77429,41.93359 41.93359,41.93359c8.43115,0 16.28113,-2.4882 22.85571,-6.77036c-8.52668,11.05493 -21.9044,18.17629 -36.94539,18.17629c-25.75313,0 -46.63014,-20.87702 -46.63014,-46.63014c0,-25.75313 20.87702,-46.63014 46.63014,-46.63014z" fill="url(#color-11)"/><path d="M225.31517,201.55709c3.7134,9.26093 12.77388,15.80114 23.3619,15.80114c13.89557,0 25.16015,-11.26458 25.16015,-25.16015c0,-13.23912 -10.22542,-24.08998 -23.20935,-25.08564c2.23545,-0.48821 4.55725,-0.74545 6.93912,-0.74545c17.87897,0 32.37273,14.49376 32.37273,32.37273c0,17.87897 -14.49376,32.37273 -32.37273,32.37273c-16.92974,0 -30.8242,-12.99562 -32.25181,-29.55535z" fill="url(#color-12)"/><path d="M262.31074,172.46019c16.19011,-4.9494 33.2768,3.41642 39.48331,18.8353c-6.2586,-7.77071 -16.83529,-11.37636 -26.96072,-8.28096c-13.28848,4.06238 -20.76772,18.12802 -16.70537,31.4165c3.87045,12.66073 16.82136,20.04812 29.52914,17.20445c-1.99505,1.1204 -4.14021,2.04519 -6.41802,2.7415c-17.09785,5.2269 -35.19566,-4.3964 -40.42257,-21.49425c-5.2269,-17.09785 4.3964,-35.19566 21.49425,-40.42257z" fill="url(#color-13)"/><path d="M263.49716,178.71266c-0.03946,0.57621 -0.0595,1.15779 -0.0595,1.74402c0,13.89557 11.26458,25.16015 25.16015,25.16015c1.56292,0 3.09256,-0.14251 4.57665,-0.41523c-3.37139,6.80622 -10.38852,11.48571 -18.49859,11.48571c-11.39437,0 -20.63132,-9.23695 -20.63132,-20.63132c0,-7.27456 3.76496,-13.66975 9.45261,-17.34331z" fill="url(#color-14)"/></g><g data-paper-data="{&quot;index&quot;:null}" stroke-width="0"><path d="M212.14815,139.57351c-10.13661,4.62525 -17.1816,14.8493 -17.1816,26.71879c0,16.2115 13.14199,29.35351 29.35351,29.35351c0.68597,0 1.36639,-0.02353 2.0406,-0.06984c-4.84838,3.22361 -10.66836,5.10185 -16.92703,5.10185c-16.90629,0 -30.61151,-13.70526 -30.61151,-30.61151c0,-16.90627 13.70525,-30.61151 30.61151,-30.61151c0.91477,0 1.82016,0.04012 2.7145,0.11869z" fill="url(#color-15)"/><path d="M280.30135,171.11468c0,12.8534 -10.41974,23.27314 -23.27314,23.27314c-8.95377,0 -16.72658,-5.05633 -20.61883,-12.46934c3.07502,3.52942 7.60276,5.75996 12.65147,5.75996c9.2637,0 16.77344,-7.50974 16.77344,-16.77344c0,-9.2637 -7.50974,-16.77344 -16.77344,-16.77344c-4.72994,0 -9.00261,1.95778 -12.05187,5.1072c4.057,-6.82416 11.50407,-11.39725 20.01924,-11.39725c12.8534,0 23.27314,10.41974 23.27314,23.27314z" fill="url(#color-16)"/><path d="M221.46486,122.68139c0,10.42167 -8.44844,18.87011 -18.87011,18.87011c-7.53508,0 -14.03862,-4.41649 -17.06326,-10.80206c3.07519,3.53522 7.60674,5.77004 12.66023,5.77004c9.26371,0 16.77344,-7.50974 16.77344,-16.77344c0,-7.40505 -4.79855,-13.68933 -11.45576,-15.913c9.99689,0.4771 17.95547,8.73332 17.95547,18.84835z" data-paper-data="{&quot;index&quot;:null}" fill="url(#color-17)"/><path d="M267.14907,128.83631c-2.65805,-1.76925 -5.84971,-2.80025 -9.28216,-2.80025c-9.2637,0 -16.77344,7.50974 -16.77344,16.77344c0,1.91753 0.32175,3.75989 0.91424,5.47607c-3.26559,-2.95422 -5.31727,-7.22539 -5.31727,-11.97578c0,-8.91633 7.22811,-16.14444 16.14444,-16.14444c6.21966,0 11.61783,3.51712 14.31419,8.67095z" fill="url(#color-18)"/><path d="M278.58246,117.57945c0.63421,1.55306 1.20584,3.14705 1.71105,4.77997c9.33683,30.17863 -7.55878,62.21225 -37.7374,71.54907c-30.17863,9.33683 -62.21225,-7.55878 -71.54907,-37.7374c-3.45648,-11.17208 -3.3179,-22.59836 -0.24122,-33.03326c0.28969,1.22904 0.6235,2.45667 1.00233,3.68113c8.95314,28.93842 39.67028,45.13969 68.6087,36.18655c21.18768,-6.55516 35.54745,-24.77728 38.20562,-45.42608z" data-paper-data="{&quot;index&quot;:null}" fill="url(#color-19)"/><path d="M200.20465,203.81071c-24.872,-19.47587 -29.24644,-55.42692 -9.77058,-80.29893c19.47587,-24.872 55.42692,-29.24644 80.29893,-9.77058c9.20758,7.20994 15.60601,16.67773 19.02526,27.00547c-0.93852,-0.84477 -1.91247,-1.66325 -2.92163,-2.45346c-23.84987,-18.67549 -58.32348,-14.48083 -76.99898,9.36904c-13.67353,17.46204 -15.08718,40.61912 -5.50274,59.10091c-1.40628,-0.91467 -2.78449,-1.89866 -4.13027,-2.95245z" data-paper-data="{&quot;index&quot;:null}" fill="url(#color-20)"/><path d="M229.64559,200.67785c-0.39191,0 -0.78267,-0.00483 -1.17229,-0.01445c16.83846,-5.44653 29.01619,-21.2543 29.01619,-39.90632c0,-23.15927 -18.77429,-41.93359 -41.93359,-41.93359c-8.43115,0 -16.28113,2.4882 -22.85571,6.77036c8.52668,-11.05493 21.9044,-18.17629 36.94539,-18.17629c25.75313,0 46.63014,20.87702 46.63014,46.63014c0,25.75313 -20.87702,46.63014 -46.63014,46.63014z" fill="url(#color-21)"/><path d="M265.41984,158.44291c-3.7134,-9.26093 -12.77388,-15.80114 -23.3619,-15.80114c-13.89557,0 -25.16015,11.26458 -25.16015,25.16015c0,13.23912 10.22542,24.08998 23.20935,25.08564c-2.23545,0.48821 -4.55725,0.74545 -6.93912,0.74545c-17.87897,0 -32.37273,-14.49376 -32.37273,-32.37273c0,-17.87897 14.49376,-32.37273 32.37273,-32.37273c16.92974,0 30.8242,12.99562 32.25181,29.55535z" fill="url(#color-22)"/><path d="M228.42428,187.53981c-16.19011,4.9494 -33.2768,-3.41642 -39.48331,-18.8353c6.2586,7.77071 16.83529,11.37636 26.96072,8.28096c13.28848,-4.06238 20.76772,-18.12802 16.70537,-31.4165c-3.87045,-12.66073 -16.82136,-20.04812 -29.52914,-17.20445c1.99505,-1.1204 4.14021,-2.04519 6.41802,-2.7415c17.09785,-5.2269 35.19566,4.3964 40.42257,21.49425c5.2269,17.09785 -4.3964,35.19566 -21.49425,40.42257z" fill="url(#color-23)"/><path d="M227.23785,181.28734c0.03946,-0.57621 0.0595,-1.15779 0.0595,-1.74402c0,-13.89557 -11.26458,-25.16015 -25.16015,-25.16015c-1.56292,0 -3.09256,0.14251 -4.57665,0.41523c3.37139,-6.80622 10.38852,-11.48571 18.49859,-11.48571c11.39437,0 20.63132,9.23695 20.63132,20.63132c0,7.27456 -3.76496,13.66975 -9.45261,17.34331z" fill="url(#color-24)"/></g><g data-paper-data="{&quot;index&quot;:null}" stroke-width="0"><path d="M207.96222,213.22852c0.02954,-0.62686 0.08627,-1.24599 0.16901,-1.85635c2.84218,7.09573 9.62088,12.25368 17.75473,12.63704c11.1093,0.52359 20.5396,-8.05783 21.0632,-19.16711c0.02213,-0.47007 0.02799,-0.93711 0.01804,-1.40063c2.05245,3.42658 3.15161,7.4755 2.94946,11.76439c-0.54602,11.58541 -10.38052,20.53459 -21.96591,19.98856c-11.58541,-0.54602 -20.53459,-10.38049 -19.98856,-21.9659z" fill="url(#color-25)"/><path d="M247.14348,182.38743c-0.28918,6.13577 -4.00518,11.29896 -9.21083,13.72679c2.51793,-1.99323 4.1927,-5.02393 4.35576,-8.48367c0.29919,-6.34816 -4.60448,-11.73693 -10.95263,-12.03612c-6.34816,-0.29919 -11.73693,4.60448 -12.03612,10.95263c-0.15277,3.2413 1.05084,6.23249 3.11057,8.42378c-4.54539,-3.00054 -7.43866,-8.25153 -7.16365,-14.08675c0.41512,-8.80807 7.89204,-15.61189 16.70012,-15.19679c8.80808,0.41512 15.61189,7.89204 15.19679,16.70012z" fill="url(#color-26)"/><path d="M183.36023,216.13773c0.64982,-6.83517 6.56462,-12.02231 13.49616,-11.69562c7.14169,0.33659 12.65832,6.39894 12.32171,13.54064c-0.24337,5.16359 -3.47992,9.47764 -7.95346,11.34412c2.52192,-1.99318 4.19971,-5.02633 4.36294,-8.48935c0.29919,-6.34816 -4.60448,-11.73693 -10.95263,-12.03612c-5.07448,-0.23917 -9.53592,2.84619 -11.27474,7.33636z" data-paper-data="{&quot;index&quot;:null}" fill="url(#color-27)"/><path d="M196.14541,182.86383c0.20088,-4.26216 2.78542,-7.84778 6.40428,-9.52907c-1.29826,1.76434 -2.10788,3.91818 -2.21874,6.27037c-0.29919,6.34816 4.60449,11.73693 10.95265,12.03612c1.31401,0.06192 2.58693,-0.09904 3.78213,-0.44962c-2.12993,2.14238 -5.1231,3.41041 -8.37841,3.25697c-6.11013,-0.28796 -10.82989,-5.47465 -10.54192,-11.58477z" fill="url(#color-28)"/><path d="M198.53581,164.11806c20.98213,-5.42357 42.38822,7.18912 47.81179,28.17125c5.42357,20.98213 -7.18912,42.38822 -28.17125,47.81179c-7.76756,2.0078 -15.59319,1.54378 -22.64456,-0.9016c0.8516,-0.15882 1.70361,-0.34793 2.55494,-0.56798c20.11987,-5.20071 32.21425,-25.72706 27.01355,-45.84692c-3.80777,-14.73105 -15.8311,-25.15994 -29.89531,-27.64841c1.08477,-0.38444 2.19554,-0.72467 3.33085,-1.01815z" data-paper-data="{&quot;index&quot;:null}" fill="url(#color-29)"/><path d="M253.9221,218.89642c-0.67222,0.93415 -1.39101,1.8468 -2.15662,2.73499c-14.14959,16.41508 -38.92713,18.25165 -55.34222,4.10206c-16.41508,-14.14959 -18.25165,-38.92714 -4.10206,-55.34223c5.23815,-6.07685 11.93283,-10.15573 19.12057,-12.16528c-0.60922,0.61587 -1.20155,1.25685 -1.77565,1.92287c-13.5681,15.74049 -11.80702,39.49979 3.93348,53.06788c11.52463,9.93406 27.3479,11.65072 40.3225,5.67969z" data-paper-data="{&quot;index&quot;:null}" fill="url(#color-30)"/><path d="M220.1211,167.89475c17.64792,0.83176 31.28009,15.81248 30.44832,33.46039c-0.01265,0.26856 -0.02859,0.5362 -0.04775,0.80287c-3.18853,-11.71485 -13.62785,-20.57045 -26.40956,-21.17288c-15.87041,-0.74798 -29.34228,11.51117 -30.09028,27.38158c-0.2723,5.77763 1.17928,11.23738 3.90138,15.88106c-7.30025,-6.20013 -11.74825,-15.59753 -11.26247,-25.90472c0.83176,-17.64792 15.81248,-31.28009 33.46039,-30.44832z" fill="url(#color-31)"/><path d="M222.78243,175.47595c-6.46621,2.2456 -11.24066,8.24326 -11.58263,15.49894c-0.44879,9.52224 6.90669,17.60538 16.42896,18.05416c9.0724,0.42759 16.83843,-6.22917 17.9401,-15.09453c0.26235,1.54765 0.36367,3.14702 0.28672,4.77926c-0.57745,12.25196 -10.97773,21.71603 -23.2297,21.13858c-12.25195,-0.57745 -21.71603,-10.97773 -21.13858,-23.2297c0.54678,-11.60148 9.90108,-20.70324 21.29513,-21.14673z" fill="url(#color-32)"/><path d="M241.5269,201.76777c2.8688,11.25451 -3.41593,22.69334 -14.18253,26.4485c5.5272,-4.03787 8.33964,-11.16931 6.54548,-18.20799c-2.35465,-9.23745 -11.75191,-14.81705 -20.98934,-12.46242c-8.80105,2.24341 -14.28173,10.87972 -12.74345,19.67984c-0.70336,-1.40335 -1.26781,-2.90323 -1.6714,-4.48664c-3.02965,-11.8855 4.14946,-23.97663 16.03495,-27.00626c11.8855,-3.02965 23.97663,4.14946 27.00626,16.03495z" fill="url(#color-33)"/><path d="M237.20393,202.37886c-0.39358,-0.04564 -0.79149,-0.07816 -1.19321,-0.0971c-9.52224,-0.44879 -17.60538,6.90669 -18.05416,16.42896c-0.05049,1.07104 -0.00224,2.12387 0.13675,3.14966c-4.55523,-2.53015 -7.53531,-7.48991 -7.27338,-13.04753c0.36801,-7.80825 6.99618,-13.83977 14.80442,-13.47176c4.98505,0.23494 9.24591,3.02151 11.5796,7.03777z" fill="url(#color-34)"/></g><g data-paper-data="{&quot;index&quot;:null}" stroke-width="0"><path d="M246.54112,179.34618c0.02954,-0.62686 0.08627,-1.24599 0.16901,-1.85635c2.84218,7.09573 9.62088,12.25368 17.75473,12.63704c11.1093,0.52359 20.5396,-8.05783 21.0632,-19.16711c0.02213,-0.47007 0.02799,-0.93711 0.01804,-1.40063c2.05245,3.42658 3.15161,7.4755 2.94946,11.76439c-0.54602,11.58541 -10.38052,20.53459 -21.96591,19.98856c-11.58541,-0.54602 -20.53459,-10.38049 -19.98856,-21.9659z" fill="url(#color-35)"/><path d="M285.72237,148.50511c-0.28918,6.13577 -4.00518,11.29896 -9.21083,13.72679c2.51793,-1.99323 4.1927,-5.02393 4.35576,-8.48367c0.29919,-6.34816 -4.60448,-11.73693 -10.95263,-12.03612c-6.34816,-0.29919 -11.73693,4.60448 -12.03612,10.95263c-0.15277,3.2413 1.05084,6.23249 3.11057,8.42378c-4.54539,-3.00054 -7.43866,-8.25153 -7.16365,-14.08675c0.41512,-8.80807 7.89204,-15.61189 16.70012,-15.19679c8.80808,0.41512 15.61189,7.89204 15.19679,16.70012z" fill="url(#color-36)"/><path d="M221.93911,182.25538c0.64982,-6.83517 6.56462,-12.02231 13.49616,-11.69562c7.14169,0.33659 12.65832,6.39894 12.32171,13.54064c-0.24337,5.16359 -3.47992,9.47764 -7.95346,11.34412c2.52192,-1.99318 4.19971,-5.02633 4.36294,-8.48935c0.29919,-6.34816 -4.60448,-11.73693 -10.95263,-12.03612c-5.07448,-0.23917 -9.53592,2.84619 -11.27474,7.33636z" data-paper-data="{&quot;index&quot;:null}" fill="url(#color-37)"/><path d="M234.72431,148.9815c0.20088,-4.26216 2.78542,-7.84778 6.40428,-9.52907c-1.29826,1.76434 -2.10788,3.91818 -2.21874,6.27037c-0.29919,6.34816 4.60449,11.73693 10.95265,12.03612c1.31401,0.06192 2.58693,-0.09904 3.78213,-0.44962c-2.12993,2.14238 -5.1231,3.41041 -8.37841,3.25697c-6.11013,-0.28796 -10.82989,-5.47465 -10.54192,-11.58477z" fill="url(#color-38)"/><path d="M237.11471,130.23573c20.98213,-5.42357 42.38822,7.18912 47.81179,28.17125c5.42357,20.98213 -7.18912,42.38822 -28.17125,47.81179c-7.76756,2.0078 -15.59319,1.54378 -22.64456,-0.9016c0.8516,-0.15882 1.70361,-0.34793 2.55494,-0.56798c20.11987,-5.20071 32.21425,-25.72706 27.01355,-45.84692c-3.80777,-14.73105 -15.8311,-25.15994 -29.89531,-27.64841c1.08477,-0.38444 2.19554,-0.72467 3.33085,-1.01815z" data-paper-data="{&quot;index&quot;:null}" fill="url(#color-39)"/><path d="M292.50098,185.0141c-0.67222,0.93415 -1.39101,1.8468 -2.15662,2.73499c-14.14959,16.41508 -38.92713,18.25165 -55.34222,4.10206c-16.41508,-14.14959 -18.25165,-38.92714 -4.10206,-55.34223c5.23815,-6.07685 11.93283,-10.15573 19.12057,-12.16528c-0.60922,0.61587 -1.20155,1.25685 -1.77565,1.92287c-13.5681,15.74049 -11.80702,39.49979 3.93348,53.06788c11.52463,9.93406 27.3479,11.65072 40.3225,5.67969z" data-paper-data="{&quot;index&quot;:null}" fill="url(#color-40)"/><path d="M258.69998,134.01243c17.64792,0.83176 31.28009,15.81248 30.44832,33.46039c-0.01265,0.26856 -0.02859,0.5362 -0.04775,0.80287c-3.18853,-11.71485 -13.62785,-20.57045 -26.40956,-21.17288c-15.87041,-0.74798 -29.34228,11.51117 -30.09028,27.38158c-0.2723,5.77763 1.17928,11.23738 3.90138,15.88106c-7.30025,-6.20013 -11.74825,-15.59753 -11.26247,-25.90472c0.83176,-17.64792 15.81248,-31.28009 33.46039,-30.44832z" fill="url(#color-41)"/><path d="M261.3613,141.59362c-6.46621,2.2456 -11.24066,8.24326 -11.58263,15.49894c-0.44879,9.52224 6.90669,17.60538 16.42896,18.05416c9.0724,0.42759 16.83843,-6.22917 17.9401,-15.09453c0.26235,1.54765 0.36367,3.14702 0.28672,4.77926c-0.57745,12.25196 -10.97773,21.71603 -23.2297,21.13858c-12.25195,-0.57745 -21.71603,-10.97773 -21.13858,-23.2297c0.54678,-11.60148 9.90108,-20.70324 21.29513,-21.14673z" fill="url(#color-42)"/><path d="M280.10578,167.88544c2.8688,11.25451 -3.41593,22.69334 -14.18253,26.4485c5.5272,-4.03787 8.33964,-11.16931 6.54548,-18.20799c-2.35465,-9.23745 -11.75191,-14.81705 -20.98934,-12.46242c-8.80105,2.24341 -14.28173,10.87972 -12.74345,19.67984c-0.70336,-1.40335 -1.26781,-2.90323 -1.6714,-4.48664c-3.02965,-11.8855 4.14946,-23.97663 16.03495,-27.00626c11.8855,-3.02965 23.97663,4.14946 27.00626,16.03495z" fill="url(#color-43)"/><path d="M275.78282,168.49653c-0.39358,-0.04564 -0.79149,-0.07816 -1.19321,-0.0971c-9.52224,-0.44879 -17.60538,6.90669 -18.05416,16.42896c-0.05049,1.07104 -0.00224,2.12387 0.13675,3.14966c-4.55523,-2.53015 -7.53531,-7.48991 -7.27338,-13.04753c0.36801,-7.80825 6.99618,-13.83977 14.80442,-13.47176c4.98505,0.23494 9.24591,3.02151 11.5796,7.03777z" fill="url(#color-44)"/></g><g data-paper-data="{&quot;index&quot;:null}" stroke-width="0"><path d="M251.23767,219.26696c0.02954,-0.62686 0.08627,-1.24599 0.16901,-1.85635c2.84218,7.09573 9.62088,12.25368 17.75473,12.63704c11.1093,0.52359 20.5396,-8.05783 21.0632,-19.16711c0.02213,-0.47007 0.02799,-0.93711 0.01804,-1.40063c2.05245,3.42658 3.15161,7.4755 2.94946,11.76439c-0.54602,11.58541 -10.38052,20.53459 -21.96591,19.98856c-11.58541,-0.54602 -20.53459,-10.38049 -19.98856,-21.9659z" fill="url(#color-45)"/><path d="M290.41893,188.42587c-0.28918,6.13577 -4.00518,11.29896 -9.21083,13.72679c2.51793,-1.99323 4.1927,-5.02393 4.35576,-8.48367c0.29919,-6.34816 -4.60448,-11.73693 -10.95263,-12.03612c-6.34816,-0.29919 -11.73693,4.60448 -12.03612,10.95263c-0.15277,3.2413 1.05084,6.23249 3.11057,8.42378c-4.54539,-3.00054 -7.43866,-8.25153 -7.16365,-14.08675c0.41512,-8.80807 7.89204,-15.61189 16.70012,-15.19679c8.80808,0.41512 15.61189,7.89204 15.19679,16.70012z" fill="url(#color-46)"/><path d="M226.63568,222.17616c0.64982,-6.83517 6.56462,-12.02231 13.49616,-11.69562c7.14169,0.33659 12.65832,6.39894 12.32171,13.54064c-0.24337,5.16359 -3.47992,9.47764 -7.95346,11.34412c2.52192,-1.99318 4.19971,-5.02633 4.36294,-8.48935c0.29919,-6.34816 -4.60448,-11.73693 -10.95263,-12.03612c-5.07448,-0.23917 -9.53592,2.84619 -11.27474,7.33636z" data-paper-data="{&quot;index&quot;:null}" fill="url(#color-47)"/><path d="M239.42087,188.90226c0.20088,-4.26216 2.78542,-7.84778 6.40428,-9.52907c-1.29826,1.76434 -2.10788,3.91818 -2.21874,6.27037c-0.29919,6.34816 4.60449,11.73693 10.95265,12.03612c1.31401,0.06192 2.58693,-0.09904 3.78213,-0.44962c-2.12993,2.14238 -5.1231,3.41041 -8.37841,3.25697c-6.11013,-0.28796 -10.82989,-5.47465 -10.54192,-11.58477z" fill="url(#color-48)"/><path d="M241.81127,170.15649c20.98213,-5.42357 42.38822,7.18912 47.81179,28.17125c5.42357,20.98213 -7.18912,42.38822 -28.17125,47.81179c-7.76756,2.0078 -15.59319,1.54378 -22.64456,-0.9016c0.8516,-0.15882 1.70361,-0.34793 2.55494,-0.56798c20.11987,-5.20071 32.21425,-25.72706 27.01355,-45.84692c-3.80777,-14.73105 -15.8311,-25.15994 -29.89531,-27.64841c1.08477,-0.38444 2.19554,-0.72467 3.33085,-1.01815z" data-paper-data="{&quot;index&quot;:null}" fill="url(#color-49)"/><path d="M297.19755,224.93487c-0.67222,0.93415 -1.39101,1.8468 -2.15662,2.73499c-14.14959,16.41508 -38.92713,18.25165 -55.34222,4.10206c-16.41508,-14.14959 -18.25165,-38.92714 -4.10206,-55.34223c5.23815,-6.07685 11.93283,-10.15573 19.12057,-12.16528c-0.60922,0.61587 -1.20155,1.25685 -1.77565,1.92287c-13.5681,15.74049 -11.80702,39.49979 3.93348,53.06788c11.52463,9.93406 27.3479,11.65072 40.3225,5.67969z" data-paper-data="{&quot;index&quot;:null}" fill="url(#color-50)"/><path d="M263.39656,173.93319c17.64792,0.83176 31.28009,15.81248 30.44832,33.46039c-0.01265,0.26856 -0.02859,0.5362 -0.04775,0.80287c-3.18853,-11.71485 -13.62785,-20.57045 -26.40956,-21.17288c-15.87041,-0.74798 -29.34228,11.51117 -30.09028,27.38158c-0.2723,5.77763 1.17928,11.23738 3.90138,15.88106c-7.30025,-6.20013 -11.74825,-15.59753 -11.26247,-25.90472c0.83176,-17.64792 15.81248,-31.28009 33.46039,-30.44832z" fill="url(#color-51)"/><path d="M266.05788,181.51439c-6.46621,2.2456 -11.24066,8.24326 -11.58263,15.49894c-0.44879,9.52224 6.90669,17.60538 16.42896,18.05416c9.0724,0.42759 16.83843,-6.22917 17.9401,-15.09453c0.26235,1.54765 0.36367,3.14702 0.28672,4.77926c-0.57745,12.25196 -10.97773,21.71603 -23.2297,21.13858c-12.25195,-0.57745 -21.71603,-10.97773 -21.13858,-23.2297c0.54678,-11.60148 9.90108,-20.70324 21.29513,-21.14673z" fill="url(#color-52)"/><path d="M284.80235,207.80622c2.8688,11.25451 -3.41593,22.69334 -14.18253,26.4485c5.5272,-4.03787 8.33964,-11.16931 6.54548,-18.20799c-2.35465,-9.23745 -11.75191,-14.81705 -20.98934,-12.46242c-8.80105,2.24341 -14.28173,10.87972 -12.74345,19.67984c-0.70336,-1.40335 -1.26781,-2.90323 -1.6714,-4.48664c-3.02965,-11.8855 4.14946,-23.97663 16.03495,-27.00626c11.8855,-3.02965 23.97663,4.14946 27.00626,16.03495z" fill="url(#color-53)"/><path d="M280.47938,208.41729c-0.39358,-0.04564 -0.79149,-0.07816 -1.19321,-0.0971c-9.52224,-0.44879 -17.60538,6.90669 -18.05416,16.42896c-0.05049,1.07104 -0.00224,2.12387 0.13675,3.14966c-4.55523,-2.53015 -7.53531,-7.48991 -7.27338,-13.04753c0.36801,-7.80825 6.99618,-13.83977 14.80442,-13.47176c4.98505,0.23494 9.24591,3.02151 11.5796,7.03777z" fill="url(#color-54)"/></g><g data-paper-data="{&quot;index&quot;:null}" stroke-width="0"><path d="M239.49735,140.73304c-0.02954,0.62686 -0.08627,1.24599 -0.16901,1.85635c-2.84218,-7.09573 -9.62088,-12.25368 -17.75473,-12.63704c-11.1093,-0.52359 -20.5396,8.05783 -21.0632,19.16711c-0.02213,0.47007 -0.02799,0.93711 -0.01804,1.40063c-2.05245,-3.42658 -3.15161,-7.4755 -2.94946,-11.76439c0.54602,-11.58541 10.38052,-20.53459 21.96591,-19.98856c11.58541,0.54602 20.53459,10.38049 19.98856,21.9659z" fill="url(#color-55)"/><path d="M200.31608,171.57413c0.28918,-6.13577 4.00518,-11.29896 9.21083,-13.72679c-2.51793,1.99323 -4.1927,5.02393 -4.35576,8.48367c-0.29919,6.34816 4.60448,11.73693 10.95263,12.03612c6.34816,0.29919 11.73693,-4.60448 12.03612,-10.95263c0.15277,-3.2413 -1.05084,-6.23249 -3.11057,-8.42378c4.54539,3.00054 7.43866,8.25153 7.16365,14.08675c-0.41512,8.80807 -7.89204,15.61189 -16.70012,15.19679c-8.80808,-0.41512 -15.61189,-7.89204 -15.19679,-16.70012z" fill="url(#color-56)"/><path d="M264.09934,137.82384c-0.64982,6.83517 -6.56462,12.02231 -13.49616,11.69562c-7.14169,-0.33659 -12.65832,-6.39894 -12.32171,-13.54064c0.24337,-5.16359 3.47992,-9.47764 7.95346,-11.34412c-2.52192,1.99318 -4.19971,5.02633 -4.36294,8.48935c-0.29919,6.34816 4.60448,11.73693 10.95263,12.03612c5.07448,0.23917 9.53592,-2.84619 11.27474,-7.33636z" data-paper-data="{&quot;index&quot;:null}" fill="url(#color-57)"/><path d="M251.31414,171.09774c-0.20088,4.26216 -2.78542,7.84778 -6.40428,9.52907c1.29826,-1.76434 2.10788,-3.91818 2.21874,-6.27037c0.29919,-6.34816 -4.60449,-11.73693 -10.95265,-12.03612c-1.31401,-0.06192 -2.58693,0.09904 -3.78213,0.44962c2.12993,-2.14238 5.1231,-3.41041 8.37841,-3.25697c6.11013,0.28796 10.82989,5.47465 10.54192,11.58477z" fill="url(#color-58)"/><path d="M248.92374,189.84351c-20.98213,5.42357 -42.38822,-7.18912 -47.81179,-28.17125c-5.42357,-20.98213 7.18912,-42.38822 28.17125,-47.81179c7.76756,-2.0078 15.59319,-1.54378 22.64456,0.9016c-0.8516,0.15882 -1.70361,0.34793 -2.55494,0.56798c-20.11987,5.20071 -32.21425,25.72706 -27.01355,45.84692c3.80777,14.73105 15.8311,25.15994 29.89531,27.64841c-1.08477,0.38444 -2.19554,0.72467 -3.33085,1.01815z" data-paper-data="{&quot;index&quot;:null}" fill="url(#color-59)"/><path d="M193.53746,135.06513c0.67222,-0.93415 1.39101,-1.8468 2.15662,-2.73499c14.14959,-16.41508 38.92713,-18.25165 55.34222,-4.10206c16.41508,14.14959 18.25165,38.92714 4.10206,55.34223c-5.23815,6.07685 -11.93283,10.15573 -19.12057,12.16528c0.60922,-0.61587 1.20155,-1.25685 1.77565,-1.92287c13.5681,-15.74049 11.80702,-39.49979 -3.93348,-53.06788c-11.52463,-9.93406 -27.3479,-11.65072 -40.3225,-5.67969z" data-paper-data="{&quot;index&quot;:null}" fill="url(#color-60)"/><path d="M227.33847,186.06681c-17.64792,-0.83176 -31.28009,-15.81248 -30.44832,-33.46039c0.01265,-0.26856 0.02859,-0.5362 0.04775,-0.80287c3.18853,11.71485 13.62785,20.57045 26.40956,21.17288c15.87041,0.74798 29.34228,-11.51117 30.09028,-27.38158c0.2723,-5.77763 -1.17928,-11.23738 -3.90138,-15.88106c7.30025,6.20013 11.74825,15.59753 11.26247,25.90472c-0.83176,17.64792 -15.81248,31.28009 -33.46039,30.44832z" fill="url(#color-61)"/><path d="M224.67714,178.48561c6.46621,-2.2456 11.24066,-8.24326 11.58263,-15.49894c0.44879,-9.52224 -6.90669,-17.60538 -16.42896,-18.05416c-9.0724,-0.42759 -16.83843,6.22917 -17.9401,15.09453c-0.26235,-1.54765 -0.36367,-3.14702 -0.28672,-4.77926c0.57745,-12.25196 10.97773,-21.71603 23.2297,-21.13858c12.25195,0.57745 21.71603,10.97773 21.13858,23.2297c-0.54678,11.60148 -9.90108,20.70324 -21.29513,21.14673z" fill="url(#color-62)"/><path d="M205.93266,152.19379c-2.8688,-11.25451 3.41593,-22.69334 14.18253,-26.4485c-5.5272,4.03787 -8.33964,11.16931 -6.54548,18.20799c2.35465,9.23745 11.75191,14.81705 20.98934,12.46242c8.80105,-2.24341 14.28173,-10.87972 12.74345,-19.67984c0.70336,1.40335 1.26781,2.90323 1.6714,4.48664c3.02965,11.8855 -4.14946,23.97663 -16.03495,27.00626c-11.8855,3.02965 -23.97663,-4.14946 -27.00626,-16.03495z" fill="url(#color-63)"/><path d="M210.25562,151.58271c0.39358,0.04564 0.79149,0.07816 1.19321,0.0971c9.52224,0.44879 17.60538,-6.90669 18.05416,-16.42896c0.05049,-1.07104 0.00224,-2.12387 -0.13675,-3.14966c4.55523,2.53015 7.53531,7.48991 7.27338,13.04753c-0.36801,7.80825 -6.99618,13.83977 -14.80442,13.47176c-4.98505,-0.23494 -9.24591,-3.02151 -11.5796,-7.03777z" fill="url(#color-64)"/></g><g data-paper-data="{&quot;index&quot;:null}" stroke-width="0"><path d="M235.31142,214.38804c10.13661,-4.62525 17.1816,-14.8493 17.1816,-26.71879c0,-16.2115 -13.14199,-29.35351 -29.35351,-29.35351c-0.68597,0 -1.36639,0.02353 -2.0406,0.06984c4.84838,-3.22361 10.66836,-5.10185 16.92703,-5.10185c16.90629,0 30.61151,13.70526 30.61151,30.61151c0,16.90627 -13.70525,30.61151 -30.61151,30.61151c-0.91477,0 -1.82016,-0.04012 -2.7145,-0.11869z" fill="url(#color-65)"/><path d="M167.15821,182.84687c0,-12.8534 10.41974,-23.27314 23.27314,-23.27314c8.95377,0 16.72658,5.05633 20.61883,12.46934c-3.07502,-3.52942 -7.60276,-5.75996 -12.65147,-5.75996c-9.2637,0 -16.77344,7.50974 -16.77344,16.77344c0,9.2637 7.50974,16.77344 16.77344,16.77344c4.72994,0 9.00261,-1.95778 12.05187,-5.1072c-4.057,6.82416 -11.50407,11.39725 -20.01924,11.39725c-12.8534,0 -23.27314,-10.41974 -23.27314,-23.27314z" fill="url(#color-66)"/><path d="M225.99471,231.28017c0,-10.42167 8.44844,-18.87011 18.87011,-18.87011c7.53508,0 14.03862,4.41649 17.06326,10.80206c-3.07519,-3.53522 -7.60674,-5.77004 -12.66023,-5.77004c-9.26371,0 -16.77344,7.50974 -16.77344,16.77344c0,7.40505 4.79855,13.68933 11.45576,15.913c-9.99689,-0.4771 -17.95547,-8.73332 -17.95547,-18.84835z" data-paper-data="{&quot;index&quot;:null}" fill="url(#color-67)"/><path d="M180.3105,225.12527c2.65805,1.76925 5.84971,2.80025 9.28216,2.80025c9.2637,0 16.77344,-7.50974 16.77344,-16.77344c0,-1.91753 -0.32175,-3.75989 -0.91424,-5.47607c3.26559,2.95422 5.31727,7.22539 5.31727,11.97578c0,8.91633 -7.22811,16.14444 -16.14444,16.14444c-6.21966,0 -11.61783,-3.51712 -14.31419,-8.67095z" fill="url(#color-68)"/><path d="M168.87709,236.38213c-0.63421,-1.55306 -1.20584,-3.14705 -1.71105,-4.77997c-9.33683,-30.17863 7.55878,-62.21225 37.7374,-71.54907c30.17863,-9.33683 62.21225,7.55878 71.54907,37.7374c3.45648,11.17208 3.3179,22.59836 0.24122,33.03326c-0.28969,-1.22904 -0.6235,-2.45667 -1.00233,-3.68113c-8.95314,-28.93842 -39.67028,-45.13969 -68.6087,-36.18655c-21.18768,6.55516 -35.54745,24.77728 -38.20562,45.42608z" data-paper-data="{&quot;index&quot;:null}" fill="url(#color-69)"/><path d="M247.25492,150.15086c24.872,19.47587 29.24644,55.42692 9.77058,80.29893c-19.47587,24.872 -55.42692,29.24644 -80.29893,9.77058c-9.20758,-7.20994 -15.60601,-16.67773 -19.02526,-27.00547c0.93852,0.84477 1.91247,1.66325 2.92163,2.45346c23.84987,18.67549 58.32348,14.48083 76.99898,-9.36904c13.67353,-17.46204 15.08718,-40.61912 5.50274,-59.10091c1.40628,0.91467 2.78449,1.89866 4.13027,2.95245z" data-paper-data="{&quot;index&quot;:null}" fill="url(#color-70)"/><path d="M217.81398,153.28371c0.39191,0 0.78267,0.00483 1.17229,0.01445c-16.83846,5.44653 -29.01619,21.2543 -29.01619,39.90632c0,23.15927 18.77429,41.93359 41.93359,41.93359c8.43115,0 16.28113,-2.4882 22.85571,-6.77036c-8.52668,11.05493 -21.9044,18.17629 -36.94539,18.17629c-25.75313,0 -46.63014,-20.87702 -46.63014,-46.63014c0,-25.75313 20.87702,-46.63014 46.63014,-46.63014z" fill="url(#color-71)"/><path d="M182.03972,195.51864c3.7134,9.26093 12.77388,15.80114 23.3619,15.80114c13.89557,0 25.16015,-11.26458 25.16015,-25.16015c0,-13.23912 -10.22542,-24.08998 -23.20935,-25.08564c2.23545,-0.48821 4.55725,-0.74545 6.93912,-0.74545c17.87897,0 32.37273,14.49376 32.37273,32.37273c0,17.87897 -14.49376,32.37273 -32.37273,32.37273c-16.92974,0 -30.8242,-12.99562 -32.25181,-29.55535z" fill="url(#color-72)"/><path d="M219.03529,166.42176c16.19011,-4.9494 33.2768,3.41642 39.48331,18.8353c-6.2586,-7.77071 -16.83529,-11.37636 -26.96072,-8.28096c-13.28848,4.06238 -20.76772,18.12802 -16.70537,31.4165c3.87045,12.66073 16.82136,20.04812 29.52914,17.20445c-1.99505,1.1204 -4.14021,2.04519 -6.41802,2.7415c-17.09785,5.2269 -35.19566,-4.3964 -40.42257,-21.49425c-5.2269,-17.09785 4.3964,-35.19566 21.49425,-40.42257z" fill="url(#color-73)"/><path d="M220.22172,172.67423c-0.03946,0.57621 -0.0595,1.15779 -0.0595,1.74402c0,13.89557 11.26458,25.16015 25.16015,25.16015c1.56292,0 3.09256,-0.14251 4.57665,-0.41523c-3.37139,6.80622 -10.38852,11.48571 -18.49859,11.48571c-11.39437,0 -20.63132,-9.23695 -20.63132,-20.63132c0,-7.27456 3.76496,-13.66975 9.45261,-17.34331z" fill="url(#color-74)"/></g><g data-paper-data="{&quot;index&quot;:null}" stroke-width="0"><path d="M273.89032,180.50572c10.13661,-4.62525 17.1816,-14.8493 17.1816,-26.71879c0,-16.2115 -13.14199,-29.35351 -29.35351,-29.35351c-0.68597,0 -1.36639,0.02353 -2.0406,0.06984c4.84838,-3.22361 10.66836,-5.10185 16.92703,-5.10185c16.90629,0 30.61151,13.70526 30.61151,30.61151c0,16.90627 -13.70525,30.61151 -30.61151,30.61151c-0.91477,0 -1.82016,-0.04012 -2.7145,-0.11869z" fill="url(#color-75)"/><path d="M205.73711,148.96454c0,-12.8534 10.41974,-23.27314 23.27314,-23.27314c8.95377,0 16.72658,5.05633 20.61883,12.46934c-3.07502,-3.52942 -7.60276,-5.75996 -12.65147,-5.75996c-9.2637,0 -16.77344,7.50974 -16.77344,16.77344c0,9.2637 7.50974,16.77344 16.77344,16.77344c4.72994,0 9.00261,-1.95778 12.05187,-5.1072c-4.057,6.82416 -11.50407,11.39725 -20.01924,11.39725c-12.8534,0 -23.27314,-10.41974 -23.27314,-23.27314z" fill="url(#color-76)"/><path d="M264.57358,197.39784c0,-10.42167 8.44844,-18.87011 18.87011,-18.87011c7.53508,0 14.03862,4.41649 17.06326,10.80206c-3.07519,-3.53522 -7.60674,-5.77004 -12.66023,-5.77004c-9.26371,0 -16.77344,7.50974 -16.77344,16.77344c0,7.40505 4.79855,13.68933 11.45576,15.913c-9.99689,-0.4771 -17.95547,-8.73332 -17.95547,-18.84835z" data-paper-data="{&quot;index&quot;:null}" fill="url(#color-77)"/><path d="M218.8894,191.24292c2.65805,1.76925 5.84971,2.80025 9.28216,2.80025c9.2637,0 16.77344,-7.50974 16.77344,-16.77344c0,-1.91753 -0.32175,-3.75989 -0.91424,-5.47607c3.26559,2.95422 5.31727,7.22539 5.31727,11.97578c0,8.91633 -7.22811,16.14444 -16.14444,16.14444c-6.21966,0 -11.61783,-3.51712 -14.31419,-8.67095z" fill="url(#color-78)"/><path d="M207.45599,202.49978c-0.63421,-1.55306 -1.20584,-3.14705 -1.71105,-4.77997c-9.33683,-30.17863 7.55878,-62.21225 37.7374,-71.54907c30.17863,-9.33683 62.21225,7.55878 71.54907,37.7374c3.45648,11.17208 3.3179,22.59836 0.24122,33.03326c-0.28969,-1.22904 -0.6235,-2.45667 -1.00233,-3.68113c-8.95314,-28.93842 -39.67028,-45.13969 -68.6087,-36.18655c-21.18768,6.55516 -35.54745,24.77728 -38.20562,45.42608z" data-paper-data="{&quot;index&quot;:null}" fill="url(#color-79)"/><path d="M285.83382,116.26851c24.872,19.47587 29.24644,55.42692 9.77058,80.29893c-19.47587,24.872 -55.42692,29.24644 -80.29893,9.77058c-9.20758,-7.20994 -15.60601,-16.67773 -19.02526,-27.00547c0.93852,0.84477 1.91247,1.66325 2.92163,2.45346c23.84987,18.67549 58.32348,14.48083 76.99898,-9.36904c13.67353,-17.46204 15.08718,-40.61912 5.50274,-59.10091c1.40628,0.91467 2.78449,1.89866 4.13027,2.95245z" data-paper-data="{&quot;index&quot;:null}" fill="url(#color-80)"/><path d="M256.39287,119.40139c0.39191,0 0.78267,0.00483 1.17229,0.01445c-16.83846,5.44653 -29.01619,21.2543 -29.01619,39.90632c0,23.15927 18.77429,41.93359 41.93359,41.93359c8.43115,0 16.28113,-2.4882 22.85571,-6.77036c-8.52668,11.05493 -21.9044,18.17629 -36.94539,18.17629c-25.75313,0 -46.63014,-20.87702 -46.63014,-46.63014c0,-25.75313 20.87702,-46.63014 46.63014,-46.63014z" fill="url(#color-81)"/><path d="M220.61861,161.63631c3.7134,9.26093 12.77388,15.80114 23.3619,15.80114c13.89557,0 25.16015,-11.26458 25.16015,-25.16015c0,-13.23912 -10.22542,-24.08998 -23.20935,-25.08564c2.23545,-0.48821 4.55725,-0.74545 6.93912,-0.74545c17.87897,0 32.37273,14.49376 32.37273,32.37273c0,17.87897 -14.49376,32.37273 -32.37273,32.37273c-16.92974,0 -30.8242,-12.99562 -32.25181,-29.55535z" fill="url(#color-82)"/><path d="M257.61417,132.53943c16.19011,-4.9494 33.2768,3.41642 39.48331,18.8353c-6.2586,-7.77071 -16.83529,-11.37636 -26.96072,-8.28096c-13.28848,4.06238 -20.76772,18.12802 -16.70537,31.4165c3.87045,12.66073 16.82136,20.04812 29.52914,17.20445c-1.99505,1.1204 -4.14021,2.04519 -6.41802,2.7415c-17.09785,5.2269 -35.19566,-4.3964 -40.42257,-21.49425c-5.2269,-17.09785 4.3964,-35.19566 21.49425,-40.42257z" fill="url(#color-83)"/><path d="M258.80061,138.79188c-0.03946,0.57621 -0.0595,1.15779 -0.0595,1.74402c0,13.89557 11.26458,25.16015 25.16015,25.16015c1.56292,0 3.09256,-0.14251 4.57665,-0.41523c-3.37139,6.80622 -10.38852,11.48571 -18.49859,11.48571c-11.39437,0 -20.63132,-9.23695 -20.63132,-20.63132c0,-7.27456 3.76496,-13.66975 9.45261,-17.34331z" fill="url(#color-84)"/></g></g></g></svg>