<svg version="1.1" xmlns="http://www.w3.org/2000/svg" xmlns:xlink="http://www.w3.org/1999/xlink" width="128.08075" height="99.14529" viewBox="0,0,128.08075,99.14529"><defs><radialGradient cx="280.24999" cy="178.15" r="46.83333" gradientUnits="userSpaceOnUse" id="color-1"><stop offset="0" stop-color="#ff9400" stop-opacity="0"/><stop offset="1" stop-color="#ff9400"/></radialGradient><radialGradient cx="273.14396" cy="184.98752" r="7.2244" gradientUnits="userSpaceOnUse" id="color-2"><stop offset="0" stop-color="#ff6f00"/><stop offset="1" stop-color="#ff6f00" stop-opacity="0"/></radialGradient><radialGradient cx="284.37641" cy="185.23493" r="5.49252" gradientUnits="userSpaceOnUse" id="color-3"><stop offset="0" stop-color="#ff6f00"/><stop offset="1" stop-color="#ff6f00" stop-opacity="0"/></radialGradient><radialGradient cx="271.52996" cy="173.80455" r="4.4534" gradientUnits="userSpaceOnUse" id="color-4"><stop offset="0" stop-color="#ff6f00"/><stop offset="1" stop-color="#ff6f00" stop-opacity="0"/></radialGradient><radialGradient cx="283.38677" cy="177.02089" r="3.81013" gradientUnits="userSpaceOnUse" id="color-5"><stop offset="0" stop-color="#ff6f00"/><stop offset="1" stop-color="#ff6f00" stop-opacity="0"/></radialGradient><radialGradient cx="276.97113" cy="177.71839" r="13.49904" gradientUnits="userSpaceOnUse" id="color-6"><stop offset="0" stop-color="#ff6f00"/><stop offset="1" stop-color="#ff6f00" stop-opacity="0"/></radialGradient><radialGradient cx="279.28833" cy="182.32296" r="13.49904" gradientUnits="userSpaceOnUse" id="color-7"><stop offset="0" stop-color="#ff6f00"/><stop offset="1" stop-color="#ff6f00" stop-opacity="0"/></radialGradient><radialGradient cx="277.91403" cy="181.20708" r="11.00484" gradientUnits="userSpaceOnUse" id="color-8"><stop offset="0" stop-color="#ff6f00"/><stop offset="1" stop-color="#ff6f00" stop-opacity="0"/></radialGradient><radialGradient cx="278.74533" cy="182.90927" r="7.64005" gradientUnits="userSpaceOnUse" id="color-9"><stop offset="0" stop-color="#ff6f00"/><stop offset="1" stop-color="#ff6f00" stop-opacity="0"/></radialGradient><radialGradient cx="275.39223" cy="181.80504" r="7.64005" gradientUnits="userSpaceOnUse" id="color-10"><stop offset="0" stop-color="#ff6f00"/><stop offset="1" stop-color="#ff6f00" stop-opacity="0"/></radialGradient><radialGradient cx="274.7076" cy="183.54264" r="4.86905" gradientUnits="userSpaceOnUse" id="color-11"><stop offset="0" stop-color="#ff6f00"/><stop offset="1" stop-color="#ff6f00" stop-opacity="0"/></radialGradient><radialGradient cx="248.89085" cy="181.53023" r="48.93173" gradientUnits="userSpaceOnUse" id="color-12"><stop offset="0" stop-color="#ff9b00"/><stop offset="1" stop-color="#ff9b00" stop-opacity="0"/></radialGradient><radialGradient cx="278.26676" cy="180.68361" r="13.04247" gradientUnits="userSpaceOnUse" id="color-13"><stop offset="0" stop-color="#ff9b00"/><stop offset="1" stop-color="#ff9b00" stop-opacity="0"/></radialGradient><radialGradient cx="269.14323" cy="188.46615" r="14.71083" gradientUnits="userSpaceOnUse" id="color-14"><stop offset="0" stop-color="#ff6f00"/><stop offset="1" stop-color="#ff6f00" stop-opacity="0"/></radialGradient><radialGradient cx="292.01553" cy="188.96994" r="11.18426" gradientUnits="userSpaceOnUse" id="color-15"><stop offset="0" stop-color="#ff6f00"/><stop offset="1" stop-color="#ff6f00" stop-opacity="0"/></radialGradient><radialGradient cx="265.8567" cy="165.69458" r="9.06832" gradientUnits="userSpaceOnUse" id="color-16"><stop offset="0" stop-color="#ff6f00"/><stop offset="1" stop-color="#ff6f00" stop-opacity="0"/></radialGradient><radialGradient cx="290.00036" cy="172.24393" r="7.75845" gradientUnits="userSpaceOnUse" id="color-17"><stop offset="0" stop-color="#ff6f00"/><stop offset="1" stop-color="#ff6f00" stop-opacity="0"/></radialGradient><radialGradient cx="276.93639" cy="173.66423" r="27.4877" gradientUnits="userSpaceOnUse" id="color-18"><stop offset="0" stop-color="#ff6f00"/><stop offset="1" stop-color="#ff6f00" stop-opacity="0"/></radialGradient><radialGradient cx="281.65483" cy="183.04038" r="27.4877" gradientUnits="userSpaceOnUse" id="color-19"><stop offset="0" stop-color="#ff6f00"/><stop offset="1" stop-color="#ff6f00" stop-opacity="0"/></radialGradient><radialGradient cx="278.85639" cy="180.76815" r="22.40882" gradientUnits="userSpaceOnUse" id="color-20"><stop offset="0" stop-color="#ff6f00"/><stop offset="1" stop-color="#ff6f00" stop-opacity="0"/></radialGradient><radialGradient cx="280.54914" cy="184.23427" r="15.5572" gradientUnits="userSpaceOnUse" id="color-21"><stop offset="0" stop-color="#ff6f00"/><stop offset="1" stop-color="#ff6f00" stop-opacity="0"/></radialGradient><radialGradient cx="273.72132" cy="181.98575" r="15.5572" gradientUnits="userSpaceOnUse" id="color-22"><stop offset="0" stop-color="#ff6f00"/><stop offset="1" stop-color="#ff6f00" stop-opacity="0"/></radialGradient><radialGradient cx="272.32722" cy="185.52398" r="9.91469" gradientUnits="userSpaceOnUse" id="color-23"><stop offset="0" stop-color="#ff6f00"/><stop offset="1" stop-color="#ff6f00" stop-opacity="0"/></radialGradient></defs><g transform="translate(-199.00257,-131.31667)"><g data-paper-data="{&quot;isPaintingLayer&quot;:true}" fill-rule="nonzero" stroke-linecap="butt" stroke-linejoin="miter" stroke-miterlimit="10" stroke-dasharray="" stroke-dashoffset="0" style="mix-blend-mode: normal"><path d="M233.41666,178.15c0,-25.86534 20.968,-46.83333 46.83333,-46.83333c25.86534,0 46.83333,20.968 46.83333,46.83333c0,25.86534 -20.968,46.83333 -46.83333,46.83333c-25.86534,0 -46.83333,-20.968 -46.83333,-46.83333z" fill="url(#color-1)" stroke="none" stroke-width="0"/><g data-paper-data="{&quot;index&quot;:null}" stroke="none" stroke-width="0"><path d="M273.78459,177.79113c-2.39227,1.09157 -4.0549,3.50447 -4.0549,6.3057c0,3.82596 3.10155,6.92751 6.92751,6.92751c0.16189,0 0.32247,-0.00555 0.48159,-0.01648c-1.14423,0.76078 -2.51776,1.20405 -3.99482,1.20405c-3.98993,0 -7.2244,-3.23448 -7.2244,-7.2244c0,-3.98992 3.23447,-7.2244 7.2244,-7.2244c0.21589,0 0.42956,0.00947 0.64063,0.02801z" fill="url(#color-2)"/><path d="M289.86893,185.23494c0,3.03344 -2.45909,5.49252 -5.49252,5.49252c-2.11311,0 -3.94752,-1.1933 -4.8661,-2.9428c0.72571,0.83295 1.79427,1.35937 2.98578,1.35937c2.18626,0 3.95857,-1.77232 3.95857,-3.95857c0,-2.18626 -1.77232,-3.95857 -3.95857,-3.95857c-1.11628,0 -2.12464,0.46204 -2.84427,1.20531c0.95746,-1.61052 2.71499,-2.68978 4.72459,-2.68978c3.03344,0 5.49252,2.45909 5.49252,5.49252z" fill="url(#color-3)"/><path d="M275.98336,173.80455c0,2.45954 -1.99385,4.4534 -4.4534,4.4534c-1.7783,0 -3.31315,-1.0423 -4.02697,-2.54931c0.72575,0.83432 1.79521,1.36174 2.98785,1.36174c2.18626,0 3.95857,-1.77232 3.95857,-3.95857c0,-1.74761 -1.13247,-3.23072 -2.70359,-3.75551c2.35929,0.1126 4.23754,2.06109 4.23754,4.44826z" data-paper-data="{&quot;index&quot;:null}" fill="url(#color-4)"/><path d="M286.76495,175.25712c-0.62731,-0.41755 -1.38055,-0.66087 -2.19062,-0.66087c-2.18626,0 -3.95857,1.77232 -3.95857,3.95857c0,0.45254 0.07593,0.88735 0.21576,1.29237c-0.77069,-0.6972 -1.25489,-1.70521 -1.25489,-2.82632c0,-2.10428 1.70585,-3.81013 3.81013,-3.81013c1.46786,0 2.74184,0.83005 3.37819,2.04637z" fill="url(#color-5)"/><path d="M289.46327,172.60047c0.14967,0.36653 0.28458,0.74272 0.40381,1.12809c2.20352,7.12224 -1.78389,14.68225 -8.90613,16.88577c-7.12224,2.20352 -14.68225,-1.78389 -16.88577,-8.90613c-0.81574,-2.63664 -0.78303,-5.33327 -0.05693,-7.79594c0.06837,0.29006 0.14715,0.57978 0.23655,0.86876c2.11296,6.82954 9.36229,10.65309 16.19184,8.54012c5.00035,-1.54703 8.38929,-5.8475 9.01663,-10.72068z" data-paper-data="{&quot;index&quot;:null}" fill="url(#color-6)"/><path d="M270.96589,192.95128c-5.86986,-4.59636 -6.90224,-13.0809 -2.30588,-18.95076c4.59636,-5.86986 13.0809,-6.90224 18.95076,-2.30588c2.17301,1.70157 3.68306,3.93599 4.49001,6.37336c-0.22149,-0.19937 -0.45135,-0.39253 -0.68951,-0.57902c-5.62863,-4.40747 -13.7645,-3.41752 -18.17196,2.21112c-3.22699,4.12109 -3.56062,9.58622 -1.29866,13.94797c-0.33189,-0.21587 -0.65715,-0.44809 -0.97475,-0.69678z" data-paper-data="{&quot;index&quot;:null}" fill="url(#color-7)"/><path d="M277.91403,192.21192c-0.09249,0 -0.18472,-0.00114 -0.27666,-0.00341c3.97392,-1.2854 6.84789,-5.01607 6.84789,-9.418c0,-5.46565 -4.43079,-9.89644 -9.89644,-9.89644c-1.98977,0 -3.84239,0.58722 -5.39401,1.59782c2.01232,-2.60899 5.16949,-4.28965 8.71921,-4.28965c6.07781,0 11.00484,4.92703 11.00484,11.00484c0,6.07781 -4.92703,11.00484 -11.00484,11.00484z" fill="url(#color-8)"/><path d="M286.35685,182.24436c-0.87637,-2.1856 -3.01467,-3.72911 -5.51347,-3.72911c-3.27939,0 -5.93786,2.65847 -5.93786,5.93786c0,3.12447 2.41323,5.6853 5.47747,5.92028c-0.52757,0.11522 -1.07552,0.17593 -1.63765,0.17593c-4.21948,0 -7.64005,-3.42056 -7.64005,-7.64005c0,-4.21948 3.42056,-7.64005 7.64005,-7.64005c3.99546,0 7.27459,3.067 7.61152,6.97514z" fill="url(#color-9)"/><path d="M277.6258,189.11131c-3.82091,1.16807 -7.85342,-0.80628 -9.31816,-4.44518c1.47705,1.83391 3.97317,2.68485 6.3628,1.95433c3.13612,-0.95873 4.90124,-4.27826 3.94251,-7.41438c-0.91344,-2.98796 -3.96989,-4.73141 -6.96896,-4.06029c0.47084,-0.26442 0.9771,-0.48267 1.51467,-0.64701c4.03514,-1.23356 8.30627,1.03756 9.53983,5.0727c1.23356,4.03514 -1.03756,8.30627 -5.0727,9.53983z" fill="url(#color-10)"/><path d="M277.3458,187.63571c0.00931,-0.13599 0.01404,-0.27324 0.01404,-0.41159c0,-3.27939 -2.65847,-5.93786 -5.93786,-5.93786c-0.36886,0 -0.72985,0.03363 -1.0801,0.098c0.79566,-1.60629 2.45172,-2.71066 4.36572,-2.71066c2.6891,0 4.86905,2.17995 4.86905,4.86905c0,1.71681 -0.88854,3.2261 -2.23084,4.09307z" fill="url(#color-11)"/></g><path d="M199.95912,181.53023c0,-27.02425 21.90748,-48.93173 48.93173,-48.93173c27.02425,0 48.93173,21.90748 48.93173,48.93173c0,27.02425 -21.90748,48.93173 -48.93173,48.93173c-27.02425,0 -48.93173,-21.90748 -48.93173,-48.93173z" fill="url(#color-12)" stroke="none" stroke-width="5"/><path d="M265.2243,180.68361c0,-7.20316 5.83931,-13.04247 13.04247,-13.04247c7.20316,0 13.04247,5.83931 13.04247,13.04247c0,7.20316 -5.83931,13.04247 -13.04247,13.04247c-7.20316,0 -13.04247,-5.83931 -13.04247,-13.04247z" fill="url(#color-13)" stroke="none" stroke-width="5"/><path d="M230.03174,180.17992c0,-9.47947 7.68463,-17.1641 17.1641,-17.1641c9.47947,0 17.1641,7.68463 17.1641,17.1641c0,9.47947 -7.68463,17.1641 -17.1641,17.1641c-9.47947,0 -17.1641,-7.68463 -17.1641,-17.1641z" fill="#f9ff00" stroke="#b4b700" stroke-width="5"/><path d="M260.27536,174.52286c0,-0.89892 0.72872,-1.62763 1.62763,-1.62763c0.89892,0 1.62763,0.72872 1.62763,1.62763c0,0.89892 -0.72872,1.62763 -1.62763,1.62763c-0.89892,0 -1.62763,-0.72872 -1.62763,-1.62763z" fill="#454600" stroke="#000000" stroke-width="5"/><path d="M260.2445,185.73745c0,-0.89891 0.72872,-1.62763 1.62763,-1.62763c0.89891,0 1.62763,0.72871 1.62763,1.62763c0,0.89891 -0.72872,1.62763 -1.62763,1.62763c-0.89891,0 -1.62763,-0.72872 -1.62763,-1.62763z" fill="#454600" stroke="#000000" stroke-width="5"/><path d="M267.24024,180.09106c0,-5.56382 4.51036,-10.07418 10.07418,-10.07418c5.56382,0 10.07418,4.51036 10.07418,10.07418c0,5.56382 -4.51036,10.07418 -10.07418,10.07418c-5.56382,0 -10.07418,-4.51036 -10.07418,-10.07418z" fill="#f6ff00" stroke="none" stroke-width="0"/><g data-paper-data="{&quot;index&quot;:null}" stroke="none" stroke-width="0"><path d="M270.44773,173.81236c-4.87131,2.22274 -8.25688,7.13606 -8.25688,12.84012c0,7.79068 6.31559,14.10627 14.10627,14.10627c0.32965,0 0.65664,-0.01131 0.98064,-0.03356c-2.32996,1.54915 -5.12684,2.45178 -8.13454,2.45178c-8.12457,0 -14.71083,-6.58627 -14.71083,-14.71083c0,-8.12456 6.58626,-14.71083 14.71083,-14.71083c0.43961,0 0.8747,0.01928 1.3045,0.05705z" fill="url(#color-14)"/><path d="M303.19979,188.96995c0,6.1769 -5.00736,11.18426 -11.18426,11.18426c-4.30287,0 -8.03821,-2.42989 -9.9087,-5.99233c1.47775,1.69611 3.65362,2.76804 6.07985,2.76804c4.45181,0 8.06073,-3.60892 8.06073,-8.06073c0,-4.45181 -3.60892,-8.06073 -8.06073,-8.06073c-2.27304,0 -4.32634,0.94084 -5.79171,2.45434c1.94965,-3.27946 5.52846,-5.47712 9.62055,-5.47712c6.1769,0 11.18426,5.00736 11.18426,11.18426z" fill="url(#color-15)"/><path d="M274.92502,165.69458c0,5.00829 -4.06003,9.06832 -9.06832,9.06832c-3.6211,0 -6.74647,-2.12241 -8.20001,-5.19109c1.47783,1.6989 3.65553,2.77287 6.08407,2.77287c4.45182,0 8.06073,-3.60892 8.06073,-8.06073c0,-3.55861 -2.30601,-6.57862 -5.50523,-7.64723c4.80415,0.22928 8.62877,4.19693 8.62877,9.05786z" data-paper-data="{&quot;index&quot;:null}" fill="url(#color-16)"/><path d="M296.87926,168.65243c-1.27737,-0.85024 -2.81116,-1.34571 -4.46069,-1.34571c-4.45181,0 -8.06073,3.60892 -8.06073,8.06073c0,0.92149 0.15462,1.80688 0.43935,2.63161c-1.56933,-1.4197 -2.55529,-3.47227 -2.55529,-5.75514c0,-4.28487 3.47358,-7.75845 7.75845,-7.75845c2.98895,0 5.58313,1.69021 6.8789,4.16696z" fill="url(#color-17)"/><path d="M302.37375,163.24278c0.30478,0.74635 0.57949,1.51237 0.82227,2.29709c4.48696,14.5028 -3.63249,29.89704 -18.13528,34.38399c-14.5028,4.48696 -29.89704,-3.63249 -34.38399,-18.13528c-1.66107,-5.36891 -1.59447,-10.85998 -0.11592,-15.87464c0.13922,0.59063 0.29963,1.18059 0.48168,1.76902c4.30257,13.90679 19.06416,21.69256 32.97095,17.39c10.18206,-3.15018 17.08287,-11.9071 18.36029,-21.83019z" data-paper-data="{&quot;index&quot;:null}" fill="url(#color-18)"/><path d="M264.7081,204.68252c-11.95262,-9.35942 -14.05482,-26.63625 -4.6954,-38.58887c9.35942,-11.95262 26.63625,-14.05482 38.58887,-4.6954c4.42484,3.46485 7.49971,8.01473 9.14287,12.97788c-0.45102,-0.40597 -0.91907,-0.7993 -1.40403,-1.17905c-11.46142,-8.97479 -28.02824,-6.95899 -37.00303,4.50243c-6.57102,8.39164 -7.25037,19.52013 -2.64443,28.40184c-0.67581,-0.43956 -1.33813,-0.91243 -1.98486,-1.41884z" data-paper-data="{&quot;index&quot;:null}" fill="url(#color-19)"/><path d="M278.85639,203.17698c-0.18834,0 -0.37613,-0.00232 -0.56336,-0.00694c8.09198,-2.61741 13.94416,-10.21408 13.94416,-19.17759c0,-11.12954 -9.02228,-20.15182 -20.15182,-20.15182c-4.05172,0 -7.82414,1.19574 -10.98366,3.2536c4.09762,-5.31262 10.52649,-8.73489 17.75467,-8.73489c12.37605,0 22.40882,10.03277 22.40882,22.40882c0,12.37605 -10.03277,22.40882 -22.40882,22.40882z" fill="url(#color-20)"/><path d="M296.04825,182.88034c-1.78453,-4.45048 -6.13868,-7.59348 -11.22692,-7.59348c-6.67772,0 -12.09109,5.41337 -12.09109,12.09109c0,6.36226 4.91398,11.5768 11.1536,12.05529c-1.07428,0.23462 -2.19005,0.35823 -3.3347,0.35823c-8.59201,0 -15.5572,-6.96519 -15.5572,-15.5572c0,-8.59201 6.96519,-15.5572 15.5572,-15.5572c8.13585,0 14.81304,6.24524 15.4991,14.20328z" fill="url(#color-21)"/><path d="M278.26947,196.86329c-7.78041,2.37851 -15.99168,-1.64181 -18.9743,-9.05159c3.00767,3.73433 8.09045,5.46708 12.95639,3.97954c6.38598,-1.95224 9.98024,-8.7117 8.02802,-15.09768c-1.86,-6.0843 -8.08376,-9.63443 -14.19068,-8.26786c0.95875,-0.53842 1.98964,-0.98284 3.08428,-1.31748c8.21663,-2.51187 16.91381,2.11276 19.42568,10.32939c2.51187,8.21663 -2.11276,16.91381 -10.32939,19.42568z" fill="url(#color-22)"/><path d="M277.69931,193.85857c0.01896,-0.27691 0.02859,-0.55639 0.02859,-0.83811c0,-6.67772 -5.41337,-12.09109 -12.09109,-12.09109c-0.75109,0 -1.48618,0.06848 -2.19938,0.19955c1.62017,-3.27083 4.99236,-5.51963 8.88978,-5.51963c5.47573,0 9.91469,4.43896 9.91469,9.91469c0,3.4959 -1.80931,6.5692 -4.5426,8.33459z" fill="url(#color-23)"/></g><path d="M204.16923,161.00002c0,-4.32481 3.50595,-7.83077 7.83077,-7.83077c4.32481,0 7.83077,3.50595 7.83077,7.83077c0,4.32481 -3.50595,7.83077 -7.83077,7.83077c-4.32481,0 -7.83077,-3.50595 -7.83077,-7.83077z" fill="#f9ff00" stroke="#b4b700" stroke-width="5"/><path d="M201.50257,203.33335c0,-4.32481 3.50595,-7.83077 7.83077,-7.83077c4.32481,0 7.83077,3.50595 7.83077,7.83077c0,4.32481 -3.50595,7.83077 -7.83077,7.83077c-4.32481,0 -7.83077,-3.50595 -7.83077,-7.83077z" fill="#f9ff00" stroke="#b4b700" stroke-width="5"/></g></g></svg>