<svg version="1.1" xmlns="http://www.w3.org/2000/svg" xmlns:xlink="http://www.w3.org/1999/xlink" width="71.4015" height="68.04094" viewBox="0,0,71.4015,68.04094"><defs><radialGradient cx="248.49099" cy="187.35746" r="22.82355" gradientUnits="userSpaceOnUse" id="color-1"><stop offset="0" stop-color="#ff9300"/><stop offset="1" stop-color="#ff9300" stop-opacity="0"/></radialGradient><radialGradient cx="236.02028" cy="170.31415" r="22.82355" gradientUnits="userSpaceOnUse" id="color-2"><stop offset="0" stop-color="#ff9300"/><stop offset="1" stop-color="#ff9300" stop-opacity="0"/></radialGradient><radialGradient cx="249.38632" cy="191.20538" r="17.39019" gradientUnits="userSpaceOnUse" id="color-3"><stop offset="0" stop-color="#ffb82b"/><stop offset="1" stop-color="#ffb82b" stop-opacity="0"/></radialGradient><radialGradient cx="235.27047" cy="168.79462" r="17.39019" gradientUnits="userSpaceOnUse" id="color-4"><stop offset="0" stop-color="#ffb82b"/><stop offset="1" stop-color="#ffb82b" stop-opacity="0"/></radialGradient><radialGradient cx="257.91633" cy="184.30917" r="13.27912" gradientUnits="userSpaceOnUse" id="color-5"><stop offset="0" stop-color="#ff6f00"/><stop offset="1" stop-color="#ff6f00" stop-opacity="0"/></radialGradient><radialGradient cx="237.27004" cy="183.85441" r="10.09577" gradientUnits="userSpaceOnUse" id="color-6"><stop offset="0" stop-color="#ff6f00"/><stop offset="1" stop-color="#ff6f00" stop-opacity="0"/></radialGradient><radialGradient cx="260.883" cy="204.86453" r="8.18576" gradientUnits="userSpaceOnUse" id="color-7"><stop offset="0" stop-color="#ff6f00"/><stop offset="1" stop-color="#ff6f00" stop-opacity="0"/></radialGradient><radialGradient cx="239.08908" cy="198.95259" r="7.00337" gradientUnits="userSpaceOnUse" id="color-8"><stop offset="0" stop-color="#ff6f00"/><stop offset="1" stop-color="#ff6f00" stop-opacity="0"/></radialGradient><radialGradient cx="250.88163" cy="197.67051" r="24.8125" gradientUnits="userSpaceOnUse" id="color-9"><stop offset="0" stop-color="#ff6f00"/><stop offset="1" stop-color="#ff6f00" stop-opacity="0"/></radialGradient><radialGradient cx="246.6224" cy="189.20688" r="24.8125" gradientUnits="userSpaceOnUse" id="color-10"><stop offset="0" stop-color="#ff6f00"/><stop offset="1" stop-color="#ff6f00" stop-opacity="0"/></radialGradient><radialGradient cx="249.14849" cy="191.25797" r="20.22792" gradientUnits="userSpaceOnUse" id="color-11"><stop offset="0" stop-color="#ff6f00"/><stop offset="1" stop-color="#ff6f00" stop-opacity="0"/></radialGradient><radialGradient cx="247.62048" cy="188.12919" r="14.04312" gradientUnits="userSpaceOnUse" id="color-12"><stop offset="0" stop-color="#ff6f00"/><stop offset="1" stop-color="#ff6f00" stop-opacity="0"/></radialGradient><radialGradient cx="253.78379" cy="190.15887" r="14.04312" gradientUnits="userSpaceOnUse" id="color-13"><stop offset="0" stop-color="#ff6f00"/><stop offset="1" stop-color="#ff6f00" stop-opacity="0"/></radialGradient><radialGradient cx="255.04222" cy="186.965" r="8.94976" gradientUnits="userSpaceOnUse" id="color-14"><stop offset="0" stop-color="#ff6f00"/><stop offset="1" stop-color="#ff6f00" stop-opacity="0"/></radialGradient><radialGradient cx="226.74047" cy="175.69083" r="13.27912" gradientUnits="userSpaceOnUse" id="color-15"><stop offset="0" stop-color="#ff6f00"/><stop offset="1" stop-color="#ff6f00" stop-opacity="0"/></radialGradient><radialGradient cx="247.38675" cy="176.14559" r="10.09577" gradientUnits="userSpaceOnUse" id="color-16"><stop offset="0" stop-color="#ff6f00"/><stop offset="1" stop-color="#ff6f00" stop-opacity="0"/></radialGradient><radialGradient cx="223.77379" cy="155.13548" r="8.18576" gradientUnits="userSpaceOnUse" id="color-17"><stop offset="0" stop-color="#ff6f00"/><stop offset="1" stop-color="#ff6f00" stop-opacity="0"/></radialGradient><radialGradient cx="245.56771" cy="161.04742" r="7.00337" gradientUnits="userSpaceOnUse" id="color-18"><stop offset="0" stop-color="#ff6f00"/><stop offset="1" stop-color="#ff6f00" stop-opacity="0"/></radialGradient><radialGradient cx="233.77517" cy="162.32949" r="24.8125" gradientUnits="userSpaceOnUse" id="color-19"><stop offset="0" stop-color="#ff6f00"/><stop offset="1" stop-color="#ff6f00" stop-opacity="0"/></radialGradient><radialGradient cx="238.0344" cy="170.79312" r="24.8125" gradientUnits="userSpaceOnUse" id="color-20"><stop offset="0" stop-color="#ff6f00"/><stop offset="1" stop-color="#ff6f00" stop-opacity="0"/></radialGradient><radialGradient cx="235.50831" cy="168.74203" r="20.22792" gradientUnits="userSpaceOnUse" id="color-21"><stop offset="0" stop-color="#ff6f00"/><stop offset="1" stop-color="#ff6f00" stop-opacity="0"/></radialGradient><radialGradient cx="237.03632" cy="171.87081" r="14.04312" gradientUnits="userSpaceOnUse" id="color-22"><stop offset="0" stop-color="#ff6f00"/><stop offset="1" stop-color="#ff6f00" stop-opacity="0"/></radialGradient><radialGradient cx="230.873" cy="169.84113" r="14.04312" gradientUnits="userSpaceOnUse" id="color-23"><stop offset="0" stop-color="#ff6f00"/><stop offset="1" stop-color="#ff6f00" stop-opacity="0"/></radialGradient><radialGradient cx="229.61458" cy="173.035" r="8.94976" gradientUnits="userSpaceOnUse" id="color-24"><stop offset="0" stop-color="#ff6f00"/><stop offset="1" stop-color="#ff6f00" stop-opacity="0"/></radialGradient><radialGradient cx="235.20199" cy="194.84325" r="9.10992" gradientUnits="userSpaceOnUse" id="color-25"><stop offset="0" stop-color="#f4ff2b"/><stop offset="1" stop-color="#f4ff2b" stop-opacity="0"/></radialGradient><radialGradient cx="236.18045" cy="180.70959" r="6.92603" gradientUnits="userSpaceOnUse" id="color-26"><stop offset="0" stop-color="#f4ff2b"/><stop offset="1" stop-color="#f4ff2b" stop-opacity="0"/></radialGradient><radialGradient cx="221.02014" cy="196.21235" r="5.6157" gradientUnits="userSpaceOnUse" id="color-27"><stop offset="0" stop-color="#f4ff2b"/><stop offset="1" stop-color="#f4ff2b" stop-opacity="0"/></radialGradient><radialGradient cx="225.77533" cy="181.4685" r="4.80454" gradientUnits="userSpaceOnUse" id="color-28"><stop offset="0" stop-color="#f4ff2b"/><stop offset="1" stop-color="#f4ff2b" stop-opacity="0"/></radialGradient><radialGradient cx="226.27303" cy="189.59102" r="17.0222" gradientUnits="userSpaceOnUse" id="color-29"><stop offset="0" stop-color="#f4ff2b"/><stop offset="1" stop-color="#f4ff2b" stop-opacity="0"/></radialGradient><radialGradient cx="232.21047" cy="186.94563" r="17.0222" gradientUnits="userSpaceOnUse" id="color-30"><stop offset="0" stop-color="#f4ff2b"/><stop offset="1" stop-color="#f4ff2b" stop-opacity="0"/></radialGradient><radialGradient cx="230.72335" cy="188.61044" r="13.87702" gradientUnits="userSpaceOnUse" id="color-31"><stop offset="0" stop-color="#f4ff2b"/><stop offset="1" stop-color="#f4ff2b" stop-opacity="0"/></radialGradient><radialGradient cx="232.91677" cy="187.66439" r="9.63405" gradientUnits="userSpaceOnUse" id="color-32"><stop offset="0" stop-color="#f4ff2b"/><stop offset="1" stop-color="#f4ff2b" stop-opacity="0"/></radialGradient><radialGradient cx="231.32681" cy="191.8224" r="9.63405" gradientUnits="userSpaceOnUse" id="color-33"><stop offset="0" stop-color="#f4ff2b"/><stop offset="1" stop-color="#f4ff2b" stop-opacity="0"/></radialGradient><radialGradient cx="233.47486" cy="192.78791" r="6.13983" gradientUnits="userSpaceOnUse" id="color-34"><stop offset="0" stop-color="#f4ff2b"/><stop offset="1" stop-color="#f4ff2b" stop-opacity="0"/></radialGradient><radialGradient cx="251.93732" cy="180.14526" r="9.10992" gradientUnits="userSpaceOnUse" id="color-35"><stop offset="0" stop-color="#f4ff2b"/><stop offset="1" stop-color="#f4ff2b" stop-opacity="0"/></radialGradient><radialGradient cx="252.91578" cy="166.0116" r="6.92603" gradientUnits="userSpaceOnUse" id="color-36"><stop offset="0" stop-color="#f4ff2b"/><stop offset="1" stop-color="#f4ff2b" stop-opacity="0"/></radialGradient><radialGradient cx="237.75547" cy="181.51436" r="5.6157" gradientUnits="userSpaceOnUse" id="color-37"><stop offset="0" stop-color="#f4ff2b"/><stop offset="1" stop-color="#f4ff2b" stop-opacity="0"/></radialGradient><radialGradient cx="242.51066" cy="166.77052" r="4.80454" gradientUnits="userSpaceOnUse" id="color-38"><stop offset="0" stop-color="#f4ff2b"/><stop offset="1" stop-color="#f4ff2b" stop-opacity="0"/></radialGradient><radialGradient cx="243.00836" cy="174.89303" r="17.0222" gradientUnits="userSpaceOnUse" id="color-39"><stop offset="0" stop-color="#f4ff2b"/><stop offset="1" stop-color="#f4ff2b" stop-opacity="0"/></radialGradient><radialGradient cx="248.9458" cy="172.24765" r="17.0222" gradientUnits="userSpaceOnUse" id="color-40"><stop offset="0" stop-color="#f4ff2b"/><stop offset="1" stop-color="#f4ff2b" stop-opacity="0"/></radialGradient><radialGradient cx="247.45868" cy="173.91246" r="13.87702" gradientUnits="userSpaceOnUse" id="color-41"><stop offset="0" stop-color="#f4ff2b"/><stop offset="1" stop-color="#f4ff2b" stop-opacity="0"/></radialGradient><radialGradient cx="249.6521" cy="172.96641" r="9.63405" gradientUnits="userSpaceOnUse" id="color-42"><stop offset="0" stop-color="#f4ff2b"/><stop offset="1" stop-color="#f4ff2b" stop-opacity="0"/></radialGradient><radialGradient cx="248.06214" cy="177.12441" r="9.63405" gradientUnits="userSpaceOnUse" id="color-43"><stop offset="0" stop-color="#f4ff2b"/><stop offset="1" stop-color="#f4ff2b" stop-opacity="0"/></radialGradient><radialGradient cx="250.21018" cy="178.08993" r="6.13983" gradientUnits="userSpaceOnUse" id="color-44"><stop offset="0" stop-color="#f4ff2b"/><stop offset="1" stop-color="#f4ff2b" stop-opacity="0"/></radialGradient><radialGradient cx="253.97466" cy="197.46269" r="9.10992" gradientUnits="userSpaceOnUse" id="color-45"><stop offset="0" stop-color="#f4ff2b"/><stop offset="1" stop-color="#f4ff2b" stop-opacity="0"/></radialGradient><radialGradient cx="254.95312" cy="183.32903" r="6.92603" gradientUnits="userSpaceOnUse" id="color-46"><stop offset="0" stop-color="#f4ff2b"/><stop offset="1" stop-color="#f4ff2b" stop-opacity="0"/></radialGradient><radialGradient cx="239.79281" cy="198.83178" r="5.6157" gradientUnits="userSpaceOnUse" id="color-47"><stop offset="0" stop-color="#f4ff2b"/><stop offset="1" stop-color="#f4ff2b" stop-opacity="0"/></radialGradient><radialGradient cx="244.548" cy="184.08795" r="4.80454" gradientUnits="userSpaceOnUse" id="color-48"><stop offset="0" stop-color="#f4ff2b"/><stop offset="1" stop-color="#f4ff2b" stop-opacity="0"/></radialGradient><radialGradient cx="245.0457" cy="192.21046" r="17.0222" gradientUnits="userSpaceOnUse" id="color-49"><stop offset="0" stop-color="#f4ff2b"/><stop offset="1" stop-color="#f4ff2b" stop-opacity="0"/></radialGradient><radialGradient cx="250.98314" cy="189.56508" r="17.0222" gradientUnits="userSpaceOnUse" id="color-50"><stop offset="0" stop-color="#f4ff2b"/><stop offset="1" stop-color="#f4ff2b" stop-opacity="0"/></radialGradient><radialGradient cx="249.49602" cy="191.22988" r="13.87702" gradientUnits="userSpaceOnUse" id="color-51"><stop offset="0" stop-color="#f4ff2b"/><stop offset="1" stop-color="#f4ff2b" stop-opacity="0"/></radialGradient><radialGradient cx="251.68944" cy="190.28384" r="9.63405" gradientUnits="userSpaceOnUse" id="color-52"><stop offset="0" stop-color="#f4ff2b"/><stop offset="1" stop-color="#f4ff2b" stop-opacity="0"/></radialGradient><radialGradient cx="250.09948" cy="194.44184" r="9.63405" gradientUnits="userSpaceOnUse" id="color-53"><stop offset="0" stop-color="#f4ff2b"/><stop offset="1" stop-color="#f4ff2b" stop-opacity="0"/></radialGradient><radialGradient cx="252.24753" cy="195.40736" r="6.13983" gradientUnits="userSpaceOnUse" id="color-54"><stop offset="0" stop-color="#f4ff2b"/><stop offset="1" stop-color="#f4ff2b" stop-opacity="0"/></radialGradient><radialGradient cx="230.68213" cy="162.53731" r="9.10992" gradientUnits="userSpaceOnUse" id="color-55"><stop offset="0" stop-color="#f4ff2b"/><stop offset="1" stop-color="#f4ff2b" stop-opacity="0"/></radialGradient><radialGradient cx="229.70367" cy="176.67097" r="6.92603" gradientUnits="userSpaceOnUse" id="color-56"><stop offset="0" stop-color="#f4ff2b"/><stop offset="1" stop-color="#f4ff2b" stop-opacity="0"/></radialGradient><radialGradient cx="244.86398" cy="161.16822" r="5.6157" gradientUnits="userSpaceOnUse" id="color-57"><stop offset="0" stop-color="#f4ff2b"/><stop offset="1" stop-color="#f4ff2b" stop-opacity="0"/></radialGradient><radialGradient cx="240.10879" cy="175.91205" r="4.80454" gradientUnits="userSpaceOnUse" id="color-58"><stop offset="0" stop-color="#f4ff2b"/><stop offset="1" stop-color="#f4ff2b" stop-opacity="0"/></radialGradient><radialGradient cx="239.61109" cy="167.78954" r="17.0222" gradientUnits="userSpaceOnUse" id="color-59"><stop offset="0" stop-color="#f4ff2b"/><stop offset="1" stop-color="#f4ff2b" stop-opacity="0"/></radialGradient><radialGradient cx="233.67365" cy="170.43492" r="17.0222" gradientUnits="userSpaceOnUse" id="color-60"><stop offset="0" stop-color="#f4ff2b"/><stop offset="1" stop-color="#f4ff2b" stop-opacity="0"/></radialGradient><radialGradient cx="235.16077" cy="168.77012" r="13.87702" gradientUnits="userSpaceOnUse" id="color-61"><stop offset="0" stop-color="#f4ff2b"/><stop offset="1" stop-color="#f4ff2b" stop-opacity="0"/></radialGradient><radialGradient cx="232.96735" cy="169.71616" r="9.63405" gradientUnits="userSpaceOnUse" id="color-62"><stop offset="0" stop-color="#f4ff2b"/><stop offset="1" stop-color="#f4ff2b" stop-opacity="0"/></radialGradient><radialGradient cx="234.55731" cy="165.55816" r="9.63405" gradientUnits="userSpaceOnUse" id="color-63"><stop offset="0" stop-color="#f4ff2b"/><stop offset="1" stop-color="#f4ff2b" stop-opacity="0"/></radialGradient><radialGradient cx="232.40927" cy="164.59264" r="6.13983" gradientUnits="userSpaceOnUse" id="color-64"><stop offset="0" stop-color="#f4ff2b"/><stop offset="1" stop-color="#f4ff2b" stop-opacity="0"/></radialGradient><radialGradient cx="239.14366" cy="181.68973" r="13.27912" gradientUnits="userSpaceOnUse" id="color-65"><stop offset="0" stop-color="#ff6f00"/><stop offset="1" stop-color="#ff6f00" stop-opacity="0"/></radialGradient><radialGradient cx="218.49737" cy="181.23497" r="10.09577" gradientUnits="userSpaceOnUse" id="color-66"><stop offset="0" stop-color="#ff6f00"/><stop offset="1" stop-color="#ff6f00" stop-opacity="0"/></radialGradient><radialGradient cx="242.11033" cy="202.24508" r="8.18576" gradientUnits="userSpaceOnUse" id="color-67"><stop offset="0" stop-color="#ff6f00"/><stop offset="1" stop-color="#ff6f00" stop-opacity="0"/></radialGradient><radialGradient cx="220.31641" cy="196.33314" r="7.00337" gradientUnits="userSpaceOnUse" id="color-68"><stop offset="0" stop-color="#ff6f00"/><stop offset="1" stop-color="#ff6f00" stop-opacity="0"/></radialGradient><radialGradient cx="232.10895" cy="195.05107" r="24.8125" gradientUnits="userSpaceOnUse" id="color-69"><stop offset="0" stop-color="#ff6f00"/><stop offset="1" stop-color="#ff6f00" stop-opacity="0"/></radialGradient><radialGradient cx="227.84973" cy="186.58744" r="24.8125" gradientUnits="userSpaceOnUse" id="color-70"><stop offset="0" stop-color="#ff6f00"/><stop offset="1" stop-color="#ff6f00" stop-opacity="0"/></radialGradient><radialGradient cx="230.37582" cy="188.63853" r="20.22792" gradientUnits="userSpaceOnUse" id="color-71"><stop offset="0" stop-color="#ff6f00"/><stop offset="1" stop-color="#ff6f00" stop-opacity="0"/></radialGradient><radialGradient cx="228.84781" cy="185.50975" r="14.04312" gradientUnits="userSpaceOnUse" id="color-72"><stop offset="0" stop-color="#ff6f00"/><stop offset="1" stop-color="#ff6f00" stop-opacity="0"/></radialGradient><radialGradient cx="235.01112" cy="187.53943" r="14.04312" gradientUnits="userSpaceOnUse" id="color-73"><stop offset="0" stop-color="#ff6f00"/><stop offset="1" stop-color="#ff6f00" stop-opacity="0"/></radialGradient><radialGradient cx="236.26955" cy="184.34555" r="8.94976" gradientUnits="userSpaceOnUse" id="color-74"><stop offset="0" stop-color="#ff6f00"/><stop offset="1" stop-color="#ff6f00" stop-opacity="0"/></radialGradient><radialGradient cx="255.87898" cy="166.99175" r="13.27912" gradientUnits="userSpaceOnUse" id="color-75"><stop offset="0" stop-color="#ff6f00"/><stop offset="1" stop-color="#ff6f00" stop-opacity="0"/></radialGradient><radialGradient cx="235.2327" cy="166.53698" r="10.09577" gradientUnits="userSpaceOnUse" id="color-76"><stop offset="0" stop-color="#ff6f00"/><stop offset="1" stop-color="#ff6f00" stop-opacity="0"/></radialGradient><radialGradient cx="258.84565" cy="187.54709" r="8.18576" gradientUnits="userSpaceOnUse" id="color-77"><stop offset="0" stop-color="#ff6f00"/><stop offset="1" stop-color="#ff6f00" stop-opacity="0"/></radialGradient><radialGradient cx="237.05174" cy="181.63516" r="7.00337" gradientUnits="userSpaceOnUse" id="color-78"><stop offset="0" stop-color="#ff6f00"/><stop offset="1" stop-color="#ff6f00" stop-opacity="0"/></radialGradient><radialGradient cx="248.84428" cy="180.35309" r="24.8125" gradientUnits="userSpaceOnUse" id="color-79"><stop offset="0" stop-color="#ff6f00"/><stop offset="1" stop-color="#ff6f00" stop-opacity="0"/></radialGradient><radialGradient cx="244.58505" cy="171.88946" r="24.8125" gradientUnits="userSpaceOnUse" id="color-80"><stop offset="0" stop-color="#ff6f00"/><stop offset="1" stop-color="#ff6f00" stop-opacity="0"/></radialGradient><radialGradient cx="247.11114" cy="173.94055" r="20.22792" gradientUnits="userSpaceOnUse" id="color-81"><stop offset="0" stop-color="#ff6f00"/><stop offset="1" stop-color="#ff6f00" stop-opacity="0"/></radialGradient><radialGradient cx="245.58313" cy="170.81177" r="14.04312" gradientUnits="userSpaceOnUse" id="color-82"><stop offset="0" stop-color="#ff6f00"/><stop offset="1" stop-color="#ff6f00" stop-opacity="0"/></radialGradient><radialGradient cx="251.74645" cy="172.84145" r="14.04312" gradientUnits="userSpaceOnUse" id="color-83"><stop offset="0" stop-color="#ff6f00"/><stop offset="1" stop-color="#ff6f00" stop-opacity="0"/></radialGradient><radialGradient cx="253.00487" cy="169.64757" r="8.94976" gradientUnits="userSpaceOnUse" id="color-84"><stop offset="0" stop-color="#ff6f00"/><stop offset="1" stop-color="#ff6f00" stop-opacity="0"/></radialGradient></defs><g transform="translate(-204.29925,-145.97953)"><g data-paper-data="{&quot;isPaintingLayer&quot;:true}" fill-rule="nonzero" stroke="none" stroke-linecap="butt" stroke-linejoin="miter" stroke-miterlimit="10" stroke-dasharray="" stroke-dashoffset="0" style="mix-blend-mode: normal"><path d="M271.31454,187.35746c0,12.6051 -10.21845,22.82355 -22.82355,22.82355c-12.6051,0 -22.82355,-10.21845 -22.82355,-22.82355c0,-12.6051 10.21845,-22.82355 22.82355,-22.82355c12.6051,0 22.82355,10.21845 22.82355,22.82355z" data-paper-data="{&quot;index&quot;:null}" fill="url(#color-1)" stroke-width="0.5"/><path d="M258.84383,170.31415c0,12.6051 -10.21845,22.82355 -22.82355,22.82355c-12.6051,0 -22.82355,-10.21845 -22.82355,-22.82355c0,-12.6051 10.21845,-22.82355 22.82355,-22.82355c12.6051,0 22.82355,10.21845 22.82355,22.82355z" data-paper-data="{&quot;index&quot;:null}" fill="url(#color-2)" stroke-width="0.5"/><path d="M266.77651,191.20538c0,9.60434 -7.78585,17.39019 -17.39019,17.39019c-9.60434,0 -17.39019,-7.78585 -17.39019,-17.39019c0,-9.60434 7.78585,-17.39019 17.39019,-17.39019c9.60434,0 17.39019,7.78585 17.39019,17.39019z" data-paper-data="{&quot;index&quot;:null}" fill="url(#color-3)" stroke-width="0"/><path d="M217.88028,168.79462c0,-9.60434 7.78585,-17.39019 17.39019,-17.39019c9.60434,0 17.39019,7.78585 17.39019,17.39019c0,9.60434 -7.78585,17.39019 -17.39019,17.39019c-9.60434,0 -17.39019,-7.78585 -17.39019,-17.39019z" data-paper-data="{&quot;index&quot;:null}" fill="url(#color-4)" stroke-width="0"/><g data-paper-data="{&quot;index&quot;:null}" stroke-width="0"><path d="M256.73879,197.5368c4.39721,-2.00641 7.45329,-6.44155 7.45329,-11.59047c0,-7.03247 -5.70093,-12.7334 -12.7334,-12.7334c-0.29757,0 -0.59274,0.01021 -0.8852,0.03029c2.1032,-1.39838 4.62788,-2.21316 7.34286,-2.21316c7.33386,0 13.27912,5.94527 13.27912,13.27912c0,7.33385 -5.94526,13.27912 -13.27912,13.27912c-0.39682,0 -0.78957,-0.0174 -1.17754,-0.05149z" fill="url(#color-5)"/><path d="M227.17427,183.8544c0,-5.57574 4.52003,-10.09577 10.09577,-10.09577c3.8841,0 7.25591,2.1934 8.94435,5.40913c-1.33393,-1.53104 -3.29804,-2.49864 -5.48814,-2.49864c-4.01854,0 -7.27623,3.25768 -7.27623,7.27623c0,4.01854 3.25768,7.27623 7.27623,7.27623c2.05182,0 3.90528,-0.84927 5.22804,-2.21547c-1.7599,2.96029 -4.99041,4.94407 -8.68424,4.94407c-5.57574,0 -10.09577,-4.52003 -10.09577,-10.09577z" fill="url(#color-6)"/><path d="M252.69724,204.86453c0,-4.52087 3.66489,-8.18576 8.18576,-8.18576c3.26868,0 6.08988,1.91585 7.40195,4.68588c-1.334,-1.53356 -3.29976,-2.50301 -5.49194,-2.50301c-4.01855,0 -7.27623,3.25768 -7.27623,7.27623c0,3.21227 2.08158,5.93836 4.96945,6.90297c-4.3366,-0.20697 -7.78898,-3.78847 -7.78898,-8.17631z" data-paper-data="{&quot;index&quot;:null}" fill="url(#color-7)"/><path d="M232.87967,202.19455c1.15305,0.76749 2.53757,1.21474 4.02656,1.21474c4.01854,0 7.27623,-3.25768 7.27623,-7.27623c0,-0.83181 -0.13957,-1.63102 -0.39659,-2.37549c1.41659,1.28153 2.3066,3.13434 2.3066,5.19503c0,3.86785 -3.13552,7.00337 -7.00337,7.00337c-2.69805,0 -5.03976,-1.52571 -6.20942,-3.76142z" fill="url(#color-8)"/><path d="M227.91992,207.07771c-0.27511,-0.67371 -0.52309,-1.36518 -0.74224,-2.07353c-4.05027,-13.09133 3.27896,-26.98735 16.37029,-31.03762c13.09133,-4.05027 26.98735,3.27896 31.03762,16.37029c1.49941,4.84639 1.43929,9.80305 0.10464,14.32966c-0.12567,-0.53315 -0.27047,-1.06569 -0.43481,-1.59686c-3.88383,-12.55334 -17.20877,-19.58137 -29.7621,-15.69754c-9.19111,2.84359 -15.4203,10.74826 -16.5734,19.7056z" data-paper-data="{&quot;index&quot;:null}" fill="url(#color-9)"/><path d="M261.91982,169.67104c10.78935,8.44853 12.68696,24.04392 4.23843,34.83327c-8.44853,10.78935 -24.04392,12.68696 -34.83327,4.23843c-3.9942,-3.12764 -6.76981,-7.23471 -8.25306,-11.71483c0.40713,0.36646 0.82962,0.72151 1.26739,1.0643c10.34595,8.10133 25.30043,6.28171 33.40176,-4.06424c5.93151,-7.57494 6.54474,-17.62036 2.38706,-25.63768c0.61004,0.39678 1.2079,0.82363 1.79168,1.28075z" data-paper-data="{&quot;index&quot;:null}" fill="url(#color-10)"/><path d="M249.14849,171.03005c0.17001,0 0.33952,0.0021 0.50853,0.00626c-7.30444,2.36268 -12.58707,9.22001 -12.58707,17.31116c0,10.04638 8.1442,18.19057 18.19057,18.19057c3.65739,0 7.06267,-1.07937 9.91469,-2.93695c-3.69883,4.79557 -9.50201,7.88478 -16.02672,7.88478c-11.17157,0 -20.22792,-9.05634 -20.22792,-20.22792c0,-11.17157 9.05634,-20.22792 20.22792,-20.22792z" fill="url(#color-11)"/><path d="M233.6298,189.35135c1.61086,4.01734 5.54124,6.85446 10.13427,6.85446c6.02782,0 10.91434,-4.88652 10.91434,-10.91434c0,-5.74306 -4.43573,-10.45011 -10.0681,-10.88202c0.96972,-0.21178 1.97691,-0.32337 3.01015,-0.32337c7.75581,0 14.04312,6.28732 14.04312,14.04312c0,7.75581 -6.28732,14.04312 -14.04312,14.04312c-7.34404,0 -13.37138,-5.63743 -13.99067,-12.82096z" fill="url(#color-12)"/><path d="M249.67828,176.72927c7.02319,-2.14703 14.43531,1.48202 17.12765,8.17066c-2.71495,-3.37089 -7.30306,-4.93501 -11.69542,-3.59224c-5.76448,1.76224 -9.00893,7.86384 -7.2467,13.62832c1.67898,5.49216 7.29702,8.69677 12.80959,7.4632c-0.86544,0.48602 -1.796,0.88719 -2.7841,1.18926c-7.41696,2.2674 -15.2677,-1.90714 -17.5351,-9.32409c-2.2674,-7.41696 1.90714,-15.2677 9.32409,-17.5351z" fill="url(#color-13)"/><path d="M250.19295,179.44156c-0.01711,0.24996 -0.02581,0.50224 -0.02581,0.75655c0,6.02782 4.88652,10.91434 10.91434,10.91434c0.67799,0 1.34154,-0.06182 1.98533,-0.18013c-1.46249,2.9525 -4.50649,4.98244 -8.0246,4.98244c-4.94282,0 -8.94976,-4.00695 -8.94976,-8.94976c0,-3.15566 1.63322,-5.92986 4.1005,-7.52344z" fill="url(#color-14)"/></g><g data-paper-data="{&quot;index&quot;:null}" stroke-width="0"><path d="M227.91801,162.4632c-4.39721,2.00641 -7.45329,6.44155 -7.45329,11.59047c0,7.03247 5.70093,12.7334 12.7334,12.7334c0.29757,0 0.59274,-0.01021 0.8852,-0.03029c-2.1032,1.39838 -4.62788,2.21316 -7.34286,2.21316c-7.33386,0 -13.27912,-5.94527 -13.27912,-13.27912c0,-7.33385 5.94526,-13.27912 13.27912,-13.27912c0.39682,0 0.78957,0.0174 1.17754,0.05149z" fill="url(#color-15)"/><path d="M257.48252,176.1456c0,5.57574 -4.52003,10.09577 -10.09577,10.09577c-3.8841,0 -7.25591,-2.1934 -8.94435,-5.40913c1.33393,1.53104 3.29804,2.49864 5.48814,2.49864c4.01854,0 7.27623,-3.25768 7.27623,-7.27623c0,-4.01854 -3.25768,-7.27623 -7.27623,-7.27623c-2.05182,0 -3.90528,0.84927 -5.22804,2.21547c1.7599,-2.96029 4.99041,-4.94407 8.68424,-4.94407c5.57574,0 10.09577,4.52003 10.09577,10.09577z" fill="url(#color-16)"/><path d="M231.95955,155.13548c0,4.52087 -3.66489,8.18576 -8.18576,8.18576c-3.26868,0 -6.08988,-1.91585 -7.40195,-4.68588c1.334,1.53356 3.29976,2.50301 5.49194,2.50301c4.01855,0 7.27623,-3.25768 7.27623,-7.27623c0,-3.21227 -2.08158,-5.93836 -4.96945,-6.90297c4.3366,0.20697 7.78898,3.78847 7.78898,8.17631z" data-paper-data="{&quot;index&quot;:null}" fill="url(#color-17)"/><path d="M251.77713,157.80545c-1.15305,-0.76749 -2.53757,-1.21474 -4.02656,-1.21474c-4.01854,0 -7.27623,3.25768 -7.27623,7.27623c0,0.83181 0.13957,1.63102 0.39659,2.37549c-1.41659,-1.28153 -2.3066,-3.13434 -2.3066,-5.19503c0,-3.86785 3.13552,-7.00337 7.00337,-7.00337c2.69805,0 5.03976,1.52571 6.20942,3.76142z" fill="url(#color-18)"/><path d="M256.73687,152.92229c0.27511,0.67371 0.52309,1.36518 0.74224,2.07353c4.05027,13.09133 -3.27896,26.98735 -16.37029,31.03762c-13.09133,4.05027 -26.98735,-3.27896 -31.03762,-16.37029c-1.49941,-4.84639 -1.43929,-9.80305 -0.10464,-14.32966c0.12567,0.53315 0.27047,1.06569 0.43481,1.59686c3.88383,12.55334 17.20877,19.58137 29.7621,15.69754c9.19111,-2.84359 15.4203,-10.74826 16.5734,-19.7056z" data-paper-data="{&quot;index&quot;:null}" fill="url(#color-19)"/><path d="M222.73698,190.32896c-10.78935,-8.44853 -12.68696,-24.04392 -4.23843,-34.83327c8.44853,-10.78935 24.04392,-12.68696 34.83327,-4.23843c3.9942,3.12764 6.76981,7.23471 8.25306,11.71483c-0.40713,-0.36646 -0.82962,-0.72151 -1.26739,-1.0643c-10.34595,-8.10133 -25.30043,-6.28171 -33.40176,4.06424c-5.93151,7.57494 -6.54474,17.62036 -2.38706,25.63768c-0.61004,-0.39678 -1.2079,-0.82363 -1.79168,-1.28075z" data-paper-data="{&quot;index&quot;:null}" fill="url(#color-20)"/><path d="M235.50831,188.96995c-0.17001,0 -0.33952,-0.0021 -0.50853,-0.00626c7.30444,-2.36268 12.58707,-9.22001 12.58707,-17.31116c0,-10.04638 -8.1442,-18.19057 -18.19057,-18.19057c-3.65739,0 -7.06267,1.07937 -9.91469,2.93695c3.69883,-4.79557 9.50201,-7.88478 16.02672,-7.88478c11.17157,0 20.22792,9.05634 20.22792,20.22792c0,11.17157 -9.05634,20.22792 -20.22792,20.22792z" fill="url(#color-21)"/><path d="M251.027,170.64865c-1.61086,-4.01734 -5.54124,-6.85446 -10.13427,-6.85446c-6.02782,0 -10.91434,4.88652 -10.91434,10.91434c0,5.74306 4.43573,10.45011 10.0681,10.88202c-0.96972,0.21178 -1.97691,0.32337 -3.01015,0.32337c-7.75581,0 -14.04312,-6.28732 -14.04312,-14.04312c0,-7.75581 6.28732,-14.04312 14.04312,-14.04312c7.34404,0 13.37138,5.63743 13.99067,12.82096z" fill="url(#color-22)"/><path d="M234.97851,183.27073c-7.02319,2.14703 -14.43531,-1.48202 -17.12765,-8.17066c2.71495,3.37089 7.30306,4.93501 11.69542,3.59224c5.76448,-1.76224 9.00893,-7.86384 7.2467,-13.62832c-1.67898,-5.49216 -7.29702,-8.69677 -12.80959,-7.4632c0.86544,-0.48602 1.796,-0.88719 2.7841,-1.18926c7.41696,-2.2674 15.2677,1.90714 17.5351,9.32409c2.2674,7.41696 -1.90714,15.2677 -9.32409,17.5351z" fill="url(#color-23)"/><path d="M234.46384,180.55844c0.01711,-0.24996 0.02581,-0.50224 0.02581,-0.75655c0,-6.02782 -4.88652,-10.91434 -10.91434,-10.91434c-0.67799,0 -1.34154,0.06182 -1.98533,0.18013c1.46249,-2.9525 4.50649,-4.98244 8.0246,-4.98244c4.94282,0 8.94976,4.00695 8.94976,8.94976c0,3.15566 -1.63322,5.92986 -4.1005,7.52344z" fill="url(#color-24)"/></g><g data-paper-data="{&quot;index&quot;:null}" stroke-width="0"><path d="M226.10217,194.41436c0.01281,-0.27193 0.03742,-0.54051 0.07332,-0.80527c1.23292,3.07809 4.17349,5.31558 7.70191,5.48188c4.81916,0.22713 8.90998,-3.49544 9.13711,-8.3146c0.0096,-0.20392 0.01214,-0.40652 0.00783,-0.60759c0.89034,1.48643 1.36715,3.24283 1.27946,5.10334c-0.23686,5.02569 -4.50302,8.9078 -9.5287,8.67094c-5.02569,-0.23686 -8.9078,-4.503 -8.67094,-9.52869z" fill="url(#color-25)"/><path d="M243.0988,181.03565c-0.12545,2.66167 -1.73743,4.90143 -3.99561,5.95461c1.09226,-0.86466 1.81877,-2.17935 1.88951,-3.68017c0.12979,-2.7538 -1.9974,-5.09142 -4.7512,-5.2212c-2.7538,-0.12979 -5.09142,1.9974 -5.2212,4.7512c-0.06627,1.40606 0.45585,2.70362 1.34935,3.65419c-1.97176,-1.30162 -3.22685,-3.57948 -3.10755,-6.11076c0.18008,-3.82089 3.42352,-6.77236 7.24442,-6.59229c3.8209,0.18008 6.77236,3.42352 6.59229,7.24442z" fill="url(#color-26)"/><path d="M215.42995,195.67636c0.28189,-2.96506 2.8477,-5.21522 5.85457,-5.0735c3.09803,0.14601 5.49111,2.77583 5.3451,5.87386c-0.10557,2.23994 -1.50957,4.11135 -3.45017,4.92102c1.094,-0.86463 1.82181,-2.18039 1.89262,-3.68264c0.12979,-2.7538 -1.9974,-5.09142 -4.7512,-5.2212c-2.20128,-0.10375 -4.13663,1.23466 -4.89092,3.18248z" data-paper-data="{&quot;index&quot;:null}" fill="url(#color-27)"/><path d="M220.97611,181.24231c0.08714,-1.8489 1.2083,-3.40433 2.77814,-4.13366c-0.56318,0.76536 -0.91439,1.69969 -0.96248,2.72005c-0.12979,2.7538 1.9974,5.09142 4.7512,5.2212c0.57001,0.02686 1.1222,-0.04297 1.64067,-0.19505c-0.92395,0.92936 -2.22237,1.47942 -3.63451,1.41286c-2.65054,-0.12492 -4.69795,-2.37487 -4.57303,-5.02541z" fill="url(#color-28)"/><path d="M222.01305,173.1105c9.10194,-2.35272 18.38779,3.11861 20.74051,12.22055c2.35272,9.10194 -3.11861,18.38779 -12.22055,20.74051c-3.36953,0.87097 -6.76424,0.66969 -9.8231,-0.3911c0.36941,-0.0689 0.73902,-0.15093 1.10832,-0.24639c8.72789,-2.25604 13.97438,-11.16027 11.71834,-19.88816c-1.65179,-6.39025 -6.86745,-10.91426 -12.96843,-11.99374c0.47056,-0.16677 0.95241,-0.31436 1.44491,-0.44167z" data-paper-data="{&quot;index&quot;:null}" fill="url(#color-29)"/><path d="M246.03933,196.87307c-0.2916,0.40523 -0.60342,0.80113 -0.93553,1.18643c-6.13802,7.12078 -16.88639,7.91747 -24.00717,1.77945c-7.12078,-6.13802 -7.91747,-16.8864 -1.77945,-24.00718c2.27229,-2.6361 5.1764,-4.40551 8.29441,-5.27724c-0.26427,0.26716 -0.52123,0.54522 -0.77027,0.83413c-5.88577,6.82814 -5.12182,17.13481 1.70632,23.02058c4.99932,4.30935 11.86337,5.05402 17.4917,2.46382z" data-paper-data="{&quot;index&quot;:null}" fill="url(#color-30)"/><path d="M231.37663,174.7488c7.65558,0.36081 13.56914,6.85937 13.20833,14.51495c-0.00549,0.1165 -0.0124,0.2326 -0.02072,0.34828c-1.38317,-5.08184 -5.91169,-8.92336 -11.45634,-9.18468c-6.88451,-0.32447 -12.72853,4.99349 -13.05301,11.87799c-0.11812,2.50631 0.51156,4.87472 1.69239,6.88913c-3.16681,-2.68959 -5.09633,-6.76613 -4.8856,-11.23734c0.36081,-7.65558 6.85937,-13.56914 14.51495,-13.20833z" fill="url(#color-31)"/><path d="M232.5311,178.03749c-2.80501,0.97413 -4.87614,3.57588 -5.02448,6.72336c-0.19468,4.1307 2.99609,7.63712 7.1268,7.83181c3.93556,0.18549 7.30442,-2.70218 7.78232,-6.54793c0.11381,0.67136 0.15776,1.36516 0.12438,2.07322c-0.25049,5.31484 -4.76208,9.4203 -10.07692,9.16981c-5.31483,-0.25049 -9.4203,-4.76208 -9.16981,-10.07692c0.23719,-5.03267 4.29504,-8.98096 9.23772,-9.17334z" fill="url(#color-32)"/><path d="M240.66236,189.44275c1.24447,4.88215 -1.48181,9.84426 -6.15231,11.47322c2.39767,-1.75161 3.6177,-4.84519 2.8394,-7.89853c-1.02144,-4.00716 -5.09792,-6.42756 -9.10507,-5.40613c-3.81784,0.97318 -6.19534,4.71957 -5.52804,8.53702c-0.30511,-0.60877 -0.54997,-1.25941 -0.72505,-1.94628c-1.31425,-5.15587 1.80002,-10.40094 6.95589,-11.71518c5.15587,-1.31425 10.40094,1.80002 11.71518,6.95589z" fill="url(#color-33)"/><path d="M238.78708,189.70784c-0.17074,-0.0198 -0.34334,-0.03391 -0.51761,-0.04212c-4.1307,-0.19468 -7.63712,2.99609 -7.83181,7.1268c-0.0219,0.46461 -0.00097,0.92132 0.05932,1.36631c-1.97603,-1.09756 -3.26878,-3.24909 -3.15515,-5.65995c0.15964,-3.38718 3.03491,-6.00362 6.42208,-5.84398c2.16249,0.10192 4.01082,1.31072 5.02317,3.05295z" fill="url(#color-34)"/></g><g data-paper-data="{&quot;index&quot;:null}" stroke-width="0"><path d="M242.8375,179.71638c0.01281,-0.27193 0.03742,-0.54051 0.07332,-0.80527c1.23292,3.07809 4.17349,5.31558 7.70191,5.48188c4.81916,0.22713 8.90998,-3.49544 9.13711,-8.3146c0.0096,-0.20392 0.01214,-0.40652 0.00783,-0.60759c0.89034,1.48643 1.36715,3.24283 1.27946,5.10334c-0.23686,5.02569 -4.50302,8.9078 -9.5287,8.67094c-5.02569,-0.23686 -8.9078,-4.503 -8.67094,-9.52869z" fill="url(#color-35)"/><path d="M259.83413,166.33767c-0.12545,2.66167 -1.73743,4.90143 -3.99561,5.95461c1.09226,-0.86466 1.81877,-2.17935 1.88951,-3.68017c0.12979,-2.7538 -1.9974,-5.09142 -4.7512,-5.2212c-2.7538,-0.12979 -5.09142,1.9974 -5.2212,4.7512c-0.06627,1.40606 0.45585,2.70362 1.34935,3.65419c-1.97176,-1.30162 -3.22685,-3.57948 -3.10755,-6.11076c0.18008,-3.82089 3.42352,-6.77236 7.24442,-6.59229c3.8209,0.18008 6.77236,3.42352 6.59229,7.24442z" fill="url(#color-36)"/><path d="M232.16528,180.97838c0.28189,-2.96506 2.8477,-5.21522 5.85457,-5.0735c3.09803,0.14601 5.49111,2.77583 5.3451,5.87386c-0.10557,2.23994 -1.50957,4.11135 -3.45017,4.92102c1.094,-0.86463 1.82181,-2.18039 1.89262,-3.68264c0.12979,-2.7538 -1.9974,-5.09142 -4.7512,-5.2212c-2.20128,-0.10375 -4.13663,1.23466 -4.89092,3.18248z" data-paper-data="{&quot;index&quot;:null}" fill="url(#color-37)"/><path d="M237.71143,166.54433c0.08714,-1.8489 1.2083,-3.40433 2.77814,-4.13366c-0.56318,0.76536 -0.91439,1.69969 -0.96248,2.72005c-0.12979,2.7538 1.9974,5.09142 4.7512,5.2212c0.57001,0.02686 1.1222,-0.04297 1.64067,-0.19505c-0.92395,0.92936 -2.22237,1.47942 -3.63451,1.41286c-2.65054,-0.12492 -4.69795,-2.37487 -4.57303,-5.02541z" fill="url(#color-38)"/><path d="M238.74838,158.41251c9.10194,-2.35272 18.38779,3.11861 20.74051,12.22055c2.35272,9.10194 -3.11861,18.38779 -12.22055,20.74051c-3.36953,0.87097 -6.76424,0.66969 -9.8231,-0.3911c0.36941,-0.0689 0.73902,-0.15093 1.10832,-0.24639c8.72789,-2.25604 13.97438,-11.16027 11.71834,-19.88816c-1.65179,-6.39025 -6.86745,-10.91426 -12.96843,-11.99374c0.47056,-0.16677 0.95241,-0.31436 1.44491,-0.44167z" data-paper-data="{&quot;index&quot;:null}" fill="url(#color-39)"/><path d="M262.77466,182.17509c-0.2916,0.40523 -0.60342,0.80113 -0.93553,1.18643c-6.13802,7.12078 -16.88639,7.91747 -24.00717,1.77945c-7.12078,-6.13802 -7.91747,-16.8864 -1.77945,-24.00718c2.27229,-2.6361 5.1764,-4.40551 8.29441,-5.27724c-0.26427,0.26716 -0.52123,0.54522 -0.77027,0.83413c-5.88577,6.82814 -5.12182,17.13481 1.70632,23.02058c4.99932,4.30935 11.86337,5.05402 17.4917,2.46382z" data-paper-data="{&quot;index&quot;:null}" fill="url(#color-40)"/><path d="M248.11196,160.05082c7.65558,0.36081 13.56914,6.85937 13.20833,14.51495c-0.00549,0.1165 -0.0124,0.2326 -0.02072,0.34828c-1.38317,-5.08184 -5.91169,-8.92336 -11.45634,-9.18468c-6.88451,-0.32447 -12.72853,4.99349 -13.05301,11.87799c-0.11812,2.50631 0.51156,4.87472 1.69239,6.88913c-3.16681,-2.68959 -5.09633,-6.76613 -4.8856,-11.23734c0.36081,-7.65558 6.85937,-13.56914 14.51495,-13.20833z" fill="url(#color-41)"/><path d="M249.26643,163.33951c-2.80501,0.97413 -4.87614,3.57588 -5.02448,6.72336c-0.19468,4.1307 2.99609,7.63712 7.1268,7.83181c3.93556,0.18549 7.30442,-2.70218 7.78232,-6.54793c0.11381,0.67136 0.15776,1.36516 0.12438,2.07322c-0.25049,5.31484 -4.76208,9.4203 -10.07692,9.16981c-5.31483,-0.25049 -9.4203,-4.76208 -9.16981,-10.07692c0.23719,-5.03267 4.29504,-8.98096 9.23772,-9.17334z" fill="url(#color-42)"/><path d="M257.39768,174.74477c1.24447,4.88215 -1.48181,9.84426 -6.15231,11.47322c2.39767,-1.75161 3.6177,-4.84519 2.8394,-7.89853c-1.02144,-4.00716 -5.09792,-6.42756 -9.10507,-5.40613c-3.81784,0.97318 -6.19534,4.71957 -5.52804,8.53702c-0.30511,-0.60877 -0.54997,-1.25941 -0.72505,-1.94628c-1.31425,-5.15587 1.80002,-10.40094 6.95589,-11.71518c5.15587,-1.31425 10.40094,1.80002 11.71518,6.95589z" fill="url(#color-43)"/><path d="M255.5224,175.00985c-0.17074,-0.0198 -0.34334,-0.03391 -0.51761,-0.04212c-4.1307,-0.19468 -7.63712,2.99609 -7.83181,7.1268c-0.0219,0.46461 -0.00097,0.92132 0.05932,1.36631c-1.97603,-1.09756 -3.26878,-3.24909 -3.15515,-5.65995c0.15964,-3.38718 3.03491,-6.00362 6.42208,-5.84398c2.16249,0.10192 4.01082,1.31072 5.02317,3.05295z" fill="url(#color-44)"/></g><g data-paper-data="{&quot;index&quot;:null}" stroke-width="0"><path d="M244.87484,197.0338c0.01281,-0.27193 0.03742,-0.54051 0.07332,-0.80527c1.23292,3.07809 4.17349,5.31558 7.70191,5.48188c4.81916,0.22713 8.90998,-3.49544 9.13711,-8.3146c0.0096,-0.20392 0.01214,-0.40652 0.00783,-0.60759c0.89034,1.48643 1.36715,3.24283 1.27946,5.10334c-0.23686,5.02569 -4.50302,8.9078 -9.5287,8.67094c-5.02569,-0.23686 -8.9078,-4.503 -8.67094,-9.52869z" fill="url(#color-45)"/><path d="M261.87147,183.6551c-0.12545,2.66167 -1.73743,4.90143 -3.99561,5.95461c1.09226,-0.86466 1.81877,-2.17935 1.88951,-3.68017c0.12979,-2.7538 -1.9974,-5.09142 -4.7512,-5.2212c-2.7538,-0.12979 -5.09142,1.9974 -5.2212,4.7512c-0.06627,1.40606 0.45585,2.70362 1.34935,3.65419c-1.97176,-1.30162 -3.22685,-3.57948 -3.10755,-6.11076c0.18008,-3.82089 3.42352,-6.77236 7.24442,-6.59229c3.8209,0.18008 6.77236,3.42352 6.59229,7.24442z" fill="url(#color-46)"/><path d="M234.20262,198.2958c0.28189,-2.96506 2.8477,-5.21522 5.85457,-5.0735c3.09803,0.14601 5.49111,2.77583 5.3451,5.87386c-0.10557,2.23994 -1.50957,4.11135 -3.45017,4.92102c1.094,-0.86463 1.82181,-2.18039 1.89262,-3.68264c0.12979,-2.7538 -1.9974,-5.09142 -4.7512,-5.2212c-2.20128,-0.10375 -4.13663,1.23466 -4.89092,3.18248z" data-paper-data="{&quot;index&quot;:null}" fill="url(#color-47)"/><path d="M239.74878,183.86176c0.08714,-1.8489 1.2083,-3.40433 2.77814,-4.13366c-0.56318,0.76536 -0.91439,1.69969 -0.96248,2.72005c-0.12979,2.7538 1.9974,5.09142 4.7512,5.2212c0.57001,0.02686 1.1222,-0.04297 1.64067,-0.19505c-0.92395,0.92936 -2.22237,1.47942 -3.63451,1.41286c-2.65054,-0.12492 -4.69795,-2.37487 -4.57303,-5.02541z" fill="url(#color-48)"/><path d="M240.78572,175.72994c9.10194,-2.35272 18.38779,3.11861 20.74051,12.22055c2.35272,9.10194 -3.11861,18.38779 -12.22055,20.74051c-3.36953,0.87097 -6.76424,0.66969 -9.8231,-0.3911c0.36941,-0.0689 0.73902,-0.15093 1.10832,-0.24639c8.72789,-2.25604 13.97438,-11.16027 11.71834,-19.88816c-1.65179,-6.39025 -6.86745,-10.91426 -12.96843,-11.99374c0.47056,-0.16677 0.95241,-0.31436 1.44491,-0.44167z" data-paper-data="{&quot;index&quot;:null}" fill="url(#color-49)"/><path d="M264.812,199.49252c-0.2916,0.40523 -0.60342,0.80113 -0.93553,1.18643c-6.13802,7.12078 -16.88639,7.91747 -24.00717,1.77945c-7.12078,-6.13802 -7.91747,-16.8864 -1.77945,-24.00718c2.27229,-2.6361 5.1764,-4.40551 8.29441,-5.27724c-0.26427,0.26716 -0.52123,0.54522 -0.77027,0.83413c-5.88577,6.82814 -5.12182,17.13481 1.70632,23.02058c4.99932,4.30935 11.86337,5.05402 17.4917,2.46382z" data-paper-data="{&quot;index&quot;:null}" fill="url(#color-50)"/><path d="M250.1493,177.36825c7.65558,0.36081 13.56914,6.85937 13.20833,14.51495c-0.00549,0.1165 -0.0124,0.2326 -0.02072,0.34828c-1.38317,-5.08184 -5.91169,-8.92336 -11.45634,-9.18468c-6.88451,-0.32447 -12.72853,4.99349 -13.05301,11.87799c-0.11812,2.50631 0.51156,4.87472 1.69239,6.88913c-3.16681,-2.68959 -5.09633,-6.76613 -4.8856,-11.23734c0.36081,-7.65558 6.85937,-13.56914 14.51495,-13.20833z" fill="url(#color-51)"/><path d="M251.30377,180.65693c-2.80501,0.97413 -4.87614,3.57588 -5.02448,6.72336c-0.19468,4.1307 2.99609,7.63712 7.1268,7.83181c3.93556,0.18549 7.30442,-2.70218 7.78232,-6.54793c0.11381,0.67136 0.15776,1.36516 0.12438,2.07322c-0.25049,5.31484 -4.76208,9.4203 -10.07692,9.16981c-5.31483,-0.25049 -9.4203,-4.76208 -9.16981,-10.07692c0.23719,-5.03267 4.29504,-8.98096 9.23772,-9.17334z" fill="url(#color-52)"/><path d="M259.43503,192.0622c1.24447,4.88215 -1.48181,9.84426 -6.15231,11.47322c2.39767,-1.75161 3.6177,-4.84519 2.8394,-7.89853c-1.02144,-4.00716 -5.09792,-6.42756 -9.10507,-5.40613c-3.81784,0.97318 -6.19534,4.71957 -5.52804,8.53702c-0.30511,-0.60877 -0.54997,-1.25941 -0.72505,-1.94628c-1.31425,-5.15587 1.80002,-10.40094 6.95589,-11.71518c5.15587,-1.31425 10.40094,1.80002 11.71518,6.95589z" fill="url(#color-53)"/><path d="M257.55975,192.32728c-0.17074,-0.0198 -0.34334,-0.03391 -0.51761,-0.04212c-4.1307,-0.19468 -7.63712,2.99609 -7.83181,7.1268c-0.0219,0.46461 -0.00097,0.92132 0.05932,1.36631c-1.97603,-1.09756 -3.26878,-3.24909 -3.15515,-5.65995c0.15964,-3.38718 3.03491,-6.00362 6.42208,-5.84398c2.16249,0.10192 4.01082,1.31072 5.02317,3.05295z" fill="url(#color-54)"/></g><g data-paper-data="{&quot;index&quot;:null}" stroke-width="0"><path d="M239.78195,162.9662c-0.01281,0.27193 -0.03742,0.54051 -0.07332,0.80527c-1.23292,-3.07809 -4.17349,-5.31558 -7.70191,-5.48188c-4.81916,-0.22713 -8.90998,3.49544 -9.13711,8.3146c-0.0096,0.20392 -0.01214,0.40652 -0.00783,0.60759c-0.89034,-1.48643 -1.36715,-3.24283 -1.27946,-5.10334c0.23686,-5.02569 4.50302,-8.9078 9.5287,-8.67094c5.02569,0.23686 8.9078,4.503 8.67094,9.52869z" fill="url(#color-55)"/><path d="M222.78532,176.3449c0.12545,-2.66167 1.73743,-4.90143 3.99561,-5.95461c-1.09226,0.86466 -1.81877,2.17935 -1.88951,3.68017c-0.12979,2.7538 1.9974,5.09142 4.7512,5.2212c2.7538,0.12979 5.09142,-1.9974 5.2212,-4.7512c0.06627,-1.40606 -0.45585,-2.70362 -1.34935,-3.65419c1.97176,1.30162 3.22685,3.57948 3.10755,6.11076c-0.18008,3.82089 -3.42352,6.77236 -7.24442,6.59229c-3.8209,-0.18008 -6.77236,-3.42352 -6.59229,-7.24442z" fill="url(#color-56)"/><path d="M250.45417,161.7042c-0.28189,2.96506 -2.8477,5.21522 -5.85457,5.0735c-3.09803,-0.14601 -5.49111,-2.77583 -5.3451,-5.87386c0.10557,-2.23994 1.50957,-4.11135 3.45017,-4.92102c-1.094,0.86463 -1.82181,2.18039 -1.89262,3.68264c-0.12979,2.7538 1.9974,5.09142 4.7512,5.2212c2.20128,0.10375 4.13663,-1.23466 4.89092,-3.18248z" data-paper-data="{&quot;index&quot;:null}" fill="url(#color-57)"/><path d="M244.90802,176.13824c-0.08714,1.8489 -1.2083,3.40433 -2.77814,4.13366c0.56318,-0.76536 0.91439,-1.69969 0.96248,-2.72005c0.12979,-2.7538 -1.9974,-5.09142 -4.7512,-5.2212c-0.57001,-0.02686 -1.1222,0.04297 -1.64067,0.19505c0.92395,-0.92936 2.22237,-1.47942 3.63451,-1.41286c2.65054,0.12492 4.69795,2.37487 4.57303,5.02541z" fill="url(#color-58)"/><path d="M243.87107,184.27006c-9.10194,2.35272 -18.38779,-3.11861 -20.74051,-12.22055c-2.35272,-9.10194 3.11861,-18.38779 12.22055,-20.74051c3.36953,-0.87097 6.76424,-0.66969 9.8231,0.3911c-0.36941,0.0689 -0.73902,0.15093 -1.10832,0.24639c-8.72789,2.25604 -13.97438,11.16027 -11.71834,19.88816c1.65179,6.39025 6.86745,10.91426 12.96843,11.99374c-0.47056,0.16677 -0.95241,0.31436 -1.44491,0.44167z" data-paper-data="{&quot;index&quot;:null}" fill="url(#color-59)"/><path d="M219.84479,160.50748c0.2916,-0.40523 0.60342,-0.80113 0.93553,-1.18643c6.13802,-7.12078 16.88639,-7.91747 24.00717,-1.77945c7.12078,6.13802 7.91747,16.8864 1.77945,24.00718c-2.27229,2.6361 -5.1764,4.40551 -8.29441,5.27724c0.26427,-0.26716 0.52123,-0.54522 0.77027,-0.83413c5.88577,-6.82814 5.12182,-17.13481 -1.70632,-23.02058c-4.99932,-4.30935 -11.86337,-5.05402 -17.4917,-2.46382z" data-paper-data="{&quot;index&quot;:null}" fill="url(#color-60)"/><path d="M234.50749,182.63175c-7.65558,-0.36081 -13.56914,-6.85937 -13.20833,-14.51495c0.00549,-0.1165 0.0124,-0.2326 0.02072,-0.34828c1.38317,5.08184 5.91169,8.92336 11.45634,9.18468c6.88451,0.32447 12.72853,-4.99349 13.05301,-11.87799c0.11812,-2.50631 -0.51156,-4.87472 -1.69239,-6.88913c3.16681,2.68959 5.09633,6.76613 4.8856,11.23734c-0.36081,7.65558 -6.85937,13.56914 -14.51495,13.20833z" fill="url(#color-61)"/><path d="M233.35302,179.34307c2.80501,-0.97413 4.87614,-3.57588 5.02448,-6.72336c0.19468,-4.1307 -2.99609,-7.63712 -7.1268,-7.83181c-3.93556,-0.18549 -7.30442,2.70218 -7.78232,6.54793c-0.11381,-0.67136 -0.15776,-1.36516 -0.12438,-2.07322c0.25049,-5.31484 4.76208,-9.4203 10.07692,-9.16981c5.31483,0.25049 9.4203,4.76208 9.16981,10.07692c-0.23719,5.03267 -4.29504,8.98096 -9.23772,9.17334z" fill="url(#color-62)"/><path d="M225.22176,167.93781c-1.24447,-4.88215 1.48181,-9.84426 6.15231,-11.47322c-2.39767,1.75161 -3.6177,4.84519 -2.8394,7.89853c1.02144,4.00716 5.09792,6.42756 9.10507,5.40613c3.81784,-0.97318 6.19534,-4.71957 5.52804,-8.53702c0.30511,0.60877 0.54997,1.25941 0.72505,1.94628c1.31425,5.15587 -1.80002,10.40094 -6.95589,11.71518c-5.15587,1.31425 -10.40094,-1.80002 -11.71518,-6.95589z" fill="url(#color-63)"/><path d="M227.09704,167.67272c0.17074,0.0198 0.34334,0.03391 0.51761,0.04212c4.1307,0.19468 7.63712,-2.99609 7.83181,-7.1268c0.0219,-0.46461 0.00097,-0.92132 -0.05932,-1.36631c1.97603,1.09756 3.26878,3.24909 3.15515,5.65995c-0.15964,3.38718 -3.03491,6.00362 -6.42208,5.84398c-2.16249,-0.10192 -4.01082,-1.31072 -5.02317,-3.05295z" fill="url(#color-64)"/></g><g data-paper-data="{&quot;index&quot;:null}" stroke-width="0"><path d="M237.96612,194.91736c4.39721,-2.00641 7.45329,-6.44155 7.45329,-11.59047c0,-7.03247 -5.70093,-12.7334 -12.7334,-12.7334c-0.29757,0 -0.59274,0.01021 -0.8852,0.03029c2.1032,-1.39838 4.62788,-2.21316 7.34286,-2.21316c7.33386,0 13.27912,5.94527 13.27912,13.27912c0,7.33385 -5.94526,13.27912 -13.27912,13.27912c-0.39682,0 -0.78957,-0.0174 -1.17754,-0.05149z" fill="url(#color-65)"/><path d="M208.4016,181.23496c0,-5.57574 4.52003,-10.09577 10.09577,-10.09577c3.8841,0 7.25591,2.1934 8.94435,5.40913c-1.33393,-1.53104 -3.29804,-2.49864 -5.48814,-2.49864c-4.01854,0 -7.27623,3.25768 -7.27623,7.27623c0,4.01854 3.25768,7.27623 7.27623,7.27623c2.05182,0 3.90528,-0.84927 5.22804,-2.21547c-1.7599,2.96029 -4.99041,4.94407 -8.68424,4.94407c-5.57574,0 -10.09577,-4.52003 -10.09577,-10.09577z" fill="url(#color-66)"/><path d="M233.92457,202.24508c0,-4.52087 3.66489,-8.18576 8.18576,-8.18576c3.26868,0 6.08988,1.91585 7.40195,4.68588c-1.334,-1.53356 -3.29976,-2.50301 -5.49194,-2.50301c-4.01855,0 -7.27623,3.25768 -7.27623,7.27623c0,3.21227 2.08158,5.93836 4.96945,6.90297c-4.3366,-0.20697 -7.78898,-3.78847 -7.78898,-8.17631z" data-paper-data="{&quot;index&quot;:null}" fill="url(#color-67)"/><path d="M214.107,199.57511c1.15305,0.76749 2.53757,1.21474 4.02656,1.21474c4.01854,0 7.27623,-3.25768 7.27623,-7.27623c0,-0.83181 -0.13957,-1.63102 -0.39659,-2.37549c1.41659,1.28153 2.3066,3.13434 2.3066,5.19503c0,3.86785 -3.13552,7.00337 -7.00337,7.00337c-2.69805,0 -5.03976,-1.52571 -6.20942,-3.76142z" fill="url(#color-68)"/><path d="M209.14725,204.45827c-0.27511,-0.67371 -0.52309,-1.36518 -0.74224,-2.07353c-4.05027,-13.09133 3.27896,-26.98735 16.37029,-31.03762c13.09133,-4.05027 26.98735,3.27896 31.03762,16.37029c1.49941,4.84639 1.43929,9.80305 0.10464,14.32966c-0.12567,-0.53315 -0.27047,-1.06569 -0.43481,-1.59686c-3.88383,-12.55334 -17.20877,-19.58137 -29.7621,-15.69754c-9.19111,2.84359 -15.4203,10.74826 -16.5734,19.7056z" data-paper-data="{&quot;index&quot;:null}" fill="url(#color-69)"/><path d="M243.14715,167.05159c10.78935,8.44853 12.68696,24.04392 4.23843,34.83327c-8.44853,10.78935 -24.04392,12.68696 -34.83327,4.23843c-3.9942,-3.12764 -6.76981,-7.23471 -8.25306,-11.71483c0.40713,0.36646 0.82962,0.72151 1.26739,1.0643c10.34595,8.10133 25.30043,6.28171 33.40176,-4.06424c5.93151,-7.57494 6.54474,-17.62036 2.38706,-25.63768c0.61004,0.39678 1.2079,0.82363 1.79168,1.28075z" data-paper-data="{&quot;index&quot;:null}" fill="url(#color-70)"/><path d="M230.37582,168.41061c0.17001,0 0.33952,0.0021 0.50853,0.00626c-7.30444,2.36268 -12.58707,9.22001 -12.58707,17.31116c0,10.04638 8.1442,18.19057 18.19057,18.19057c3.65739,0 7.06267,-1.07937 9.91469,-2.93695c-3.69883,4.79557 -9.50201,7.88478 -16.02672,7.88478c-11.17157,0 -20.22792,-9.05634 -20.22792,-20.22792c0,-11.17157 9.05634,-20.22792 20.22792,-20.22792z" fill="url(#color-71)"/><path d="M214.85712,186.73191c1.61086,4.01734 5.54124,6.85446 10.13427,6.85446c6.02782,0 10.91434,-4.88652 10.91434,-10.91434c0,-5.74306 -4.43573,-10.45011 -10.0681,-10.88202c0.96972,-0.21178 1.97691,-0.32337 3.01015,-0.32337c7.75581,0 14.04312,6.28732 14.04312,14.04312c0,7.75581 -6.28732,14.04312 -14.04312,14.04312c-7.34404,0 -13.37138,-5.63743 -13.99067,-12.82096z" fill="url(#color-72)"/><path d="M230.90561,174.10983c7.02319,-2.14703 14.43531,1.48202 17.12765,8.17066c-2.71495,-3.37089 -7.30306,-4.93501 -11.69542,-3.59224c-5.76448,1.76224 -9.00893,7.86384 -7.2467,13.62832c1.67898,5.49216 7.29702,8.69677 12.80959,7.4632c-0.86544,0.48602 -1.796,0.88719 -2.7841,1.18926c-7.41696,2.2674 -15.2677,-1.90714 -17.5351,-9.32409c-2.2674,-7.41696 1.90714,-15.2677 9.32409,-17.5351z" fill="url(#color-73)"/><path d="M231.42028,176.82211c-0.01711,0.24996 -0.02581,0.50224 -0.02581,0.75655c0,6.02782 4.88652,10.91434 10.91434,10.91434c0.67799,0 1.34154,-0.06182 1.98533,-0.18013c-1.46249,2.9525 -4.50649,4.98244 -8.0246,4.98244c-4.94282,0 -8.94976,-4.00695 -8.94976,-8.94976c0,-3.15566 1.63322,-5.92986 4.1005,-7.52344z" fill="url(#color-74)"/></g><g data-paper-data="{&quot;index&quot;:null}" stroke-width="0"><path d="M254.70144,180.21938c4.39721,-2.00641 7.45329,-6.44155 7.45329,-11.59047c0,-7.03247 -5.70093,-12.7334 -12.7334,-12.7334c-0.29757,0 -0.59274,0.01021 -0.8852,0.03029c2.1032,-1.39838 4.62788,-2.21316 7.34286,-2.21316c7.33386,0 13.27912,5.94527 13.27912,13.27912c0,7.33385 -5.94526,13.27912 -13.27912,13.27912c-0.39682,0 -0.78957,-0.0174 -1.17754,-0.05149z" fill="url(#color-75)"/><path d="M225.13693,166.53698c0,-5.57574 4.52003,-10.09577 10.09577,-10.09577c3.8841,0 7.25591,2.1934 8.94435,5.40913c-1.33393,-1.53104 -3.29804,-2.49864 -5.48814,-2.49864c-4.01854,0 -7.27623,3.25768 -7.27623,7.27623c0,4.01854 3.25768,7.27623 7.27623,7.27623c2.05182,0 3.90528,-0.84927 5.22804,-2.21547c-1.7599,2.96029 -4.99041,4.94407 -8.68424,4.94407c-5.57574,0 -10.09577,-4.52003 -10.09577,-10.09577z" fill="url(#color-76)"/><path d="M250.6599,187.54709c0,-4.52087 3.66489,-8.18576 8.18576,-8.18576c3.26868,0 6.08988,1.91585 7.40195,4.68588c-1.334,-1.53356 -3.29976,-2.50301 -5.49194,-2.50301c-4.01855,0 -7.27623,3.25768 -7.27623,7.27623c0,3.21227 2.08158,5.93836 4.96945,6.90297c-4.3366,-0.20697 -7.78898,-3.78847 -7.78898,-8.17631z" data-paper-data="{&quot;index&quot;:null}" fill="url(#color-77)"/><path d="M230.84232,184.87713c1.15305,0.76749 2.53757,1.21474 4.02656,1.21474c4.01854,0 7.27623,-3.25768 7.27623,-7.27623c0,-0.83181 -0.13957,-1.63102 -0.39659,-2.37549c1.41659,1.28153 2.3066,3.13434 2.3066,5.19503c0,3.86785 -3.13552,7.00337 -7.00337,7.00337c-2.69805,0 -5.03976,-1.52571 -6.20942,-3.76142z" fill="url(#color-78)"/><path d="M225.88258,189.76029c-0.27511,-0.67371 -0.52309,-1.36518 -0.74224,-2.07353c-4.05027,-13.09133 3.27896,-26.98735 16.37029,-31.03762c13.09133,-4.05027 26.98735,3.27896 31.03762,16.37029c1.49941,4.84639 1.43929,9.80305 0.10464,14.32966c-0.12567,-0.53315 -0.27047,-1.06569 -0.43481,-1.59686c-3.88383,-12.55334 -17.20877,-19.58137 -29.7621,-15.69754c-9.19111,2.84359 -15.4203,10.74826 -16.5734,19.7056z" data-paper-data="{&quot;index&quot;:null}" fill="url(#color-79)"/><path d="M259.88247,152.35361c10.78935,8.44853 12.68696,24.04392 4.23843,34.83327c-8.44853,10.78935 -24.04392,12.68696 -34.83327,4.23843c-3.9942,-3.12764 -6.76981,-7.23471 -8.25306,-11.71483c0.40713,0.36646 0.82962,0.72151 1.26739,1.0643c10.34595,8.10133 25.30043,6.28171 33.40176,-4.06424c5.93151,-7.57494 6.54474,-17.62036 2.38706,-25.63768c0.61004,0.39678 1.2079,0.82363 1.79168,1.28075z" data-paper-data="{&quot;index&quot;:null}" fill="url(#color-80)"/><path d="M247.11114,153.71263c0.17001,0 0.33952,0.0021 0.50853,0.00626c-7.30444,2.36268 -12.58707,9.22001 -12.58707,17.31116c0,10.04638 8.1442,18.19057 18.19057,18.19057c3.65739,0 7.06267,-1.07937 9.91469,-2.93695c-3.69883,4.79557 -9.50201,7.88478 -16.02672,7.88478c-11.17157,0 -20.22792,-9.05634 -20.22792,-20.22792c0,-11.17157 9.05634,-20.22792 20.22792,-20.22792z" fill="url(#color-81)"/><path d="M231.59245,172.03393c1.61086,4.01734 5.54124,6.85446 10.13427,6.85446c6.02782,0 10.91434,-4.88652 10.91434,-10.91434c0,-5.74306 -4.43573,-10.45011 -10.0681,-10.88202c0.96972,-0.21178 1.97691,-0.32337 3.01015,-0.32337c7.75581,0 14.04312,6.28732 14.04312,14.04312c0,7.75581 -6.28732,14.04312 -14.04312,14.04312c-7.34404,0 -13.37138,-5.63743 -13.99067,-12.82096z" fill="url(#color-82)"/><path d="M247.64094,159.41184c7.02319,-2.14703 14.43531,1.48202 17.12765,8.17066c-2.71495,-3.37089 -7.30306,-4.93501 -11.69542,-3.59224c-5.76448,1.76224 -9.00893,7.86384 -7.2467,13.62832c1.67898,5.49216 7.29702,8.69677 12.80959,7.4632c-0.86544,0.48602 -1.796,0.88719 -2.7841,1.18926c-7.41696,2.2674 -15.2677,-1.90714 -17.5351,-9.32409c-2.2674,-7.41696 1.90714,-15.2677 9.32409,-17.5351z" fill="url(#color-83)"/><path d="M248.15561,162.12413c-0.01711,0.24996 -0.02581,0.50224 -0.02581,0.75655c0,6.02782 4.88652,10.91434 10.91434,10.91434c0.67799,0 1.34154,-0.06182 1.98533,-0.18013c-1.46249,2.9525 -4.50649,4.98244 -8.0246,4.98244c-4.94282,0 -8.94976,-4.00695 -8.94976,-8.94976c0,-3.15566 1.63322,-5.92986 4.1005,-7.52344z" fill="url(#color-84)"/></g></g></g></svg>